;TYPE=PLATED
;Layer: PTH_Through
;EasyEDA Pro v2.2.32.3, 2024-12-28 23:04:40
;Gerber Generator version 0.3
M48
METRIC,LZ,000.00000
;Hole size 1 = 0.30500 METRIC
T01C0.30500
;Hole size 2 = 1.00000 METRIC
T02C1.00000
%
G05
G90
T01
X11.97102Y22.47875
X12.98702Y31.11475
X14.19098Y15.87475
X19.52498Y10.54075
X31.238Y10.37101
X27.067Y6.985
X12.573Y8.509
X29.587Y10.91101
X16.74017Y20.86051
X17.50217Y24.92451
X15.99418Y16.79651
X16.75618Y22.38451
X18.399Y9.525
X18.431Y28.575
X25.289Y25.019
X15.28926Y34.671
X39.878Y23.114
X27.00706Y30.28493
X34.88106Y38.41293
X16.891Y27.051
X24.22093Y22.80107
X29.30093Y27.88107
X39.19812Y16.43781
X24.72012Y19.48581
X16.891Y25.527
X22.86Y19.558
X24.638Y22.098
X19.939Y23.495
X23.622Y24.892
X29.718Y28.956
X27.94Y30.226
X21.844Y22.352
X17.37397Y17.28102
X7.97597Y17.02702
X7.40593Y9.68451
X27.21793Y9.68451
X32.131Y9.525
X27.02968Y21.209
X20.93368Y25.019
X33.401Y16.256
X27.77263Y21.59
X20.40663Y26.416
T02
X7.493Y38.227
X10.033Y38.227
X7.493Y35.687
X10.033Y35.687
X7.493Y33.147
X10.033Y33.147
X7.493Y30.607
X10.033Y30.607
X7.493Y28.067
X10.033Y28.067
X7.493Y25.527
X10.033Y25.527
X7.493Y22.987
X10.033Y22.987
X7.493Y20.447
X10.033Y20.447
X40.386Y39.624
X40.386Y37.084
X40.386Y34.544
X40.386Y32.004
X40.386Y29.464
X40.386Y26.924
X40.386Y24.384
X40.386Y21.844
M30