G04 Layer: TopLayer*
G04 EasyEDA Pro v2.2.32.3, 2024-12-28 23:04:40*
G04 Gerber Generator version 0.3*
G04 Scale: 100 percent, Rotated: No, Reflected: No*
G04 Dimensions in millimeters*
G04 Leading zeros omitted, absolute positions, 3 integers and 5 decimals*
%FSLAX35Y35*%
%MOMM*%
%ADD10C,0.2032*%
%ADD11C,0.254*%
%ADD12R,0.84501X0.41999*%
%ADD13R,0.6X1.55001*%
%ADD14R,1.5X2.0*%
%ADD15C,1.9139*%
%ADD16C,1.905*%
%ADD17R,1.39954X1.0*%
%ADD18C,1.8*%
%ADD19R,1.8X1.8*%
%ADD20R,1.5X1.5*%
%ADD21C,1.5*%
%ADD22R,1.37701X1.13254*%
%ADD23R,1.13254X1.37701*%
%ADD24R,1.37701X1.13254*%
%ADD25O,3.048X1.524*%
%ADD26R,2.0X1.3*%
%ADD27R,1.3X2.0*%
%ADD28R,1.3X2.0*%
%ADD29O,1.524X3.048*%
%ADD30C,0.61*%
%ADD31C,0.243*%
G75*


G04 Copper Start*
G36*
G01X423582Y553949D02*
G01X423582Y390037D01*
G02X416814Y419100I59018J29063D01*
G01X416814Y4076700D01*
G02X482600Y4142486I65786J0D01*
G01X4241800Y4142486D01*
G02X4307586Y4076700I0J-65786D01*
G01X4307586Y419100D01*
G02X4241800Y353314I-65786J0D01*
G01X3378977Y353314D01*
G01X3378977Y550701D01*
G03X3343163Y586515I-35814J0D01*
G01X3193164Y586515D01*
G03X3157350Y550701I0J-35814D01*
G01X3157350Y353314D01*
G01X2618984Y353314D01*
G01X2618984Y550701D01*
G03X2583170Y586515I-35814J0D01*
G01X2433170Y586515D01*
G03X2397356Y550701I0J-35814D01*
G01X2397356Y353314D01*
G01X2395797Y353314D01*
G01X2395803Y353949D01*
G01X2395803Y553949D01*
G03X2359989Y589763I-35814J0D01*
G01X2209989Y589763D01*
G03X2174175Y553949I0J-35814D01*
G01X2174175Y353949D01*
G01X2174181Y353314D01*
G01X1635804Y353314D01*
G01X1635810Y353949D01*
G01X1635810Y553949D01*
G03X1599996Y589763I-35814J0D01*
G01X1449996Y589763D01*
G03X1414182Y553949I0J-35814D01*
G01X1414182Y353949D01*
G01X1414187Y353314D01*
G01X1405197Y353314D01*
G01X1405203Y353949D01*
G01X1405203Y553949D01*
G03X1369389Y589763I-35814J0D01*
G01X1219389Y589763D01*
G03X1183575Y553949I0J-35814D01*
G01X1183575Y353949D01*
G01X1183581Y353314D01*
G01X645204Y353314D01*
G01X645210Y353949D01*
G01X645210Y553949D01*
G03X609396Y589763I-35814J0D01*
G01X459396Y589763D01*
G03X423582Y553949I0J-35814D01*
G37*
%LPC*%
G36*
G01X867393Y2214406D02*
G01X841993Y2189006D01*
G03X827783Y2154701I34305J-34305D01*
G01X827783Y2143033D01*
G03X623486Y2044700I-78483J-98333D01*
G03X827783Y1946367I125814J0D01*
G01X827783Y1761748D01*
G03X733152Y1718335I-30186J-59045D01*
G03X797376Y1636389I64445J-15632D01*
G01X750286Y1589299D01*
G03X605821Y1376225I-51789J-120398D01*
G03X818895Y1520690I92676J92676D01*
G01X910602Y1612396D01*
G03X924811Y1646701I-34305J34305D01*
G01X924811Y1918886D01*
G01X1093300Y1918886D01*
G03X1097788Y1919169I0J35814D01*
G01X1097788Y1592936D01*
G03X1068238Y1557674I6264J-35262D01*
G01X1068238Y1515675D01*
G03X1104052Y1479861I35814J0D01*
G01X1129419Y1479861D01*
G01X795328Y1145770D01*
G01X764623Y1145770D01*
G03X730318Y1131561I0J-48514D01*
G01X550713Y951956D01*
G03X536504Y917651I34305J-34305D01*
G01X536504Y765251D01*
G03X550713Y730947I48514J0D01*
G01X601513Y680147D01*
G03X635818Y665937I34305J34305D01*
G01X788218Y665937D01*
G03X822522Y680147I0J48514D01*
G01X870513Y728137D01*
G01X894418Y728137D01*
G03X914418Y734241I0J35814D01*
G03X934418Y728137I20000J29709D01*
G01X994418Y728137D01*
G03X1014418Y734241I0J35814D01*
G03X1034418Y728137I20000J29709D01*
G01X1094417Y728137D01*
G03X1114417Y734241I0J35814D01*
G03X1134417Y728137I20000J29709D01*
G01X1194417Y728137D01*
G03X1230231Y763951I0J35814D01*
G01X1230231Y790362D01*
G03X1254964Y784627I27069J60538D01*
G01X1349995Y689595D01*
G03X1384300Y675386I34305J34305D01*
G01X1688267Y675386D01*
G03X1722571Y689595I0J48514D01*
G01X1761113Y728137D01*
G01X1785018Y728137D01*
G03X1805018Y734241I0J35814D01*
G03X1825018Y728137I20000J29709D01*
G01X1885018Y728137D01*
G03X1905018Y734241I0J35814D01*
G03X1925018Y728137I20000J29709D01*
G01X1985018Y728137D01*
G03X2005018Y734241I0J35814D01*
G03X2025018Y728137I20000J29709D01*
G01X2085017Y728137D01*
G03X2105017Y734241I0J35814D01*
G03X2125017Y728137I20000J29709D01*
G01X2185017Y728137D01*
G03X2220831Y763951I0J35814D01*
G01X2220831Y918952D01*
G03X2185017Y954766I-35814J0D01*
G01X2171216Y954766D01*
G01X2108229Y1017753D01*
G03X2159000Y1005586I50771J99847D01*
G01X2311400Y1005586D01*
G03X2311400Y1229614I0J112014D01*
G01X2159000Y1229614D01*
G03X2058037Y1166114I0J-112014D01*
G01X1866900Y1166114D01*
G03X1832595Y1151905I0J-48514D01*
G01X1652990Y972299D01*
G03X1641772Y954766I34305J-34305D01*
G01X1624993Y954766D01*
G03X1589179Y918952I0J-35814D01*
G01X1589179Y772414D01*
G01X1404395Y772414D01*
G01X1323573Y853236D01*
G03X1230231Y911438I-66273J-2336D01*
G01X1230231Y918952D01*
G03X1194417Y954766I-35814J0D01*
G01X1134417Y954766D01*
G03X1114417Y948661I0J-35814D01*
G01X1113704Y949129D01*
G01X1708322Y1543747D01*
G03X1722531Y1578051I-34305J34305D01*
G01X1722531Y1663476D01*
G03X1803711Y1728103I14866J64626D01*
G03X1722531Y1792729I-66314J0D01*
G01X1722531Y2040841D01*
G03X1738721Y2071526I-48514J45210D01*
G03X1737201Y2106187I-64704J14525D01*
G01X2354802Y2106187D01*
G01X2449892Y2011097D01*
G03X2425121Y1901690I22120J-62516D01*
G03X2534528Y1926461I46891J46891D01*
G01X2543793Y1917196D01*
G03X2578097Y1902987I34305J34305D01*
G01X2612380Y1902987D01*
G01X2492841Y1783448D01*
G01X2490700Y1783512D01*
G01X2360700Y1783512D01*
G03X2329845Y1765880I0J-35814D01*
G01X2261297Y1834428D01*
G03X2226992Y1848637I-34305J-34305D01*
G01X2070100Y1848637D01*
G03X2035795Y1834428I0J-48514D01*
G01X1984841Y1783473D01*
G01X1982700Y1783537D01*
G01X1852700Y1783537D01*
G03X1816886Y1747723I0J-35814D01*
G01X1816886Y1547724D01*
G03X1852700Y1511910I35814J0D01*
G01X1982700Y1511910D01*
G03X2018514Y1547724I0J35814D01*
G01X2018514Y1679928D01*
G01X2070886Y1732300D01*
G01X2070886Y1547698D01*
G03X2106700Y1511884I35814J0D01*
G01X2197503Y1511884D01*
G01X2685460Y1023926D01*
G03X2657677Y951518I36332J-55475D01*
G01X2608167Y951518D01*
G03X2572353Y915704I0J-35814D01*
G01X2572353Y760703D01*
G03X2608167Y724889I35814J0D01*
G01X2645863Y724889D01*
G03X2651074Y662399I60837J-26389D01*
G03X2706025Y632189I55626J36101D01*
G03X2732100Y624586I26075J40911D01*
G01X3911600Y624586D01*
G03X3945905Y638795I0J48514D01*
G01X4044590Y737481D01*
G03X4239514Y812800I82910J75319D01*
G01X4239514Y965200D01*
G03X4015486Y965200I-112014J0D01*
G01X4015486Y845595D01*
G01X3891505Y721614D01*
G01X3252938Y721614D01*
G03X3261614Y749300I-39838J27686D01*
G01X3261614Y907290D01*
G03X3268735Y988587I-48514J45210D01*
G01X3466254Y988587D01*
G03X3500559Y1002796I0J48514D01*
G01X3734570Y1236807D01*
G01X3821751Y1236807D01*
G03X3857565Y1272621I0J35814D01*
G01X3857565Y1372621D01*
G03X3821751Y1408435I-35814J0D01*
G01X3681797Y1408435D01*
G03X3645983Y1372621I0J-35814D01*
G01X3645983Y1285439D01*
G01X3446159Y1085615D01*
G01X3169010Y1085615D01*
G03X3086706Y1092070I-45210J-48514D01*
G01X3086706Y1303597D01*
G01X3342436Y1559327D01*
G03X3386991Y1672491I-2336J66273D01*
G03X3273827Y1627936I-46891J-46891D01*
G01X3007214Y1361323D01*
G01X3007214Y1419609D01*
G01X3293493Y1705888D01*
G01X3425698Y1705888D01*
G03X3461512Y1741702I0J35814D01*
G01X3461512Y1858086D01*
G01X3599405Y1858086D01*
G01X3641835Y1815656D01*
G01X3641835Y1722973D01*
G03X3677649Y1687159I35814J0D01*
G01X3804860Y1687159D01*
G01X3804860Y1654374D01*
G01X3768979Y1618493D01*
G01X3681797Y1618493D01*
G03X3645983Y1582679I0J-35814D01*
G01X3645983Y1482679D01*
G03X3681797Y1446865I35814J0D01*
G01X3821751Y1446865D01*
G03X3857565Y1482679I0J35814D01*
G01X3857565Y1569861D01*
G01X3879122Y1591418D01*
G03X3918277Y1577485I40690J52363D01*
G01X3987496Y1508266D01*
G03X4017221Y1494401I33916J33916D01*
G01X4017221Y1492181D01*
G03X4053035Y1456367I35814J0D01*
G01X4176098Y1456367D01*
G01X4176098Y1453818D01*
G01X4140217Y1417937D01*
G01X4053035Y1417937D01*
G03X4017221Y1382123I0J-35814D01*
G01X4017221Y1282123D01*
G03X4053035Y1246309I35814J0D01*
G01X4192989Y1246309D01*
G03X4228803Y1282123I0J35814D01*
G01X4228803Y1369305D01*
G01X4258916Y1399419D01*
G03X4273126Y1433723I-34305J34305D01*
G01X4273126Y1673034D01*
G03X4281841Y1696449I-27099J23415D01*
G01X4281841Y1834151D01*
G03X4246027Y1869965I-35814J0D01*
G01X4132773Y1869965D01*
G03X4096959Y1834151I0J-35814D01*
G01X4096959Y1696449D01*
G03X4132773Y1660635I35814J0D01*
G01X4176098Y1660635D01*
G01X4176098Y1627995D01*
G01X4053035Y1627995D01*
G03X4021772Y1609653I0J-35814D01*
G01X3986108Y1645316D01*
G03X3983948Y1660635I-66296J-1535D01*
G01X4046027Y1660635D01*
G03X4081841Y1696449I0J35814D01*
G01X4081841Y1834151D01*
G03X4046027Y1869965I-35814J0D01*
G01X3932773Y1869965D01*
G03X3901888Y1852282I0J-35814D01*
G01X3901888Y1872725D01*
G03X3887679Y1907030I-48514J0D01*
G01X3851165Y1943544D01*
G01X3851165Y2036227D01*
G03X3815351Y2072041I-35814J0D01*
G01X3677649Y2072041D01*
G03X3641835Y2036227I0J-35814D01*
G01X3641835Y1949667D01*
G03X3619500Y1955114I-22335J-43067D01*
G01X3499521Y1955114D01*
G01X3512403Y1967996D01*
G03X3526612Y2002301I-34305J34305D01*
G01X3526612Y2162302D01*
G03X3512403Y2196607I-48514J0D01*
G01X3461448Y2247561D01*
G01X3461512Y2249702D01*
G01X3461512Y2378786D01*
G01X3591035Y2378786D01*
G01X3591035Y2370673D01*
G03X3626849Y2334859I35814J0D01*
G01X3764551Y2334859D01*
G03X3800365Y2370673I0J35814D01*
G01X3800365Y2483927D01*
G03X3764551Y2519741I-35814J0D01*
G01X3626849Y2519741D01*
G03X3591035Y2483927I0J-35814D01*
G01X3591035Y2475814D01*
G01X3448168Y2475814D01*
G03X3461512Y2503702I-22470J27888D01*
G01X3461512Y2633702D01*
G03X3425698Y2669516I-35814J0D01*
G01X3241072Y2669516D01*
G01X3242401Y2670795D01*
G01X3293493Y2721888D01*
G01X3425698Y2721888D01*
G03X3461512Y2757702I0J35814D01*
G01X3461512Y2872279D01*
G01X3615798Y2717993D01*
G03X3591035Y2683927I11051J-34066D01*
G01X3591035Y2570673D01*
G03X3626849Y2534859I35814J0D01*
G01X3764551Y2534859D01*
G03X3800365Y2570673I0J35814D01*
G01X3800365Y2683927D01*
G03X3764551Y2719741I-35814J0D01*
G01X3742429Y2719741D01*
G03X3730005Y2741005I-46729J-13040D01*
G01X3673879Y2797131D01*
G01X3761553Y2797131D01*
G03X3797367Y2832945I0J35814D01*
G01X3797367Y2946198D01*
G03X3761553Y2982012I-35814J0D01*
G01X3668871Y2982012D01*
G01X3653753Y2997130D01*
G01X3761553Y2997130D01*
G03X3797367Y3032944I0J35814D01*
G01X3797367Y3125626D01*
G01X3828607Y3156866D01*
G03X3842817Y3191171I-34305J34305D01*
G01X3842817Y3419771D01*
G03X3828607Y3454075I-48514J0D01*
G01X3803207Y3479475D01*
G03X3799108Y3483135I-34305J-34305D01*
G03X3799801Y3490144I-35121J7009D01*
G01X3799801Y3582826D01*
G01X3831041Y3614066D01*
G03X3845250Y3648371I-34305J34305D01*
G01X3845250Y4051300D01*
G03X3831041Y4085605I-48514J0D01*
G01X3805641Y4111005D01*
G03X3771336Y4125214I-34305J-34305D01*
G01X1460500Y4125214D01*
G03X1426195Y4111005I0J-48514D01*
G01X1128784Y3813593D01*
G03X956889Y3939641I-125484J9107D01*
G03X918213Y3730022I46411J-116941D01*
G01X841995Y3653805D01*
G01X841870Y3653680D01*
G03X660336Y3657664I-92676J-84982D01*
G03X664213Y3476022I88964J-88964D01*
G01X664106Y3475915D01*
G01X587995Y3399805D01*
G03X573786Y3365500I34305J-34305D01*
G01X573786Y2933700D01*
G03X587995Y2899395I48514J0D01*
G01X632912Y2854479D01*
G03X838264Y2717736I116388J-47779D01*
G03X701521Y2923088I-88964J88964D01*
G01X670814Y2953795D01*
G01X670814Y2962369D01*
G03X865688Y3108479I78486J98331D01*
G01X910605Y3153395D01*
G03X924814Y3187700I-34305J34305D01*
G01X924814Y3216369D01*
G03X1051079Y3198312I78486J98331D01*
G01X1328206Y2921185D01*
G03X1362510Y2906976I34305J34305D01*
G01X1395517Y2906976D01*
G03X1389888Y2887702I30185J-19274D01*
G01X1389888Y2757702D01*
G03X1425702Y2721888I35814J0D01*
G01X1624946Y2721888D01*
G03X1633732Y2668604I64154J-16788D01*
G03X1625702Y2669516I-8031J-34902D01*
G01X1425702Y2669516D01*
G03X1389888Y2633702I0J-35814D01*
G01X1389888Y2503702D01*
G03X1403232Y2475814I35814J0D01*
G01X1402795Y2475814D01*
G01X1119688Y2758921D01*
G03X914336Y2895664I-116388J47779D01*
G03X1051079Y2690312I88964J-88964D01*
G01X1348395Y2392996D01*
G03X1382700Y2378786I34305J34305D01*
G01X1389888Y2378786D01*
G01X1389888Y2268520D01*
G01X1317002Y2341406D01*
G03X1282697Y2355615I-34305J-34305D01*
G01X1155697Y2355615D01*
G03X1121578Y2341589I0J-48514D01*
G03X946349Y2410886I-118278J-42889D01*
G03X898870Y2228533I56951J-112186D01*
G03X867393Y2214406I2828J-48432D01*
G37*
G36*
G01X749300Y3696886D02*
G03X749300Y3948514I0J125814D01*
G03X749300Y3696886I0J-125814D01*
G37*
G36*
G01X749300Y2426886D02*
G03X749300Y2678514I0J125814D01*
G03X749300Y2426886I0J-125814D01*
G37*
G36*
G01X749300Y2172886D02*
G03X749300Y2424514I0J125814D01*
G03X749300Y2172886I0J-125814D01*
G37*
G36*
G01X1003300Y2426886D02*
G03X1003300Y2678514I0J125814D01*
G03X1003300Y2426886I0J-125814D01*
G37*
G36*
G01X1003300Y2934886D02*
G03X1003300Y3186514I0J125814D01*
G03X1003300Y2934886I0J-125814D01*
G37*
G36*
G01X2219686Y1955800D02*
G03X2352314Y1955800I66314J0D01*
G03X2219686Y1955800I-66314J0D01*
G37*
G36*
G01X3927786Y3887400D02*
G03X3963600Y3851586I35814J0D01*
G01X4113600Y3851586D01*
G03X4149414Y3887400I0J35814D01*
G01X4149414Y4037400D01*
G03X4113600Y4073214I-35814J0D01*
G01X3963600Y4073214D01*
G03X3927786Y4037400I0J-35814D01*
G01X3927786Y3887400D01*
G37*
G36*
G01X4038600Y3819214D02*
G03X4038600Y3597586I0J-110814D01*
G03X4038600Y3819214I0J110814D01*
G37*
G36*
G01X4038600Y2803214D02*
G03X4038600Y2581586I0J-110814D01*
G03X4038600Y2803214I0J110814D01*
G37*
G36*
G01X4038600Y3057214D02*
G03X4038600Y2835586I0J-110814D01*
G03X4038600Y3057214I0J110814D01*
G37*
G36*
G01X4038600Y3311214D02*
G03X4038600Y3089586I0J-110814D01*
G03X4038600Y3311214I0J110814D01*
G37*
G36*
G01X4038600Y3565214D02*
G03X4038600Y3343586I0J-110814D01*
G03X4038600Y3565214I0J110814D01*
G37*
G36*
G01X4038600Y2549214D02*
G03X4038600Y2327586I0J-110814D01*
G03X4038600Y2549214I0J110814D01*
G37*
G36*
G01X4038600Y2295214D02*
G03X4038600Y2073586I0J-110814D01*
G03X4038600Y2295214I0J110814D01*
G37*
%LPD*%
G36*
G01X827786Y3216369D02*
G01X827786Y3207795D01*
G01X797079Y3177088D01*
G03X670814Y3159031I-47779J-116388D01*
G01X670814Y3216369D01*
G03X827786Y3216369I78486J98331D01*
G37*
G36*
G01X1347216Y3591607D02*
G01X1389888Y3634279D01*
G01X1389888Y3519702D01*
G03X1425702Y3483888I35814J0D01*
G01X1625702Y3483888D01*
G03X1661516Y3519702I0J35814D01*
G01X1661516Y3649702D01*
G03X1625702Y3685516I-35814J0D01*
G01X1441125Y3685516D01*
G01X1493497Y3737888D01*
G01X1625702Y3737888D01*
G03X1661516Y3773702I0J35814D01*
G01X1661516Y3903702D01*
G01X1661499Y3904796D01*
G01X3189901Y3904796D01*
G01X3189884Y3903702D01*
G01X3189884Y3773702D01*
G01X3189948Y3771561D01*
G01X3151525Y3733138D01*
G03X3137315Y3698833I34305J-34305D01*
G01X3137315Y3495971D01*
G03X3151525Y3461666I48514J0D01*
G01X3196604Y3416587D01*
G03X3189884Y3395702I29094J-20885D01*
G01X3189884Y3265702D01*
G03X3205374Y3236214I35814J0D01*
G01X1848720Y3236214D01*
G03X1814416Y3222005I0J-48514D01*
G01X1661516Y3069104D01*
G01X1661516Y3141702D01*
G03X1625702Y3177516I-35814J0D01*
G01X1425702Y3177516D01*
G03X1389888Y3141702I0J-35814D01*
G01X1389888Y3011702D01*
G03X1390725Y3004004I35814J0D01*
G01X1382605Y3004004D01*
G01X1332305Y3054305D01*
G03X1347216Y3156685I-33603J57170D01*
G01X1347216Y3591607D01*
G37*
%LPC*%
G36*
G01X1661516Y3395702D02*
G03X1625702Y3431516I-35814J0D01*
G01X1425702Y3431516D01*
G03X1389888Y3395702I0J-35814D01*
G01X1389888Y3265702D01*
G03X1425702Y3229888I35814J0D01*
G01X1625702Y3229888D01*
G03X1661516Y3265702I0J35814D01*
G01X1661516Y3395702D01*
G37*
%LPD*%
G36*
G01X3189884Y3139186D02*
G01X3189884Y3011702D01*
G03X3225698Y2975888I35814J0D01*
G01X3357903Y2975888D01*
G01X3410275Y2923516D01*
G01X3225698Y2923516D01*
G03X3189884Y2887702I0J-35814D01*
G01X3189884Y2757702D01*
G01X3189948Y2755561D01*
G01X3188001Y2753614D01*
G01X2986730Y2753614D01*
G03X2981500Y2829999I-56637J34493D01*
G03X2995787Y2957424I-9700J65601D01*
G03X2920394Y2853708I-23987J-61824D01*
G03X2873456Y2753614I9700J-65601D01*
G01X1734310Y2753614D01*
G03X1661516Y2765405I-45210J-48514D01*
G01X1661516Y2887702D01*
G03X1646165Y2917094I-35814J0D01*
G03X1650815Y2921185I-29654J38396D01*
G01X1868816Y3139186D01*
G01X3189884Y3139186D01*
G37*
%LPC*%
G36*
G01X2634524Y3032673D02*
G03X2744387Y2978598I66182J-4180D01*
G03X2860182Y3018420I49613J44002D01*
G03X2750318Y3072495I-66182J4180D01*
G03X2634524Y3032673I-49613J-44002D01*
G37*
%LPD*%
G36*
G01X1887905Y1069086D02*
G03X1914923Y999433I64593J-15011D01*
G03X1989631Y999132I37575J54641D01*
G01X2033998Y954766D01*
G01X2025018Y954766D01*
G03X2005018Y948661I0J-35814D01*
G03X1985018Y954766I-20000J-29709D01*
G01X1925018Y954766D01*
G03X1905018Y948661I0J-35814D01*
G03X1885018Y954766I-20000J-29709D01*
G01X1825018Y954766D01*
G03X1805018Y948661I0J-35814D01*
G03X1785018Y954766I-20000J-29709D01*
G01X1772675Y954766D01*
G01X1886995Y1069086D01*
G01X1887905Y1069086D01*
G37*
G36*
G01X3189884Y2503702D02*
G03X3203228Y2475814I35814J0D01*
G01X2427149Y2475814D01*
G03X2420828Y2520188I-64949J13386D01*
G01X3189884Y2520188D01*
G01X3189884Y2503702D01*
G37*
G54D10*
G01X423582Y553949D02*
G01X423582Y390037D01*
G02X416814Y419100I59018J29063D01*
G01X416814Y4076700D01*
G02X482600Y4142486I65786J0D01*
G01X4241800Y4142486D01*
G02X4307586Y4076700I0J-65786D01*
G01X4307586Y419100D01*
G02X4241800Y353314I-65786J0D01*
G01X3378977Y353314D01*
G01X3378977Y550701D01*
G03X3343163Y586515I-35814J0D01*
G01X3193164Y586515D01*
G03X3157350Y550701I0J-35814D01*
G01X3157350Y353314D01*
G01X2618984Y353314D01*
G01X2618984Y550701D01*
G03X2583170Y586515I-35814J0D01*
G01X2433170Y586515D01*
G03X2397356Y550701I0J-35814D01*
G01X2397356Y353314D01*
G01X2395797Y353314D01*
G01X2395803Y353949D01*
G01X2395803Y553949D01*
G03X2359989Y589763I-35814J0D01*
G01X2209989Y589763D01*
G03X2174175Y553949I0J-35814D01*
G01X2174175Y353949D01*
G01X2174181Y353314D01*
G01X1635804Y353314D01*
G01X1635810Y353949D01*
G01X1635810Y553949D01*
G03X1599996Y589763I-35814J0D01*
G01X1449996Y589763D01*
G03X1414182Y553949I0J-35814D01*
G01X1414182Y353949D01*
G01X1414187Y353314D01*
G01X1405197Y353314D01*
G01X1405203Y353949D01*
G01X1405203Y553949D01*
G03X1369389Y589763I-35814J0D01*
G01X1219389Y589763D01*
G03X1183575Y553949I0J-35814D01*
G01X1183575Y353949D01*
G01X1183581Y353314D01*
G01X645204Y353314D01*
G01X645210Y353949D01*
G01X645210Y553949D01*
G03X609396Y589763I-35814J0D01*
G01X459396Y589763D01*
G03X423582Y553949I0J-35814D01*
G01X867393Y2214406D02*
G01X841993Y2189006D01*
G03X827783Y2154701I34305J-34305D01*
G01X827783Y2143033D01*
G03X623486Y2044700I-78483J-98333D01*
G03X827783Y1946367I125814J0D01*
G01X827783Y1761748D01*
G03X733152Y1718335I-30186J-59045D01*
G03X797376Y1636389I64445J-15632D01*
G01X750286Y1589299D01*
G03X605821Y1376225I-51789J-120398D01*
G03X818895Y1520690I92676J92676D01*
G01X910602Y1612396D01*
G03X924811Y1646701I-34305J34305D01*
G01X924811Y1918886D01*
G01X1093300Y1918886D01*
G03X1097788Y1919169I0J35814D01*
G01X1097788Y1592936D01*
G03X1068238Y1557674I6264J-35262D01*
G01X1068238Y1515675D01*
G03X1104052Y1479861I35814J0D01*
G01X1129419Y1479861D01*
G01X795328Y1145770D01*
G01X764623Y1145770D01*
G03X730318Y1131561I0J-48514D01*
G01X550713Y951956D01*
G03X536504Y917651I34305J-34305D01*
G01X536504Y765251D01*
G03X550713Y730947I48514J0D01*
G01X601513Y680147D01*
G03X635818Y665937I34305J34305D01*
G01X788218Y665937D01*
G03X822522Y680147I0J48514D01*
G01X870513Y728137D01*
G01X894418Y728137D01*
G03X914418Y734241I0J35814D01*
G03X934418Y728137I20000J29709D01*
G01X994418Y728137D01*
G03X1014418Y734241I0J35814D01*
G03X1034418Y728137I20000J29709D01*
G01X1094417Y728137D01*
G03X1114417Y734241I0J35814D01*
G03X1134417Y728137I20000J29709D01*
G01X1194417Y728137D01*
G03X1230231Y763951I0J35814D01*
G01X1230231Y790362D01*
G03X1254964Y784627I27069J60538D01*
G01X1349995Y689595D01*
G03X1384300Y675386I34305J34305D01*
G01X1688267Y675386D01*
G03X1722571Y689595I0J48514D01*
G01X1761113Y728137D01*
G01X1785018Y728137D01*
G03X1805018Y734241I0J35814D01*
G03X1825018Y728137I20000J29709D01*
G01X1885018Y728137D01*
G03X1905018Y734241I0J35814D01*
G03X1925018Y728137I20000J29709D01*
G01X1985018Y728137D01*
G03X2005018Y734241I0J35814D01*
G03X2025018Y728137I20000J29709D01*
G01X2085017Y728137D01*
G03X2105017Y734241I0J35814D01*
G03X2125017Y728137I20000J29709D01*
G01X2185017Y728137D01*
G03X2220831Y763951I0J35814D01*
G01X2220831Y918952D01*
G03X2185017Y954766I-35814J0D01*
G01X2171216Y954766D01*
G01X2108229Y1017753D01*
G03X2159000Y1005586I50771J99847D01*
G01X2311400Y1005586D01*
G03X2311400Y1229614I0J112014D01*
G01X2159000Y1229614D01*
G03X2058037Y1166114I0J-112014D01*
G01X1866900Y1166114D01*
G03X1832595Y1151905I0J-48514D01*
G01X1652990Y972299D01*
G03X1641772Y954766I34305J-34305D01*
G01X1624993Y954766D01*
G03X1589179Y918952I0J-35814D01*
G01X1589179Y772414D01*
G01X1404395Y772414D01*
G01X1323573Y853236D01*
G03X1230231Y911438I-66273J-2336D01*
G01X1230231Y918952D01*
G03X1194417Y954766I-35814J0D01*
G01X1134417Y954766D01*
G03X1114417Y948661I0J-35814D01*
G01X1113704Y949129D01*
G01X1708322Y1543747D01*
G03X1722531Y1578051I-34305J34305D01*
G01X1722531Y1663476D01*
G03X1803711Y1728103I14866J64626D01*
G03X1722531Y1792729I-66314J0D01*
G01X1722531Y2040841D01*
G03X1738721Y2071526I-48514J45210D01*
G03X1737201Y2106187I-64704J14525D01*
G01X2354802Y2106187D01*
G01X2449892Y2011097D01*
G03X2425121Y1901690I22120J-62516D01*
G03X2534528Y1926461I46891J46891D01*
G01X2543793Y1917196D01*
G03X2578097Y1902987I34305J34305D01*
G01X2612380Y1902987D01*
G01X2492841Y1783448D01*
G01X2490700Y1783512D01*
G01X2360700Y1783512D01*
G03X2329845Y1765880I0J-35814D01*
G01X2261297Y1834428D01*
G03X2226992Y1848637I-34305J-34305D01*
G01X2070100Y1848637D01*
G03X2035795Y1834428I0J-48514D01*
G01X1984841Y1783473D01*
G01X1982700Y1783537D01*
G01X1852700Y1783537D01*
G03X1816886Y1747723I0J-35814D01*
G01X1816886Y1547724D01*
G03X1852700Y1511910I35814J0D01*
G01X1982700Y1511910D01*
G03X2018514Y1547724I0J35814D01*
G01X2018514Y1679928D01*
G01X2070886Y1732300D01*
G01X2070886Y1547698D01*
G03X2106700Y1511884I35814J0D01*
G01X2197503Y1511884D01*
G01X2685460Y1023926D01*
G03X2657677Y951518I36332J-55475D01*
G01X2608167Y951518D01*
G03X2572353Y915704I0J-35814D01*
G01X2572353Y760703D01*
G03X2608167Y724889I35814J0D01*
G01X2645863Y724889D01*
G03X2651074Y662399I60837J-26389D01*
G03X2706025Y632189I55626J36101D01*
G03X2732100Y624586I26075J40911D01*
G01X3911600Y624586D01*
G03X3945905Y638795I0J48514D01*
G01X4044590Y737481D01*
G03X4239514Y812800I82910J75319D01*
G01X4239514Y965200D01*
G03X4015486Y965200I-112014J0D01*
G01X4015486Y845595D01*
G01X3891505Y721614D01*
G01X3252938Y721614D01*
G03X3261614Y749300I-39838J27686D01*
G01X3261614Y907290D01*
G03X3268735Y988587I-48514J45210D01*
G01X3466254Y988587D01*
G03X3500559Y1002796I0J48514D01*
G01X3734570Y1236807D01*
G01X3821751Y1236807D01*
G03X3857565Y1272621I0J35814D01*
G01X3857565Y1372621D01*
G03X3821751Y1408435I-35814J0D01*
G01X3681797Y1408435D01*
G03X3645983Y1372621I0J-35814D01*
G01X3645983Y1285439D01*
G01X3446159Y1085615D01*
G01X3169010Y1085615D01*
G03X3086706Y1092070I-45210J-48514D01*
G01X3086706Y1303597D01*
G01X3342436Y1559327D01*
G03X3386991Y1672491I-2336J66273D01*
G03X3273827Y1627936I-46891J-46891D01*
G01X3007214Y1361323D01*
G01X3007214Y1419609D01*
G01X3293493Y1705888D01*
G01X3425698Y1705888D01*
G03X3461512Y1741702I0J35814D01*
G01X3461512Y1858086D01*
G01X3599405Y1858086D01*
G01X3641835Y1815656D01*
G01X3641835Y1722973D01*
G03X3677649Y1687159I35814J0D01*
G01X3804860Y1687159D01*
G01X3804860Y1654374D01*
G01X3768979Y1618493D01*
G01X3681797Y1618493D01*
G03X3645983Y1582679I0J-35814D01*
G01X3645983Y1482679D01*
G03X3681797Y1446865I35814J0D01*
G01X3821751Y1446865D01*
G03X3857565Y1482679I0J35814D01*
G01X3857565Y1569861D01*
G01X3879122Y1591418D01*
G03X3918277Y1577485I40690J52363D01*
G01X3987496Y1508266D01*
G03X4017221Y1494401I33916J33916D01*
G01X4017221Y1492181D01*
G03X4053035Y1456367I35814J0D01*
G01X4176098Y1456367D01*
G01X4176098Y1453818D01*
G01X4140217Y1417937D01*
G01X4053035Y1417937D01*
G03X4017221Y1382123I0J-35814D01*
G01X4017221Y1282123D01*
G03X4053035Y1246309I35814J0D01*
G01X4192989Y1246309D01*
G03X4228803Y1282123I0J35814D01*
G01X4228803Y1369305D01*
G01X4258916Y1399419D01*
G03X4273126Y1433723I-34305J34305D01*
G01X4273126Y1673034D01*
G03X4281841Y1696449I-27099J23415D01*
G01X4281841Y1834151D01*
G03X4246027Y1869965I-35814J0D01*
G01X4132773Y1869965D01*
G03X4096959Y1834151I0J-35814D01*
G01X4096959Y1696449D01*
G03X4132773Y1660635I35814J0D01*
G01X4176098Y1660635D01*
G01X4176098Y1627995D01*
G01X4053035Y1627995D01*
G03X4021772Y1609653I0J-35814D01*
G01X3986108Y1645316D01*
G03X3983948Y1660635I-66296J-1535D01*
G01X4046027Y1660635D01*
G03X4081841Y1696449I0J35814D01*
G01X4081841Y1834151D01*
G03X4046027Y1869965I-35814J0D01*
G01X3932773Y1869965D01*
G03X3901888Y1852282I0J-35814D01*
G01X3901888Y1872725D01*
G03X3887679Y1907030I-48514J0D01*
G01X3851165Y1943544D01*
G01X3851165Y2036227D01*
G03X3815351Y2072041I-35814J0D01*
G01X3677649Y2072041D01*
G03X3641835Y2036227I0J-35814D01*
G01X3641835Y1949667D01*
G03X3619500Y1955114I-22335J-43067D01*
G01X3499521Y1955114D01*
G01X3512403Y1967996D01*
G03X3526612Y2002301I-34305J34305D01*
G01X3526612Y2162302D01*
G03X3512403Y2196607I-48514J0D01*
G01X3461448Y2247561D01*
G01X3461512Y2249702D01*
G01X3461512Y2378786D01*
G01X3591035Y2378786D01*
G01X3591035Y2370673D01*
G03X3626849Y2334859I35814J0D01*
G01X3764551Y2334859D01*
G03X3800365Y2370673I0J35814D01*
G01X3800365Y2483927D01*
G03X3764551Y2519741I-35814J0D01*
G01X3626849Y2519741D01*
G03X3591035Y2483927I0J-35814D01*
G01X3591035Y2475814D01*
G01X3448168Y2475814D01*
G03X3461512Y2503702I-22470J27888D01*
G01X3461512Y2633702D01*
G03X3425698Y2669516I-35814J0D01*
G01X3241072Y2669516D01*
G01X3242401Y2670795D01*
G01X3293493Y2721888D01*
G01X3425698Y2721888D01*
G03X3461512Y2757702I0J35814D01*
G01X3461512Y2872279D01*
G01X3615798Y2717993D01*
G03X3591035Y2683927I11051J-34066D01*
G01X3591035Y2570673D01*
G03X3626849Y2534859I35814J0D01*
G01X3764551Y2534859D01*
G03X3800365Y2570673I0J35814D01*
G01X3800365Y2683927D01*
G03X3764551Y2719741I-35814J0D01*
G01X3742429Y2719741D01*
G03X3730005Y2741005I-46729J-13040D01*
G01X3673879Y2797131D01*
G01X3761553Y2797131D01*
G03X3797367Y2832945I0J35814D01*
G01X3797367Y2946198D01*
G03X3761553Y2982012I-35814J0D01*
G01X3668871Y2982012D01*
G01X3653753Y2997130D01*
G01X3761553Y2997130D01*
G03X3797367Y3032944I0J35814D01*
G01X3797367Y3125626D01*
G01X3828607Y3156866D01*
G03X3842817Y3191171I-34305J34305D01*
G01X3842817Y3419771D01*
G03X3828607Y3454075I-48514J0D01*
G01X3803207Y3479475D01*
G03X3799108Y3483135I-34305J-34305D01*
G03X3799801Y3490144I-35121J7009D01*
G01X3799801Y3582826D01*
G01X3831041Y3614066D01*
G03X3845250Y3648371I-34305J34305D01*
G01X3845250Y4051300D01*
G03X3831041Y4085605I-48514J0D01*
G01X3805641Y4111005D01*
G03X3771336Y4125214I-34305J-34305D01*
G01X1460500Y4125214D01*
G03X1426195Y4111005I0J-48514D01*
G01X1128784Y3813593D01*
G03X956889Y3939641I-125484J9107D01*
G03X918213Y3730022I46411J-116941D01*
G01X841995Y3653805D01*
G01X841870Y3653680D01*
G03X660336Y3657664I-92676J-84982D01*
G03X664213Y3476022I88964J-88964D01*
G01X664106Y3475915D01*
G01X587995Y3399805D01*
G03X573786Y3365500I34305J-34305D01*
G01X573786Y2933700D01*
G03X587995Y2899395I48514J0D01*
G01X632912Y2854479D01*
G03X838264Y2717736I116388J-47779D01*
G03X701521Y2923088I-88964J88964D01*
G01X670814Y2953795D01*
G01X670814Y2962369D01*
G03X865688Y3108479I78486J98331D01*
G01X910605Y3153395D01*
G03X924814Y3187700I-34305J34305D01*
G01X924814Y3216369D01*
G03X1051079Y3198312I78486J98331D01*
G01X1328206Y2921185D01*
G03X1362510Y2906976I34305J34305D01*
G01X1395517Y2906976D01*
G03X1389888Y2887702I30185J-19274D01*
G01X1389888Y2757702D01*
G03X1425702Y2721888I35814J0D01*
G01X1624946Y2721888D01*
G03X1633732Y2668604I64154J-16788D01*
G03X1625702Y2669516I-8031J-34902D01*
G01X1425702Y2669516D01*
G03X1389888Y2633702I0J-35814D01*
G01X1389888Y2503702D01*
G03X1403232Y2475814I35814J0D01*
G01X1402795Y2475814D01*
G01X1119688Y2758921D01*
G03X914336Y2895664I-116388J47779D01*
G03X1051079Y2690312I88964J-88964D01*
G01X1348395Y2392996D01*
G03X1382700Y2378786I34305J34305D01*
G01X1389888Y2378786D01*
G01X1389888Y2268520D01*
G01X1317002Y2341406D01*
G03X1282697Y2355615I-34305J-34305D01*
G01X1155697Y2355615D01*
G03X1121578Y2341589I0J-48514D01*
G03X946349Y2410886I-118278J-42889D01*
G03X898870Y2228533I56951J-112186D01*
G03X867393Y2214406I2828J-48432D01*
G01X749300Y3696886D02*
G03X749300Y3948514I0J125814D01*
G03X749300Y3696886I0J-125814D01*
G01X749300Y2426886D02*
G03X749300Y2678514I0J125814D01*
G03X749300Y2426886I0J-125814D01*
G01X749300Y2172886D02*
G03X749300Y2424514I0J125814D01*
G03X749300Y2172886I0J-125814D01*
G01X1003300Y2426886D02*
G03X1003300Y2678514I0J125814D01*
G03X1003300Y2426886I0J-125814D01*
G01X1003300Y2934886D02*
G03X1003300Y3186514I0J125814D01*
G03X1003300Y2934886I0J-125814D01*
G01X2219686Y1955800D02*
G03X2352314Y1955800I66314J0D01*
G03X2219686Y1955800I-66314J0D01*
G01X3927786Y3887400D02*
G03X3963600Y3851586I35814J0D01*
G01X4113600Y3851586D01*
G03X4149414Y3887400I0J35814D01*
G01X4149414Y4037400D01*
G03X4113600Y4073214I-35814J0D01*
G01X3963600Y4073214D01*
G03X3927786Y4037400I0J-35814D01*
G01X3927786Y3887400D01*
G01X4038600Y3819214D02*
G03X4038600Y3597586I0J-110814D01*
G03X4038600Y3819214I0J110814D01*
G01X4038600Y2803214D02*
G03X4038600Y2581586I0J-110814D01*
G03X4038600Y2803214I0J110814D01*
G01X4038600Y3057214D02*
G03X4038600Y2835586I0J-110814D01*
G03X4038600Y3057214I0J110814D01*
G01X4038600Y3311214D02*
G03X4038600Y3089586I0J-110814D01*
G03X4038600Y3311214I0J110814D01*
G01X4038600Y3565214D02*
G03X4038600Y3343586I0J-110814D01*
G03X4038600Y3565214I0J110814D01*
G01X4038600Y2549214D02*
G03X4038600Y2327586I0J-110814D01*
G03X4038600Y2549214I0J110814D01*
G01X4038600Y2295214D02*
G03X4038600Y2073586I0J-110814D01*
G03X4038600Y2295214I0J110814D01*
G01X827786Y3216369D02*
G01X827786Y3207795D01*
G01X797079Y3177088D01*
G03X670814Y3159031I-47779J-116388D01*
G01X670814Y3216369D01*
G03X827786Y3216369I78486J98331D01*
G01X1347216Y3591607D02*
G01X1389888Y3634279D01*
G01X1389888Y3519702D01*
G03X1425702Y3483888I35814J0D01*
G01X1625702Y3483888D01*
G03X1661516Y3519702I0J35814D01*
G01X1661516Y3649702D01*
G03X1625702Y3685516I-35814J0D01*
G01X1441125Y3685516D01*
G01X1493497Y3737888D01*
G01X1625702Y3737888D01*
G03X1661516Y3773702I0J35814D01*
G01X1661516Y3903702D01*
G01X1661499Y3904796D01*
G01X3189901Y3904796D01*
G01X3189884Y3903702D01*
G01X3189884Y3773702D01*
G01X3189948Y3771561D01*
G01X3151525Y3733138D01*
G03X3137315Y3698833I34305J-34305D01*
G01X3137315Y3495971D01*
G03X3151525Y3461666I48514J0D01*
G01X3196604Y3416587D01*
G03X3189884Y3395702I29094J-20885D01*
G01X3189884Y3265702D01*
G03X3205374Y3236214I35814J0D01*
G01X1848720Y3236214D01*
G03X1814416Y3222005I0J-48514D01*
G01X1661516Y3069104D01*
G01X1661516Y3141702D01*
G03X1625702Y3177516I-35814J0D01*
G01X1425702Y3177516D01*
G03X1389888Y3141702I0J-35814D01*
G01X1389888Y3011702D01*
G03X1390725Y3004004I35814J0D01*
G01X1382605Y3004004D01*
G01X1332305Y3054305D01*
G03X1347216Y3156685I-33603J57170D01*
G01X1347216Y3591607D01*
G01X1661516Y3395702D02*
G03X1625702Y3431516I-35814J0D01*
G01X1425702Y3431516D01*
G03X1389888Y3395702I0J-35814D01*
G01X1389888Y3265702D01*
G03X1425702Y3229888I35814J0D01*
G01X1625702Y3229888D01*
G03X1661516Y3265702I0J35814D01*
G01X1661516Y3395702D01*
G01X3189884Y3139186D02*
G01X3189884Y3011702D01*
G03X3225698Y2975888I35814J0D01*
G01X3357903Y2975888D01*
G01X3410275Y2923516D01*
G01X3225698Y2923516D01*
G03X3189884Y2887702I0J-35814D01*
G01X3189884Y2757702D01*
G01X3189948Y2755561D01*
G01X3188001Y2753614D01*
G01X2986730Y2753614D01*
G03X2981500Y2829999I-56637J34493D01*
G03X2995787Y2957424I-9700J65601D01*
G03X2920394Y2853708I-23987J-61824D01*
G03X2873456Y2753614I9700J-65601D01*
G01X1734310Y2753614D01*
G03X1661516Y2765405I-45210J-48514D01*
G01X1661516Y2887702D01*
G03X1646165Y2917094I-35814J0D01*
G03X1650815Y2921185I-29654J38396D01*
G01X1868816Y3139186D01*
G01X3189884Y3139186D01*
G01X2634524Y3032673D02*
G03X2744387Y2978598I66182J-4180D01*
G03X2860182Y3018420I49613J44002D01*
G03X2750318Y3072495I-66182J4180D01*
G03X2634524Y3032673I-49613J-44002D01*
G01X1887905Y1069086D02*
G03X1914923Y999433I64593J-15011D01*
G03X1989631Y999132I37575J54641D01*
G01X2033998Y954766D01*
G01X2025018Y954766D01*
G03X2005018Y948661I0J-35814D01*
G03X1985018Y954766I-20000J-29709D01*
G01X1925018Y954766D01*
G03X1905018Y948661I0J-35814D01*
G03X1885018Y954766I-20000J-29709D01*
G01X1825018Y954766D01*
G03X1805018Y948661I0J-35814D01*
G03X1785018Y954766I-20000J-29709D01*
G01X1772675Y954766D01*
G01X1886995Y1069086D01*
G01X1887905Y1069086D01*
G01X3189884Y2503702D02*
G03X3203228Y2475814I35814J0D01*
G01X2427149Y2475814D01*
G03X2420828Y2520188I-64949J13386D01*
G01X3189884Y2520188D01*
G01X3189884Y2503702D01*
G54D11*
G01X1369135Y453949D02*
G01X1395043Y453949D01*
G01X1219643Y453949D02*
G01X1193735Y453949D01*
G01X1294389Y553695D02*
G01X1294389Y579603D01*
G01X1599742Y453949D02*
G01X1625650Y453949D01*
G01X1450250Y453949D02*
G01X1424342Y453949D01*
G01X1524996Y553695D02*
G01X1524996Y579603D01*
G01X609142Y453949D02*
G01X635050Y453949D01*
G01X459650Y453949D02*
G01X433742Y453949D01*
G01X534396Y553695D02*
G01X534396Y579603D01*
G01X1164417Y764205D02*
G01X1164417Y738297D01*
G01X1164417Y918698D02*
G01X1164417Y944606D01*
G01X1625448Y3584702D02*
G01X1651356Y3584702D01*
G01X1425956Y3584702D02*
G01X1400048Y3584702D01*
G01X1525702Y3519956D02*
G01X1525702Y3494048D01*
G01X1525702Y3649448D02*
G01X1525702Y3675356D01*
G01X1855018Y764205D02*
G01X1855018Y738297D01*
G01X1855018Y918698D02*
G01X1855018Y944606D01*
G01X2055017Y764205D02*
G01X2055017Y738297D01*
G01X2582916Y450701D02*
G01X2608824Y450701D01*
G01X2433424Y450701D02*
G01X2407516Y450701D01*
G01X2508170Y550447D02*
G01X2508170Y576355D01*
G01X2359735Y453949D02*
G01X2385643Y453949D01*
G01X2210243Y453949D02*
G01X2184335Y453949D01*
G01X2284989Y553695D02*
G01X2284989Y579603D01*
G01X2608421Y838204D02*
G01X2582513Y838204D01*
G01X2638167Y760957D02*
G01X2638167Y735049D01*
G01X2638167Y915450D02*
G01X2638167Y941358D01*
G01X1955018Y764205D02*
G01X1955018Y738297D01*
G01X1955018Y918698D02*
G01X1955018Y944606D01*
G01X3342909Y450701D02*
G01X3368817Y450701D01*
G01X3193418Y450701D02*
G01X3167510Y450701D01*
G01X3268163Y550447D02*
G01X3268163Y576355D01*
G01X4045773Y1765300D02*
G01X4071681Y1765300D01*
G01X3989400Y1833897D02*
G01X3989400Y1859805D01*
G01X3989400Y1696703D02*
G01X3989400Y1670795D01*
G01X749300Y1954954D02*
G01X749300Y1929046D01*
G01X749300Y2134446D02*
G01X749300Y2160354D01*
G01X659554Y2044700D02*
G01X633646Y2044700D01*
G01X749300Y3224954D02*
G01X749300Y3199046D01*
G01X4038600Y2513146D02*
G01X4038600Y2539054D01*
G01X4038600Y2363654D02*
G01X4038600Y2337746D01*
G01X4113346Y2438400D02*
G01X4139254Y2438400D01*
G01X3963854Y2438400D02*
G01X3937946Y2438400D01*
G04 Copper End*

G04 Pad Start*
G54D12*
G01X1368298Y1536675D03*
G01X1146302Y1536675D03*
G54D13*
G01X664393Y841451D03*
G01X764418Y841451D03*
G01X864418Y841451D03*
G01X964418Y841451D03*
G01X1064417Y841451D03*
G01X1164417Y841451D03*
G54D14*
G01X1294389Y453949D03*
G01X534396Y453949D03*
G54D16*
G01X698497Y1468901D03*
G54D13*
G01X2638167Y838204D03*
G01X2738192Y838204D03*
G01X2838192Y838204D03*
G01X2938192Y838204D03*
G01X3038192Y838204D03*
G01X3138192Y838204D03*
G54D14*
G01X3268163Y450701D03*
G01X2508170Y450701D03*
G54D17*
G01X4123012Y1332123D03*
G01X4123012Y1542181D03*
G01X3751774Y1322621D03*
G01X3751774Y1532679D03*
G54D18*
G01X749300Y3822700D03*
G01X1003300Y3822700D03*
G01X749300Y3568700D03*
G01X1003300Y3568700D03*
G01X749300Y3314700D03*
G01X1003300Y3314700D03*
G01X749300Y3060700D03*
G01X1003300Y3060700D03*
G01X749300Y2806700D03*
G01X1003300Y2806700D03*
G01X749300Y2552700D03*
G01X1003300Y2552700D03*
G01X749300Y2298700D03*
G01X1003300Y2298700D03*
G01X749300Y2044700D03*
G54D19*
G01X1003300Y2044700D03*
G54D20*
G01X4038600Y3962400D03*
G54D21*
G01X4038600Y3708400D03*
G01X4038600Y3454400D03*
G01X4038600Y3200400D03*
G01X4038600Y2946400D03*
G01X4038600Y2692400D03*
G01X4038600Y2438400D03*
G01X4038600Y2184400D03*
G54D22*
G01X3695136Y3978571D03*
G01X3695136Y3778571D03*
G01X3695136Y3546771D03*
G01X3695136Y3346771D03*
G01X3692703Y3089571D03*
G01X3692703Y2889571D03*
G01X3695700Y2627300D03*
G01X3695700Y2427300D03*
G54D23*
G01X4189400Y1765300D03*
G01X3989400Y1765300D03*
G54D24*
G01X3746500Y1979600D03*
G01X3746500Y1779600D03*
G54D25*
G01X2235200Y1117600D03*
G54D13*
G01X1654993Y841451D03*
G01X1755018Y841451D03*
G01X1855018Y841451D03*
G01X1955018Y841451D03*
G01X2055017Y841451D03*
G01X2155017Y841451D03*
G54D14*
G01X2284989Y453949D03*
G01X1524996Y453949D03*
G54D26*
G01X3325698Y1806702D03*
G01X3325698Y2060702D03*
G01X3325698Y2314702D03*
G01X3325698Y2568702D03*
G01X3325698Y2822702D03*
G01X3325698Y3076702D03*
G01X3325698Y3330702D03*
G01X3325698Y3584702D03*
G01X3325698Y3838702D03*
G54D27*
G01X2933700Y1647698D03*
G01X2679700Y1647698D03*
G01X2425700Y1647698D03*
G01X2171700Y1647698D03*
G54D26*
G01X1525702Y1806702D03*
G01X1525702Y2060702D03*
G01X1525702Y2314702D03*
G01X1525702Y2568702D03*
G01X1525702Y2822702D03*
G01X1525702Y3076702D03*
G01X1525702Y3330702D03*
G01X1525702Y3584702D03*
G54D28*
G01X1917700Y1647723D03*
G54D26*
G01X1525702Y3838702D03*
G54D29*
G01X4127500Y889000D03*
G04 Pad End*

G04 Via Start*
G54D30*
G01X1197102Y2247875D03*
G01X1298702Y3111475D03*
G01X1419098Y1587475D03*
G01X1952498Y1054075D03*
G01X3123800Y1037101D03*
G01X2706700Y698500D03*
G01X1257300Y850900D03*
G01X2958700Y1091101D03*
G01X1674017Y2086051D03*
G01X1750217Y2492451D03*
G01X1599418Y1679651D03*
G01X1675618Y2238451D03*
G01X1839900Y952500D03*
G01X1843100Y2857500D03*
G01X2528900Y2501900D03*
G01X1528926Y3467100D03*
G01X3987800Y2311400D03*
G01X2700706Y3028493D03*
G01X3488106Y3841293D03*
G01X1689100Y2705100D03*
G01X2422093Y2280107D03*
G01X2930093Y2788107D03*
G01X3919812Y1643781D03*
G01X2472012Y1948581D03*
G01X1689100Y2552700D03*
G01X2286000Y1955800D03*
G01X2463800Y2209800D03*
G01X1993900Y2349500D03*
G01X2362200Y2489200D03*
G01X2971800Y2895600D03*
G01X2794000Y3022600D03*
G01X2184400Y2235200D03*
G01X1737397Y1728102D03*
G01X797597Y1702702D03*
G01X740593Y968451D03*
G01X2721793Y968451D03*
G01X3213100Y952500D03*
G01X2702968Y2120900D03*
G01X2093368Y2501900D03*
G01X3340100Y1625600D03*
G01X2777263Y2159000D03*
G01X2040663Y2641600D03*
G04 Via End*

G04 Track Start*
G54D11*
G01X3751774Y1532679D02*
G01X3853374Y1634279D01*
G01X3853374Y1872725D01*
G01X3746500Y1979600D01*
G01X1146302Y1536675D02*
G01X1146302Y2197075D01*
G01X1197102Y2247875D01*
G01X1298702Y3111475D02*
G01X1298702Y3611702D01*
G01X1525702Y3838702D01*
G01X1003300Y3314700D02*
G01X1362510Y2955490D01*
G01X1616510Y2955490D01*
G01X1848720Y3187700D01*
G01X3441700Y3187700D01*
G01X3531502Y3097898D01*
G01X3531502Y3050772D01*
G01X3692703Y2889571D01*
G01X1003300Y2806700D02*
G01X1382700Y2427300D01*
G01X3695700Y2427300D01*
G01X4123012Y1332123D02*
G01X4224612Y1433723D01*
G01X4224612Y1730088D01*
G01X4189400Y1765300D01*
G01X749300Y3060700D02*
G01X876300Y3187700D01*
G01X876300Y3365500D01*
G01X952500Y3441700D01*
G01X1054100Y3441700D01*
G01X1143902Y3531502D01*
G01X1143902Y3683902D01*
G01X1413310Y3953310D01*
G01X3669876Y3953310D01*
G01X3695136Y3978571D01*
G01X749300Y2806700D02*
G01X622300Y2933700D01*
G01X622300Y3365500D01*
G01X698500Y3441700D01*
G01X800100Y3441700D01*
G01X876300Y3517900D01*
G01X876300Y3619500D01*
G01X952500Y3695700D01*
G01X1079500Y3695700D01*
G01X1460500Y4076700D01*
G01X3771336Y4076700D01*
G01X3796736Y4051300D01*
G01X3796736Y3648371D01*
G01X3695136Y3546771D01*
G01X1368298Y1536675D02*
G01X1419098Y1587475D01*
G01X1952498Y1054075D02*
G01X2003298Y1054075D01*
G01X2155017Y902355D01*
G01X2155017Y841451D01*
G01X3123800Y1037101D02*
G01X3123800Y852595D01*
G01X3138192Y838204D01*
G01X3123800Y1037101D02*
G01X3466254Y1037101D01*
G01X3751774Y1322621D01*
G01X2706700Y698500D02*
G01X2732100Y673100D01*
G01X3911600Y673100D01*
G01X4127500Y889000D01*
G01X1257300Y850900D02*
G01X1384300Y723900D01*
G01X1688267Y723900D01*
G01X1755018Y790651D01*
G01X1755018Y841451D01*
G01X2958700Y1091101D02*
G01X2958700Y1439704D01*
G01X3325698Y1806702D01*
G01X698497Y1468901D02*
G01X876297Y1646701D01*
G01X876297Y2154701D01*
G01X901697Y2180101D01*
G01X1054097Y2180101D01*
G01X1130297Y2256301D01*
G01X1130297Y2281701D01*
G01X1155697Y2307101D01*
G01X1282697Y2307101D01*
G01X1435097Y2154701D01*
G01X2374897Y2154701D01*
G01X2578097Y1951501D01*
G01X3427298Y1951501D01*
G01X3478098Y2002301D01*
G01X3478098Y2162302D01*
G01X3325698Y2314702D01*
G01X1064417Y841451D02*
G01X1064417Y968451D01*
G01X1674017Y1578051D01*
G01X1674017Y2086051D01*
G01X1750217Y2492451D02*
G01X1601953Y2492451D01*
G01X1525702Y2568702D01*
G01X964418Y841451D02*
G01X964418Y943051D01*
G01X1593036Y1571669D01*
G01X1593036Y1673269D01*
G01X1599418Y1679651D01*
G01X1675618Y2238451D02*
G01X1601953Y2238451D01*
G01X1525702Y2314702D01*
G01X864418Y841451D02*
G01X864418Y790651D01*
G01X788218Y714451D01*
G01X635818Y714451D01*
G01X585018Y765251D01*
G01X585018Y917651D01*
G01X764623Y1097256D01*
G01X815423Y1097256D01*
G01X1264436Y1546269D01*
G01X1264436Y1799436D01*
G01X1525702Y2060702D01*
G01X764418Y841451D02*
G01X764418Y892251D01*
G01X854221Y982054D01*
G01X930421Y982054D01*
G01X1525702Y1577335D01*
G01X1525702Y1806702D01*
G01X2938192Y838204D02*
G01X2938192Y914404D01*
G01X2309574Y1543022D01*
G01X2309574Y1717541D01*
G01X2226992Y1800123D01*
G01X2070100Y1800123D01*
G01X1917700Y1647723D01*
G01X2838192Y838204D02*
G01X2838192Y939804D01*
G01X2209574Y1568422D01*
G01X2209574Y1609824D01*
G01X2171700Y1647698D01*
G01X1839900Y952500D02*
G01X1839900Y856569D01*
G01X1855018Y841451D02*
G01X1955018Y841451D01*
G01X2055017Y841451D01*
G01X1844390Y852079D02*
G01X1844390Y775879D01*
G01X1742790Y674279D01*
G01X1331589Y674279D02*
G01X1164417Y841451D01*
G01X1520540Y674279D02*
G01X1520540Y458404D01*
G01X1524996Y453949D01*
G01X2055017Y841451D02*
G01X2055017Y683920D01*
G01X2284989Y453949D01*
G01X2504923Y453949D01*
G01X2508170Y450701D01*
G01X2508170Y708207D01*
G01X2638167Y838204D01*
G01X1528926Y3467100D02*
G01X1528926Y3581478D01*
G01X1525702Y3584702D01*
G01X3987800Y2311400D02*
G01X3911600Y2235200D01*
G01X3911600Y1843100D01*
G01X3989400Y1765300D01*
G01X2508170Y450701D02*
G01X3268163Y450701D01*
G01X3692703Y3089571D02*
G01X3794303Y3191171D01*
G01X3794303Y3419771D01*
G01X3768903Y3445171D01*
G01X3236629Y3445171D01*
G01X3185829Y3495971D01*
G01X3185829Y3698833D01*
G01X3325698Y3838702D01*
G01X3695136Y3778571D02*
G01X3519568Y3778571D01*
G01X3325698Y3584702D01*
G01X3695136Y3346771D02*
G01X3341768Y3346771D01*
G01X3325698Y3330702D01*
G01X3695700Y2627300D02*
G01X3695700Y2706700D01*
G01X3325698Y3076702D01*
G01X1689100Y2705100D02*
G01X3208096Y2705100D01*
G01X3325698Y2822702D01*
G54D31*
G01X4123012Y1542181D02*
G01X4021412Y1542181D01*
G01X3919812Y1643781D01*
G54D11*
G01X1689100Y2552700D02*
G01X1705102Y2568702D01*
G01X3325698Y2568702D01*
G01X2298700Y1117600D02*
G01X1866900Y1117600D01*
G01X1687295Y937995D01*
G01X1687295Y873753D01*
G01X1654993Y841451D01*
G01X1993900Y2349500D02*
G01X3036900Y2349500D01*
G01X3325698Y2060702D01*
G01X3746500Y1779600D02*
G01X3619500Y1906600D01*
G01X2684602Y1906600D01*
G01X2425700Y1647698D01*
G01X664393Y841451D02*
G01X664393Y892251D01*
G01X740593Y968451D01*
G01X3213100Y952500D02*
G01X3213100Y749300D01*
G01X3187700Y723900D01*
G01X2781300Y723900D01*
G01X2738192Y767008D01*
G01X2738192Y838204D01*
G01X3340100Y1625600D02*
G01X3038192Y1323692D01*
G01X3038192Y838204D01*
G01X1839900Y856569D02*
G01X1844390Y852079D01*
G01X1855018Y841451D01*
G01X1742790Y674279D02*
G01X1520540Y674279D01*
G01X1331589Y674279D01*
G01X1294389Y453949D02*
G01X534396Y453949D01*
G01X1524996Y453949D02*
G01X1294389Y453949D01*
G04 Track End*

M02*

