G04 Layer: BottomPasteMaskLayer*
G04 EasyEDA Pro v2.2.32.3, 2024-12-28 23:04:40*
G04 Gerber Generator version 0.3*
G04 Scale: 100 percent, Rotated: No, Reflected: No*
G04 Dimensions in millimeters*
G04 Leading zeros omitted, absolute positions, 3 integers and 5 decimals*
%FSLAX35Y35*%
%MOMM*%
%ADD10C,1.524*%
%ADD11O,0.27X1.5*%
%ADD12O,1.5X0.27*%
%ADD13R,0.6X1.55001*%
%ADD14R,1.5X2.0*%
%ADD15R,1.0X0.55001*%
%ADD16C,0.5*%
G75*


G04 PolygonModel Start*
G36*
G01X1783398Y1294900D02*
G01X1783398Y1422898D01*
G01X1778396Y1427899D01*
G01X1663395Y1427899D01*
G01X1658396Y1422898D01*
G01X1657894Y1381895D01*
G01X1702895Y1381895D01*
G01X1702895Y1336896D01*
G01X1658894Y1336896D01*
G01X1658396Y1294900D01*
G01X1663395Y1289898D01*
G01X1778396Y1289898D01*
G01X1783398Y1294900D01*
G37*
G36*
G01X1442403Y1422900D02*
G01X1442403Y1294902D01*
G01X1447404Y1289901D01*
G01X1562405Y1289901D01*
G01X1567404Y1294902D01*
G01X1567906Y1335905D01*
G01X1522905Y1335905D01*
G01X1522905Y1380904D01*
G01X1566906Y1380904D01*
G01X1567404Y1422900D01*
G01X1562405Y1427902D01*
G01X1447404Y1427902D01*
G01X1442403Y1422900D01*
G37*
G36*
G01X1783398Y964700D02*
G01X1783398Y1092698D01*
G01X1778396Y1097699D01*
G01X1663395Y1097699D01*
G01X1658396Y1092698D01*
G01X1657894Y1051695D01*
G01X1702895Y1051695D01*
G01X1702895Y1006696D01*
G01X1658894Y1006696D01*
G01X1658396Y964700D01*
G01X1663395Y959698D01*
G01X1778396Y959698D01*
G01X1783398Y964700D01*
G37*
G36*
G01X1442403Y1092700D02*
G01X1442403Y964702D01*
G01X1447404Y959701D01*
G01X1562405Y959701D01*
G01X1567404Y964702D01*
G01X1567906Y1005705D01*
G01X1522905Y1005705D01*
G01X1522905Y1050704D01*
G01X1566906Y1050704D01*
G01X1567404Y1092700D01*
G01X1562405Y1097702D01*
G01X1447404Y1097702D01*
G01X1442403Y1092700D01*
G37*
G36*
G01X1251903Y2007100D02*
G01X1251903Y1879102D01*
G01X1256904Y1874101D01*
G01X1371905Y1874101D01*
G01X1376904Y1879102D01*
G01X1377406Y1920105D01*
G01X1332405Y1920105D01*
G01X1332405Y1965104D01*
G01X1376406Y1965104D01*
G01X1376904Y2007100D01*
G01X1371905Y2012102D01*
G01X1256904Y2012102D01*
G01X1251903Y2007100D01*
G37*
G36*
G01X1592898Y1879100D02*
G01X1592898Y2007098D01*
G01X1587896Y2012099D01*
G01X1472895Y2012099D01*
G01X1467896Y2007098D01*
G01X1467394Y1966095D01*
G01X1512395Y1966095D01*
G01X1512395Y1921096D01*
G01X1468394Y1921096D01*
G01X1467896Y1879100D01*
G01X1472895Y1874098D01*
G01X1587896Y1874098D01*
G01X1592898Y1879100D01*
G37*
G36*
G01X1605598Y2222000D02*
G01X1605598Y2349998D01*
G01X1600596Y2354999D01*
G01X1485595Y2354999D01*
G01X1480596Y2349998D01*
G01X1480094Y2308995D01*
G01X1525095Y2308995D01*
G01X1525095Y2263996D01*
G01X1481094Y2263996D01*
G01X1480596Y2222000D01*
G01X1485595Y2216998D01*
G01X1600596Y2216998D01*
G01X1605598Y2222000D01*
G37*
G36*
G01X1264603Y2350000D02*
G01X1264603Y2222002D01*
G01X1269604Y2217001D01*
G01X1384605Y2217001D01*
G01X1389604Y2222002D01*
G01X1390106Y2263005D01*
G01X1345105Y2263005D01*
G01X1345105Y2308004D01*
G01X1389106Y2308004D01*
G01X1389604Y2350000D01*
G01X1384605Y2355002D01*
G01X1269604Y2355002D01*
G01X1264603Y2350000D01*
G37*
G36*
G01X1605598Y2539500D02*
G01X1605598Y2667498D01*
G01X1600596Y2672499D01*
G01X1485595Y2672499D01*
G01X1480596Y2667498D01*
G01X1480094Y2626495D01*
G01X1525095Y2626495D01*
G01X1525095Y2581496D01*
G01X1481094Y2581496D01*
G01X1480596Y2539500D01*
G01X1485595Y2534498D01*
G01X1600596Y2534498D01*
G01X1605598Y2539500D01*
G37*
G36*
G01X1264603Y2667500D02*
G01X1264603Y2539502D01*
G01X1269604Y2534501D01*
G01X1384605Y2534501D01*
G01X1389604Y2539502D01*
G01X1390106Y2580505D01*
G01X1345105Y2580505D01*
G01X1345105Y2625504D01*
G01X1389106Y2625504D01*
G01X1389604Y2667500D01*
G01X1384605Y2672502D01*
G01X1269604Y2672502D01*
G01X1264603Y2667500D01*
G37*
G36*
G01X1290003Y2997700D02*
G01X1290003Y2869702D01*
G01X1295004Y2864701D01*
G01X1410005Y2864701D01*
G01X1415004Y2869702D01*
G01X1415506Y2910705D01*
G01X1370505Y2910705D01*
G01X1370505Y2955704D01*
G01X1414506Y2955704D01*
G01X1415004Y2997700D01*
G01X1410005Y3002702D01*
G01X1295004Y3002702D01*
G01X1290003Y2997700D01*
G37*
G36*
G01X1630998Y2869700D02*
G01X1630998Y2997698D01*
G01X1625996Y3002699D01*
G01X1510995Y3002699D01*
G01X1505996Y2997698D01*
G01X1505494Y2956695D01*
G01X1550495Y2956695D01*
G01X1550495Y2911696D01*
G01X1506494Y2911696D01*
G01X1505996Y2869700D01*
G01X1510995Y2864698D01*
G01X1625996Y2864698D01*
G01X1630998Y2869700D01*
G37*
G36*
G01X919980Y1078577D02*
G01X919980Y1122638D01*
G01X958487Y1169453D01*
G01X1027234Y1169453D01*
G01X1037234Y1159453D01*
G01X1037234Y1041757D01*
G01X1027234Y1031757D01*
G01X958487Y1031757D01*
G01X919980Y1078577D01*
G37*
G36*
G01X847982Y1078577D02*
G01X847982Y1122638D01*
G01X809475Y1169453D01*
G01X740728Y1169453D01*
G01X730728Y1159453D01*
G01X730728Y1041757D01*
G01X740728Y1031757D01*
G01X809475Y1031757D01*
G01X847982Y1078577D01*
G37*
G36*
G01X3093898Y3188200D02*
G01X3093898Y3060202D01*
G01X3098899Y3055201D01*
G01X3213900Y3055201D01*
G01X3218899Y3060202D01*
G01X3219402Y3101205D01*
G01X3174401Y3101205D01*
G01X3174401Y3146204D01*
G01X3218401Y3146204D01*
G01X3218899Y3188200D01*
G01X3213900Y3193202D01*
G01X3098899Y3193202D01*
G01X3093898Y3188200D01*
G37*
G36*
G01X3308899Y3188200D02*
G01X3308901Y3146204D01*
G01X3353399Y3146204D01*
G01X3353399Y3101205D01*
G01X3309402Y3101205D01*
G01X3308899Y3060202D01*
G01X3313900Y3055201D01*
G01X3428898Y3055201D01*
G01X3433900Y3060202D01*
G01X3433900Y3188200D01*
G01X3428898Y3193202D01*
G01X3313900Y3193202D01*
G01X3308899Y3188200D01*
G37*
G36*
G01X3551930Y2943653D02*
G01X3551930Y2815655D01*
G01X3556931Y2810654D01*
G01X3671932Y2810654D01*
G01X3676931Y2815655D01*
G01X3677434Y2856658D01*
G01X3632432Y2856658D01*
G01X3632432Y2901657D01*
G01X3676433Y2901657D01*
G01X3676931Y2943653D01*
G01X3671932Y2948654D01*
G01X3556931Y2948654D01*
G01X3551930Y2943653D01*
G37*
G36*
G01X3766930Y2943653D02*
G01X3766933Y2901657D01*
G01X3811431Y2901657D01*
G01X3811431Y2856658D01*
G01X3767433Y2856658D01*
G01X3766930Y2815655D01*
G01X3771932Y2810654D01*
G01X3886930Y2810654D01*
G01X3891932Y2815655D01*
G01X3891932Y2943653D01*
G01X3886930Y2948654D01*
G01X3771932Y2948654D01*
G01X3766930Y2943653D01*
G37*
G36*
G01X2272800Y1468298D02*
G01X2400798Y1468298D01*
G01X2405799Y1473299D01*
G01X2405799Y1588300D01*
G01X2400798Y1593299D01*
G01X2359795Y1593802D01*
G01X2359795Y1548801D01*
G01X2314796Y1548801D01*
G01X2314796Y1592801D01*
G01X2272800Y1593299D01*
G01X2267798Y1588300D01*
G01X2267798Y1473299D01*
G01X2272800Y1468298D01*
G37*
G36*
G01X2272800Y1683299D02*
G01X2314796Y1683301D01*
G01X2314796Y1727799D01*
G01X2359795Y1727799D01*
G01X2359795Y1683802D01*
G01X2400798Y1683299D01*
G01X2405799Y1688300D01*
G01X2405799Y1803298D01*
G01X2400798Y1808300D01*
G01X2272800Y1808300D01*
G01X2267798Y1803298D01*
G01X2267798Y1688300D01*
G01X2272800Y1683299D01*
G37*
G36*
G01X3263400Y2331898D02*
G01X3391398Y2331898D01*
G01X3396399Y2336899D01*
G01X3396399Y2451900D01*
G01X3391398Y2456899D01*
G01X3350395Y2457402D01*
G01X3350395Y2412401D01*
G01X3305396Y2412401D01*
G01X3305396Y2456401D01*
G01X3263400Y2456899D01*
G01X3258398Y2451900D01*
G01X3258398Y2336899D01*
G01X3263400Y2331898D01*
G37*
G36*
G01X3263400Y2546899D02*
G01X3305396Y2546901D01*
G01X3305396Y2591399D01*
G01X3350395Y2591399D01*
G01X3350395Y2547402D01*
G01X3391398Y2546899D01*
G01X3396399Y2551900D01*
G01X3396399Y2666898D01*
G01X3391398Y2671900D01*
G01X3263400Y2671900D01*
G01X3258398Y2666898D01*
G01X3258398Y2551900D01*
G01X3263400Y2546899D01*
G37*

G04 Pad Start*
G54D10*
G01X3416300Y1701800D03*
G01X3615463Y1701800D03*
G01X3416300Y1435100D03*
G01X3617368Y1435100D03*
G54D11*
G01X2573706Y2076907D03*
G01X2523693Y2076907D03*
G01X2473706Y2076907D03*
G01X2423693Y2076907D03*
G01X2373706Y2076907D03*
G01X2323694Y2076907D03*
G01X2273706Y2076907D03*
G01X2223694Y2076907D03*
G01X2173707Y2076907D03*
G01X2123694Y2076907D03*
G01X2073707Y2076907D03*
G01X2023694Y2076907D03*
G54D12*
G01X1873707Y2226894D03*
G01X1873707Y2276907D03*
G01X1873707Y2326894D03*
G01X1873707Y2376907D03*
G01X1873707Y2426894D03*
G01X1873707Y2476906D03*
G01X1873707Y2526894D03*
G01X1873707Y2576906D03*
G01X1873707Y2626893D03*
G01X1873707Y2676906D03*
G01X1873707Y2726893D03*
G01X1873707Y2776906D03*
G54D11*
G01X2023694Y2926893D03*
G01X2073707Y2926893D03*
G01X2123694Y2926893D03*
G01X2173707Y2926893D03*
G01X2223694Y2926893D03*
G01X2273706Y2926893D03*
G01X2323694Y2926893D03*
G01X2373706Y2926893D03*
G01X2423693Y2926893D03*
G01X2473706Y2926893D03*
G01X2523693Y2926893D03*
G01X2573706Y2926893D03*
G54D12*
G01X2723693Y2776906D03*
G01X2723693Y2726893D03*
G01X2723693Y2676906D03*
G01X2723693Y2626893D03*
G01X2723693Y2576906D03*
G01X2723693Y2526894D03*
G01X2723693Y2476906D03*
G01X2723693Y2426894D03*
G01X2723693Y2376907D03*
G01X2723693Y2326894D03*
G01X2723693Y2276907D03*
G01X2723693Y2226894D03*
G54D13*
G01X3191693Y3654349D03*
G01X3291718Y3654349D03*
G01X3391718Y3654349D03*
G01X3491718Y3654349D03*
G01X3591717Y3654349D03*
G01X3691717Y3654349D03*
G54D14*
G01X3821689Y4041851D03*
G01X3061696Y4041851D03*
G54D15*
G01X749160Y1631709D03*
G01X749160Y1441691D03*
G01X1003440Y1441691D03*
G01X1003440Y1536687D03*
G01X1003440Y1631709D03*
G54D16*
G01X2907900Y1040301D03*
G01X2666600Y1037101D03*
G01X2793600Y1038701D03*
G04 Pad End*

M02*

