G04 Layer: TopSilkscreenLayer*
G04 EasyEDA Pro v2.2.32.3, 2024-12-28 23:04:40*
G04 Gerber Generator version 0.3*
G04 Scale: 100 percent, Rotated: No, Reflected: No*
G04 Dimensions in millimeters*
G04 Leading zeros omitted, absolute positions, 3 integers and 5 decimals*
%FSLAX35Y35*%
%MOMM*%
%ADD10C,0.1016*%
%ADD11C,0.1524*%
%ADD12C,0.254*%
%ADD13C,0.4*%
G75*


G04 Image Start*
G36*
G01X1822399Y2969111D02*
G01X1822399Y2969111D01*
G01X1826469Y2967250D01*
G01X1829032Y2966719D01*
G01X1831712Y2968365D01*
G01X1834391Y2970010D01*
G01X1835524Y2974428D01*
G01X1836656Y2978845D01*
G01X1839859Y2980479D01*
G01X1843062Y2982113D01*
G01X1867233Y2982131D01*
G01X1891404Y2982150D01*
G01X1894985Y2983775D01*
G01X1898566Y2985401D01*
G01X1899501Y2989096D01*
G01X1899501Y2989096D01*
G01X1904634Y3001320D01*
G01X1906268Y3002799D01*
G01X1907967Y3000007D01*
G01X1909666Y2997214D01*
G01X1910639Y2991445D01*
G01X1911612Y2985677D01*
G01X1913139Y2984296D01*
G01X1914666Y2982914D01*
G01X1918842Y2982426D01*
G01X1923017Y2981938D01*
G01X1925292Y2983737D01*
G01X1927568Y2985536D01*
G01X1928173Y2989163D01*
G01X1928173Y2989163D01*
G01X1934205Y3001464D01*
G01X1936177Y3002755D01*
G01X1937870Y3002218D01*
G01X1939564Y3001681D01*
G01X1941399Y2997890D01*
G01X1943235Y2994099D01*
G01X1942639Y2985703D01*
G01X1942044Y2977306D01*
G01X1943863Y2973742D01*
G01X1943863Y2973742D01*
G01X1949508Y2967985D01*
G01X1958028Y2968439D01*
G01X1960939Y2969399D01*
G01X1962012Y2972552D01*
G01X1963085Y2975706D01*
G01X1962881Y2984436D01*
G01X1962677Y2993166D01*
G01X1963937Y2995603D01*
G01X1963937Y2995603D01*
G01X1966355Y2999001D01*
G01X1967513Y2999961D01*
G01X1971169Y2999033D01*
G01X1974825Y2998105D01*
G01X1976148Y2996087D01*
G01X1977471Y2994068D01*
G01X1976871Y2988471D01*
G01X1976871Y2988471D01*
G01X1975619Y2980571D01*
G01X1974967Y2978268D01*
G01X1975957Y2975353D01*
G01X1976948Y2972437D01*
G01X1979887Y2970847D01*
G01X1982826Y2969258D01*
G01X1984795Y2971628D01*
G01X1984795Y2971628D01*
G01X1988422Y2977158D01*
G01X1990079Y2980318D01*
G01X1992561Y2979453D01*
G01X1995044Y2978588D01*
G01X1995545Y2976720D01*
G01X1995545Y2976720D01*
G01X1996058Y2964388D01*
G01X1996069Y2953923D01*
G01X1997687Y2952305D01*
G01X1999306Y2950687D01*
G01X2002842Y2950090D01*
G01X2006378Y2949493D01*
G01X2008407Y2950822D01*
G01X2010435Y2952151D01*
G01X2011841Y2956382D01*
G01X2011841Y2956382D01*
G01X2019743Y2965576D01*
G01X2021789Y2966089D01*
G01X2022972Y2964491D01*
G01X2024155Y2962893D01*
G01X2023691Y2959049D01*
G01X2023228Y2955205D01*
G01X2021640Y2953923D01*
G01X2021640Y2953923D01*
G01X2018288Y2951361D01*
G01X2016524Y2950080D01*
G01X2015717Y2945028D01*
G01X2014910Y2939976D01*
G01X2016458Y2936485D01*
G01X2016458Y2936485D01*
G01X2019542Y2931727D01*
G01X2021079Y2930458D01*
G01X2025439Y2930018D01*
G01X2029799Y2929578D01*
G01X2032651Y2923735D01*
G01X2035504Y2917892D01*
G01X2039359Y2916187D01*
G01X2043213Y2914483D01*
G01X2045060Y2914984D01*
G01X2045060Y2914984D01*
G01X2049897Y2917988D01*
G01X2052887Y2920490D01*
G01X2052838Y2961765D01*
G01X2052789Y3003041D01*
G01X2051843Y3009742D01*
G01X2050897Y3016443D01*
G01X2048901Y3018614D01*
G01X2048901Y3018614D01*
G01X2043195Y3022452D01*
G01X2039483Y3024120D01*
G01X2037458Y3028699D01*
G01X2037458Y3028699D01*
G01X2027845Y3042229D01*
G01X2027845Y3042229D01*
G01X2023771Y3043161D01*
G01X2021141Y3043687D01*
G01X2018409Y3049582D01*
G01X2015677Y3055477D01*
G01X2011640Y3055956D01*
G01X2011640Y3055956D01*
G01X2003331Y3057332D01*
G01X2003331Y3057332D01*
G01X1993933Y3058905D01*
G01X1993933Y3058905D01*
G01X1985663Y3060717D01*
G01X1982520Y3061854D01*
G01X1982043Y3063626D01*
G01X1982043Y3063626D01*
G01X1982294Y3083332D01*
G01X1982841Y3085891D01*
G01X1985824Y3087349D01*
G01X1988807Y3088807D01*
G01X2016903Y3088848D01*
G01X2044999Y3088889D01*
G01X2048353Y3087885D01*
G01X2051706Y3086880D01*
G01X2052724Y3085109D01*
G01X2053742Y3083337D01*
G01X2053572Y3073014D01*
G01X2053402Y3062692D01*
G01X2055984Y3059560D01*
G01X2058565Y3056429D01*
G01X2063183Y3056429D01*
G01X2067800Y3056429D01*
G01X2069224Y3058603D01*
G01X2069224Y3058603D01*
G01X2071871Y3066067D01*
G01X2071871Y3066067D01*
G01X2073989Y3072435D01*
G01X2074884Y3073513D01*
G01X2079374Y3073513D01*
G01X2083864Y3073513D01*
G01X2084951Y3072204D01*
G01X2084951Y3072204D01*
G01X2086447Y3066640D01*
G01X2086856Y3062385D01*
G01X2085372Y3054068D01*
G01X2085372Y3054068D01*
G01X2083041Y3042918D01*
G01X2083041Y3042918D01*
G01X2082764Y3039703D01*
G01X2085391Y3040060D01*
G01X2085391Y3040060D01*
G01X2089624Y3041053D01*
G01X2091678Y3041053D01*
G01X2094884Y3044888D01*
G01X2098090Y3048723D01*
G01X2100839Y3049630D01*
G01X2100839Y3049630D01*
G01X2104690Y3051864D01*
G01X2105791Y3053192D01*
G01X2106767Y3050326D01*
G01X2107743Y3047460D01*
G01X2106878Y3045538D01*
G01X2106878Y3045538D01*
G01X2105318Y3043616D01*
G01X2105318Y3043616D01*
G01X2103401Y3041267D01*
G01X2103401Y3041267D01*
G01X2099246Y3035928D01*
G01X2099246Y3035928D01*
G01X2093506Y3028790D01*
G01X2090701Y3024641D01*
G01X2091232Y3020769D01*
G01X2091763Y3016897D01*
G01X2093258Y3015786D01*
G01X2093258Y3015786D01*
G01X2096732Y3014166D01*
G01X2098711Y3013657D01*
G01X2103372Y3016324D01*
G01X2108034Y3018991D01*
G01X2110731Y3022347D01*
G01X2110731Y3022347D01*
G01X2121360Y3029948D01*
G01X2121360Y3029948D01*
G01X2123306Y3027296D01*
G01X2124919Y3024643D01*
G01X2123600Y3020773D01*
G01X2122281Y3016902D01*
G01X2115926Y3010867D01*
G01X2115926Y3010867D01*
G01X2106754Y2996925D01*
G01X2106164Y2993372D01*
G01X2107464Y2990859D01*
G01X2107464Y2990859D01*
G01X2111033Y2986859D01*
G01X2113303Y2985372D01*
G01X2117137Y2986337D01*
G01X2117137Y2986337D01*
G01X2122500Y2986818D01*
G01X2124029Y2986332D01*
G01X2124387Y2978132D01*
G01X2124746Y2969931D01*
G01X2126661Y2968381D01*
G01X2128576Y2966830D01*
G01X2132598Y2966252D01*
G01X2132598Y2966252D01*
G01X2138114Y2964364D01*
G01X2139610Y2963055D01*
G01X2139610Y2959049D01*
G01X2139610Y2955042D01*
G01X2138114Y2953705D01*
G01X2138114Y2953705D01*
G01X2132530Y2951762D01*
G01X2132530Y2951762D01*
G01X2126718Y2949763D01*
G01X2124995Y2948368D01*
G01X2124336Y2943513D01*
G01X2124336Y2943513D01*
G01X2122567Y2937321D01*
G01X2121458Y2935985D01*
G01X2117931Y2935984D01*
G01X2114405Y2935982D01*
G01X2111414Y2934489D01*
G01X2108424Y2932995D01*
G01X2107249Y2928574D01*
G01X2106074Y2924152D01*
G01X2107947Y2920285D01*
G01X2109820Y2916417D01*
G01X2111258Y2916002D01*
G01X2111258Y2916002D01*
G01X2125085Y2915322D01*
G01X2137474Y2915057D01*
G01X2139011Y2920182D01*
G01X2139011Y2920182D01*
G01X2142001Y2928294D01*
G01X2143454Y2931280D01*
G01X2148436Y2933046D01*
G01X2148436Y2933046D01*
G01X2156804Y2936893D01*
G01X2160191Y2938975D01*
G01X2159656Y2947517D01*
G01X2159656Y2947517D01*
G01X2158491Y2994499D01*
G01X2157861Y3032938D01*
G01X2160270Y3040452D01*
G01X2162679Y3047966D01*
G01X2162679Y3066986D01*
G01X2162679Y3086007D01*
G01X2165028Y3088162D01*
G01X2167378Y3090317D01*
G01X2171475Y3089941D01*
G01X2175572Y3089565D01*
G01X2176748Y3087732D01*
G01X2176748Y3087732D01*
G01X2178520Y3081811D01*
G01X2178520Y3081811D01*
G01X2180580Y3075915D01*
G01X2182044Y3074107D01*
G01X2186673Y3072727D01*
G01X2191301Y3071347D01*
G01X2193058Y3065919D01*
G01X2193058Y3065919D01*
G01X2196515Y3058584D01*
G01X2198215Y3056675D01*
G01X2202185Y3056080D01*
G01X2206155Y3055485D01*
G01X2208767Y3052510D01*
G01X2208767Y3052510D01*
G01X2211475Y3048498D01*
G01X2211475Y3048498D01*
G01X2211688Y3035847D01*
G01X2211807Y3024234D01*
G01X2213031Y3022758D01*
G01X2213031Y3022758D01*
G01X2222110Y3017990D01*
G01X2222110Y3017990D01*
G01X2226410Y3016614D01*
G01X2229310Y3015238D01*
G01X2230268Y3012041D01*
G01X2231226Y3008845D01*
G01X2230282Y3007082D01*
G01X2229339Y3005319D01*
G01X2224845Y3003861D01*
G01X2224845Y3003861D01*
G01X2213743Y2996797D01*
G01X2212261Y2994280D01*
G01X2212092Y2984139D01*
G01X2211923Y2973998D01*
G01X2213147Y2971463D01*
G01X2214370Y2968928D01*
G01X2218215Y2967419D01*
G01X2218215Y2967419D01*
G01X2225735Y2964998D01*
G01X2225735Y2964998D01*
G01X2229374Y2963330D01*
G01X2230616Y2957826D01*
G01X2231182Y2953614D01*
G01X2233638Y2951320D01*
G01X2236094Y2949027D01*
G01X2239399Y2948498D01*
G01X2242704Y2947970D01*
G01X2244010Y2946462D01*
G01X2244010Y2946462D01*
G01X2246216Y2942263D01*
G01X2247117Y2939571D01*
G01X2245878Y2937802D01*
G01X2244639Y2936034D01*
G01X2241181Y2935103D01*
G01X2237722Y2934172D01*
G01X2229037Y2934707D01*
G01X2220351Y2935242D01*
G01X2217665Y2933546D01*
G01X2214980Y2931850D01*
G01X2213519Y2927452D01*
G01X2212058Y2923055D01*
G01X2208769Y2920673D01*
G01X2208769Y2920673D01*
G01X2201809Y2917250D01*
G01X2198137Y2916209D01*
G01X2195309Y2912494D01*
G01X2192482Y2908778D01*
G01X2193031Y2905511D01*
G01X2193031Y2905511D01*
G01X2194348Y2899681D01*
G01X2194348Y2899681D01*
G01X2195948Y2891154D01*
G01X2196782Y2885189D01*
G01X2198216Y2884141D01*
G01X2198216Y2884141D01*
G01X2203439Y2882525D01*
G01X2207229Y2881957D01*
G01X2209653Y2879918D01*
G01X2212076Y2877879D01*
G01X2212662Y2873619D01*
G01X2213249Y2869359D01*
G01X2215699Y2867615D01*
G01X2215699Y2867615D01*
G01X2223002Y2864201D01*
G01X2223002Y2864201D01*
G01X2229047Y2861285D01*
G01X2231904Y2855207D01*
G01X2233727Y2849729D01*
G01X2235789Y2848107D01*
G01X2235789Y2848107D01*
G01X2240798Y2845933D01*
G01X2243744Y2845380D01*
G01X2245993Y2842708D01*
G01X2248242Y2840036D01*
G01X2247636Y2828598D01*
G01X2247030Y2817161D01*
G01X2249443Y2814643D01*
G01X2251857Y2812124D01*
G01X2255328Y2812111D01*
G01X2255328Y2812111D01*
G01X2260917Y2811028D01*
G01X2263035Y2809956D01*
G01X2264552Y2806128D01*
G01X2266070Y2802300D01*
G01X2265582Y2794137D01*
G01X2265094Y2785973D01*
G01X2266137Y2783684D01*
G01X2266137Y2783684D01*
G01X2276145Y2777012D01*
G01X2276145Y2777012D01*
G01X2282896Y2773522D01*
G01X2284859Y2771678D01*
G01X2284960Y2761790D01*
G01X2284960Y2761790D01*
G01X2285601Y2749452D01*
G01X2286140Y2747003D01*
G01X2292121Y2743845D01*
G01X2298102Y2740687D01*
G01X2298712Y2736044D01*
G01X2298712Y2736044D01*
G01X2298851Y2730119D01*
G01X2298851Y2730119D01*
G01X2298435Y2645825D01*
G01X2298489Y2562811D01*
G01X2295968Y2560690D01*
G01X2295968Y2560690D01*
G01X2290419Y2557570D01*
G01X2287392Y2556572D01*
G01X2285938Y2553867D01*
G01X2284484Y2551162D01*
G01X2284742Y2533560D01*
G01X2284742Y2533560D01*
G01X2284398Y2511942D01*
G01X2283796Y2507927D01*
G01X2281799Y2506618D01*
G01X2281799Y2506618D01*
G01X2274000Y2504313D01*
G01X2274000Y2504313D01*
G01X2267305Y2502439D01*
G01X2265739Y2497296D01*
G01X2265739Y2497296D01*
G01X2262825Y2488371D01*
G01X2256014Y2485814D01*
G01X2252689Y2485814D01*
G01X2250913Y2483892D01*
G01X2250913Y2483892D01*
G01X2247270Y2472849D01*
G01X2247265Y2470562D01*
G01X2245159Y2468906D01*
G01X2245159Y2468906D01*
G01X2239716Y2466716D01*
G01X2239716Y2466716D01*
G01X2235252Y2464584D01*
G01X2233514Y2458338D01*
G01X2232910Y2453218D01*
G01X2231013Y2451199D01*
G01X2229116Y2449180D01*
G01X2224608Y2448617D01*
G01X2220100Y2448054D01*
G01X2217954Y2444084D01*
G01X2217954Y2444084D01*
G01X2214859Y2436546D01*
G01X2213911Y2432978D01*
G01X2211298Y2430780D01*
G01X2211298Y2430780D01*
G01X2207683Y2428553D01*
G01X2207683Y2428553D01*
G01X2194719Y2428276D01*
G01X2182757Y2428028D01*
G01X2179980Y2426574D01*
G01X2177204Y2425121D01*
G01X2177204Y2420920D01*
G01X2177204Y2416718D01*
G01X2179265Y2414321D01*
G01X2181326Y2411925D01*
G01X2185887Y2410608D01*
G01X2190447Y2409292D01*
G01X2192045Y2405919D01*
G01X2193643Y2402546D01*
G01X2192473Y2400467D01*
G01X2191301Y2398388D01*
G01X2186602Y2397446D01*
G01X2186602Y2397446D01*
G01X2180748Y2395527D01*
G01X2178418Y2390465D01*
G01X2177047Y2385750D01*
G01X2177339Y2377482D01*
G01X2177631Y2369214D01*
G01X2179605Y2366447D01*
G01X2181579Y2363679D01*
G01X2186251Y2362321D01*
G01X2190924Y2360963D01*
G01X2192228Y2358973D01*
G01X2193532Y2356983D01*
G01X2193271Y2352421D01*
G01X2193010Y2347859D01*
G01X2184466Y2347859D01*
G01X2184466Y2347859D01*
G01X2171387Y2348535D01*
G01X2166852Y2349212D01*
G01X2164047Y2346400D01*
G01X2161242Y2343587D01*
G01X2159356Y2337908D01*
G01X2157470Y2332228D01*
G01X2150639Y2329408D01*
G01X2150639Y2329408D01*
G01X2143573Y2325878D01*
G01X2140958Y2320376D01*
G01X2140958Y2320376D01*
G01X2138295Y2315151D01*
G01X2132906Y2313546D01*
G01X2128586Y2313035D01*
G01X2126934Y2311227D01*
G01X2125282Y2309419D01*
G01X2124906Y2304586D01*
G01X2124530Y2299753D01*
G01X2123079Y2297539D01*
G01X2121628Y2295324D01*
G01X2117363Y2295324D01*
G01X2113098Y2295324D01*
G01X2111527Y2297907D01*
G01X2109956Y2300490D01*
G01X2109448Y2308324D01*
G01X2108940Y2316158D01*
G01X2109864Y2320466D01*
G01X2110788Y2324774D01*
G01X2112169Y2325825D01*
G01X2112169Y2325825D01*
G01X2116659Y2326903D01*
G01X2119769Y2326930D01*
G01X2121699Y2328493D01*
G01X2123629Y2330055D01*
G01X2123716Y2368427D01*
G01X2123803Y2406799D01*
G01X2122705Y2408721D01*
G01X2121607Y2410643D01*
G01X2117765Y2410643D01*
G01X2117765Y2410643D01*
G01X2109037Y2412270D01*
G01X2109037Y2412270D01*
G01X2101082Y2414727D01*
G01X2098013Y2415557D01*
G01X2095433Y2414472D01*
G01X2095433Y2414472D01*
G01X2091072Y2411476D01*
G01X2089291Y2409565D01*
G01X2092022Y2406100D01*
G01X2092022Y2406100D01*
G01X2099091Y2398310D01*
G01X2099091Y2398310D01*
G01X2105747Y2390473D01*
G01X2108067Y2386959D01*
G01X2107113Y2384868D01*
G01X2106160Y2382777D01*
G01X2102035Y2383306D01*
G01X2097910Y2383835D01*
G01X2094040Y2387629D01*
G01X2094040Y2387629D01*
G01X2089255Y2392278D01*
G01X2089255Y2392278D01*
G01X2085991Y2395772D01*
G01X2083641Y2398412D01*
G01X2079143Y2399491D01*
G01X2074645Y2400570D01*
G01X2072478Y2399150D01*
G01X2072478Y2399150D01*
G01X2069625Y2395876D01*
G01X2068939Y2394023D01*
G01X2070035Y2389309D01*
G01X2071131Y2384595D01*
G01X2073341Y2382884D01*
G01X2073341Y2382884D01*
G01X2080775Y2376334D01*
G01X2085998Y2371494D01*
G01X2085421Y2367648D01*
G01X2085421Y2367648D01*
G01X2083749Y2362893D01*
G01X2082654Y2361984D01*
G01X2079780Y2364104D01*
G01X2079780Y2364104D01*
G01X2075951Y2366224D01*
G01X2075951Y2366224D01*
G01X2071257Y2372268D01*
G01X2071257Y2372268D01*
G01X2062177Y2381270D01*
G01X2060359Y2382513D01*
G01X2058143Y2381504D01*
G01X2055927Y2380494D01*
G01X2055097Y2377844D01*
G01X2055097Y2377844D01*
G01X2056379Y2362692D01*
G01X2057529Y2360441D01*
G01X2061249Y2358261D01*
G01X2064969Y2356082D01*
G01X2067377Y2352607D01*
G01X2069785Y2349133D01*
G01X2069262Y2344717D01*
G01X2069262Y2344717D01*
G01X2068028Y2339591D01*
G01X2067317Y2338880D01*
G01X2063384Y2340220D01*
G01X2059452Y2341559D01*
G01X2054461Y2347388D01*
G01X2054461Y2347388D01*
G01X2047178Y2356185D01*
G01X2044887Y2359154D01*
G01X2040343Y2358443D01*
G01X2035799Y2357732D01*
G01X2034304Y2355904D01*
G01X2032809Y2354076D01*
G01X2032809Y2350720D01*
G01X2032809Y2347363D01*
G01X2034565Y2343922D01*
G01X2034565Y2343922D01*
G01X2044225Y2332211D01*
G01X2052131Y2323941D01*
G01X2053289Y2319781D01*
G01X2054448Y2315622D01*
G01X2057271Y2314442D01*
G01X2057271Y2314442D01*
G01X2064009Y2313263D01*
G01X2067924Y2313263D01*
G01X2070352Y2312008D01*
G01X2072781Y2310752D01*
G01X2073727Y2308036D01*
G01X2073727Y2308036D01*
G01X2074674Y2303828D01*
G01X2074674Y2302335D01*
G01X2077668Y2299708D01*
G01X2077668Y2299708D01*
G01X2085336Y2294869D01*
G01X2090012Y2292658D01*
G01X2091742Y2290229D01*
G01X2091742Y2290229D01*
G01X2093472Y2287158D01*
G01X2093472Y2287158D01*
G01X2095663Y2283644D01*
G01X2097854Y2280772D01*
G01X2117664Y2281001D01*
G01X2137474Y2281230D01*
G01X2139790Y2285800D01*
G01X2139790Y2285800D01*
G01X2148700Y2294914D01*
G01X2153160Y2296886D01*
G01X2154388Y2299308D01*
G01X2154388Y2299308D01*
G01X2156232Y2305132D01*
G01X2156232Y2305132D01*
G01X2157643Y2310015D01*
G01X2158436Y2311497D01*
G01X2162848Y2312807D01*
G01X2162848Y2312807D01*
G01X2171307Y2314117D01*
G01X2175353Y2314117D01*
G01X2178280Y2317640D01*
G01X2181208Y2321163D01*
G01X2185770Y2321885D01*
G01X2190332Y2322606D01*
G01X2191671Y2323944D01*
G01X2193010Y2325284D01*
G01X2193010Y2335290D01*
G01X2193010Y2345296D01*
G01X2193756Y2346452D01*
G01X2194502Y2347608D01*
G01X2199757Y2347045D01*
G01X2199757Y2347045D01*
G01X2206406Y2347017D01*
G01X2207799Y2347552D01*
G01X2209746Y2352830D01*
G01X2209746Y2352830D01*
G01X2216663Y2365767D01*
G01X2216663Y2365767D01*
G01X2221633Y2374835D01*
G01X2221633Y2374835D01*
G01X2227441Y2381793D01*
G01X2229750Y2382894D01*
G01X2232196Y2387793D01*
G01X2234642Y2392691D01*
G01X2238176Y2393761D01*
G01X2241711Y2394831D01*
G01X2250742Y2394742D01*
G01X2259773Y2394654D01*
G01X2262240Y2393466D01*
G01X2264708Y2392278D01*
G01X2265300Y2390142D01*
G01X2265300Y2390142D01*
G01X2265977Y2378885D01*
G01X2266062Y2369763D01*
G01X2267323Y2368502D01*
G01X2268585Y2367241D01*
G01X2274799Y2366186D01*
G01X2274799Y2366186D01*
G01X2284513Y2362477D01*
G01X2287850Y2352557D01*
G01X2287850Y2352557D01*
G01X2289331Y2346791D01*
G01X2290195Y2345723D01*
G01X2317336Y2345723D01*
G01X2344478Y2345723D01*
G01X2346175Y2347218D01*
G01X2347871Y2348713D01*
G01X2348950Y2352792D01*
G01X2348950Y2352792D01*
G01X2350778Y2357335D01*
G01X2350778Y2357335D01*
G01X2352928Y2360944D01*
G01X2354328Y2364089D01*
G01X2354461Y2375620D01*
G01X2354461Y2375620D01*
G01X2355180Y2387662D01*
G01X2358399Y2391455D01*
G01X2360816Y2392705D01*
G01X2448842Y2392705D01*
G01X2536868Y2392705D01*
G01X2539589Y2395695D01*
G01X2539589Y2395695D01*
G01X2543322Y2398684D01*
G01X2543322Y2398684D01*
G01X2545646Y2400179D01*
G01X2546958Y2401674D01*
G01X2547966Y2407593D01*
G01X2547966Y2407593D01*
G01X2551447Y2417477D01*
G01X2551447Y2417477D01*
G01X2553883Y2421501D01*
G01X2555706Y2425097D01*
G01X2555706Y2431974D01*
G01X2555706Y2431974D01*
G01X2554426Y2446803D01*
G01X2553146Y2454754D01*
G01X2554285Y2462410D01*
G01X2555423Y2470066D01*
G01X2554277Y2477726D01*
G01X2553131Y2485387D01*
G01X2553943Y2489231D01*
G01X2553943Y2489231D01*
G01X2555268Y2497033D01*
G01X2555781Y2500991D01*
G01X2554775Y2505148D01*
G01X2553769Y2509305D01*
G01X2550856Y2513123D01*
G01X2547943Y2516940D01*
G01X2548193Y2541052D01*
G01X2548444Y2565164D01*
G01X2551434Y2568272D01*
G01X2551434Y2568272D01*
G01X2563688Y2573895D01*
G01X2568528Y2574091D01*
G01X2570617Y2572128D01*
G01X2570617Y2572128D01*
G01X2573933Y2566569D01*
G01X2575159Y2562972D01*
G01X2574724Y2555354D01*
G01X2574290Y2547736D01*
G01X2577173Y2546365D01*
G01X2577173Y2546365D01*
G01X2584796Y2543620D01*
G01X2589534Y2542246D01*
G01X2591343Y2540297D01*
G01X2591343Y2540297D01*
G01X2594596Y2533895D01*
G01X2594596Y2533895D01*
G01X2597237Y2528449D01*
G01X2598434Y2527455D01*
G01X2610020Y2526922D01*
G01X2610020Y2526922D01*
G01X2623274Y2527008D01*
G01X2623274Y2527008D01*
G01X2631217Y2528405D01*
G01X2637492Y2529184D01*
G01X2639864Y2530738D01*
G01X2642236Y2532292D01*
G01X2641706Y2540355D01*
G01X2641177Y2548419D01*
G01X2643077Y2551800D01*
G01X2644978Y2555182D01*
G01X2648275Y2556863D01*
G01X2651571Y2558544D01*
G01X2659389Y2559018D01*
G01X2667206Y2559491D01*
G01X2670087Y2561226D01*
G01X2672967Y2562961D01*
G01X2672727Y2578844D01*
G01X2672727Y2578844D01*
G01X2672623Y2597588D01*
G01X2672760Y2600450D01*
G01X2675537Y2603220D01*
G01X2678314Y2605990D01*
G01X2684105Y2607080D01*
G01X2689896Y2608169D01*
G01X2690727Y2609720D01*
G01X2691557Y2611271D01*
G01X2691557Y2619470D01*
G01X2691557Y2627669D01*
G01X2692767Y2630565D01*
G01X2692767Y2630565D01*
G01X2701580Y2636646D01*
G01X2701580Y2636646D01*
G01X2705999Y2638755D01*
G01X2707141Y2647549D01*
G01X2707560Y2655952D01*
G01X2709347Y2657738D01*
G01X2711133Y2659524D01*
G01X2716314Y2660135D01*
G01X2716314Y2660135D01*
G01X2722759Y2661796D01*
G01X2724024Y2662846D01*
G01X2724024Y2683270D01*
G01X2724024Y2703694D01*
G01X2725174Y2706442D01*
G01X2725174Y2706442D01*
G01X2733066Y2712279D01*
G01X2733066Y2712279D01*
G01X2739352Y2714707D01*
G01X2741741Y2716407D01*
G01X2742295Y2720580D01*
G01X2742848Y2724754D01*
G01X2744330Y2726084D01*
G01X2744330Y2726084D01*
G01X2749657Y2729420D01*
G01X2753502Y2731426D01*
G01X2753752Y2862108D01*
G01X2753752Y2862108D01*
G01X2753475Y2997290D01*
G01X2752948Y3001789D01*
G01X2749380Y3003582D01*
G01X2749380Y3003582D01*
G01X2741769Y3010302D01*
G01X2740913Y3012437D01*
G01X2741026Y3022282D01*
G01X2741139Y3032128D01*
G01X2738830Y3035688D01*
G01X2736521Y3039249D01*
G01X2733050Y3039823D01*
G01X2733050Y3039823D01*
G01X2725234Y3044939D01*
G01X2724024Y3047832D01*
G01X2724024Y3059714D01*
G01X2724024Y3071596D01*
G01X2722935Y3072500D01*
G01X2722935Y3072500D01*
G01X2717168Y3073984D01*
G01X2717168Y3073984D01*
G01X2710601Y3075745D01*
G01X2708712Y3076926D01*
G01X2707777Y3080396D01*
G01X2706843Y3083866D01*
G01X2706994Y3092673D01*
G01X2707145Y3101481D01*
G01X2706400Y3102763D01*
G01X2705655Y3104045D01*
G01X2700709Y3105470D01*
G01X2695763Y3106895D01*
G01X2694090Y3109637D01*
G01X2694090Y3109637D01*
G01X2691897Y3115126D01*
G01X2691897Y3115126D01*
G01X2686003Y3120447D01*
G01X2686003Y3120447D01*
G01X2680137Y3122412D01*
G01X2677687Y3123348D01*
G01X2675248Y3126714D01*
G01X2672809Y3130081D01*
G01X2671838Y3135016D01*
G01X2670866Y3139952D01*
G01X2668782Y3140901D01*
G01X2666699Y3141851D01*
G01X2657981Y3141855D01*
G01X2657981Y3141855D01*
G01X2646148Y3142725D01*
G01X2643031Y3143591D01*
G01X2641662Y3145680D01*
G01X2640292Y3147770D01*
G01X2640292Y3151495D01*
G01X2640292Y3155220D01*
G01X2638315Y3157077D01*
G01X2636338Y3158935D01*
G01X2624579Y3158935D01*
G01X2612820Y3158935D01*
G01X2610499Y3161284D01*
G01X2610499Y3161284D01*
G01X2606934Y3165380D01*
G01X2606934Y3165380D01*
G01X2601816Y3168583D01*
G01X2597942Y3170040D01*
G01X2497899Y3170040D01*
G01X2397856Y3170040D01*
G01X2393941Y3167852D01*
G01X2390026Y3165664D01*
G01X2388301Y3162873D01*
G01X2388301Y3162873D01*
G01X2378509Y3158081D01*
G01X2374836Y3158081D01*
G01X2373507Y3156586D01*
G01X2373507Y3156586D01*
G01X2371112Y3151491D01*
G01X2371112Y3151491D01*
G01X2368009Y3145977D01*
G01X2365971Y3144062D01*
G01X2355105Y3143720D01*
G01X2344240Y3143379D01*
G01X2342318Y3141612D01*
G01X2340395Y3139844D01*
G01X2340395Y3136119D01*
G01X2340395Y3132394D01*
G01X2339026Y3130304D01*
G01X2337657Y3128215D01*
G01X2334540Y3127350D01*
G01X2334540Y3127350D01*
G01X2326189Y3126479D01*
G01X2320953Y3126475D01*
G01X2320044Y3125380D01*
G01X2320044Y3125380D01*
G01X2318253Y3117250D01*
G01X2318253Y3117250D01*
G01X2313732Y3105879D01*
G01X2311885Y3104891D01*
G01X2300295Y3104463D01*
G01X2288704Y3104035D01*
G01X2286470Y3102466D01*
G01X2284236Y3100897D01*
G01X2283770Y3097423D01*
G01X2283770Y3097423D01*
G01X2282018Y3091987D01*
G01X2280732Y3090025D01*
G01X2275747Y3088187D01*
G01X2270761Y3086348D01*
G01X2268771Y3081724D01*
G01X2268771Y3081724D01*
G01X2264646Y3075093D01*
G01X2262512Y3073086D01*
G01X2249041Y3072816D01*
G01X2235570Y3072545D01*
G01X2232978Y3074726D01*
G01X2230386Y3076907D01*
G01X2229437Y3080549D01*
G01X2229437Y3080549D01*
G01X2227300Y3085434D01*
G01X2221151Y3087928D01*
G01X2215117Y3089721D01*
G01X2213358Y3091654D01*
G01X2211599Y3093588D01*
G01X2211116Y3097423D01*
G01X2210633Y3101258D01*
G01X2208776Y3102762D01*
G01X2206919Y3104265D01*
G01X2170673Y3104265D01*
G01X2134428Y3104265D01*
G01X2131465Y3103027D01*
G01X2128502Y3101790D01*
G01X2128502Y3098756D01*
G01X2128502Y3095723D01*
G01X2130071Y3094154D01*
G01X2131640Y3092586D01*
G01X2138262Y3091518D01*
G01X2144884Y3090450D01*
G01X2146457Y3088877D01*
G01X2148031Y3087304D01*
G01X2148608Y3083452D01*
G01X2149186Y3079600D01*
G01X2148402Y3077249D01*
G01X2148402Y3077249D01*
G01X2145356Y3073209D01*
G01X2143093Y3071520D01*
G01X2136862Y3071520D01*
G01X2130631Y3071520D01*
G01X2128721Y3072542D01*
G01X2128721Y3072542D01*
G01X2125521Y3076059D01*
G01X2124230Y3078554D01*
G01X2124230Y3082336D01*
G01X2124230Y3086117D01*
G01X2123162Y3086971D01*
G01X2123162Y3086971D01*
G01X2117196Y3088416D01*
G01X2112299Y3089009D01*
G01X2110575Y3091200D01*
G01X2108851Y3093391D01*
G01X2108851Y3097414D01*
G01X2108851Y3101438D01*
G01X2107288Y3102852D01*
G01X2105726Y3104265D01*
G01X2028388Y3104265D01*
G01X1951050Y3104265D01*
G01X1949708Y3102770D01*
G01X1948367Y3101275D01*
G01X1948122Y3081867D01*
G01X1947876Y3062460D01*
G01X1949874Y3060334D01*
G01X1951872Y3058207D01*
G01X1955814Y3057641D01*
G01X1955814Y3057641D01*
G01X1964195Y3051429D01*
G01X1965407Y3048564D01*
G01X1964887Y3046197D01*
G01X1964887Y3046197D01*
G01X1962445Y3042025D01*
G01X1960522Y3040219D01*
G01X1955868Y3039316D01*
G01X1951213Y3038413D01*
G01X1944180Y3038978D01*
G01X1937148Y3039544D01*
G01X1932961Y3036858D01*
G01X1928775Y3034172D01*
G01X1928246Y3031527D01*
G01X1928246Y3031527D01*
G01X1927717Y3026501D01*
G01X1927717Y3024121D01*
G01X1925088Y3021909D01*
G01X1922459Y3019698D01*
G01X1909813Y3019698D01*
G01X1897166Y3019698D01*
G01X1894175Y3018448D01*
G01X1894175Y3018448D01*
G01X1890123Y3011020D01*
G01X1890123Y3007607D01*
G01X1887625Y3005111D01*
G01X1885127Y3002614D01*
G01X1880576Y3002554D01*
G01X1880576Y3002554D01*
G01X1863343Y3002610D01*
G01X1863343Y3002610D01*
G01X1838697Y3002119D01*
G01X1826733Y3001511D01*
G01X1823978Y2997715D01*
G01X1821222Y2993919D01*
G01X1821924Y2989084D01*
G01X1821924Y2989084D01*
G01X1821262Y2971792D01*
G01X1820891Y2970440D01*
G01X1822399Y2969111D01*
G37*
%LPC*%
G36*
G01X2249812Y2911613D02*
G01X2251504Y2914350D01*
G01X2256253Y2915413D01*
G01X2261002Y2916475D01*
G01X2263200Y2919796D01*
G01X2265398Y2923117D01*
G01X2265259Y2969673D01*
G01X2265119Y3016229D01*
G01X2266037Y3017944D01*
G01X2266037Y3017944D01*
G01X2276476Y3022986D01*
G01X2282582Y3024487D01*
G01X2283740Y3027831D01*
G01X2284898Y3031174D01*
G01X2284809Y3041026D01*
G01X2284720Y3050877D01*
G01X2285546Y3053012D01*
G01X2285546Y3053012D01*
G01X2294257Y3059132D01*
G01X2298957Y3060273D01*
G01X2300665Y3065529D01*
G01X2300665Y3065529D01*
G01X2303938Y3072506D01*
G01X2305501Y3074226D01*
G01X2309637Y3074795D01*
G01X2313772Y3075363D01*
G01X2315120Y3076853D01*
G01X2315120Y3076853D01*
G01X2317209Y3082309D01*
G01X2317209Y3082309D01*
G01X2319325Y3088372D01*
G01X2320699Y3090469D01*
G01X2325560Y3091076D01*
G01X2325560Y3091076D01*
G01X2337083Y3091170D01*
G01X2343745Y3090656D01*
G01X2346637Y3091864D01*
G01X2349528Y3093072D01*
G01X2351001Y3097174D01*
G01X2351001Y3097174D01*
G01X2356338Y3106569D01*
G01X2358688Y3108109D01*
G01X2364280Y3108630D01*
G01X2364280Y3108630D01*
G01X2377121Y3111090D01*
G01X2384369Y3113030D01*
G01X2391178Y3112505D01*
G01X2397986Y3111980D01*
G01X2399949Y3113824D01*
G01X2401913Y3115668D01*
G01X2401913Y3120153D01*
G01X2401913Y3120153D01*
G01X2403661Y3132229D01*
G01X2405409Y3139820D01*
G01X2408121Y3141422D01*
G01X2410833Y3143023D01*
G01X2496726Y3143124D01*
G01X2582620Y3143224D01*
G01X2585324Y3141658D01*
G01X2588029Y3140092D01*
G01X2589135Y3135777D01*
G01X2590241Y3131462D01*
G01X2593693Y3129482D01*
G01X2597145Y3127503D01*
G01X2608876Y3127136D01*
G01X2620607Y3126771D01*
G01X2622292Y3125246D01*
G01X2623977Y3123721D01*
G01X2624959Y3118993D01*
G01X2625941Y3114265D01*
G01X2627853Y3112353D01*
G01X2629765Y3110441D01*
G01X2633315Y3109842D01*
G01X2636864Y3109242D01*
G01X2638525Y3106910D01*
G01X2638525Y3106910D01*
G01X2641424Y3099223D01*
G01X2641424Y3099223D01*
G01X2643532Y3093296D01*
G01X2648832Y3091453D01*
G01X2653467Y3090574D01*
G01X2655766Y3088372D01*
G01X2658064Y3086171D01*
G01X2658627Y3082418D01*
G01X2659190Y3078665D01*
G01X2661024Y3077381D01*
G01X2661024Y3077381D01*
G01X2667168Y3074698D01*
G01X2667168Y3074698D01*
G01X2673411Y3071540D01*
G01X2675343Y3069781D01*
G01X2676267Y3066308D01*
G01X2676267Y3066308D01*
G01X2684312Y3058523D01*
G01X2684312Y3058523D01*
G01X2690138Y3056194D01*
G01X2691550Y3055148D01*
G01X2692987Y3047949D01*
G01X2694425Y3040749D01*
G01X2695867Y3039307D01*
G01X2697309Y3037865D01*
G01X2701153Y3037288D01*
G01X2704995Y3036712D01*
G01X2706797Y3034795D01*
G01X2708598Y3032878D01*
G01X2708860Y3021205D01*
G01X2709122Y3009532D01*
G01X2711169Y3007354D01*
G01X2713215Y3005176D01*
G01X2717291Y3005176D01*
G01X2721366Y3005176D01*
G01X2723763Y3003115D01*
G01X2726161Y3001053D01*
G01X2726417Y2878186D01*
G01X2726674Y2755319D01*
G01X2725742Y2752117D01*
G01X2725742Y2752117D01*
G01X2722975Y2747206D01*
G01X2721139Y2745495D01*
G01X2717090Y2745495D01*
G01X2713041Y2745495D01*
G01X2711270Y2743245D01*
G01X2709499Y2740994D01*
G01X2709499Y2736431D01*
G01X2709499Y2731868D01*
G01X2707577Y2727047D01*
G01X2705655Y2722226D01*
G01X2701827Y2720566D01*
G01X2701827Y2720566D01*
G01X2697363Y2717893D01*
G01X2697363Y2717893D01*
G01X2698541Y2703423D01*
G01X2699309Y2701926D01*
G01X2697607Y2700099D01*
G01X2697607Y2700099D01*
G01X2694158Y2693102D01*
G01X2692412Y2687931D01*
G01X2692400Y2676779D01*
G01X2692400Y2676779D01*
G01X2691863Y2663666D01*
G01X2691337Y2661705D01*
G01X2688064Y2660035D01*
G01X2684790Y2658365D01*
G01X2675375Y2658365D01*
G01X2665959Y2658365D01*
G01X2662524Y2656991D01*
G01X2659090Y2655617D01*
G01X2659090Y2651041D01*
G01X2659090Y2646466D01*
G01X2656438Y2643446D01*
G01X2656438Y2643446D01*
G01X2652965Y2640427D01*
G01X2652965Y2640427D01*
G01X2647955Y2638625D01*
G01X2643766Y2636824D01*
G01X2643146Y2634995D01*
G01X2643146Y2634995D01*
G01X2642477Y2621348D01*
G01X2642429Y2609530D01*
G01X2640405Y2607889D01*
G01X2640405Y2607889D01*
G01X2633569Y2604858D01*
G01X2633569Y2604858D01*
G01X2628114Y2600430D01*
G01X2627489Y2574839D01*
G01X2627476Y2548117D01*
G01X2626305Y2545368D01*
G01X2626305Y2545368D01*
G01X2623020Y2540673D01*
G01X2620906Y2538726D01*
G01X2616473Y2538201D01*
G01X2612040Y2537676D01*
G01X2609870Y2539715D01*
G01X2609870Y2539715D01*
G01X2604744Y2547312D01*
G01X2604744Y2547312D01*
G01X2600615Y2554418D01*
G01X2599442Y2555966D01*
G01X2594635Y2556463D01*
G01X2589828Y2556958D01*
G01X2587719Y2559464D01*
G01X2585611Y2561970D01*
G01X2585611Y2570489D01*
G01X2585611Y2579008D01*
G01X2584322Y2581500D01*
G01X2583033Y2583992D01*
G01X2578675Y2584570D01*
G01X2574318Y2585148D01*
G01X2571103Y2588229D01*
G01X2567887Y2591310D01*
G01X2567264Y2602790D01*
G01X2567264Y2602790D01*
G01X2566883Y2631406D01*
G01X2567126Y2648542D01*
G01X2566013Y2652064D01*
G01X2564899Y2655587D01*
G01X2559862Y2657994D01*
G01X2554826Y2660400D01*
G01X2551941Y2664102D01*
G01X2549056Y2667804D01*
G01X2548011Y2673341D01*
G01X2546966Y2678878D01*
G01X2543711Y2681455D01*
G01X2540457Y2684033D01*
G01X2539421Y2688070D01*
G01X2538386Y2692107D01*
G01X2538007Y2731702D01*
G01X2537629Y2771297D01*
G01X2538651Y2773764D01*
G01X2539674Y2776232D01*
G01X2542451Y2777948D01*
G01X2545228Y2779664D01*
G01X2552677Y2779664D01*
G01X2560126Y2779664D01*
G01X2563897Y2782371D01*
G01X2567668Y2785079D01*
G01X2567624Y2787283D01*
G01X2567624Y2787283D01*
G01X2566924Y2795397D01*
G01X2566268Y2801307D01*
G01X2567550Y2805915D01*
G01X2568833Y2810522D01*
G01X2570600Y2811536D01*
G01X2570600Y2811536D01*
G01X2577494Y2814330D01*
G01X2582620Y2816109D01*
G01X2583047Y2829279D01*
G01X2583474Y2842448D01*
G01X2584356Y2843931D01*
G01X2584356Y2843931D01*
G01X2590337Y2849526D01*
G01X2595436Y2853638D01*
G01X2595436Y2863846D01*
G01X2595436Y2863846D01*
G01X2594782Y2876393D01*
G01X2594127Y2878732D01*
G01X2590780Y2880439D01*
G01X2590780Y2880439D01*
G01X2586094Y2884057D01*
G01X2584756Y2885967D01*
G01X2584756Y2897364D01*
G01X2584756Y2908763D01*
G01X2583899Y2910363D01*
G01X2583043Y2911963D01*
G01X2578987Y2912549D01*
G01X2578987Y2912549D01*
G01X2568750Y2918863D01*
G01X2567241Y2921890D01*
G01X2567241Y2931316D01*
G01X2567241Y2940741D01*
G01X2564448Y2944271D01*
G01X2561656Y2947801D01*
G01X2551319Y2948086D01*
G01X2540982Y2948371D01*
G01X2538201Y2951590D01*
G01X2535419Y2954809D01*
G01X2534967Y2958822D01*
G01X2534514Y2962834D01*
G01X2532081Y2964831D01*
G01X2529647Y2966829D01*
G01X2525375Y2966309D01*
G01X2521103Y2965790D01*
G01X2519534Y2964244D01*
G01X2517965Y2962698D01*
G01X2519320Y2955468D01*
G01X2520675Y2948238D01*
G01X2520675Y2935771D01*
G01X2520675Y2923305D01*
G01X2524307Y2920182D01*
G01X2524307Y2920182D01*
G01X2530602Y2915935D01*
G01X2530602Y2915935D01*
G01X2538243Y2905718D01*
G01X2538867Y2902359D01*
G01X2540890Y2900484D01*
G01X2542913Y2898609D01*
G01X2547652Y2898216D01*
G01X2552390Y2897824D01*
G01X2554090Y2896123D01*
G01X2555791Y2894423D01*
G01X2557023Y2885093D01*
G01X2558255Y2875763D01*
G01X2558243Y2846292D01*
G01X2558231Y2816822D01*
G01X2556755Y2815000D01*
G01X2556755Y2815000D01*
G01X2547561Y2811270D01*
G01X2543576Y2811270D01*
G01X2540846Y2812565D01*
G01X2540846Y2812565D01*
G01X2534745Y2821797D01*
G01X2534132Y2825063D01*
G01X2530608Y2826665D01*
G01X2530608Y2826665D01*
G01X2523917Y2828770D01*
G01X2520750Y2829272D01*
G01X2519102Y2831366D01*
G01X2519102Y2831366D01*
G01X2516892Y2837215D01*
G01X2516328Y2840970D01*
G01X2514795Y2842358D01*
G01X2513261Y2843746D01*
G01X2507637Y2843830D01*
G01X2507637Y2843830D01*
G01X2501159Y2843386D01*
G01X2501159Y2843386D01*
G01X2500004Y2789944D01*
G01X2500809Y2747691D01*
G01X2499849Y2746134D01*
G01X2498888Y2744576D01*
G01X2494450Y2743281D01*
G01X2490013Y2741985D01*
G01X2487613Y2743226D01*
G01X2487613Y2743226D01*
G01X2483796Y2746048D01*
G01X2482379Y2747631D01*
G01X2481778Y2751693D01*
G01X2481177Y2755756D01*
G01X2478227Y2759619D01*
G01X2475276Y2763482D01*
G01X2474786Y2766661D01*
G01X2474786Y2766661D01*
G01X2471569Y2774364D01*
G01X2463616Y2777995D01*
G01X2459125Y2778958D01*
G01X2457849Y2781425D01*
G01X2457849Y2781425D01*
G01X2456021Y2789175D01*
G01X2455469Y2794457D01*
G01X2453896Y2796030D01*
G01X2452323Y2797602D01*
G01X2448365Y2797602D01*
G01X2444408Y2797602D01*
G01X2441720Y2799263D01*
G01X2439032Y2800924D01*
G01X2437965Y2804913D01*
G01X2436898Y2808902D01*
G01X2433968Y2812477D01*
G01X2431038Y2816052D01*
G01X2430509Y2819854D01*
G01X2430509Y2819854D01*
G01X2428392Y2828354D01*
G01X2428392Y2828354D01*
G01X2426296Y2836924D01*
G01X2426296Y2836924D01*
G01X2424184Y2843432D01*
G01X2422581Y2846067D01*
G01X2417813Y2846463D01*
G01X2413046Y2846858D01*
G01X2411385Y2848361D01*
G01X2411385Y2848361D01*
G01X2408381Y2852692D01*
G01X2407039Y2855520D01*
G01X2407039Y2859805D01*
G01X2407039Y2864090D01*
G01X2403383Y2865485D01*
G01X2399728Y2866881D01*
G01X2379505Y2867478D01*
G01X2379505Y2867478D01*
G01X2355684Y2867456D01*
G01X2352086Y2866836D01*
G01X2350126Y2864996D01*
G01X2348167Y2863156D01*
G01X2350262Y2860409D01*
G01X2350262Y2860409D01*
G01X2352357Y2856753D01*
G01X2352357Y2856753D01*
G01X2355768Y2851528D01*
G01X2359179Y2847213D01*
G01X2371153Y2847365D01*
G01X2383126Y2847516D01*
G01X2384818Y2845825D01*
G01X2384818Y2845825D01*
G01X2388499Y2838238D01*
G01X2390488Y2832342D01*
G01X2395815Y2830884D01*
G01X2401143Y2829426D01*
G01X2403146Y2827545D01*
G01X2405149Y2825663D01*
G01X2405721Y2821092D01*
G01X2406292Y2816521D01*
G01X2408204Y2815269D01*
G01X2408204Y2815269D01*
G01X2415479Y2812512D01*
G01X2420842Y2811008D01*
G01X2422271Y2808830D01*
G01X2423700Y2806652D01*
G01X2424127Y2787392D01*
G01X2424555Y2768132D01*
G01X2426255Y2765321D01*
G01X2427955Y2762509D01*
G01X2429673Y2762166D01*
G01X2429673Y2762166D01*
G01X2434559Y2761315D01*
G01X2437727Y2760807D01*
G01X2439471Y2758358D01*
G01X2441215Y2755909D01*
G01X2441215Y2744129D01*
G01X2441215Y2732348D01*
G01X2438920Y2729952D01*
G01X2436624Y2727557D01*
G01X2432702Y2727557D01*
G01X2428780Y2727557D01*
G01X2426982Y2726298D01*
G01X2425184Y2725039D01*
G01X2424600Y2720363D01*
G01X2424016Y2715686D01*
G01X2422355Y2713575D01*
G01X2420694Y2711465D01*
G01X2416220Y2710506D01*
G01X2411745Y2709546D01*
G01X2408956Y2706843D01*
G01X2408956Y2706843D01*
G01X2404490Y2700686D01*
G01X2404490Y2700686D01*
G01X2396553Y2694224D01*
G01X2380710Y2691092D01*
G01X2374460Y2690633D01*
G01X2372448Y2692522D01*
G01X2372448Y2692522D01*
G01X2368210Y2701316D01*
G01X2367691Y2703691D01*
G01X2361519Y2706666D01*
G01X2361519Y2706666D01*
G01X2351177Y2713667D01*
G01X2349570Y2715553D01*
G01X2349730Y2735474D01*
G01X2349889Y2755395D01*
G01X2348346Y2756764D01*
G01X2348346Y2756764D01*
G01X2343019Y2760239D01*
G01X2339235Y2762345D01*
G01X2335937Y2767801D01*
G01X2335937Y2767801D01*
G01X2331581Y2774317D01*
G01X2331581Y2774317D01*
G01X2311007Y2779537D01*
G01X2305115Y2780091D01*
G01X2303412Y2782376D01*
G01X2301709Y2784662D01*
G01X2301289Y2789022D01*
G01X2300870Y2793382D01*
G01X2298855Y2794967D01*
G01X2298855Y2794967D01*
G01X2293102Y2797112D01*
G01X2289363Y2797672D01*
G01X2287602Y2799559D01*
G01X2287602Y2799559D01*
G01X2285280Y2804009D01*
G01X2285280Y2804009D01*
G01X2283847Y2808884D01*
G01X2282973Y2811196D01*
G01X2279003Y2812596D01*
G01X2279003Y2812596D01*
G01X2269972Y2817977D01*
G01X2269972Y2817977D01*
G01X2266179Y2842448D01*
G01X2265594Y2856970D01*
G01X2264059Y2860095D01*
G01X2262524Y2863219D01*
G01X2260235Y2864118D01*
G01X2260235Y2864118D01*
G01X2254771Y2865567D01*
G01X2254771Y2865567D01*
G01X2249319Y2870358D01*
G01X2248218Y2891892D01*
G01X2248119Y2908876D01*
G01X2249812Y2911613D01*
G37*
%LPD*%
G36*
G01X2288917Y2953737D02*
G01X2288917Y2953737D01*
G01X2294856Y2951394D01*
G01X2294856Y2951394D01*
G01X2300137Y2949093D01*
G01X2302043Y2943546D01*
G01X2302728Y2939217D01*
G01X2304260Y2938055D01*
G01X2304260Y2938055D01*
G01X2308355Y2936862D01*
G01X2308355Y2936862D01*
G01X2316823Y2934734D01*
G01X2320466Y2928617D01*
G01X2320970Y2925307D01*
G01X2322671Y2923432D01*
G01X2322671Y2923432D01*
G01X2326837Y2920698D01*
G01X2329303Y2919838D01*
G01X2330508Y2921719D01*
G01X2330508Y2921719D01*
G01X2332647Y2927148D01*
G01X2332647Y2927148D01*
G01X2335067Y2932490D01*
G01X2336551Y2934282D01*
G01X2340510Y2935004D01*
G01X2340510Y2935004D01*
G01X2347131Y2937622D01*
G01X2349792Y2939517D01*
G01X2348818Y2941381D01*
G01X2348818Y2941381D01*
G01X2346197Y2945595D01*
G01X2344551Y2947944D01*
G01X2340805Y2947944D01*
G01X2340805Y2947944D01*
G01X2334940Y2948909D01*
G01X2332821Y2949874D01*
G01X2331812Y2952311D01*
G01X2330802Y2954747D01*
G01X2331138Y2960679D01*
G01X2331473Y2966611D01*
G01X2332954Y2968247D01*
G01X2332954Y2968247D01*
G01X2339337Y2971452D01*
G01X2344240Y2973022D01*
G01X2346161Y2975050D01*
G01X2348081Y2977078D01*
G01X2347981Y2989284D01*
G01X2347882Y3001491D01*
G01X2348906Y3003406D01*
G01X2348906Y3003406D01*
G01X2352826Y3006530D01*
G01X2355720Y3007739D01*
G01X2361688Y3007739D01*
G01X2367656Y3007739D01*
G01X2369738Y3006790D01*
G01X2369738Y3006790D01*
G01X2373717Y2997518D01*
G01X2373717Y2997518D01*
G01X2374236Y2992006D01*
G01X2374755Y2990655D01*
G01X2378905Y2990655D01*
G01X2383056Y2990655D01*
G01X2383940Y2992307D01*
G01X2383940Y2992307D01*
G01X2384825Y2999079D01*
G01X2384825Y3004198D01*
G01X2387076Y3005969D01*
G01X2389327Y3007739D01*
G01X2394359Y3007739D01*
G01X2399392Y3007739D01*
G01X2400225Y3009930D01*
G01X2400225Y3009930D01*
G01X2401058Y3014598D01*
G01X2401058Y3017075D01*
G01X2399406Y3017959D01*
G01X2399406Y3017959D01*
G01X2394335Y3018844D01*
G01X2394335Y3018844D01*
G01X2385522Y3022433D01*
G01X2384407Y3024396D01*
G01X2383975Y3038663D01*
G01X2383543Y3052931D01*
G01X2382433Y3054039D01*
G01X2381323Y3055148D01*
G01X2369900Y3055444D01*
G01X2358477Y3055739D01*
G01X2357375Y3049184D01*
G01X2357375Y3049184D01*
G01X2354787Y3040185D01*
G01X2353300Y3037741D01*
G01X2350052Y3036839D01*
G01X2350052Y3036839D01*
G01X2337442Y3037465D01*
G01X2331337Y3048902D01*
G01X2331337Y3048902D01*
G01X2329465Y3055739D01*
G01X2328763Y3056442D01*
G01X2324835Y3055903D01*
G01X2320907Y3055365D01*
G01X2320352Y3051412D01*
G01X2320352Y3051412D01*
G01X2316263Y3039607D01*
G01X2314556Y3037734D01*
G01X2309936Y3037156D01*
G01X2305316Y3036579D01*
G01X2304273Y3034759D01*
G01X2303229Y3032938D01*
G01X2303229Y3012255D01*
G01X2303229Y2991571D01*
G01X2301420Y2989756D01*
G01X2299612Y2987941D01*
G01X2294656Y2986949D01*
G01X2289699Y2985957D01*
G01X2288626Y2982967D01*
G01X2287552Y2979977D01*
G01X2287487Y2967510D01*
G01X2287422Y2955042D01*
G01X2288917Y2953737D01*
G37*
G36*
G01X2557452Y3012818D02*
G01X2557452Y3012818D01*
G01X2558582Y3008778D01*
G01X2559225Y3007739D01*
G01X2563826Y3007739D01*
G01X2568427Y3007739D01*
G01X2570824Y3005676D01*
G01X2573222Y3003612D01*
G01X2573042Y2999055D01*
G01X2573042Y2999055D01*
G01X2573787Y2992150D01*
G01X2574710Y2989800D01*
G01X2577597Y2989658D01*
G01X2577597Y2989658D01*
G01X2581979Y2989444D01*
G01X2583474Y2989373D01*
G01X2584968Y2992363D01*
G01X2586462Y2995353D01*
G01X2586464Y2998936D01*
G01X2586465Y3002518D01*
G01X2588387Y3004707D01*
G01X2590310Y3006897D01*
G01X2594154Y3007568D01*
G01X2597999Y3008240D01*
G01X2602271Y3007606D01*
G01X2606543Y3006972D01*
G01X2608336Y3004896D01*
G01X2610129Y3002820D01*
G01X2610704Y2997929D01*
G01X2610704Y2997929D01*
G01X2612145Y2991419D01*
G01X2613011Y2989800D01*
G01X2617223Y2989800D01*
G01X2621435Y2989800D01*
G01X2622297Y2991410D01*
G01X2623158Y2993019D01*
G01X2622630Y3004066D01*
G01X2622630Y3004066D01*
G01X2622692Y3018266D01*
G01X2623284Y3021419D01*
G01X2625253Y3022709D01*
G01X2625253Y3022709D01*
G01X2632136Y3024625D01*
G01X2637050Y3025250D01*
G01X2639685Y3028890D01*
G01X2642320Y3032529D01*
G01X2639430Y3035510D01*
G01X2636540Y3038491D01*
G01X2632824Y3038491D01*
G01X2629107Y3038491D01*
G01X2627045Y3040553D01*
G01X2627045Y3040553D01*
G01X2624541Y3044610D01*
G01X2624541Y3044610D01*
G01X2623011Y3051304D01*
G01X2621923Y3056002D01*
G01X2598501Y3055792D01*
G01X2598501Y3055792D01*
G01X2574790Y3055293D01*
G01X2574790Y3055293D01*
G01X2573506Y3047963D01*
G01X2572510Y3040922D01*
G01X2570881Y3038852D01*
G01X2569253Y3036782D01*
G01X2564218Y3036782D01*
G01X2559184Y3036782D01*
G01X2558094Y3034860D01*
G01X2557005Y3032938D01*
G01X2556985Y3024379D01*
G01X2556985Y3024379D01*
G01X2557452Y3012818D01*
G37*
G36*
G01X2664150Y2889829D02*
G01X2664150Y2889829D01*
G01X2665777Y2885676D01*
G01X2670690Y2884407D01*
G01X2670690Y2884407D01*
G01X2679581Y2879641D01*
G01X2680655Y2877048D01*
G01X2680275Y2871792D01*
G01X2679895Y2866536D01*
G01X2677663Y2864617D01*
G01X2675432Y2862698D01*
G01X2671180Y2862113D01*
G01X2666929Y2861529D01*
G01X2665834Y2858886D01*
G01X2664739Y2856243D01*
G01X2664873Y2836603D01*
G01X2665007Y2816962D01*
G01X2665968Y2816369D01*
G01X2665968Y2816369D01*
G01X2675380Y2815193D01*
G01X2683831Y2814611D01*
G01X2687217Y2815523D01*
G01X2690604Y2816434D01*
G01X2691090Y2820045D01*
G01X2691090Y2820045D01*
G01X2691353Y2834180D01*
G01X2691130Y2844704D01*
G01X2693722Y2847030D01*
G01X2696313Y2849355D01*
G01X2701071Y2850419D01*
G01X2705828Y2851484D01*
G01X2706883Y2853454D01*
G01X2707938Y2855425D01*
G01X2706874Y2858978D01*
G01X2705809Y2862530D01*
G01X2702314Y2863420D01*
G01X2702314Y2863420D01*
G01X2692774Y2868053D01*
G01X2691561Y2869905D01*
G01X2691640Y2881691D01*
G01X2691720Y2893477D01*
G01X2690322Y2894871D01*
G01X2688924Y2896264D01*
G01X2678065Y2896264D01*
G01X2667206Y2896264D01*
G01X2665284Y2895098D01*
G01X2665284Y2895098D01*
G01X2663460Y2893390D01*
G01X2663460Y2893390D01*
G01X2664150Y2889829D01*
G37*
G36*
G01X2411317Y3043905D02*
G01X2413093Y3041204D01*
G01X2417334Y3040620D01*
G01X2421575Y3040037D01*
G01X2423287Y3038623D01*
G01X2425000Y3037209D01*
G01X2426596Y3031405D01*
G01X2426596Y3031405D01*
G01X2429190Y3025524D01*
G01X2441241Y3024520D01*
G01X2453656Y3023980D01*
G01X2456834Y3026599D01*
G01X2460012Y3029219D01*
G01X2460012Y3057986D01*
G01X2460011Y3086754D01*
G01X2455953Y3088984D01*
G01X2451895Y3091214D01*
G01X2447624Y3090068D01*
G01X2443352Y3088922D01*
G01X2435905Y3088906D01*
G01X2428460Y3088889D01*
G01X2427575Y3087237D01*
G01X2427575Y3087237D01*
G01X2426690Y3080792D01*
G01X2426690Y3075998D01*
G01X2424593Y3073902D01*
G01X2422496Y3071805D01*
G01X2417545Y3071792D01*
G01X2417545Y3071792D01*
G01X2411311Y3070970D01*
G01X2410030Y3070160D01*
G01X2409785Y3058383D01*
G01X2409541Y3046606D01*
G01X2411317Y3043905D01*
G37*
G36*
G01X2487540Y3080988D02*
G01X2487540Y3080988D01*
G01X2488934Y3077756D01*
G01X2488934Y3077756D01*
G01X2517603Y3077542D01*
G01X2545717Y3077357D01*
G01X2547215Y3081764D01*
G01X2548714Y3086171D01*
G01X2547520Y3087875D01*
G01X2546326Y3089579D01*
G01X2541673Y3091042D01*
G01X2537020Y3092505D01*
G01X2535374Y3094328D01*
G01X2535374Y3094328D01*
G01X2532881Y3098713D01*
G01X2532034Y3101275D01*
G01X2532450Y3112629D01*
G01X2532866Y3123983D01*
G01X2531257Y3125202D01*
G01X2529647Y3126420D01*
G01X2517415Y3126448D01*
G01X2505184Y3126475D01*
G01X2503531Y3125590D01*
G01X2501879Y3124706D01*
G01X2501879Y3120438D01*
G01X2501879Y3120438D01*
G01X2499690Y3111464D01*
G01X2492981Y3108536D01*
G01X2489951Y3108536D01*
G01X2488270Y3105242D01*
G01X2486589Y3101947D01*
G01X2486646Y3093069D01*
G01X2486646Y3093069D01*
G01X2487540Y3080988D01*
G37*
G36*
G01X2649413Y2922178D02*
G01X2651270Y2920433D01*
G01X2663191Y2920560D01*
G01X2675111Y2920687D01*
G01X2679123Y2919677D01*
G01X2683136Y2918667D01*
G01X2686495Y2919673D01*
G01X2689855Y2920680D01*
G01X2690982Y2922566D01*
G01X2692109Y2924453D01*
G01X2691551Y2933850D01*
G01X2691551Y2933850D01*
G01X2691399Y2953702D01*
G01X2691805Y2964158D01*
G01X2688904Y2965369D01*
G01X2688904Y2965369D01*
G01X2682586Y2967200D01*
G01X2682586Y2967200D01*
G01X2676850Y2968992D01*
G01X2674532Y2970165D01*
G01X2673616Y2973790D01*
G01X2673616Y2973790D01*
G01X2668805Y2985621D01*
G01X2667503Y2986702D01*
G01X2663937Y2985647D01*
G01X2663937Y2985647D01*
G01X2655972Y2984674D01*
G01X2651574Y2984756D01*
G01X2649721Y2982154D01*
G01X2647868Y2979553D01*
G01X2647711Y2951738D01*
G01X2647555Y2923922D01*
G01X2649413Y2922178D01*
G37*
G36*
G01X2408920Y2919755D02*
G01X2408920Y2919755D01*
G01X2409206Y2912067D01*
G01X2408804Y2909077D01*
G01X2410742Y2905660D01*
G01X2412681Y2902243D01*
G01X2419045Y2902485D01*
G01X2419045Y2902485D01*
G01X2431105Y2902006D01*
G01X2436802Y2901285D01*
G01X2438672Y2905029D01*
G01X2440543Y2908774D01*
G01X2438560Y2910884D01*
G01X2436577Y2912994D01*
G01X2432130Y2912814D01*
G01X2427683Y2912634D01*
G01X2425440Y2914104D01*
G01X2425440Y2914104D01*
G01X2421564Y2922294D01*
G01X2421564Y2924721D01*
G01X2417418Y2928192D01*
G01X2413272Y2931662D01*
G01X2410752Y2928057D01*
G01X2408231Y2924453D01*
G01X2408920Y2919755D01*
G37*
G36*
G01X2481481Y2851692D02*
G01X2482434Y2849831D01*
G01X2486547Y2848062D01*
G01X2490661Y2846292D01*
G01X2494454Y2846292D01*
G01X2498247Y2846292D01*
G01X2498781Y2848962D01*
G01X2498781Y2848962D01*
G01X2498661Y2893806D01*
G01X2498661Y2893806D01*
G01X2482368Y2894710D01*
G01X2481227Y2893798D01*
G01X2481490Y2884780D01*
G01X2481490Y2884780D01*
G01X2481140Y2864658D01*
G01X2480528Y2853553D01*
G01X2481481Y2851692D01*
G37*
G36*
G01X2555421Y3093730D02*
G01X2555421Y3093730D01*
G01X2570282Y3093160D01*
G01X2584573Y3093160D01*
G01X2585014Y3094228D01*
G01X2585014Y3094228D01*
G01X2586814Y3098470D01*
G01X2588172Y3101644D01*
G01X2585625Y3104545D01*
G01X2583077Y3107446D01*
G01X2573023Y3107935D01*
G01X2573023Y3107935D01*
G01X2561130Y3108985D01*
G01X2559291Y3109546D01*
G01X2557071Y3106280D01*
G01X2554852Y3103014D01*
G01X2554852Y3098657D01*
G01X2554852Y3098657D01*
G01X2555421Y3093730D01*
G37*
G36*
G01X2573543Y2695533D02*
G01X2574089Y2692980D01*
G01X2578290Y2692380D01*
G01X2582490Y2691779D01*
G01X2583933Y2692551D01*
G01X2585376Y2693323D01*
G01X2585911Y2696559D01*
G01X2585911Y2696559D01*
G01X2586455Y2708670D01*
G01X2586465Y2717546D01*
G01X2584578Y2721323D01*
G01X2582691Y2725100D01*
G01X2580947Y2724632D01*
G01X2580947Y2724632D01*
G01X2576936Y2724152D01*
G01X2574670Y2724140D01*
G01X2573732Y2721450D01*
G01X2572794Y2718760D01*
G01X2572895Y2708423D01*
G01X2572895Y2708423D01*
G01X2573543Y2695533D01*
G37*
G36*
G01X2628178Y2838420D02*
G01X2628178Y2838420D01*
G01X2632757Y2834420D01*
G01X2636753Y2831885D01*
G01X2638096Y2835824D01*
G01X2639438Y2839763D01*
G01X2639416Y2847939D01*
G01X2639393Y2856116D01*
G01X2637920Y2859353D01*
G01X2636448Y2862590D01*
G01X2632398Y2859780D01*
G01X2628348Y2856970D01*
G01X2628339Y2849566D01*
G01X2628339Y2849566D01*
G01X2627963Y2841024D01*
G01X2627963Y2841024D01*
G01X2628178Y2838420D01*
G37*
G36*
G01X2611808Y2645766D02*
G01X2613160Y2643844D01*
G01X2617179Y2643844D01*
G01X2621198Y2643844D01*
G01X2623143Y2645914D01*
G01X2625089Y2647985D01*
G01X2624035Y2651253D01*
G01X2624035Y2651253D01*
G01X2622134Y2655589D01*
G01X2621286Y2656657D01*
G01X2617098Y2656657D01*
G01X2612909Y2656657D01*
G01X2612185Y2654735D01*
G01X2612185Y2654735D01*
G01X2610958Y2650250D01*
G01X2610456Y2647688D01*
G01X2611808Y2645766D01*
G37*
G36*
G01X2410794Y2991098D02*
G01X2412832Y2988552D01*
G01X2416984Y2990269D01*
G01X2421137Y2991986D01*
G01X2421412Y2993900D01*
G01X2421687Y2995814D01*
G01X2419378Y2998573D01*
G01X2419378Y2998573D01*
G01X2412136Y3002177D01*
G01X2410646Y3001704D01*
G01X2409697Y2997937D01*
G01X2409697Y2997937D01*
G01X2408752Y2993907D01*
G01X2408752Y2993907D01*
G01X2410794Y2991098D01*
G37*
G36*
G01X2466737Y2903992D02*
G01X2467278Y2901470D01*
G01X2471121Y2900495D01*
G01X2474964Y2899519D01*
G01X2476460Y2900271D01*
G01X2477955Y2901022D01*
G01X2477955Y2905596D01*
G01X2477955Y2910169D01*
G01X2476460Y2911959D01*
G01X2474964Y2913749D01*
G01X2471120Y2912768D01*
G01X2471120Y2912768D01*
G01X2466445Y2910281D01*
G01X2466737Y2903992D01*
G37*
G36*
G01X2611481Y2768099D02*
G01X2613429Y2765835D01*
G01X2617529Y2766450D01*
G01X2621630Y2767065D01*
G01X2622537Y2769055D01*
G01X2623444Y2771045D01*
G01X2622378Y2773617D01*
G01X2622378Y2773617D01*
G01X2615775Y2777522D01*
G01X2613045Y2778071D01*
G01X2611290Y2774630D01*
G01X2611290Y2774630D01*
G01X2611481Y2768099D01*
G37*
G36*
G01X2358185Y2953151D02*
G01X2359740Y2952319D01*
G01X2363525Y2953262D01*
G01X2363525Y2953262D01*
G01X2367751Y2955143D01*
G01X2368578Y2959659D01*
G01X2368591Y2963260D01*
G01X2367080Y2964068D01*
G01X2367080Y2964068D01*
G01X2362371Y2965476D01*
G01X2359174Y2966076D01*
G01X2357901Y2965020D01*
G01X2356629Y2963965D01*
G01X2356629Y2958974D01*
G01X2356629Y2953984D01*
G01X2358185Y2953151D01*
G37*
G36*
G01X2503621Y3009642D02*
G01X2503621Y3009642D01*
G01X2510549Y3007485D01*
G01X2514236Y3008214D01*
G01X2514926Y3012332D01*
G01X2515617Y3016451D01*
G01X2514701Y3017555D01*
G01X2514701Y3017555D01*
G01X2509892Y3019242D01*
G01X2505999Y3019825D01*
G01X2504366Y3018348D01*
G01X2502733Y3016871D01*
G01X2502787Y3014227D01*
G01X2502787Y3014227D01*
G01X2503621Y3009642D01*
G37*
G36*
G01X2647887Y2751741D02*
G01X2647887Y2751741D01*
G01X2651396Y2747633D01*
G01X2652360Y2747037D01*
G01X2655769Y2750619D01*
G01X2655769Y2750619D01*
G01X2658671Y2754878D01*
G01X2655437Y2757679D01*
G01X2652317Y2759298D01*
G01X2650790Y2758789D01*
G01X2650790Y2758789D01*
G01X2647303Y2756767D01*
G01X2645342Y2755254D01*
G01X2647887Y2751741D01*
G37*
G36*
G01X2357369Y2905518D02*
G01X2357369Y2905518D01*
G01X2359670Y2901426D01*
G01X2363765Y2902331D01*
G01X2367566Y2903902D01*
G01X2368383Y2906563D01*
G01X2369199Y2909225D01*
G01X2368242Y2910534D01*
G01X2367285Y2911843D01*
G01X2363225Y2912708D01*
G01X2359165Y2913574D01*
G01X2357569Y2911326D01*
G01X2355973Y2909077D01*
G01X2357369Y2905518D01*
G37*
G36*
G01X2628311Y2735738D02*
G01X2628758Y2731533D01*
G01X2632439Y2730311D01*
G01X2636119Y2729090D01*
G01X2637779Y2730591D01*
G01X2639438Y2732093D01*
G01X2639438Y2736127D01*
G01X2639438Y2740161D01*
G01X2638145Y2741234D01*
G01X2636851Y2742307D01*
G01X2632839Y2741758D01*
G01X2632839Y2741758D01*
G01X2628509Y2740435D01*
G01X2628311Y2735738D01*
G37*
G36*
G01X2342162Y2783649D02*
G01X2344139Y2782265D01*
G01X2346753Y2783939D01*
G01X2349367Y2785613D01*
G01X2349113Y2787814D01*
G01X2349113Y2787814D01*
G01X2345764Y2794910D01*
G01X2344216Y2795738D01*
G01X2342704Y2794633D01*
G01X2341193Y2793528D01*
G01X2340689Y2789280D01*
G01X2340186Y2785032D01*
G01X2342162Y2783649D01*
G37*
%LPC*%
G36*
G01X2249235Y2449585D02*
G01X2251632Y2451646D01*
G01X2255922Y2451646D01*
G01X2260212Y2451646D01*
G01X2262606Y2454039D01*
G01X2265000Y2456432D01*
G01X2265620Y2460100D01*
G01X2266240Y2463768D01*
G01X2269782Y2465376D01*
G01X2269782Y2465376D01*
G01X2280240Y2465396D01*
G01X2283737Y2463808D01*
G01X2284697Y2457513D01*
G01X2284697Y2457513D01*
G01X2286606Y2442676D01*
G01X2287554Y2434134D01*
G01X2288727Y2432308D01*
G01X2289900Y2430481D01*
G01X2294164Y2429458D01*
G01X2298429Y2428436D01*
G01X2299761Y2426403D01*
G01X2299761Y2426403D01*
G01X2301093Y2422221D01*
G01X2301093Y2422221D01*
G01X2303274Y2410773D01*
G01X2305454Y2401474D01*
G01X2309845Y2400954D01*
G01X2309845Y2400954D01*
G01X2314343Y2400627D01*
G01X2314343Y2400627D01*
G01X2313957Y2451646D01*
G01X2313465Y2502471D01*
G01X2314382Y2506315D01*
G01X2315299Y2510159D01*
G01X2318235Y2512050D01*
G01X2318235Y2512050D01*
G01X2323094Y2515293D01*
G01X2325016Y2516646D01*
G01X2325016Y2521114D01*
G01X2325016Y2525582D01*
G01X2326368Y2527513D01*
G01X2326368Y2527513D01*
G01X2329716Y2531438D01*
G01X2329716Y2531438D01*
G01X2332618Y2536717D01*
G01X2333526Y2540003D01*
G01X2332643Y2543278D01*
G01X2332643Y2543278D01*
G01X2329884Y2548385D01*
G01X2329884Y2548385D01*
G01X2326517Y2552397D01*
G01X2325027Y2554578D01*
G01X2325022Y2558873D01*
G01X2325016Y2563168D01*
G01X2323683Y2565071D01*
G01X2323683Y2565071D01*
G01X2319770Y2568307D01*
G01X2317192Y2569641D01*
G01X2315922Y2572679D01*
G01X2314652Y2575717D01*
G01X2314563Y2626389D01*
G01X2314474Y2677062D01*
G01X2315624Y2678447D01*
G01X2315624Y2678447D01*
G01X2319121Y2681046D01*
G01X2321467Y2682259D01*
G01X2323591Y2679735D01*
G01X2323591Y2679735D01*
G01X2327201Y2672700D01*
G01X2327201Y2672700D01*
G01X2329418Y2667709D01*
G01X2329418Y2667709D01*
G01X2335060Y2660043D01*
G01X2339968Y2652858D01*
G01X2342959Y2650974D01*
G01X2342959Y2650974D01*
G01X2353835Y2640901D01*
G01X2353835Y2640901D01*
G01X2367216Y2627200D01*
G01X2370367Y2624797D01*
G01X2373410Y2619585D01*
G01X2373410Y2619585D01*
G01X2379374Y2610793D01*
G01X2382294Y2607212D01*
G01X2386220Y2606624D01*
G01X2390147Y2606035D01*
G01X2392915Y2607355D01*
G01X2395685Y2608675D01*
G01X2396226Y2611951D01*
G01X2396226Y2611951D01*
G01X2396777Y2620497D01*
G01X2396777Y2620497D01*
G01X2397387Y2627329D01*
G01X2397987Y2628893D01*
G01X2398904Y2625126D01*
G01X2399822Y2621358D01*
G01X2402124Y2619639D01*
G01X2404427Y2617921D01*
G01X2406397Y2618818D01*
G01X2406397Y2618818D01*
G01X2416101Y2628647D01*
G01X2418244Y2632874D01*
G01X2417236Y2634088D01*
G01X2417236Y2634088D01*
G01X2415074Y2635302D01*
G01X2415074Y2635302D01*
G01X2412615Y2637822D01*
G01X2411311Y2640342D01*
G01X2411328Y2655547D01*
G01X2411344Y2670752D01*
G01X2412422Y2674908D01*
G01X2413500Y2679064D01*
G01X2414969Y2674405D01*
G01X2416438Y2669747D01*
G01X2416438Y2660681D01*
G01X2416438Y2660681D01*
G01X2419822Y2641514D01*
G01X2421403Y2639817D01*
G01X2425027Y2639237D01*
G01X2428652Y2638658D01*
G01X2430743Y2640610D01*
G01X2430743Y2640610D01*
G01X2434034Y2644869D01*
G01X2435235Y2647176D01*
G01X2435235Y2655283D01*
G01X2435235Y2663390D01*
G01X2436006Y2663866D01*
G01X2436777Y2664343D01*
G01X2437651Y2661836D01*
G01X2438525Y2659329D01*
G01X2441194Y2657949D01*
G01X2443863Y2656570D01*
G01X2446630Y2658280D01*
G01X2446630Y2658280D01*
G01X2454013Y2669741D01*
G01X2455056Y2673001D01*
G01X2457044Y2673907D01*
G01X2459033Y2674812D01*
G01X2461997Y2672981D01*
G01X2461997Y2672981D01*
G01X2466300Y2669107D01*
G01X2467638Y2667065D01*
G01X2468121Y2626672D01*
G01X2468603Y2586278D01*
G01X2464200Y2576328D01*
G01X2459796Y2566378D01*
G01X2456700Y2563295D01*
G01X2456700Y2563295D01*
G01X2450614Y2557369D01*
G01X2450614Y2557369D01*
G01X2435877Y2540926D01*
G01X2435238Y2539787D01*
G01X2438192Y2536253D01*
G01X2438192Y2536253D01*
G01X2453511Y2521264D01*
G01X2453511Y2521264D01*
G01X2456084Y2518714D01*
G01X2456084Y2518714D01*
G01X2458415Y2515961D01*
G01X2458415Y2515961D01*
G01X2461193Y2511443D01*
G01X2461193Y2511443D01*
G01X2465880Y2504373D01*
G01X2465880Y2504373D01*
G01X2470658Y2497875D01*
G01X2472133Y2494988D01*
G01X2472069Y2454885D01*
G01X2472004Y2414781D01*
G01X2471138Y2411567D01*
G01X2471138Y2411567D01*
G01X2468469Y2406721D01*
G01X2468469Y2406721D01*
G01X2465139Y2402101D01*
G01X2465139Y2402101D01*
G01X2461873Y2397540D01*
G01X2460135Y2395968D01*
G01X2458151Y2396529D01*
G01X2458151Y2396529D01*
G01X2453952Y2397936D01*
G01X2451737Y2398781D01*
G01X2449491Y2403644D01*
G01X2449491Y2403644D01*
G01X2445968Y2411748D01*
G01X2444690Y2414987D01*
G01X2442174Y2413687D01*
G01X2442174Y2413687D01*
G01X2437966Y2410236D01*
G01X2436275Y2408086D01*
G01X2433619Y2408617D01*
G01X2430963Y2409148D01*
G01X2430958Y2413526D01*
G01X2430958Y2413526D01*
G01X2430126Y2422950D01*
G01X2429300Y2427996D01*
G01X2427354Y2430078D01*
G01X2427354Y2430078D01*
G01X2423273Y2433258D01*
G01X2421137Y2434356D01*
G01X2419333Y2433676D01*
G01X2419333Y2433676D01*
G01X2416001Y2419488D01*
G01X2415731Y2409113D01*
G01X2414489Y2406744D01*
G01X2413248Y2404375D01*
G01X2412222Y2407483D01*
G01X2411196Y2410590D01*
G01X2411314Y2425779D01*
G01X2411432Y2440968D01*
G01X2410085Y2445177D01*
G01X2410085Y2445177D01*
G01X2406174Y2451800D01*
G01X2399835Y2451668D01*
G01X2397647Y2450836D01*
G01X2395617Y2454871D01*
G01X2395617Y2454871D01*
G01X2392116Y2464032D01*
G01X2392116Y2464032D01*
G01X2385553Y2473065D01*
G01X2382323Y2474713D01*
G01X2381270Y2472789D01*
G01X2381270Y2472789D01*
G01X2372850Y2453032D01*
G01X2372850Y2453032D01*
G01X2369070Y2448592D01*
G01X2366575Y2447966D01*
G01X2362243Y2443566D01*
G01X2362243Y2443566D01*
G01X2355096Y2435141D01*
G01X2352282Y2431117D01*
G01X2347718Y2428542D01*
G01X2343154Y2425967D01*
G01X2338878Y2420227D01*
G01X2338878Y2420227D01*
G01X2331304Y2411443D01*
G01X2331304Y2411443D01*
G01X2325642Y2403941D01*
G01X2323278Y2399485D01*
G01X2321335Y2398747D01*
G01X2321335Y2398747D01*
G01X2318212Y2396586D01*
G01X2317031Y2395163D01*
G01X2318688Y2389876D01*
G01X2320345Y2384590D01*
G01X2326076Y2381824D01*
G01X2331806Y2379058D01*
G01X2333538Y2375665D01*
G01X2333538Y2375665D01*
G01X2333572Y2366248D01*
G01X2333572Y2366248D01*
G01X2328814Y2361694D01*
G01X2312857Y2359712D01*
G01X2306251Y2359173D01*
G01X2304130Y2360563D01*
G01X2302008Y2361952D01*
G01X2300459Y2367213D01*
G01X2298909Y2372475D01*
G01X2297651Y2373174D01*
G01X2297651Y2373174D01*
G01X2292664Y2374807D01*
G01X2288935Y2375739D01*
G01X2286906Y2377767D01*
G01X2284878Y2379795D01*
G01X2283813Y2383776D01*
G01X2282748Y2387757D01*
G01X2278891Y2390903D01*
G01X2275033Y2394049D01*
G01X2270795Y2395130D01*
G01X2270795Y2395130D01*
G01X2264353Y2399401D01*
G01X2264353Y2399401D01*
G01X2260773Y2409468D01*
G01X2260773Y2409468D01*
G01X2255722Y2410845D01*
G01X2251394Y2411260D01*
G01X2249633Y2413021D01*
G01X2249633Y2413021D01*
G01X2246686Y2434423D01*
G01X2246838Y2447525D01*
G01X2249235Y2449585D01*
G37*
G36*
G01X2493343Y2452752D02*
G01X2493343Y2452752D01*
G01X2496638Y2460260D01*
G01X2498217Y2462208D01*
G01X2499680Y2459976D01*
G01X2499680Y2459976D01*
G01X2504296Y2447061D01*
G01X2504880Y2429705D01*
G01X2504275Y2422443D01*
G01X2501882Y2419765D01*
G01X2499488Y2417087D01*
G01X2497052Y2417932D01*
G01X2494616Y2418777D01*
G01X2493122Y2421757D01*
G01X2491628Y2424738D01*
G01X2491627Y2435966D01*
G01X2491626Y2447195D01*
G01X2493343Y2452752D01*
G37*
G36*
G01X2510704Y2412248D02*
G01X2510704Y2412248D01*
G01X2517069Y2413652D01*
G01X2520725Y2414219D01*
G01X2524890Y2413220D01*
G01X2529054Y2412221D01*
G01X2529425Y2410791D01*
G01X2529425Y2410791D01*
G01X2524896Y2405065D01*
G01X2520732Y2402955D01*
G01X2517013Y2402955D01*
G01X2513293Y2402955D01*
G01X2509693Y2406036D01*
G01X2506093Y2409117D01*
G01X2507044Y2410264D01*
G01X2507044Y2410264D01*
G01X2510704Y2412248D01*
G37*
G36*
G01X2127133Y2999197D02*
G01X2128197Y3002187D01*
G01X2132408Y3003622D01*
G01X2136619Y3005058D01*
G01X2138134Y3003578D01*
G01X2139650Y3002099D01*
G01X2140144Y2997872D01*
G01X2140639Y2993645D01*
G01X2138849Y2991382D01*
G01X2137058Y2989119D01*
G01X2132994Y2988749D01*
G01X2132994Y2988749D01*
G01X2127434Y2989120D01*
G01X2125939Y2989860D01*
G01X2126004Y2993034D01*
G01X2126004Y2993034D01*
G01X2127133Y2999197D01*
G37*
G36*
G01X2503849Y2552075D02*
G01X2505820Y2554366D01*
G01X2508337Y2553065D01*
G01X2508337Y2553065D01*
G01X2512375Y2550083D01*
G01X2513895Y2548403D01*
G01X2512806Y2544328D01*
G01X2511715Y2540253D01*
G01X2508935Y2538133D01*
G01X2506155Y2536013D01*
G01X2504017Y2537414D01*
G01X2501879Y2538815D01*
G01X2501879Y2544300D01*
G01X2501879Y2549785D01*
G01X2503849Y2552075D01*
G37*
G36*
G01X2530425Y2644527D02*
G01X2530425Y2644527D01*
G01X2534270Y2649342D01*
G01X2536909Y2651851D01*
G01X2536909Y2650686D01*
G01X2536909Y2650686D01*
G01X2539984Y2645058D01*
G01X2543058Y2640595D01*
G01X2542508Y2638862D01*
G01X2541958Y2637129D01*
G01X2539434Y2636574D01*
G01X2539434Y2636574D01*
G01X2530959Y2637777D01*
G01X2530425Y2644527D01*
G37*
G36*
G01X2530425Y2442186D02*
G01X2530425Y2442186D01*
G01X2534483Y2443641D01*
G01X2537336Y2444096D01*
G01X2539686Y2443194D01*
G01X2542036Y2442292D01*
G01X2542036Y2440688D01*
G01X2542036Y2440688D01*
G01X2539897Y2436183D01*
G01X2539897Y2436183D01*
G01X2537235Y2431785D01*
G01X2537235Y2431785D01*
G01X2533404Y2432303D01*
G01X2533404Y2432303D01*
G01X2529462Y2437853D01*
G01X2530425Y2442186D01*
G37*
G36*
G01X2531411Y2473022D02*
G01X2531411Y2473022D01*
G01X2536904Y2473855D01*
G01X2540205Y2473855D01*
G01X2541511Y2472549D01*
G01X2542817Y2471244D01*
G01X2542116Y2469350D01*
G01X2541416Y2467457D01*
G01X2538793Y2466705D01*
G01X2538793Y2466705D01*
G01X2532360Y2467153D01*
G01X2529220Y2470948D01*
G01X2529220Y2472189D01*
G01X2531411Y2473022D01*
G37*
%LPD*%
G36*
G01X2810535Y2958550D02*
G01X2812886Y2954778D01*
G01X2840208Y2954778D01*
G01X2867530Y2954778D01*
G01X2869337Y2958319D01*
G01X2871144Y2961860D01*
G01X2871277Y2977655D01*
G01X2871410Y2993449D01*
G01X2877391Y2998956D01*
G01X2877391Y2998956D01*
G01X2887270Y3006461D01*
G01X2887270Y3006461D01*
G01X2892343Y3009875D01*
G01X2892343Y3009875D01*
G01X2897416Y3013269D01*
G01X2897416Y3013269D01*
G01X2903726Y3017491D01*
G01X2903726Y3017491D01*
G01X2910562Y3021959D01*
G01X2910562Y3021959D01*
G01X2915673Y3025369D01*
G01X2915673Y3025369D01*
G01X2920800Y3028797D01*
G01X2920800Y3028797D01*
G01X2928506Y3033836D01*
G01X2928506Y3033836D01*
G01X2934023Y3037194D01*
G01X2934023Y3037194D01*
G01X2939416Y3040473D01*
G01X2939416Y3040473D01*
G01X2946287Y3045529D01*
G01X2946287Y3045529D01*
G01X2953527Y3050726D01*
G01X2957038Y3053583D01*
G01X2961913Y3054561D01*
G01X2966788Y3055540D01*
G01X2972751Y3052538D01*
G01X2972751Y3052538D01*
G01X2979171Y3048347D01*
G01X2979171Y3048347D01*
G01X2983618Y3045305D01*
G01X2983618Y3045305D01*
G01X2989745Y3041512D01*
G01X2989745Y3041512D01*
G01X2996153Y3037185D01*
G01X2996153Y3037185D01*
G01X3002989Y3032467D01*
G01X3002989Y3032467D01*
G01X3007688Y3029511D01*
G01X3007688Y3029511D01*
G01X3013386Y3026000D01*
G01X3013386Y3026000D01*
G01X3021265Y3020946D01*
G01X3021265Y3020946D01*
G01X3026247Y3017624D01*
G01X3026247Y3017624D01*
G01X3030866Y3014623D01*
G01X3030866Y3014623D01*
G01X3038049Y3009902D01*
G01X3038049Y3009902D01*
G01X3043493Y3005914D01*
G01X3043493Y3005914D01*
G01X3049321Y3001571D01*
G01X3049321Y3001571D01*
G01X3053623Y2998343D01*
G01X3053623Y2998343D01*
G01X3055778Y2995862D01*
G01X3057244Y2993381D01*
G01X3057244Y2977624D01*
G01X3057244Y2961866D01*
G01X3058175Y2959195D01*
G01X3059106Y2956524D01*
G01X3062233Y2955655D01*
G01X3065360Y2954787D01*
G01X3090138Y2954787D01*
G01X3114916Y2954787D01*
G01X3118043Y2955655D01*
G01X3121170Y2956524D01*
G01X3122101Y2959195D01*
G01X3123033Y2961866D01*
G01X3123026Y2981172D01*
G01X3123020Y3000478D01*
G01X3122124Y3006001D01*
G01X3122124Y3006001D01*
G01X3120372Y3012555D01*
G01X3120372Y3012555D01*
G01X3117087Y3020452D01*
G01X3114659Y3027318D01*
G01X3111690Y3030982D01*
G01X3111690Y3030982D01*
G01X3107376Y3037296D01*
G01X3107376Y3037296D01*
G01X3103811Y3041400D01*
G01X3103811Y3041400D01*
G01X3100030Y3045421D01*
G01X3098469Y3047988D01*
G01X3095158Y3049731D01*
G01X3095158Y3049731D01*
G01X3089284Y3053878D01*
G01X3089284Y3053878D01*
G01X3083192Y3058096D01*
G01X3083192Y3058096D01*
G01X3078066Y3061698D01*
G01X3078066Y3061698D01*
G01X3072706Y3065107D01*
G01X3072706Y3065107D01*
G01X3063864Y3070549D01*
G01X3063864Y3070549D01*
G01X3057735Y3074368D01*
G01X3057735Y3074368D01*
G01X3054639Y3076548D01*
G01X3054639Y3076548D01*
G01X3049106Y3080268D01*
G01X3049106Y3080268D01*
G01X3042675Y3084376D01*
G01X3042675Y3084376D01*
G01X3036738Y3088447D01*
G01X3036738Y3088447D01*
G01X3032252Y3091260D01*
G01X3030757Y3092571D01*
G01X3030757Y3096640D01*
G01X3030757Y3096640D01*
G01X3031628Y3102382D01*
G01X3036204Y3105707D01*
G01X3036204Y3105707D01*
G01X3044000Y3110688D01*
G01X3044000Y3110688D01*
G01X3049396Y3114060D01*
G01X3049396Y3114060D01*
G01X3054095Y3117006D01*
G01X3054095Y3117006D01*
G01X3061629Y3122061D01*
G01X3061629Y3122061D01*
G01X3067576Y3126143D01*
G01X3067576Y3126143D01*
G01X3073016Y3129417D01*
G01X3073016Y3129417D01*
G01X3078521Y3132774D01*
G01X3078521Y3132774D01*
G01X3085142Y3137257D01*
G01X3085142Y3137257D01*
G01X3090565Y3141089D01*
G01X3090565Y3141089D01*
G01X3094197Y3144228D01*
G01X3094197Y3144228D01*
G01X3107662Y3157263D01*
G01X3107662Y3157263D01*
G01X3111592Y3162818D01*
G01X3114410Y3166275D01*
G01X3117076Y3173496D01*
G01X3117076Y3173496D01*
G01X3121121Y3184134D01*
G01X3122499Y3187551D01*
G01X3122850Y3210023D01*
G01X3123200Y3232494D01*
G01X3122207Y3234891D01*
G01X3121214Y3237288D01*
G01X3115502Y3238226D01*
G01X3109789Y3239165D01*
G01X3107867Y3241381D01*
G01X3105945Y3243597D01*
G01X3105945Y3245945D01*
G01X3105945Y3248293D01*
G01X3108498Y3252090D01*
G01X3108498Y3252090D01*
G01X3113625Y3259218D01*
G01X3113625Y3259218D01*
G01X3116198Y3264051D01*
G01X3116198Y3264051D01*
G01X3118743Y3271223D01*
G01X3118743Y3271223D01*
G01X3122200Y3282194D01*
G01X3123112Y3287494D01*
G01X3122859Y3369071D01*
G01X3122606Y3450649D01*
G01X3121174Y3454066D01*
G01X3121174Y3454066D01*
G01X3117065Y3464743D01*
G01X3117065Y3464743D01*
G01X3112467Y3474140D01*
G01X3112467Y3474140D01*
G01X3108187Y3479976D01*
G01X3108187Y3479976D01*
G01X3090946Y3496414D01*
G01X3090946Y3496414D01*
G01X3085538Y3500104D01*
G01X3085538Y3500104D01*
G01X3068469Y3505304D01*
G01X3061088Y3506594D01*
G01X2964919Y3506597D01*
G01X2868749Y3506600D01*
G01X2859826Y3504957D01*
G01X2859826Y3504957D01*
G01X2844057Y3499750D01*
G01X2844057Y3499750D01*
G01X2838931Y3496754D01*
G01X2838931Y3496754D01*
G01X2828040Y3488096D01*
G01X2828040Y3488096D01*
G01X2818415Y3476524D01*
G01X2818415Y3476524D01*
G01X2814783Y3470077D01*
G01X2811736Y3465586D01*
G01X2810447Y3460253D01*
G01X2809157Y3454920D01*
G01X2808822Y3372488D01*
G01X2808487Y3290057D01*
G01X2809430Y3280660D01*
G01X2809430Y3280660D01*
G01X2814623Y3261677D01*
G01X2814623Y3261677D01*
G01X2817488Y3257157D01*
G01X2817488Y3257157D01*
G01X2821898Y3250661D01*
G01X2824918Y3247643D01*
G01X2824397Y3245786D01*
G01X2824397Y3245786D01*
G01X2822975Y3241580D01*
G01X2822074Y3239231D01*
G01X2817595Y3239231D01*
G01X2813115Y3239231D01*
G01X2810801Y3235892D01*
G01X2808486Y3232553D01*
G01X2808574Y3213469D01*
G01X2808574Y3213469D01*
G01X2810069Y3182237D01*
G01X2814328Y3169050D01*
G01X2814328Y3169050D01*
G01X2817268Y3164222D01*
G01X2818857Y3160516D01*
G01X2824628Y3154074D01*
G01X2824628Y3154074D01*
G01X2835132Y3144404D01*
G01X2835132Y3144404D01*
G01X2841045Y3139755D01*
G01X2841045Y3139755D01*
G01X2845282Y3137058D01*
G01X2845282Y3137058D01*
G01X2850477Y3133818D01*
G01X2850477Y3133818D01*
G01X2857426Y3129159D01*
G01X2857426Y3129159D01*
G01X2863353Y3125121D01*
G01X2863353Y3125121D01*
G01X2868419Y3121777D01*
G01X2868419Y3121777D01*
G01X2873548Y3118357D01*
G01X2873548Y3118357D01*
G01X2879714Y3114421D01*
G01X2879714Y3114421D01*
G01X2886462Y3110145D01*
G01X2886462Y3110145D01*
G01X2891350Y3107096D01*
G01X2891350Y3107096D01*
G01X2897256Y3103711D01*
G01X2900032Y3101616D01*
G01X2900032Y3097464D01*
G01X2900032Y3093312D01*
G01X2897256Y3090971D01*
G01X2897256Y3090971D01*
G01X2891848Y3087528D01*
G01X2891848Y3087528D01*
G01X2888101Y3085082D01*
G01X2888101Y3085082D01*
G01X2882687Y3081580D01*
G01X2882687Y3081580D01*
G01X2875415Y3076810D01*
G01X2875415Y3076810D01*
G01X2868923Y3072692D01*
G01X2868923Y3072692D01*
G01X2864192Y3069724D01*
G01X2864192Y3069724D01*
G01X2859933Y3066690D01*
G01X2859933Y3066690D01*
G01X2851869Y3061201D01*
G01X2851869Y3061201D01*
G01X2845704Y3057283D01*
G01X2845704Y3057283D01*
G01X2841749Y3054906D01*
G01X2841749Y3054906D01*
G01X2835429Y3050273D01*
G01X2835429Y3050273D01*
G01X2817355Y3030117D01*
G01X2817355Y3030117D01*
G01X2814301Y3025250D01*
G01X2814301Y3025250D01*
G01X2810424Y3014499D01*
G01X2808727Y2985671D01*
G01X2808184Y2962323D01*
G01X2810535Y2958550D01*
G37*
%LPC*%
G36*
G01X2826121Y3012400D02*
G01X2826121Y3012400D01*
G01X2829403Y3019805D01*
G01X2829403Y3019805D01*
G01X2833284Y3025395D01*
G01X2833284Y3025395D01*
G01X2839692Y3032314D01*
G01X2839692Y3032314D01*
G01X2847486Y3038817D01*
G01X2847486Y3038817D01*
G01X2853726Y3043118D01*
G01X2853726Y3043118D01*
G01X2858005Y3046011D01*
G01X2858005Y3046011D01*
G01X2864154Y3050406D01*
G01X2864154Y3050406D01*
G01X2871653Y3055745D01*
G01X2871653Y3055745D01*
G01X2875517Y3058138D01*
G01X2875517Y3058138D01*
G01X2879546Y3060579D01*
G01X2879546Y3060579D01*
G01X2887643Y3065842D01*
G01X2887643Y3065842D01*
G01X2894906Y3070568D01*
G01X2894906Y3070568D01*
G01X2900517Y3074211D01*
G01X2900517Y3074211D01*
G01X2905103Y3077290D01*
G01X2905103Y3077290D01*
G01X2911026Y3081344D01*
G01X2911026Y3081344D01*
G01X2918646Y3086475D01*
G01X2918646Y3086475D01*
G01X2922410Y3088889D01*
G01X2922410Y3088889D01*
G01X2926225Y3091068D01*
G01X2929082Y3093247D01*
G01X2929082Y3097463D01*
G01X2929082Y3101678D01*
G01X2925878Y3103636D01*
G01X2925878Y3103636D01*
G01X2920470Y3106851D01*
G01X2920470Y3106851D01*
G01X2904832Y3117177D01*
G01X2904832Y3117177D01*
G01X2898651Y3121194D01*
G01X2898651Y3121194D01*
G01X2892670Y3125038D01*
G01X2892670Y3125038D01*
G01X2885881Y3129283D01*
G01X2885881Y3129283D01*
G01X2880381Y3132881D01*
G01X2880381Y3132881D01*
G01X2875155Y3136348D01*
G01X2875155Y3136348D01*
G01X2870514Y3139355D01*
G01X2870514Y3139355D01*
G01X2853713Y3151009D01*
G01X2853713Y3151009D01*
G01X2835596Y3166096D01*
G01X2825961Y3182239D01*
G01X2824684Y3186697D01*
G01X2824230Y3201914D01*
G01X2823776Y3217131D01*
G01X2826179Y3219639D01*
G01X2828582Y3222147D01*
G01X2840308Y3222147D01*
G01X2852034Y3222147D01*
G01X2854324Y3219426D01*
G01X2856614Y3216704D01*
G01X2856080Y3209389D01*
G01X2855546Y3202073D01*
G01X2856279Y3197802D01*
G01X2857011Y3193530D01*
G01X2860644Y3188697D01*
G01X2864277Y3183863D01*
G01X2868985Y3180582D01*
G01X2868985Y3180582D01*
G01X2878105Y3174588D01*
G01X2878105Y3174588D01*
G01X2884653Y3170224D01*
G01X2884653Y3170224D01*
G01X2890397Y3166738D01*
G01X2890397Y3166738D01*
G01X2896805Y3162461D01*
G01X2896805Y3162461D01*
G01X2903147Y3158224D01*
G01X2903147Y3158224D01*
G01X2907978Y3155141D01*
G01X2907978Y3155141D01*
G01X2914261Y3150781D01*
G01X2914261Y3150781D01*
G01X2923272Y3144994D01*
G01X2923272Y3144994D01*
G01X2930107Y3140397D01*
G01X2930107Y3140397D01*
G01X2945677Y3129559D01*
G01X2945677Y3129559D01*
G01X2950786Y3126475D01*
G01X2950786Y3126475D01*
G01X2953925Y3124258D01*
G01X2953925Y3124258D01*
G01X2964740Y3119465D01*
G01X2968878Y3119285D01*
G01X2972690Y3122003D01*
G01X2972690Y3122003D01*
G01X2980676Y3127092D01*
G01X2980676Y3127092D01*
G01X2987624Y3131813D01*
G01X2987624Y3131813D01*
G01X2991081Y3134163D01*
G01X2991081Y3134163D01*
G01X2997803Y3138755D01*
G01X2997803Y3138755D01*
G01X3006408Y3144647D01*
G01X3006408Y3144647D01*
G01X3010599Y3147743D01*
G01X3010599Y3147743D01*
G01X3013289Y3149538D01*
G01X3013289Y3149538D01*
G01X3019351Y3153273D01*
G01X3019351Y3153273D01*
G01X3027766Y3158742D01*
G01X3027766Y3158742D01*
G01X3033320Y3162353D01*
G01X3033320Y3162353D01*
G01X3039355Y3166214D01*
G01X3039355Y3166214D01*
G01X3044398Y3169577D01*
G01X3044398Y3169577D01*
G01X3050966Y3173988D01*
G01X3050966Y3173988D01*
G01X3056389Y3177644D01*
G01X3056389Y3177644D01*
G01X3059653Y3180101D01*
G01X3059653Y3180101D01*
G01X3067277Y3186545D01*
G01X3071638Y3191155D01*
G01X3072755Y3194905D01*
G01X3073873Y3198656D01*
G01X3073955Y3207625D01*
G01X3073955Y3207625D01*
G01X3074434Y3217569D01*
G01X3078019Y3220362D01*
G01X3081706Y3222147D01*
G01X3090227Y3222147D01*
G01X3098748Y3222147D01*
G01X3102560Y3220225D01*
G01X3106372Y3218303D01*
G01X3106302Y3205490D01*
G01X3106232Y3192676D01*
G01X3103899Y3185415D01*
G01X3103899Y3185415D01*
G01X3093912Y3165247D01*
G01X3077322Y3151678D01*
G01X3077322Y3151678D01*
G01X3071341Y3147784D01*
G01X3071341Y3147784D01*
G01X3066215Y3144600D01*
G01X3066215Y3144600D01*
G01X3061145Y3141060D01*
G01X3061145Y3141060D01*
G01X3055122Y3136734D01*
G01X3055122Y3136734D01*
G01X3048658Y3132405D01*
G01X3048658Y3132405D01*
G01X3042665Y3128592D01*
G01X3042665Y3128592D01*
G01X3037671Y3125288D01*
G01X3037671Y3125288D01*
G01X3031140Y3120930D01*
G01X3031140Y3120930D01*
G01X3025178Y3117039D01*
G01X3025178Y3117039D01*
G01X3019801Y3113593D01*
G01X3019801Y3113593D01*
G01X3010935Y3108274D01*
G01X3010935Y3108274D01*
G01X3004100Y3103825D01*
G01X3001280Y3102104D01*
G01X3001025Y3097266D01*
G01X3000771Y3092429D01*
G01X3006750Y3088938D01*
G01X3006750Y3088938D01*
G01X3013261Y3084586D01*
G01X3013261Y3084586D01*
G01X3018695Y3081252D01*
G01X3018695Y3081252D01*
G01X3024770Y3077365D01*
G01X3024770Y3077365D01*
G01X3029418Y3074196D01*
G01X3029418Y3074196D01*
G01X3037890Y3068706D01*
G01X3037890Y3068706D01*
G01X3043952Y3064971D01*
G01X3043952Y3064971D01*
G01X3046564Y3063262D01*
G01X3046564Y3063262D01*
G01X3053402Y3058595D01*
G01X3053402Y3058595D01*
G01X3059836Y3054258D01*
G01X3059836Y3054258D01*
G01X3064933Y3050877D01*
G01X3064933Y3050877D01*
G01X3070037Y3047487D01*
G01X3070037Y3047487D01*
G01X3076392Y3043053D01*
G01X3076392Y3043053D01*
G01X3096320Y3025617D01*
G01X3099938Y3020979D01*
G01X3103070Y3011156D01*
G01X3106202Y3001332D01*
G01X3106610Y2989593D01*
G01X3107018Y2977853D01*
G01X3105841Y2976427D01*
G01X3105841Y2976427D01*
G01X3101219Y2973474D01*
G01X3097774Y2971947D01*
G01X3090138Y2971947D01*
G01X3082502Y2971947D01*
G01X3078917Y2973533D01*
G01X3075332Y2975118D01*
G01X3074338Y2976975D01*
G01X3073344Y2978832D01*
G01X3073927Y2985047D01*
G01X3074509Y2991263D01*
G01X3073426Y2996297D01*
G01X3073426Y2996297D01*
G01X3067902Y3007775D01*
G01X3060728Y3013718D01*
G01X3060728Y3013718D01*
G01X3057060Y3016121D01*
G01X3057060Y3016121D01*
G01X3049981Y3020953D01*
G01X3049981Y3020953D01*
G01X3043048Y3025598D01*
G01X3043048Y3025598D01*
G01X3036212Y3030184D01*
G01X3036212Y3030184D01*
G01X3029304Y3034456D01*
G01X3029304Y3034456D01*
G01X3014955Y3043616D01*
G01X3014955Y3043616D01*
G01X3008459Y3048150D01*
G01X3008459Y3048150D01*
G01X2992834Y3058739D01*
G01X2992834Y3058739D01*
G01X2985998Y3063358D01*
G01X2985998Y3063358D01*
G01X2980347Y3067099D01*
G01X2980347Y3067099D01*
G01X2973331Y3071536D01*
G01X2973331Y3071536D01*
G01X2962316Y3074524D01*
G01X2959236Y3074368D01*
G01X2956789Y3072100D01*
G01X2956789Y3072100D01*
G01X2950416Y3067518D01*
G01X2950416Y3067518D01*
G01X2942554Y3062312D01*
G01X2942554Y3062312D01*
G01X2927019Y3052307D01*
G01X2927019Y3052307D01*
G01X2921393Y3048327D01*
G01X2921393Y3048327D01*
G01X2915312Y3043907D01*
G01X2915312Y3043907D01*
G01X2900791Y3034433D01*
G01X2900791Y3034433D01*
G01X2883507Y3023320D01*
G01X2883507Y3023320D01*
G01X2877216Y3019271D01*
G01X2877216Y3019271D01*
G01X2869008Y3013935D01*
G01X2869008Y3013935D01*
G01X2857197Y3000905D01*
G01X2856196Y2998770D01*
G01X2856093Y2988069D01*
G01X2855991Y2977368D01*
G01X2854030Y2974615D01*
G01X2852069Y2971862D01*
G01X2840242Y2971862D01*
G01X2828414Y2971862D01*
G01X2826101Y2974611D01*
G01X2823787Y2977360D01*
G01X2824237Y2992336D01*
G01X2824688Y3007312D01*
G01X2826121Y3012400D01*
G37*
G36*
G01X2824888Y3450706D02*
G01X2824888Y3450706D01*
G01X2829028Y3463889D01*
G01X2829028Y3463889D01*
G01X2831677Y3467520D01*
G01X2831677Y3467520D01*
G01X2845916Y3481776D01*
G01X2845916Y3481776D01*
G01X2851331Y3485237D01*
G01X2853467Y3486931D01*
G01X2860525Y3488674D01*
G01X2867583Y3490417D01*
G01X2967326Y3490152D01*
G01X3067069Y3489887D01*
G01X3071341Y3488553D01*
G01X3071341Y3488553D01*
G01X3084038Y3481778D01*
G01X3096501Y3469442D01*
G01X3099990Y3465171D01*
G01X3102154Y3457910D01*
G01X3102154Y3457910D01*
G01X3105345Y3448086D01*
G01X3106372Y3445524D01*
G01X3106372Y3365655D01*
G01X3106372Y3285786D01*
G01X3103969Y3278525D01*
G01X3103969Y3278525D01*
G01X3096056Y3261441D01*
G01X3096056Y3261441D01*
G01X3092119Y3256511D01*
G01X3092119Y3256511D01*
G01X3082295Y3248453D01*
G01X3067778Y3242535D01*
G01X3060234Y3240678D01*
G01X3025630Y3240318D01*
G01X2991027Y3239958D01*
G01X2986518Y3241488D01*
G01X2982010Y3243017D01*
G01X2980914Y3244755D01*
G01X2980914Y3244755D01*
G01X2978364Y3250390D01*
G01X2976910Y3254288D01*
G01X2973280Y3258078D01*
G01X2973280Y3258078D01*
G01X2968238Y3264003D01*
G01X2966825Y3266139D01*
G01X2965333Y3262722D01*
G01X2963842Y3259305D01*
G01X2963286Y3252044D01*
G01X2962730Y3244783D01*
G01X2961187Y3242434D01*
G01X2959645Y3240085D01*
G01X2917480Y3240085D01*
G01X2875315Y3240085D01*
G01X2866954Y3241762D01*
G01X2866954Y3241762D01*
G01X2849525Y3247231D01*
G01X2849525Y3247231D01*
G01X2845188Y3250310D01*
G01X2845188Y3250310D01*
G01X2831927Y3263498D01*
G01X2831927Y3263498D01*
G01X2828808Y3268509D01*
G01X2827054Y3270880D01*
G01X2825586Y3277906D01*
G01X2824118Y3284931D01*
G01X2824054Y3365284D01*
G01X2823990Y3445637D01*
G01X2824888Y3450706D01*
G37*
%LPD*%
G36*
G01X2856028Y3292619D02*
G01X2856028Y3292619D01*
G01X2856842Y3288622D01*
G01X2857367Y3285479D01*
G01X2861393Y3280692D01*
G01X2865419Y3275905D01*
G01X2869696Y3274623D01*
G01X2873973Y3273342D01*
G01X2964729Y3273331D01*
G01X3055485Y3273321D01*
G01X3058916Y3274244D01*
G01X3058916Y3274244D01*
G01X3064707Y3277310D01*
G01X3064707Y3277310D01*
G01X3069322Y3281533D01*
G01X3071575Y3283613D01*
G01X3072987Y3289397D01*
G01X3074399Y3295182D01*
G01X3074140Y3367790D01*
G01X3073880Y3440398D01*
G01X3072394Y3444782D01*
G01X3070908Y3449165D01*
G01X3066306Y3453096D01*
G01X3066306Y3453096D01*
G01X3059419Y3457895D01*
G01X3057132Y3458764D01*
G01X2965125Y3458759D01*
G01X2873119Y3458754D01*
G01X2869962Y3457878D01*
G01X2866804Y3457001D01*
G01X2862479Y3452117D01*
G01X2858154Y3447232D01*
G01X2856879Y3443020D01*
G01X2855603Y3438807D01*
G01X2855671Y3366140D01*
G01X2855671Y3366140D01*
G01X2856028Y3292619D01*
G37*
%LPC*%
G36*
G01X2872602Y3436192D02*
G01X2874183Y3439674D01*
G01X2877496Y3441318D01*
G01X2880808Y3442961D01*
G01X2965967Y3442961D01*
G01X3051126Y3442961D01*
G01X3053344Y3440877D01*
G01X3053344Y3440877D01*
G01X3056448Y3435751D01*
G01X3057332Y3432710D01*
G01X3057074Y3363325D01*
G01X3056816Y3293939D01*
G01X3054448Y3291571D01*
G01X3052079Y3289203D01*
G01X2966016Y3289203D01*
G01X2879954Y3289203D01*
G01X2876547Y3290911D01*
G01X2873140Y3292619D01*
G01X2872127Y3296036D01*
G01X2871114Y3299453D01*
G01X2871067Y3366082D01*
G01X2871020Y3432710D01*
G01X2872602Y3436192D01*
G37*
G36*
G01X2872909Y3218848D02*
G01X2872909Y3218848D01*
G01X2877732Y3222051D01*
G01X2880636Y3223001D01*
G01X2966442Y3223001D01*
G01X3052248Y3223001D01*
G01X3054746Y3220504D01*
G01X3057244Y3218007D01*
G01X3057244Y3209784D01*
G01X3057244Y3201561D01*
G01X3056033Y3199254D01*
G01X3056033Y3199254D01*
G01X3043970Y3189019D01*
G01X3043970Y3189019D01*
G01X3037592Y3184561D01*
G01X3037592Y3184561D01*
G01X3031184Y3180092D01*
G01X3031184Y3180092D01*
G01X3026721Y3176852D01*
G01X3026721Y3176852D01*
G01X3022407Y3174061D01*
G01X3022407Y3174061D01*
G01X3015335Y3169571D01*
G01X3015335Y3169571D01*
G01X3008115Y3164900D01*
G01X3008115Y3164900D01*
G01X3002626Y3161173D01*
G01X3002626Y3161173D01*
G01X2999495Y3158935D01*
G01X2999495Y3158935D01*
G01X2992232Y3154237D01*
G01X2992232Y3154237D01*
G01X2984927Y3149538D01*
G01X2984927Y3149538D01*
G01X2981017Y3147116D01*
G01X2981017Y3147116D01*
G01X2972271Y3141571D01*
G01X2966332Y3138448D01*
G01X2963300Y3139397D01*
G01X2963300Y3139397D01*
G01X2949076Y3146978D01*
G01X2949076Y3146978D01*
G01X2942424Y3151247D01*
G01X2942424Y3151247D01*
G01X2939271Y3153457D01*
G01X2939271Y3153457D01*
G01X2934336Y3156866D01*
G01X2934336Y3156866D01*
G01X2926348Y3161917D01*
G01X2926348Y3161917D01*
G01X2920056Y3165768D01*
G01X2920056Y3165768D01*
G01X2915929Y3168367D01*
G01X2915929Y3168367D01*
G01X2908850Y3173131D01*
G01X2908850Y3173131D01*
G01X2902774Y3177367D01*
G01X2902774Y3177367D01*
G01X2897648Y3181054D01*
G01X2897648Y3181054D01*
G01X2892770Y3184570D01*
G01X2892770Y3184570D01*
G01X2886789Y3188407D01*
G01X2882517Y3190344D01*
G01X2877573Y3194927D01*
G01X2872630Y3199510D01*
G01X2871880Y3202073D01*
G01X2871880Y3202073D01*
G01X2871060Y3210615D01*
G01X2870991Y3216594D01*
G01X2872909Y3218848D01*
G37*
%LPD*%
G36*
G01X1805323Y2938361D02*
G01X1805323Y2938361D01*
G01X1810235Y2936451D01*
G01X1813653Y2935847D01*
G01X1815541Y2934091D01*
G01X1817428Y2932336D01*
G01X1817988Y2928394D01*
G01X1817988Y2928394D01*
G01X1819829Y2921677D01*
G01X1821110Y2918901D01*
G01X1825196Y2918901D01*
G01X1829283Y2918901D01*
G01X1831892Y2915929D01*
G01X1834502Y2912958D01*
G01X1835055Y2909736D01*
G01X1835055Y2909736D01*
G01X1836212Y2903979D01*
G01X1836816Y2901444D01*
G01X1838905Y2900861D01*
G01X1838905Y2900861D01*
G01X1861756Y2900193D01*
G01X1882518Y2900108D01*
G01X1884987Y2898831D01*
G01X1884987Y2898831D01*
G01X1890123Y2891843D01*
G01X1890123Y2891843D01*
G01X1891095Y2887805D01*
G01X1892067Y2885671D01*
G01X1894463Y2884836D01*
G01X1894463Y2884836D01*
G01X1910171Y2882917D01*
G01X1923483Y2881833D01*
G01X1925131Y2880299D01*
G01X1925131Y2880299D01*
G01X1927670Y2875555D01*
G01X1928561Y2872346D01*
G01X1928566Y2845169D01*
G01X1928571Y2817991D01*
G01X1927616Y2816125D01*
G01X1927616Y2816125D01*
G01X1924840Y2812784D01*
G01X1923017Y2811308D01*
G01X1918209Y2811289D01*
G01X1913401Y2811270D01*
G01X1912228Y2809861D01*
G01X1911055Y2808453D01*
G01X1910628Y2795553D01*
G01X1910201Y2782654D01*
G01X1908484Y2779732D01*
G01X1906768Y2776811D01*
G01X1904640Y2776177D01*
G01X1904640Y2776177D01*
G01X1896317Y2773734D01*
G01X1890123Y2771927D01*
G01X1890123Y2681880D01*
G01X1890123Y2591834D01*
G01X1891871Y2588872D01*
G01X1893620Y2585909D01*
G01X1897638Y2585020D01*
G01X1897638Y2585020D01*
G01X1904463Y2583588D01*
G01X1907269Y2583046D01*
G01X1908572Y2581057D01*
G01X1909876Y2579068D01*
G01X1910352Y2571094D01*
G01X1910828Y2563120D01*
G01X1912173Y2562053D01*
G01X1913518Y2560985D01*
G01X1917522Y2560985D01*
G01X1921526Y2560985D01*
G01X1922699Y2562397D01*
G01X1923872Y2563809D01*
G01X1924466Y2665116D01*
G01X1924466Y2665116D01*
G01X1925755Y2778810D01*
G01X1926449Y2791196D01*
G01X1927520Y2793080D01*
G01X1928591Y2794965D01*
G01X1931785Y2795852D01*
G01X1931785Y2795852D01*
G01X1935866Y2796743D01*
G01X1935866Y2796743D01*
G01X1939612Y2799134D01*
G01X1942471Y2801521D01*
G01X1942355Y2813162D01*
G01X1942239Y2824803D01*
G01X1944550Y2827549D01*
G01X1944550Y2827549D01*
G01X1956028Y2833053D01*
G01X1959990Y2833644D01*
G01X1961155Y2836765D01*
G01X1962320Y2839886D01*
G01X1961893Y2847915D01*
G01X1961466Y2855944D01*
G01X1962464Y2859302D01*
G01X1962464Y2859302D01*
G01X1964900Y2864250D01*
G01X1966338Y2865838D01*
G01X1971029Y2866424D01*
G01X1975720Y2867010D01*
G01X1977802Y2868824D01*
G01X1979884Y2870638D01*
G01X1979311Y2874734D01*
G01X1978738Y2878831D01*
G01X1977127Y2880879D01*
G01X1975516Y2882926D01*
G01X1971481Y2883510D01*
G01X1971481Y2883510D01*
G01X1966378Y2884944D01*
G01X1965310Y2885796D01*
G01X1965310Y2889957D01*
G01X1965310Y2894118D01*
G01X1961765Y2896686D01*
G01X1958219Y2899254D01*
G01X1955143Y2899281D01*
G01X1955143Y2899281D01*
G01X1950535Y2900632D01*
G01X1948085Y2905500D01*
G01X1947022Y2909474D01*
G01X1944418Y2910706D01*
G01X1944418Y2910706D01*
G01X1934303Y2913342D01*
G01X1934303Y2913342D01*
G01X1923864Y2915969D01*
G01X1920936Y2917192D01*
G01X1893354Y2917197D01*
G01X1865772Y2917202D01*
G01X1862557Y2918094D01*
G01X1859342Y2918987D01*
G01X1856435Y2924759D01*
G01X1856435Y2924759D01*
G01X1848097Y2932913D01*
G01X1848097Y2932913D01*
G01X1840882Y2936227D01*
G01X1836818Y2938975D01*
G01X1835788Y2943622D01*
G01X1834757Y2948269D01*
G01X1833257Y2949366D01*
G01X1833257Y2949366D01*
G01X1826977Y2951847D01*
G01X1826977Y2951847D01*
G01X1821129Y2954109D01*
G01X1820061Y2954987D01*
G01X1820061Y2959519D01*
G01X1820061Y2964052D01*
G01X1818719Y2965394D01*
G01X1817376Y2966737D01*
G01X1812016Y2966737D01*
G01X1806655Y2966737D01*
G01X1805241Y2965175D01*
G01X1803827Y2963612D01*
G01X1803827Y2951639D01*
G01X1803827Y2939667D01*
G01X1805323Y2938361D01*
G37*
G36*
G01X2825749Y2378035D02*
G01X2825749Y2378035D01*
G01X2833187Y2361723D01*
G01X2837233Y2355941D01*
G01X2843642Y2350832D01*
G01X2850050Y2345724D01*
G01X2853467Y2344844D01*
G01X2853467Y2344844D01*
G01X2862011Y2341664D01*
G01X2867138Y2339362D01*
G01X2913434Y2339079D01*
G01X2959731Y2338795D01*
G01X2960751Y2340701D01*
G01X2960751Y2340701D01*
G01X2962376Y2350602D01*
G01X2962981Y2358595D01*
G01X2964798Y2361052D01*
G01X2966615Y2363509D01*
G01X2964898Y2365691D01*
G01X2963181Y2367874D01*
G01X2960016Y2368753D01*
G01X2956850Y2369631D01*
G01X2916925Y2369636D01*
G01X2876999Y2369641D01*
G01X2871214Y2371502D01*
G01X2871214Y2371502D01*
G01X2862840Y2375415D01*
G01X2856708Y2383736D01*
G01X2855176Y2386298D01*
G01X2854926Y2459745D01*
G01X2854677Y2533191D01*
G01X2855513Y2538558D01*
G01X2856348Y2543926D01*
G01X2858326Y2546566D01*
G01X2858326Y2546566D01*
G01X2862523Y2551466D01*
G01X2864743Y2553724D01*
G01X2870640Y2555707D01*
G01X2876536Y2557691D01*
G01X2967103Y2557416D01*
G01X3057671Y2557141D01*
G01X3063651Y2553724D01*
G01X3069633Y2550307D01*
G01X3071576Y2546393D01*
G01X3071576Y2546393D01*
G01X3074348Y2537424D01*
G01X3075176Y2532369D01*
G01X3075181Y2463675D01*
G01X3075186Y2394980D01*
G01X3074273Y2389739D01*
G01X3074273Y2389739D01*
G01X3066503Y2375400D01*
G01X3063374Y2372880D01*
G01X3057532Y2371286D01*
G01X3051690Y2369691D01*
G01X3012814Y2369636D01*
G01X2973939Y2369580D01*
G01X2971897Y2368449D01*
G01X2971897Y2368449D01*
G01X2968841Y2365423D01*
G01X2967827Y2363529D01*
G01X2973019Y2358188D01*
G01X2978211Y2352848D01*
G01X2979920Y2347791D01*
G01X2981628Y2342733D01*
G01X2985473Y2340781D01*
G01X2989318Y2338829D01*
G01X3026058Y2339073D01*
G01X3062797Y2339316D01*
G01X3066215Y2341134D01*
G01X3066215Y2341134D01*
G01X3072498Y2343571D01*
G01X3072498Y2343571D01*
G01X3083630Y2348610D01*
G01X3095603Y2360245D01*
G01X3098904Y2364089D01*
G01X3100396Y2369214D01*
G01X3100396Y2369214D01*
G01X3103937Y2381173D01*
G01X3105985Y2388007D01*
G01X3105741Y2464886D01*
G01X3105496Y2541765D01*
G01X3102239Y2552748D01*
G01X3098983Y2563731D01*
G01X3096127Y2566587D01*
G01X3096127Y2566587D01*
G01X3092745Y2571097D01*
G01X3092745Y2571097D01*
G01X3088829Y2574996D01*
G01X3088829Y2574996D01*
G01X3085439Y2578125D01*
G01X3085439Y2578125D01*
G01X3082235Y2580283D01*
G01X3082235Y2580283D01*
G01X3072647Y2584724D01*
G01X3066263Y2587893D01*
G01X2968409Y2588167D01*
G01X2870555Y2588442D01*
G01X2864791Y2587449D01*
G01X2864791Y2587449D01*
G01X2858548Y2585684D01*
G01X2858548Y2585684D01*
G01X2851533Y2581891D01*
G01X2844997Y2578871D01*
G01X2842294Y2576121D01*
G01X2842294Y2576121D01*
G01X2837131Y2571160D01*
G01X2837131Y2571160D01*
G01X2826287Y2553461D01*
G01X2825369Y2550307D01*
G01X2825195Y2466594D01*
G01X2825021Y2382881D01*
G01X2825749Y2378035D01*
G37*
G36*
G01X2825853Y2613092D02*
G01X2825853Y2613092D01*
G01X2827596Y2609027D01*
G01X2828484Y2607951D01*
G01X2964322Y2608172D01*
G01X3100160Y2608394D01*
G01X3103052Y2611739D01*
G01X3105945Y2615085D01*
G01X3105945Y2624559D01*
G01X3105945Y2634033D01*
G01X3102065Y2636375D01*
G01X3098185Y2638718D01*
G01X2982234Y2638722D01*
G01X2866283Y2638725D01*
G01X2862110Y2640222D01*
G01X2857937Y2641719D01*
G01X2856321Y2644703D01*
G01X2854706Y2647688D01*
G01X2854941Y2728838D01*
G01X2855176Y2809988D01*
G01X2856458Y2812219D01*
G01X2856458Y2812219D01*
G01X2860016Y2817853D01*
G01X2862294Y2821257D01*
G01X2865570Y2822754D01*
G01X2865570Y2822754D01*
G01X2872352Y2825891D01*
G01X2875858Y2827531D01*
G01X2965483Y2827302D01*
G01X3055107Y2827073D01*
G01X3060991Y2824083D01*
G01X3060991Y2824083D01*
G01X3073050Y2812472D01*
G01X3074759Y2808280D01*
G01X3074891Y2735253D01*
G01X3075023Y2662225D01*
G01X3077881Y2661590D01*
G01X3077881Y2661590D01*
G01X3087192Y2664086D01*
G01X3087192Y2664086D01*
G01X3093880Y2667746D01*
G01X3093880Y2667746D01*
G01X3103178Y2674345D01*
G01X3105965Y2677938D01*
G01X3105731Y2744390D01*
G01X3105496Y2810843D01*
G01X3102352Y2821400D01*
G01X3102352Y2821400D01*
G01X3098945Y2832280D01*
G01X3098945Y2832280D01*
G01X3088117Y2844143D01*
G01X3082677Y2849574D01*
G01X3080606Y2850094D01*
G01X3080606Y2850094D01*
G01X3071948Y2853792D01*
G01X3065360Y2856970D01*
G01X2968019Y2857245D01*
G01X2870678Y2857520D01*
G01X2865122Y2856552D01*
G01X2865122Y2856552D01*
G01X2857371Y2854113D01*
G01X2857371Y2854113D01*
G01X2849829Y2850161D01*
G01X2844482Y2847680D01*
G01X2843186Y2845702D01*
G01X2843186Y2845702D01*
G01X2838493Y2841581D01*
G01X2838493Y2841581D01*
G01X2835098Y2838495D01*
G01X2835098Y2838495D01*
G01X2831075Y2831504D01*
G01X2827053Y2825454D01*
G01X2825994Y2819003D01*
G01X2824935Y2812551D01*
G01X2824967Y2714317D01*
G01X2824999Y2616082D01*
G01X2825853Y2613092D01*
G37*
G36*
G01X1804417Y2453032D02*
G01X1805433Y2451093D01*
G01X1809116Y2450004D01*
G01X1809116Y2450004D01*
G01X1815758Y2446003D01*
G01X1818778Y2437978D01*
G01X1818778Y2437978D01*
G01X1820190Y2432639D01*
G01X1820976Y2431144D01*
G01X1825162Y2431144D01*
G01X1825162Y2431144D01*
G01X1836509Y2427086D01*
G01X1838858Y2424845D01*
G01X1838858Y2421549D01*
G01X1838858Y2418254D01*
G01X1840955Y2416157D01*
G01X1843052Y2414060D01*
G01X1863212Y2414060D01*
G01X1883372Y2414060D01*
G01X1885853Y2412778D01*
G01X1888334Y2411495D01*
G01X1889223Y2408293D01*
G01X1889223Y2408293D01*
G01X1890118Y2402783D01*
G01X1890123Y2400475D01*
G01X1893908Y2397871D01*
G01X1897693Y2395267D01*
G01X1916945Y2395267D01*
G01X1936196Y2395267D01*
G01X1940738Y2393569D01*
G01X1945279Y2391870D01*
G01X1946838Y2389232D01*
G01X1948397Y2386594D01*
G01X1947809Y2382602D01*
G01X1947222Y2378610D01*
G01X1945470Y2376724D01*
G01X1943719Y2374837D01*
G01X1939349Y2373972D01*
G01X1939349Y2373972D01*
G01X1931710Y2372604D01*
G01X1928441Y2372102D01*
G01X1927140Y2368950D01*
G01X1927140Y2368950D01*
G01X1923833Y2363137D01*
G01X1921826Y2360477D01*
G01X1917524Y2359906D01*
G01X1913222Y2359336D01*
G01X1912353Y2357711D01*
G01X1911483Y2356086D01*
G01X1911483Y2336060D01*
G01X1911483Y2316035D01*
G01X1912883Y2314873D01*
G01X1914283Y2313711D01*
G01X1927194Y2313248D01*
G01X1940105Y2312785D01*
G01X1942862Y2311304D01*
G01X1945618Y2309823D01*
G01X1946963Y2305197D01*
G01X1946963Y2305197D01*
G01X1950036Y2298375D01*
G01X1951764Y2296179D01*
G01X1998191Y2296179D01*
G01X2044618Y2296179D01*
G01X2046830Y2298807D01*
G01X2049042Y2301435D01*
G01X2049042Y2306495D01*
G01X2049042Y2311554D01*
G01X2047547Y2312817D01*
G01X2047547Y2312817D01*
G01X2033225Y2327784D01*
G01X2033225Y2327784D01*
G01X2026656Y2336447D01*
G01X2021618Y2342120D01*
G01X2018583Y2341190D01*
G01X2015549Y2340259D01*
G01X2014780Y2338236D01*
G01X2014011Y2336213D01*
G01X2014559Y2327841D01*
G01X2014559Y2327841D01*
G01X2014565Y2317306D01*
G01X2014022Y2315144D01*
G01X2009959Y2314266D01*
G01X2005895Y2313388D01*
G01X1987443Y2313539D01*
G01X1968990Y2313690D01*
G01X1967488Y2314937D01*
G01X1967488Y2314937D01*
G01X1964000Y2320672D01*
G01X1962015Y2325159D01*
G01X1960031Y2325541D01*
G01X1960031Y2325541D01*
G01X1937325Y2329493D01*
G01X1937325Y2329493D01*
G01X1933359Y2331415D01*
G01X1931217Y2333337D01*
G01X1930983Y2337123D01*
G01X1930749Y2340909D01*
G01X1934190Y2342729D01*
G01X1934190Y2342729D01*
G01X1941053Y2345917D01*
G01X1944475Y2347286D01*
G01X1947363Y2352975D01*
G01X1947363Y2352975D01*
G01X1951990Y2359881D01*
G01X1953729Y2361099D01*
G01X1964731Y2361099D01*
G01X1975732Y2361099D01*
G01X1978089Y2363621D01*
G01X1980445Y2366143D01*
G01X1981510Y2369945D01*
G01X1982575Y2373747D01*
G01X1985275Y2376364D01*
G01X1987975Y2378981D01*
G01X1993517Y2380077D01*
G01X1999060Y2381173D01*
G01X2002345Y2386112D01*
G01X2005632Y2391051D01*
G01X2009735Y2393130D01*
G01X2013839Y2395209D01*
G01X2016486Y2398419D01*
G01X2019132Y2401629D01*
G01X2019675Y2404641D01*
G01X2019675Y2404641D01*
G01X2020925Y2409028D01*
G01X2021632Y2410402D01*
G01X2025412Y2411460D01*
G01X2029193Y2412518D01*
G01X2030315Y2414784D01*
G01X2031438Y2417050D01*
G01X2031774Y2428635D01*
G01X2032111Y2440221D01*
G01X2030847Y2443245D01*
G01X2029584Y2446268D01*
G01X2026817Y2446821D01*
G01X2026817Y2446821D01*
G01X2015400Y2447387D01*
G01X2006749Y2447399D01*
G01X1998439Y2449420D01*
G01X1990128Y2451440D01*
G01X1986313Y2451010D01*
G01X1982498Y2450580D01*
G01X1980586Y2448546D01*
G01X1978674Y2446511D01*
G01X1978295Y2439041D01*
G01X1977916Y2431572D01*
G01X1976718Y2429222D01*
G01X1975519Y2426873D01*
G01X1972551Y2426731D01*
G01X1972551Y2426731D01*
G01X1968189Y2426518D01*
G01X1966795Y2426446D01*
G01X1965198Y2429423D01*
G01X1963602Y2432399D01*
G01X1963598Y2437111D01*
G01X1963595Y2441822D01*
G01X1962023Y2444385D01*
G01X1960451Y2446947D01*
G01X1956439Y2448414D01*
G01X1952427Y2449880D01*
G01X1948273Y2447324D01*
G01X1948273Y2447324D01*
G01X1942713Y2442625D01*
G01X1941308Y2440480D01*
G01X1942360Y2432050D01*
G01X1943413Y2423620D01*
G01X1942613Y2419645D01*
G01X1941814Y2415671D01*
G01X1939167Y2414009D01*
G01X1936519Y2412348D01*
G01X1933659Y2414275D01*
G01X1930799Y2416202D01*
G01X1929252Y2421455D01*
G01X1927704Y2426707D01*
G01X1924627Y2429408D01*
G01X1921549Y2432110D01*
G01X1920291Y2431627D01*
G01X1920291Y2431627D01*
G01X1916100Y2431144D01*
G01X1913166Y2431144D01*
G01X1911473Y2428368D01*
G01X1909780Y2425592D01*
G01X1909777Y2421269D01*
G01X1909774Y2416945D01*
G01X1908032Y2415075D01*
G01X1908032Y2415075D01*
G01X1902954Y2414903D01*
G01X1900570Y2416601D01*
G01X1899967Y2419815D01*
G01X1899967Y2419815D01*
G01X1894936Y2428614D01*
G01X1893113Y2429788D01*
G01X1881506Y2430784D01*
G01X1869900Y2431780D01*
G01X1864846Y2435717D01*
G01X1859791Y2439653D01*
G01X1856899Y2443914D01*
G01X1854006Y2448176D01*
G01X1850063Y2449536D01*
G01X1850063Y2449536D01*
G01X1842315Y2452766D01*
G01X1838509Y2454635D01*
G01X1837442Y2458907D01*
G01X1836375Y2463177D01*
G01X1833957Y2465349D01*
G01X1831539Y2467521D01*
G01X1826630Y2468619D01*
G01X1821722Y2469717D01*
G01X1820527Y2471573D01*
G01X1820527Y2471573D01*
G01X1818783Y2476441D01*
G01X1818234Y2479453D01*
G01X1819947Y2481631D01*
G01X1821661Y2483810D01*
G01X1826286Y2484844D01*
G01X1830911Y2485879D01*
G01X1833078Y2488196D01*
G01X1833078Y2488196D01*
G01X1836720Y2493502D01*
G01X1836720Y2493502D01*
G01X1844598Y2502044D01*
G01X1844598Y2502044D01*
G01X1850820Y2492546D01*
G01X1850820Y2492546D01*
G01X1857585Y2484569D01*
G01X1859874Y2483385D01*
G01X1863921Y2484248D01*
G01X1867968Y2485111D01*
G01X1869185Y2486968D01*
G01X1869185Y2486968D01*
G01X1871354Y2493265D01*
G01X1871354Y2493265D01*
G01X1873922Y2499758D01*
G01X1875539Y2501811D01*
G01X1879091Y2502288D01*
G01X1879091Y2502288D01*
G01X1884740Y2501216D01*
G01X1888632Y2491794D01*
G01X1889821Y2487950D01*
G01X1893527Y2485888D01*
G01X1897234Y2483825D01*
G01X1901121Y2484864D01*
G01X1901121Y2484864D01*
G01X1906212Y2487127D01*
G01X1908608Y2492546D01*
G01X1908608Y2492546D01*
G01X1911184Y2499695D01*
G01X1912381Y2502044D01*
G01X1917327Y2502044D01*
G01X1922274Y2502044D01*
G01X1923713Y2499026D01*
G01X1923713Y2499026D01*
G01X1925153Y2494903D01*
G01X1925153Y2494903D01*
G01X1927122Y2491951D01*
G01X1929091Y2490101D01*
G01X1934231Y2489985D01*
G01X1939370Y2489869D01*
G01X1943227Y2491575D01*
G01X1947084Y2493280D01*
G01X1948187Y2497219D01*
G01X1948187Y2497219D01*
G01X1950265Y2501749D01*
G01X1955472Y2503896D01*
G01X1959731Y2505084D01*
G01X1960799Y2507194D01*
G01X1960799Y2507194D01*
G01X1961853Y2513149D01*
G01X1961838Y2516993D01*
G01X1960793Y2518365D01*
G01X1959748Y2519736D01*
G01X1954804Y2520146D01*
G01X1949860Y2520556D01*
G01X1947546Y2522280D01*
G01X1945232Y2524005D01*
G01X1943682Y2528187D01*
G01X1943682Y2528187D01*
G01X1939615Y2534981D01*
G01X1937098Y2537593D01*
G01X1930912Y2536689D01*
G01X1924726Y2535786D01*
G01X1884569Y2536004D01*
G01X1844412Y2536223D01*
G01X1842467Y2534702D01*
G01X1840522Y2533182D01*
G01X1840062Y2529786D01*
G01X1840062Y2529786D01*
G01X1839216Y2524478D01*
G01X1838831Y2522566D01*
G01X1835460Y2520847D01*
G01X1832090Y2519128D01*
G01X1826298Y2518488D01*
G01X1820505Y2517847D01*
G01X1819146Y2511222D01*
G01X1817787Y2504597D01*
G01X1815784Y2502466D01*
G01X1815784Y2502466D01*
G01X1812863Y2500331D01*
G01X1812863Y2500331D01*
G01X1808750Y2499439D01*
G01X1805556Y2498553D01*
G01X1804662Y2496882D01*
G01X1803767Y2495210D01*
G01X1803584Y2475091D01*
G01X1803400Y2454971D01*
G01X1804417Y2453032D01*
G37*
G36*
G01X2826615Y2008851D02*
G01X2828386Y2006600D01*
G01X2962741Y2006600D01*
G01X3097096Y2006600D01*
G01X3101007Y2007932D01*
G01X3104918Y2009264D01*
G01X3105420Y2011136D01*
G01X3105420Y2011136D01*
G01X3105933Y2023373D01*
G01X3105945Y2033740D01*
G01X3102741Y2035332D01*
G01X3099537Y2036924D01*
G01X2981050Y2037352D01*
G01X2862563Y2037779D01*
G01X2860151Y2039548D01*
G01X2860151Y2039548D01*
G01X2856215Y2044246D01*
G01X2854690Y2047175D01*
G01X2854933Y2090313D01*
G01X2855176Y2133451D01*
G01X2856598Y2136014D01*
G01X2856598Y2136014D01*
G01X2861134Y2142187D01*
G01X2864248Y2145798D01*
G01X2867829Y2146822D01*
G01X2867829Y2146822D01*
G01X2872608Y2148763D01*
G01X2873807Y2149681D01*
G01X2929854Y2150108D01*
G01X2985901Y2150535D01*
G01X2988133Y2151537D01*
G01X2988133Y2151537D01*
G01X2990910Y2153956D01*
G01X2990910Y2153956D01*
G01X2990912Y2175909D01*
G01X2990389Y2179074D01*
G01X2985736Y2180040D01*
G01X2981084Y2181005D01*
G01X2920266Y2180691D01*
G01X2859448Y2180377D01*
G01X2852298Y2175500D01*
G01X2852298Y2175500D01*
G01X2841828Y2167627D01*
G01X2841828Y2167627D01*
G01X2837732Y2164630D01*
G01X2837732Y2164630D01*
G01X2833876Y2159291D01*
G01X2833876Y2159291D01*
G01X2829061Y2151770D01*
G01X2827323Y2149587D01*
G01X2826114Y2142800D01*
G01X2824904Y2136014D01*
G01X2824874Y2073558D01*
G01X2824845Y2011101D01*
G01X2826615Y2008851D01*
G37*
G36*
G01X2825839Y2200079D02*
G01X2825839Y2200079D01*
G01X2828940Y2196047D01*
G01X2831098Y2193723D01*
G01X2837844Y2191476D01*
G01X2844590Y2189230D01*
G01X2848369Y2186346D01*
G01X2852147Y2183463D01*
G01X2853234Y2185365D01*
G01X2854322Y2187266D01*
G01X2854749Y2229977D01*
G01X2855176Y2272688D01*
G01X2856700Y2275677D01*
G01X2856700Y2275677D01*
G01X2867147Y2286399D01*
G01X2872230Y2289772D01*
G01X2986310Y2290199D01*
G01X3100391Y2290626D01*
G01X3103168Y2292143D01*
G01X3105945Y2293660D01*
G01X3105932Y2304529D01*
G01X3105932Y2304529D01*
G01X3105332Y2315535D01*
G01X3101457Y2318782D01*
G01X3098310Y2320097D01*
G01X2986546Y2320097D01*
G01X2874783Y2320097D01*
G01X2867770Y2319218D01*
G01X2860757Y2318338D01*
G01X2852413Y2314049D01*
G01X2844069Y2309760D01*
G01X2841933Y2307326D01*
G01X2841933Y2307326D01*
G01X2837873Y2303922D01*
G01X2837873Y2303922D01*
G01X2833780Y2298924D01*
G01X2833780Y2298924D01*
G01X2829129Y2291053D01*
G01X2826648Y2287209D01*
G01X2825746Y2280527D01*
G01X2824845Y2273846D01*
G01X2824871Y2237817D01*
G01X2824897Y2201788D01*
G01X2825839Y2200079D01*
G37*
G36*
G01X2074598Y2715272D02*
G01X2074598Y2715272D01*
G01X2079482Y2713498D01*
G01X2083007Y2712921D01*
G01X2090552Y2714712D01*
G01X2098097Y2716504D01*
G01X2101956Y2715925D01*
G01X2105816Y2715346D01*
G01X2108250Y2712913D01*
G01X2110684Y2710480D01*
G01X2110470Y2705860D01*
G01X2110256Y2701240D01*
G01X2111709Y2699022D01*
G01X2113162Y2696805D01*
G01X2117270Y2696805D01*
G01X2121377Y2696805D01*
G01X2125581Y2698937D01*
G01X2125581Y2698937D01*
G01X2130558Y2701072D01*
G01X2130558Y2701072D01*
G01X2134030Y2703134D01*
G01X2136729Y2705192D01*
G01X2141373Y2703471D01*
G01X2141373Y2703471D01*
G01X2149539Y2701336D01*
G01X2153061Y2700921D01*
G01X2153648Y2704202D01*
G01X2153648Y2704202D01*
G01X2155893Y2711999D01*
G01X2157552Y2716516D01*
G01X2157552Y2728373D01*
G01X2157552Y2740231D01*
G01X2154674Y2742009D01*
G01X2151797Y2743787D01*
G01X2124557Y2743768D01*
G01X2097316Y2743749D01*
G01X2093756Y2742133D01*
G01X2090195Y2740517D01*
G01X2089598Y2735737D01*
G01X2089001Y2730958D01*
G01X2086533Y2728882D01*
G01X2084065Y2726806D01*
G01X2080366Y2726251D01*
G01X2080366Y2726251D01*
G01X2075548Y2725006D01*
G01X2074430Y2724315D01*
G01X2073835Y2720392D01*
G01X2073239Y2716469D01*
G01X2074598Y2715272D01*
G37*
G36*
G01X2218971Y2490833D02*
G01X2221009Y2489231D01*
G01X2224803Y2489231D01*
G01X2228597Y2489231D01*
G01X2230280Y2491153D01*
G01X2231962Y2493075D01*
G01X2231913Y2590288D01*
G01X2231864Y2687501D01*
G01X2230535Y2689530D01*
G01X2229205Y2691559D01*
G01X2225267Y2692901D01*
G01X2225267Y2692901D01*
G01X2221071Y2694242D01*
G01X2221071Y2694242D01*
G01X2219075Y2690837D01*
G01X2217338Y2687431D01*
G01X2217136Y2589934D01*
G01X2216933Y2492436D01*
G01X2218971Y2490833D01*
G37*
G36*
G01X2003747Y2813168D02*
G01X2004319Y2802680D01*
G01X2005181Y2801818D01*
G01X2005181Y2801818D01*
G01X2009386Y2800506D01*
G01X2009386Y2800506D01*
G01X2018260Y2797431D01*
G01X2019993Y2795572D01*
G01X2019993Y2792850D01*
G01X2019993Y2792850D01*
G01X2020548Y2787354D01*
G01X2021102Y2784580D01*
G01X2024979Y2782866D01*
G01X2028855Y2781152D01*
G01X2030490Y2783171D01*
G01X2032125Y2785190D01*
G01X2031523Y2796836D01*
G01X2030919Y2808482D01*
G01X2032004Y2810517D01*
G01X2032004Y2810517D01*
G01X2034443Y2813592D01*
G01X2035799Y2814632D01*
G01X2039583Y2814659D01*
G01X2039583Y2814659D01*
G01X2046059Y2815660D01*
G01X2048752Y2816633D01*
G01X2049785Y2820495D01*
G01X2050818Y2824358D01*
G01X2050144Y2824958D01*
G01X2050144Y2824958D01*
G01X2040418Y2827500D01*
G01X2037176Y2827500D01*
G01X2034986Y2829422D01*
G01X2032796Y2831344D01*
G01X2032240Y2835615D01*
G01X2032240Y2835615D01*
G01X2030511Y2841699D01*
G01X2029338Y2843511D01*
G01X2025306Y2842659D01*
G01X2025306Y2842659D01*
G01X2020833Y2840793D01*
G01X2020006Y2835550D01*
G01X2019993Y2831214D01*
G01X2017788Y2829144D01*
G01X2015584Y2827073D01*
G01X2010490Y2826934D01*
G01X2005395Y2826794D01*
G01X2004150Y2825761D01*
G01X2004150Y2825761D01*
G01X2003040Y2824192D01*
G01X2003040Y2824192D01*
G01X2003747Y2813168D01*
G37*
G36*
G01X1950679Y2664772D02*
G01X1951225Y2662209D01*
G01X1956630Y2661692D01*
G01X1962034Y2661175D01*
G01X1964254Y2658956D01*
G01X1966474Y2656736D01*
G01X1966274Y2652354D01*
G01X1966074Y2647972D01*
G01X1967044Y2646804D01*
G01X1967044Y2646804D01*
G01X1971796Y2645069D01*
G01X1975579Y2644502D01*
G01X1976942Y2645633D01*
G01X1978305Y2646764D01*
G01X1978100Y2658757D01*
G01X1978100Y2658757D01*
G01X1980224Y2675916D01*
G01X1982321Y2678012D01*
G01X1986916Y2678012D01*
G01X1991511Y2678012D01*
G01X1994058Y2681216D01*
G01X1994058Y2681216D01*
G01X1997186Y2685396D01*
G01X1997766Y2686372D01*
G01X1993936Y2688172D01*
G01X1993936Y2688172D01*
G01X1987147Y2689971D01*
G01X1987147Y2689971D01*
G01X1980425Y2692169D01*
G01X1978126Y2698596D01*
G01X1978126Y2698596D01*
G01X1976823Y2703681D01*
G01X1975519Y2706201D01*
G01X1963887Y2706201D01*
G01X1952255Y2706201D01*
G01X1951120Y2704707D01*
G01X1949985Y2703212D01*
G01X1950059Y2685273D01*
G01X1950059Y2685273D01*
G01X1950679Y2664772D01*
G37*
G36*
G01X1949829Y2578069D02*
G01X1949829Y2578069D01*
G01X1950975Y2563028D01*
G01X1951591Y2562081D01*
G01X1956946Y2561595D01*
G01X1962301Y2561110D01*
G01X1964142Y2558970D01*
G01X1965984Y2556829D01*
G01X1966578Y2551708D01*
G01X1967173Y2546588D01*
G01X1970382Y2545304D01*
G01X1973591Y2544020D01*
G01X1982481Y2543824D01*
G01X1991370Y2543628D01*
G01X1995068Y2545524D01*
G01X1998765Y2547420D01*
G01X1998133Y2550999D01*
G01X1998133Y2550999D01*
G01X1998196Y2560763D01*
G01X1998706Y2563530D01*
G01X1994184Y2565634D01*
G01X1994184Y2565634D01*
G01X1986364Y2568261D01*
G01X1983067Y2568785D01*
G01X1981043Y2570969D01*
G01X1979019Y2573152D01*
G01X1978545Y2576251D01*
G01X1978545Y2576251D01*
G01X1976603Y2582316D01*
G01X1975136Y2585282D01*
G01X1971291Y2585050D01*
G01X1967446Y2584818D01*
G01X1964601Y2587210D01*
G01X1961755Y2589601D01*
G01X1960797Y2595690D01*
G01X1959839Y2601778D01*
G01X1955953Y2602681D01*
G01X1952067Y2603584D01*
G01X1951031Y2602572D01*
G01X1949995Y2601560D01*
G01X1949648Y2596862D01*
G01X1949648Y2596862D01*
G01X1949829Y2578069D01*
G37*
G36*
G01X2074022Y2475564D02*
G01X2074022Y2475564D01*
G01X2081672Y2469238D01*
G01X2086532Y2467858D01*
G01X2088293Y2465386D01*
G01X2090054Y2462914D01*
G01X2090054Y2460213D01*
G01X2090054Y2460213D01*
G01X2094780Y2452597D01*
G01X2097841Y2450791D01*
G01X2117382Y2450791D01*
G01X2136922Y2450791D01*
G01X2138693Y2453042D01*
G01X2140464Y2455293D01*
G01X2140464Y2459300D01*
G01X2140464Y2463307D01*
G01X2138541Y2465074D01*
G01X2136619Y2466841D01*
G01X2132774Y2467449D01*
G01X2128930Y2468056D01*
G01X2127044Y2469788D01*
G01X2125158Y2471521D01*
G01X2124230Y2475993D01*
G01X2124230Y2475993D01*
G01X2122127Y2482071D01*
G01X2120954Y2483679D01*
G01X2101872Y2484106D01*
G01X2082791Y2484533D01*
G01X2078857Y2483437D01*
G01X2074923Y2482342D01*
G01X2074083Y2480447D01*
G01X2073243Y2478553D01*
G01X2074022Y2475564D01*
G37*
G36*
G01X1987727Y2592663D02*
G01X1989211Y2591737D01*
G01X1998407Y2591746D01*
G01X1998407Y2591746D01*
G01X2010808Y2592285D01*
G01X2014012Y2592814D01*
G01X2014012Y2605056D01*
G01X2014012Y2617297D01*
G01X2010380Y2618233D01*
G01X2010380Y2618233D01*
G01X2001185Y2621620D01*
G01X1998974Y2628685D01*
G01X1998425Y2633353D01*
G01X1994644Y2635190D01*
G01X1990862Y2637027D01*
G01X1989294Y2636188D01*
G01X1989294Y2636188D01*
G01X1986395Y2612950D01*
G01X1986243Y2593589D01*
G01X1987727Y2592663D01*
G37*
G36*
G01X2078690Y2834940D02*
G01X2082706Y2831966D01*
G01X2085057Y2834923D01*
G01X2085057Y2834923D01*
G01X2088739Y2842461D01*
G01X2088739Y2842461D01*
G01X2092534Y2849333D01*
G01X2101374Y2851855D01*
G01X2106175Y2852455D01*
G01X2106658Y2853713D01*
G01X2106658Y2853713D01*
G01X2106612Y2857075D01*
G01X2106084Y2859180D01*
G01X2102127Y2861117D01*
G01X2098171Y2863054D01*
G01X2094396Y2862498D01*
G01X2094396Y2862498D01*
G01X2086792Y2862658D01*
G01X2082962Y2863373D01*
G01X2081595Y2862352D01*
G01X2081595Y2862352D01*
G01X2077451Y2858769D01*
G01X2074674Y2856208D01*
G01X2074674Y2847061D01*
G01X2074674Y2837914D01*
G01X2078690Y2834940D01*
G37*
G36*
G01X2182457Y2784200D02*
G01X2182457Y2784200D01*
G01X2187024Y2782326D01*
G01X2190437Y2781395D01*
G01X2192855Y2783813D01*
G01X2195274Y2786231D01*
G01X2194686Y2789361D01*
G01X2194686Y2789361D01*
G01X2192462Y2794572D01*
G01X2190826Y2796652D01*
G01X2186921Y2795477D01*
G01X2186921Y2795477D01*
G01X2182849Y2793833D01*
G01X2181872Y2789435D01*
G01X2181302Y2785142D01*
G01X2182457Y2784200D01*
G37*
G36*
G01X2165605Y2645118D02*
G01X2167391Y2642879D01*
G01X2171636Y2643148D01*
G01X2175881Y2643417D01*
G01X2176864Y2645398D01*
G01X2177848Y2647380D01*
G01X2176867Y2651805D01*
G01X2175886Y2656230D01*
G01X2171632Y2656760D01*
G01X2167378Y2657291D01*
G01X2166183Y2656176D01*
G01X2166183Y2656176D01*
G01X2164403Y2651209D01*
G01X2163819Y2647358D01*
G01X2165605Y2645118D01*
G37*
G36*
G01X2165883Y2507803D02*
G01X2167378Y2506463D01*
G01X2171423Y2506926D01*
G01X2171423Y2506926D01*
G01X2176085Y2508406D01*
G01X2177295Y2513287D01*
G01X2177538Y2517269D01*
G01X2176489Y2518533D01*
G01X2175440Y2519797D01*
G01X2171546Y2520381D01*
G01X2167653Y2520964D01*
G01X2166020Y2519487D01*
G01X2164387Y2518010D01*
G01X2164387Y2513576D01*
G01X2164387Y2509143D01*
G01X2165883Y2507803D01*
G37*
G36*
G01X2197039Y2474282D02*
G01X2197039Y2474282D01*
G01X2198186Y2471431D01*
G01X2198186Y2471431D01*
G01X2206406Y2470076D01*
G01X2207840Y2470515D01*
G01X2208679Y2474448D01*
G01X2209518Y2478381D01*
G01X2208611Y2480373D01*
G01X2208611Y2480373D01*
G01X2201080Y2482816D01*
G01X2197687Y2482243D01*
G01X2196844Y2480668D01*
G01X2196844Y2480668D01*
G01X2197039Y2474282D01*
G37*
G36*
G01X2181630Y2628757D02*
G01X2182523Y2626911D01*
G01X2186643Y2626622D01*
G01X2190763Y2626332D01*
G01X2192160Y2629263D01*
G01X2193557Y2632194D01*
G01X2192123Y2635373D01*
G01X2190690Y2638552D01*
G01X2186769Y2639140D01*
G01X2182848Y2639728D01*
G01X2181734Y2638206D01*
G01X2181734Y2638206D01*
G01X2181630Y2628757D01*
G37*
G36*
G01X2021006Y2545915D02*
G01X2021006Y2545915D01*
G01X2025495Y2544086D01*
G01X2028861Y2543107D01*
G01X2030027Y2544074D01*
G01X2030027Y2544074D01*
G01X2032024Y2546594D01*
G01X2032856Y2548147D01*
G01X2031106Y2551576D01*
G01X2031106Y2551576D01*
G01X2028913Y2555005D01*
G01X2028913Y2555005D01*
G01X2021130Y2551268D01*
G01X2021130Y2551268D01*
G01X2020434Y2548961D01*
G01X2019883Y2546764D01*
G01X2021006Y2545915D01*
G37*
G36*
G01X2024051Y2645597D02*
G01X2024051Y2645597D01*
G01X2031106Y2645986D01*
G01X2032175Y2647274D01*
G01X2031734Y2651186D01*
G01X2031734Y2651186D01*
G01X2030424Y2655966D01*
G01X2029555Y2656835D01*
G01X2026167Y2656263D01*
G01X2022779Y2655690D01*
G01X2021813Y2653571D01*
G01X2021813Y2653571D01*
G01X2020847Y2648969D01*
G01X2020847Y2646487D01*
G01X2024051Y2645597D01*
G37*
G36*
G01X2112370Y2836255D02*
G01X2113172Y2833479D01*
G01X2117385Y2833479D01*
G01X2121598Y2833479D01*
G01X2122633Y2836933D01*
G01X2123668Y2840387D01*
G01X2122454Y2841531D01*
G01X2122454Y2841531D01*
G01X2117157Y2843101D01*
G01X2113074Y2843525D01*
G01X2112244Y2841975D01*
G01X2112244Y2841975D01*
G01X2112370Y2836255D01*
G37*
G36*
G01X3586425Y963976D02*
G01X3585463Y962751D01*
G01X3585583Y866654D01*
G01X3585703Y770556D01*
G01X3586583Y769582D01*
G01X3587463Y768609D01*
G01X3767121Y768609D01*
G01X3946779Y768609D01*
G01X3947488Y769318D01*
G01X3947488Y769318D01*
G01X3948674Y771747D01*
G01X3949151Y773466D01*
G01X3949153Y867786D01*
G01X3949156Y962106D01*
G01X3947977Y963653D01*
G01X3946798Y965200D01*
G01X3767093Y965200D01*
G01X3587387Y965200D01*
G01X3586425Y963976D01*
G37*
%LPC*%
G36*
G01X3848571Y919471D02*
G01X3848571Y919471D01*
G01X3853423Y917838D01*
G01X3853423Y917838D01*
G01X3858119Y915943D01*
G01X3858119Y915943D01*
G01X3861585Y914311D01*
G01X3861585Y914311D01*
G01X3864909Y912292D01*
G01X3864909Y912292D01*
G01X3867682Y910496D01*
G01X3867682Y910496D01*
G01X3869441Y909027D01*
G01X3869441Y909027D01*
G01X3878713Y899747D01*
G01X3878713Y899747D01*
G01X3880177Y897987D01*
G01X3880177Y897987D01*
G01X3881754Y895674D01*
G01X3881754Y895674D01*
G01X3883818Y892439D01*
G01X3883818Y892439D01*
G01X3885562Y888913D01*
G01X3885562Y888913D01*
G01X3887617Y883731D01*
G01X3889011Y880781D01*
G01X3889575Y875693D01*
G01X3889575Y875693D01*
G01X3889567Y856266D01*
G01X3888994Y851177D01*
G01X3887471Y847708D01*
G01X3887471Y847708D01*
G01X3885420Y842566D01*
G01X3885420Y842566D01*
G01X3883533Y839096D01*
G01X3883533Y839096D01*
G01X3882162Y836750D01*
G01X3882162Y836750D01*
G01X3871694Y824684D01*
G01X3871694Y824684D01*
G01X3864127Y819026D01*
G01X3864127Y819026D01*
G01X3860935Y817106D01*
G01X3860935Y817106D01*
G01X3857238Y815492D01*
G01X3857238Y815492D01*
G01X3852475Y813651D01*
G01X3850297Y812554D01*
G01X3846930Y812055D01*
G01X3843563Y811556D01*
G01X3835938Y811539D01*
G01X3828313Y811522D01*
G01X3824616Y812080D01*
G01X3820919Y812638D01*
G01X3819433Y813549D01*
G01X3819433Y813549D01*
G01X3814854Y815345D01*
G01X3811761Y816230D01*
G01X3810795Y817136D01*
G01X3810795Y817136D01*
G01X3807555Y819015D01*
G01X3807555Y819015D01*
G01X3803510Y821474D01*
G01X3803510Y821474D01*
G01X3792499Y832442D01*
G01X3792499Y832442D01*
G01X3790976Y834520D01*
G01X3790976Y834520D01*
G01X3788831Y837875D01*
G01X3788831Y837875D01*
G01X3787123Y840916D01*
G01X3786038Y842219D01*
G01X3785322Y844848D01*
G01X3785322Y844848D01*
G01X3783523Y849789D01*
G01X3783523Y849789D01*
G01X3782119Y853490D01*
G01X3782119Y853490D01*
G01X3781069Y855687D01*
G01X3780341Y856496D01*
G01X3767022Y856496D01*
G01X3753703Y856496D01*
G01X3753044Y855456D01*
G01X3753044Y855456D01*
G01X3752052Y852796D01*
G01X3752052Y852796D01*
G01X3750680Y849096D01*
G01X3750680Y849096D01*
G01X3748897Y844427D01*
G01X3748897Y844427D01*
G01X3747204Y840633D01*
G01X3747204Y840633D01*
G01X3745376Y837436D01*
G01X3745376Y837436D01*
G01X3743082Y834090D01*
G01X3743082Y834090D01*
G01X3741667Y832255D01*
G01X3741667Y832255D01*
G01X3732150Y822729D01*
G01X3732150Y822729D01*
G01X3730317Y821313D01*
G01X3730317Y821313D01*
G01X3726974Y819016D01*
G01X3726974Y819016D01*
G01X3723780Y817186D01*
G01X3723780Y817186D01*
G01X3719990Y815492D01*
G01X3719990Y815492D01*
G01X3715227Y813651D01*
G01X3713049Y812554D01*
G01X3709682Y812054D01*
G01X3706315Y811553D01*
G01X3698459Y811551D01*
G01X3690603Y811550D01*
G01X3687368Y812072D01*
G01X3684133Y812595D01*
G01X3682285Y813559D01*
G01X3682285Y813559D01*
G01X3677475Y815376D01*
G01X3674513Y816230D01*
G01X3673547Y817114D01*
G01X3673547Y817114D01*
G01X3669923Y819241D01*
G01X3669923Y819241D01*
G01X3667266Y820907D01*
G01X3667266Y820907D01*
G01X3665393Y822513D01*
G01X3665393Y822513D01*
G01X3655490Y832428D01*
G01X3655490Y832428D01*
G01X3654132Y833984D01*
G01X3654132Y833984D01*
G01X3652204Y836700D01*
G01X3652204Y836700D01*
G01X3650097Y840264D01*
G01X3650097Y840264D01*
G01X3648480Y843965D01*
G01X3648480Y843965D01*
G01X3646625Y848686D01*
G01X3645516Y850820D01*
G01X3644991Y853774D01*
G01X3644466Y856728D01*
G01X3644460Y865979D01*
G01X3644454Y875231D01*
G01X3645036Y878208D01*
G01X3645036Y878208D01*
G01X3646686Y883296D01*
G01X3646686Y883296D01*
G01X3648445Y887720D01*
G01X3648445Y887720D01*
G01X3650807Y892508D01*
G01X3650807Y892508D01*
G01X3652478Y895458D01*
G01X3652478Y895458D01*
G01X3662706Y907050D01*
G01X3662706Y907050D01*
G01X3669420Y912193D01*
G01X3669420Y912193D01*
G01X3672152Y913882D01*
G01X3673885Y915260D01*
G01X3676467Y916007D01*
G01X3676467Y916007D01*
G01X3681196Y917871D01*
G01X3683343Y918989D01*
G01X3686280Y919420D01*
G01X3686280Y919420D01*
G01X3691065Y920020D01*
G01X3691065Y920020D01*
G01X3769393Y920106D01*
G01X3845873Y920024D01*
G01X3848571Y919471D01*
G37*
%LPD*%
G36*
G01X3696014Y892980D02*
G01X3694494Y892541D01*
G01X3694050Y891372D01*
G01X3693607Y890204D01*
G01X3693579Y883411D01*
G01X3693579Y883411D01*
G01X3693183Y874374D01*
G01X3692814Y872129D01*
G01X3692171Y871721D01*
G01X3691527Y871313D01*
G01X3684543Y871306D01*
G01X3677558Y871299D01*
G01X3675086Y870829D01*
G01X3675086Y870829D01*
G01X3671379Y867623D01*
G01X3670944Y865686D01*
G01X3671491Y863861D01*
G01X3671491Y863861D01*
G01X3672725Y861464D01*
G01X3673413Y860891D01*
G01X3682628Y860660D01*
G01X3691842Y860429D01*
G01X3692725Y859337D01*
G01X3693607Y858245D01*
G01X3693613Y849854D01*
G01X3693620Y841463D01*
G01X3694195Y840326D01*
G01X3694770Y839189D01*
G01X3696732Y838620D01*
G01X3698694Y838051D01*
G01X3700737Y838748D01*
G01X3702781Y839445D01*
G01X3703277Y840870D01*
G01X3703773Y842295D01*
G01X3703773Y850342D01*
G01X3703773Y858389D01*
G01X3704907Y859524D01*
G01X3706042Y860660D01*
G01X3714081Y860660D01*
G01X3722120Y860660D01*
G01X3723531Y861152D01*
G01X3724943Y861645D01*
G01X3725405Y862887D01*
G01X3725405Y862887D01*
G01X3726141Y864972D01*
G01X3726413Y865815D01*
G01X3725905Y867834D01*
G01X3725397Y869854D01*
G01X3723943Y870424D01*
G01X3722489Y870994D01*
G01X3713845Y871189D01*
G01X3705201Y871385D01*
G01X3704603Y872106D01*
G01X3704004Y872827D01*
G01X3703773Y881938D01*
G01X3703542Y891050D01*
G01X3702914Y891805D01*
G01X3702914Y891805D01*
G01X3696014Y892980D01*
G37*
G36*
G01X3812071Y872788D02*
G01X3812071Y872788D01*
G01X3809414Y870524D01*
G01X3808211Y869518D01*
G01X3808139Y867749D01*
G01X3808139Y867749D01*
G01X3808440Y862700D01*
G01X3808654Y861732D01*
G01X3811224Y859808D01*
G01X3813794Y857884D01*
G01X3815595Y857884D01*
G01X3817396Y857884D01*
G01X3819489Y859156D01*
G01X3821581Y860429D01*
G01X3822373Y862047D01*
G01X3823165Y863666D01*
G01X3823171Y865784D01*
G01X3823176Y867902D01*
G01X3822556Y869401D01*
G01X3821936Y870900D01*
G01X3819859Y872487D01*
G01X3817782Y874074D01*
G01X3815654Y874061D01*
G01X3813525Y874047D01*
G01X3812071Y872788D01*
G37*
G36*
G01X3832359Y852742D02*
G01X3830859Y852308D01*
G01X3830097Y851049D01*
G01X3830097Y851049D01*
G01X3828427Y848467D01*
G01X3827518Y847144D01*
G01X3827803Y845361D01*
G01X3828088Y843577D01*
G01X3829229Y841826D01*
G01X3829229Y841826D01*
G01X3831092Y839327D01*
G01X3831813Y838578D01*
G01X3833760Y838312D01*
G01X3833760Y838312D01*
G01X3837651Y838310D01*
G01X3839596Y838573D01*
G01X3840296Y839324D01*
G01X3840296Y839324D01*
G01X3842395Y841756D01*
G01X3843794Y843436D01*
G01X3843794Y845737D01*
G01X3843794Y848037D01*
G01X3842194Y850134D01*
G01X3840595Y852230D01*
G01X3839122Y852745D01*
G01X3839122Y852745D01*
G01X3832359Y852742D01*
G37*
G36*
G01X3832703Y893166D02*
G01X3832703Y893166D01*
G01X3829930Y891046D01*
G01X3829930Y891046D01*
G01X3828775Y889066D01*
G01X3827620Y887550D01*
G01X3827628Y886016D01*
G01X3827637Y884482D01*
G01X3829014Y882446D01*
G01X3829014Y882446D01*
G01X3830392Y880074D01*
G01X3830392Y880074D01*
G01X3831894Y879112D01*
G01X3833396Y878486D01*
G01X3836280Y878563D01*
G01X3839164Y878641D01*
G01X3840108Y879304D01*
G01X3840108Y879304D01*
G01X3842411Y881761D01*
G01X3843768Y883557D01*
G01X3843781Y885909D01*
G01X3843794Y888262D01*
G01X3842076Y890469D01*
G01X3840358Y892676D01*
G01X3839273Y893089D01*
G01X3839273Y893089D01*
G01X3832703Y893166D01*
G37*
G36*
G01X3852421Y873017D02*
G01X3852421Y873017D01*
G01X3849763Y870756D01*
G01X3848415Y869520D01*
G01X3848415Y866507D01*
G01X3848415Y866507D01*
G01X3848838Y862380D01*
G01X3849262Y861264D01*
G01X3851612Y859574D01*
G01X3853962Y857884D01*
G01X3855984Y857884D01*
G01X3858006Y857884D01*
G01X3858540Y858528D01*
G01X3858540Y858528D01*
G01X3860467Y859750D01*
G01X3861860Y860328D01*
G01X3862560Y861683D01*
G01X3863260Y863038D01*
G01X3863260Y865989D01*
G01X3863260Y868939D01*
G01X3862749Y869894D01*
G01X3862749Y869894D01*
G01X3860449Y871981D01*
G01X3860449Y871981D01*
G01X3858362Y873593D01*
G01X3858065Y874074D01*
G01X3855897Y874057D01*
G01X3853729Y874041D01*
G01X3852421Y873017D01*
G37*
G36*
G01X3896013Y682436D02*
G01X3893933Y681415D01*
G01X3893641Y680027D01*
G01X3893641Y680027D01*
G01X3893295Y639179D01*
G01X3893240Y599719D01*
G01X3893770Y597610D01*
G01X3894301Y595502D01*
G01X3896197Y594640D01*
G01X3898092Y593779D01*
G01X3907465Y593769D01*
G01X3916838Y593758D01*
G01X3918403Y594413D01*
G01X3919968Y595068D01*
G01X3920583Y596148D01*
G01X3921198Y597228D01*
G01X3921429Y615752D01*
G01X3921660Y634276D01*
G01X3922498Y635555D01*
G01X3923336Y636834D01*
G01X3924113Y636684D01*
G01X3924891Y636534D01*
G01X3925890Y634026D01*
G01X3925890Y634026D01*
G01X3928810Y629055D01*
G01X3930731Y626593D01*
G01X3932088Y625891D01*
G01X3932088Y625891D01*
G01X3935755Y624750D01*
G01X3938065Y624312D01*
G01X3940343Y624744D01*
G01X3942622Y625177D01*
G01X3944694Y626698D01*
G01X3946766Y628220D01*
G01X3948180Y631319D01*
G01X3949594Y634419D01*
G01X3950597Y634956D01*
G01X3950597Y634956D01*
G01X3952680Y636714D01*
G01X3953760Y637934D01*
G01X3954224Y637240D01*
G01X3954687Y636546D01*
G01X3954705Y617812D01*
G01X3954723Y599078D01*
G01X3955151Y597228D01*
G01X3955580Y595377D01*
G01X3956606Y594545D01*
G01X3957632Y593713D01*
G01X3968859Y593851D01*
G01X3980086Y593990D01*
G01X3980911Y594815D01*
G01X3981735Y595642D01*
G01X3981860Y638323D01*
G01X3981984Y681005D01*
G01X3980784Y682135D01*
G01X3979583Y683265D01*
G01X3968630Y683410D01*
G01X3957676Y683555D01*
G01X3955380Y682713D01*
G01X3953084Y681871D01*
G01X3951929Y679482D01*
G01X3951929Y679482D01*
G01X3950005Y676247D01*
G01X3950005Y676247D01*
G01X3948006Y672857D01*
G01X3948006Y672857D01*
G01X3941531Y661165D01*
G01X3941531Y661165D01*
G01X3939644Y658237D01*
G01X3939143Y657398D01*
G01X3936782Y658914D01*
G01X3934421Y660431D01*
G01X3933626Y662515D01*
G01X3933626Y662515D01*
G01X3931917Y665761D01*
G01X3931917Y665761D01*
G01X3926249Y676095D01*
G01X3924738Y679102D01*
G01X3922901Y680999D01*
G01X3921064Y682897D01*
G01X3919283Y683192D01*
G01X3919283Y683192D01*
G01X3907797Y683472D01*
G01X3898092Y683458D01*
G01X3896013Y682436D01*
G37*
G36*
G01X3826695Y685331D02*
G01X3826695Y685331D01*
G01X3821612Y684074D01*
G01X3821612Y684074D01*
G01X3815961Y682590D01*
G01X3812851Y682008D01*
G01X3811202Y680786D01*
G01X3811202Y680786D01*
G01X3807268Y677822D01*
G01X3804984Y676080D01*
G01X3803808Y673890D01*
G01X3803808Y673890D01*
G01X3801609Y670082D01*
G01X3800586Y668463D01*
G01X3800466Y640000D01*
G01X3800345Y611537D01*
G01X3801088Y609008D01*
G01X3801088Y609008D01*
G01X3802411Y605785D01*
G01X3802411Y605785D01*
G01X3804068Y603125D01*
G01X3804068Y603125D01*
G01X3805486Y601159D01*
G01X3805486Y601159D01*
G01X3807348Y599544D01*
G01X3808870Y597928D01*
G01X3810505Y597414D01*
G01X3810505Y597414D01*
G01X3813868Y595787D01*
G01X3813868Y595787D01*
G01X3826464Y592993D01*
G01X3832934Y592200D01*
G01X3839404Y592257D01*
G01X3845873Y592314D01*
G01X3853167Y593244D01*
G01X3860460Y594174D01*
G01X3864310Y596048D01*
G01X3864310Y596048D01*
G01X3868503Y597921D01*
G01X3868503Y597921D01*
G01X3874290Y603710D01*
G01X3874290Y603710D01*
G01X3875760Y607180D01*
G01X3877228Y610179D01*
G01X3877557Y613649D01*
G01X3877557Y613649D01*
G01X3877890Y639090D01*
G01X3877895Y661062D01*
G01X3877511Y664393D01*
G01X3877127Y667724D01*
G01X3875527Y670974D01*
G01X3875527Y670974D01*
G01X3867618Y680055D01*
G01X3864871Y681878D01*
G01X3859993Y683170D01*
G01X3859993Y683170D01*
G01X3851881Y685118D01*
G01X3848646Y685772D01*
G01X3838942Y685730D01*
G01X3838942Y685730D01*
G01X3826695Y685331D01*
G37*
%LPC*%
G36*
G01X3844325Y660588D02*
G01X3846935Y660313D01*
G01X3847610Y659531D01*
G01X3847610Y659531D01*
G01X3848822Y656537D01*
G01X3849360Y654325D01*
G01X3849328Y638008D01*
G01X3849295Y621692D01*
G01X3848210Y619347D01*
G01X3847124Y617002D01*
G01X3844698Y616419D01*
G01X3842273Y615837D01*
G01X3837256Y616075D01*
G01X3832238Y616313D01*
G01X3831510Y616918D01*
G01X3831510Y616918D01*
G01X3829663Y619733D01*
G01X3828544Y621944D01*
G01X3828544Y638194D01*
G01X3828544Y654444D01*
G01X3829249Y656872D01*
G01X3829954Y659300D01*
G01X3831080Y659903D01*
G01X3831080Y659903D01*
G01X3835112Y660841D01*
G01X3835112Y660841D01*
G01X3844325Y660588D01*
G37*
%LPD*%
G36*
G01X3548786Y682773D02*
G01X3548786Y682773D01*
G01X3546371Y681302D01*
G01X3545751Y680490D01*
G01X3545856Y646260D01*
G01X3545961Y612030D01*
G01X3547776Y607635D01*
G01X3549591Y603241D01*
G01X3552166Y600644D01*
G01X3554741Y598046D01*
G01X3556358Y597520D01*
G01X3556358Y597520D01*
G01X3559362Y596042D01*
G01X3559362Y596042D01*
G01X3570336Y593253D01*
G01X3577847Y592261D01*
G01X3584778Y592243D01*
G01X3591710Y592225D01*
G01X3599335Y593252D01*
G01X3606960Y594279D01*
G01X3609098Y595583D01*
G01X3609098Y595583D01*
G01X3612794Y597413D01*
G01X3614354Y597940D01*
G01X3616587Y600128D01*
G01X3616587Y600128D01*
G01X3622442Y609203D01*
G01X3622880Y611105D01*
G01X3622892Y646093D01*
G01X3622903Y681081D01*
G01X3622020Y682173D01*
G01X3621137Y683265D01*
G01X3610059Y683423D01*
G01X3598981Y683580D01*
G01X3597425Y682189D01*
G01X3595869Y680798D01*
G01X3595638Y651271D01*
G01X3595407Y621744D01*
G01X3593641Y619330D01*
G01X3591876Y616916D01*
G01X3590176Y616577D01*
G01X3590176Y616577D01*
G01X3584279Y616273D01*
G01X3580082Y616308D01*
G01X3578964Y616896D01*
G01X3578964Y616896D01*
G01X3576345Y619012D01*
G01X3574843Y620541D01*
G01X3574843Y650528D01*
G01X3574843Y680515D01*
G01X3574165Y681485D01*
G01X3573486Y682454D01*
G01X3571418Y682975D01*
G01X3569351Y683496D01*
G01X3559966Y683464D01*
G01X3550582Y683431D01*
G01X3548786Y682773D01*
G37*
G36*
G01X3718220Y683168D02*
G01X3716724Y682976D01*
G01X3716025Y681977D01*
G01X3715326Y680978D01*
G01X3715326Y671438D01*
G01X3715326Y661899D01*
G01X3716271Y661043D01*
G01X3717216Y660187D01*
G01X3726618Y659989D01*
G01X3736020Y659791D01*
G01X3736648Y659403D01*
G01X3737276Y659015D01*
G01X3737508Y628121D01*
G01X3737740Y597228D01*
G01X3738300Y595968D01*
G01X3738861Y594709D01*
G01X3740148Y594349D01*
G01X3741435Y593990D01*
G01X3753091Y593990D01*
G01X3764747Y593990D01*
G01X3765800Y595043D01*
G01X3766852Y596096D01*
G01X3767083Y627236D01*
G01X3767314Y658377D01*
G01X3767900Y659083D01*
G01X3768486Y659789D01*
G01X3777964Y659989D01*
G01X3787442Y660189D01*
G01X3788469Y661216D01*
G01X3789495Y662244D01*
G01X3789495Y671700D01*
G01X3789495Y681157D01*
G01X3788443Y682211D01*
G01X3787391Y683265D01*
G01X3753553Y683312D01*
G01X3753553Y683312D01*
G01X3718220Y683168D01*
G37*
G36*
G01X3655518Y682776D02*
G01X3650933Y682151D01*
G01X3648973Y680742D01*
G01X3648973Y680742D01*
G01X3646674Y679333D01*
G01X3646674Y679333D01*
G01X3644408Y677753D01*
G01X3642482Y676173D01*
G01X3640895Y673316D01*
G01X3640895Y673316D01*
G01X3638628Y669230D01*
G01X3637948Y668000D01*
G01X3637771Y657252D01*
G01X3637593Y646505D01*
G01X3638136Y643387D01*
G01X3638678Y640269D01*
G01X3639917Y638205D01*
G01X3639917Y638205D01*
G01X3643698Y633690D01*
G01X3646240Y631240D01*
G01X3648767Y630497D01*
G01X3648767Y630497D01*
G01X3652938Y628914D01*
G01X3654582Y628075D01*
G01X3658960Y627596D01*
G01X3658960Y627596D01*
G01X3666804Y626843D01*
G01X3666804Y626843D01*
G01X3678143Y622866D01*
G01X3678873Y621454D01*
G01X3677905Y619453D01*
G01X3676937Y617452D01*
G01X3674368Y617130D01*
G01X3674368Y617130D01*
G01X3657402Y616915D01*
G01X3643005Y617021D01*
G01X3641264Y616670D01*
G01X3639523Y616318D01*
G01X3638562Y615099D01*
G01X3637601Y613880D01*
G01X3637761Y604988D01*
G01X3637922Y596097D01*
G01X3638974Y595043D01*
G01X3640026Y593990D01*
G01X3663004Y593897D01*
G01X3685982Y593804D01*
G01X3688603Y594245D01*
G01X3691224Y594685D01*
G01X3694597Y596303D01*
G01X3694597Y596303D01*
G01X3698466Y597921D01*
G01X3698466Y597921D01*
G01X3700713Y599772D01*
G01X3700713Y599772D01*
G01X3702815Y601622D01*
G01X3702815Y601622D01*
G01X3705296Y605946D01*
G01X3707426Y610270D01*
G01X3707725Y617857D01*
G01X3708024Y625444D01*
G01X3707543Y630786D01*
G01X3707063Y636127D01*
G01X3705384Y639112D01*
G01X3705384Y639112D01*
G01X3699614Y645517D01*
G01X3699614Y645517D01*
G01X3695884Y647536D01*
G01X3693771Y648795D01*
G01X3687492Y649492D01*
G01X3687492Y649492D01*
G01X3677359Y651094D01*
G01X3677359Y651094D01*
G01X3671106Y652308D01*
G01X3668707Y652616D01*
G01X3667703Y653553D01*
G01X3666699Y654489D01*
G01X3666936Y656601D01*
G01X3667175Y658712D01*
G01X3668196Y659540D01*
G01X3669217Y660368D01*
G01X3684300Y660369D01*
G01X3699383Y660370D01*
G01X3701000Y661178D01*
G01X3702618Y661987D01*
G01X3702909Y663375D01*
G01X3702909Y663375D01*
G01X3703256Y672670D01*
G01X3703311Y680578D01*
G01X3702502Y681287D01*
G01X3702502Y681287D01*
G01X3700215Y682747D01*
G01X3698736Y683496D01*
G01X3679419Y683449D01*
G01X3660103Y683401D01*
G01X3655518Y682776D01*
G37*
G36*
G01X4015468Y682845D02*
G01X4011308Y682269D01*
G01X4010131Y681611D01*
G01X4010131Y681611D01*
G01X4003194Y676558D01*
G01X4000572Y674014D01*
G01X3999010Y669388D01*
G01X3997447Y664762D01*
G01X3997497Y654586D01*
G01X3997548Y644409D01*
G01X3999115Y640188D01*
G01X4000682Y635967D01*
G01X4003051Y633836D01*
G01X4005420Y631705D01*
G01X4009289Y630272D01*
G01X4009289Y630272D01*
G01X4024141Y627053D01*
G01X4024141Y627053D01*
G01X4033010Y626098D01*
G01X4035303Y625663D01*
G01X4036632Y624397D01*
G01X4036632Y624397D01*
G01X4038417Y622291D01*
G01X4038872Y621450D01*
G01X4038206Y620441D01*
G01X4038206Y620441D01*
G01X4036261Y618159D01*
G01X4034983Y616887D01*
G01X4018205Y616887D01*
G01X4001428Y616887D01*
G01X3999772Y615909D01*
G01X3999772Y615909D01*
G01X3997707Y614166D01*
G01X3997298Y613400D01*
G01X3997257Y606471D01*
G01X3997215Y599541D01*
G01X3997836Y597775D01*
G01X3997836Y597775D01*
G01X3999468Y595000D01*
G01X4000478Y593990D01*
G01X4025072Y593990D01*
G01X4049666Y593990D01*
G01X4054056Y596036D01*
G01X4054056Y596036D01*
G01X4063969Y603733D01*
G01X4065995Y606539D01*
G01X4066547Y610320D01*
G01X4067100Y614101D01*
G01X4066883Y625323D01*
G01X4066665Y636546D01*
G01X4066065Y638165D01*
G01X4066065Y638165D01*
G01X4063919Y641520D01*
G01X4063919Y641520D01*
G01X4062374Y643746D01*
G01X4062374Y643746D01*
G01X4059486Y645637D01*
G01X4059486Y645637D01*
G01X4054980Y647904D01*
G01X4053363Y648769D01*
G01X4047275Y649480D01*
G01X4047275Y649480D01*
G01X4037339Y651053D01*
G01X4037339Y651053D01*
G01X4030488Y652482D01*
G01X4030488Y652482D01*
G01X4026907Y653527D01*
G01X4026329Y654005D01*
G01X4026329Y656190D01*
G01X4026329Y658374D01*
G01X4027301Y659256D01*
G01X4028273Y660137D01*
G01X4044615Y660368D01*
G01X4060957Y660599D01*
G01X4061781Y661424D01*
G01X4062605Y662249D01*
G01X4062746Y671612D01*
G01X4062887Y680974D01*
G01X4061670Y682120D01*
G01X4060452Y683265D01*
G01X4040040Y683343D01*
G01X4019628Y683420D01*
G01X4015468Y682845D01*
G37*
G36*
G01X3488890Y682980D02*
G01X3488890Y682980D01*
G01X3479416Y680522D01*
G01X3479416Y680522D01*
G01X3477004Y679142D01*
G01X3477004Y679142D01*
G01X3469602Y671550D01*
G01X3468106Y669184D01*
G01X3467603Y664892D01*
G01X3467100Y660599D01*
G01X3467251Y635621D01*
G01X3467402Y610642D01*
G01X3468498Y608214D01*
G01X3468498Y608214D01*
G01X3469930Y605785D01*
G01X3469930Y605785D01*
G01X3471110Y603908D01*
G01X3471956Y602030D01*
G01X3473297Y601075D01*
G01X3473297Y601075D01*
G01X3475703Y599053D01*
G01X3476769Y597986D01*
G01X3478778Y597444D01*
G01X3478778Y597444D01*
G01X3482902Y595830D01*
G01X3485017Y594757D01*
G01X3488604Y594258D01*
G01X3492191Y593758D01*
G01X3510580Y593758D01*
G01X3528969Y593758D01*
G01X3530072Y594626D01*
G01X3531174Y595495D01*
G01X3532047Y598065D01*
G01X3532920Y600636D01*
G01X3532693Y607334D01*
G01X3532466Y614033D01*
G01X3530664Y615689D01*
G01X3528863Y617345D01*
G01X3515923Y617352D01*
G01X3502984Y617359D01*
G01X3500691Y618056D01*
G01X3498398Y618752D01*
G01X3497128Y619970D01*
G01X3495858Y621187D01*
G01X3495343Y623674D01*
G01X3494827Y626161D01*
G01X3494978Y640374D01*
G01X3495128Y654586D01*
G01X3496685Y656815D01*
G01X3498241Y659045D01*
G01X3499272Y659437D01*
G01X3500302Y659829D01*
G01X3514665Y659983D01*
G01X3529027Y660137D01*
G01X3530331Y661107D01*
G01X3531635Y662077D01*
G01X3532242Y664345D01*
G01X3532848Y666613D01*
G01X3532640Y673458D01*
G01X3532432Y680303D01*
G01X3531573Y681253D01*
G01X3531573Y681253D01*
G01X3529464Y682850D01*
G01X3528216Y683496D01*
G01X3510517Y683435D01*
G01X3510517Y683435D01*
G01X3488890Y682980D01*
G37*
G36*
G01X3812617Y750178D02*
G01X3807087Y748453D01*
G01X3805612Y746944D01*
G01X3805612Y746944D01*
G01X3802824Y742798D01*
G01X3801510Y740161D01*
G01X3801510Y723971D01*
G01X3801510Y707781D01*
G01X3803045Y704752D01*
G01X3804579Y701722D01*
G01X3806510Y700486D01*
G01X3806510Y700486D01*
G01X3809366Y698568D01*
G01X3810290Y697887D01*
G01X3814206Y697399D01*
G01X3814206Y697399D01*
G01X3838731Y698276D01*
G01X3838731Y698276D01*
G01X3841945Y700286D01*
G01X3844025Y701806D01*
G01X3845029Y703778D01*
G01X3845029Y703778D01*
G01X3846646Y706489D01*
G01X3847260Y707228D01*
G01X3847408Y723101D01*
G01X3847555Y738973D01*
G01X3845973Y742355D01*
G01X3844391Y745736D01*
G01X3843007Y747122D01*
G01X3841623Y748507D01*
G01X3835892Y750234D01*
G01X3830161Y751960D01*
G01X3824154Y751932D01*
G01X3818146Y751903D01*
G01X3812617Y750178D01*
G37*
%LPC*%
G36*
G01X3829189Y736081D02*
G01X3830161Y734776D01*
G01X3830309Y724401D01*
G01X3830456Y714027D01*
G01X3829492Y712671D01*
G01X3828527Y711315D01*
G01X3826084Y711009D01*
G01X3823640Y710704D01*
G01X3821719Y711222D01*
G01X3819798Y711740D01*
G01X3819088Y712754D01*
G01X3818377Y713769D01*
G01X3818377Y723311D01*
G01X3818377Y732853D01*
G01X3818892Y734425D01*
G01X3818892Y734425D01*
G01X3820351Y736825D01*
G01X3821297Y737653D01*
G01X3824757Y737519D01*
G01X3828217Y737385D01*
G01X3829189Y736081D01*
G37*
%LPD*%
G36*
G01X3859193Y749671D02*
G01X3857263Y748786D01*
G01X3856882Y747942D01*
G01X3856502Y747099D01*
G01X3856733Y722835D01*
G01X3856964Y698570D01*
G01X3859043Y697945D01*
G01X3861123Y697319D01*
G01X3865744Y697499D01*
G01X3870365Y697679D01*
G01X3871597Y698276D01*
G01X3872829Y698874D01*
G01X3873092Y699858D01*
G01X3873092Y699858D01*
G01X3873363Y709532D01*
G01X3873369Y718222D01*
G01X3874115Y719362D01*
G01X3874862Y720502D01*
G01X3875692Y720502D01*
G01X3876522Y720502D01*
G01X3877711Y718998D01*
G01X3877711Y718998D01*
G01X3882861Y712955D01*
G01X3882861Y712955D01*
G01X3884756Y710523D01*
G01X3885495Y709392D01*
G01X3885734Y704348D01*
G01X3885734Y704348D01*
G01X3886304Y698768D01*
G01X3886304Y698768D01*
G01X3894325Y697384D01*
G01X3898415Y697373D01*
G01X3899928Y698092D01*
G01X3901440Y698811D01*
G01X3901961Y701407D01*
G01X3902482Y704004D01*
G01X3902476Y725089D01*
G01X3902469Y746174D01*
G01X3901891Y747317D01*
G01X3901891Y747317D01*
G01X3899750Y749514D01*
G01X3898187Y750569D01*
G01X3894631Y750569D01*
G01X3891076Y750569D01*
G01X3888849Y749898D01*
G01X3888849Y749898D01*
G01X3885833Y743862D01*
G01X3885833Y743862D01*
G01X3885416Y737676D01*
G01X3885025Y735654D01*
G01X3884396Y735255D01*
G01X3884396Y735255D01*
G01X3883457Y734964D01*
G01X3883457Y734964D01*
G01X3873614Y746115D01*
G01X3873614Y746115D01*
G01X3870408Y748938D01*
G01X3868517Y750038D01*
G01X3864820Y750297D01*
G01X3861123Y750557D01*
G01X3859193Y749671D01*
G37*
G36*
G01X3586009Y749971D02*
G01X3584006Y749405D01*
G01X3583352Y748511D01*
G01X3582699Y747616D01*
G01X3582699Y724634D01*
G01X3582699Y724634D01*
G01X3582991Y700190D01*
G01X3583283Y698728D01*
G01X3584262Y698167D01*
G01X3585241Y697605D01*
G01X3601184Y697605D01*
G01X3617126Y697605D01*
G01X3618744Y698277D01*
G01X3618744Y698277D01*
G01X3622164Y700243D01*
G01X3622164Y700243D01*
G01X3624578Y701537D01*
G01X3624578Y701537D01*
G01X3627536Y707319D01*
G01X3628578Y710557D01*
G01X3628735Y723046D01*
G01X3628893Y735535D01*
G01X3628254Y738079D01*
G01X3628254Y738079D01*
G01X3626868Y742670D01*
G01X3626122Y744717D01*
G01X3623941Y746721D01*
G01X3623941Y746721D01*
G01X3617357Y749669D01*
G01X3614354Y750192D01*
G01X3601184Y750364D01*
G01X3588013Y750536D01*
G01X3586009Y749971D01*
G37*
%LPC*%
G36*
G01X3610702Y735157D02*
G01X3611812Y733865D01*
G01X3611812Y723714D01*
G01X3611812Y713563D01*
G01X3610888Y712638D01*
G01X3609964Y711713D01*
G01X3605838Y711713D01*
G01X3601713Y711713D01*
G01X3600755Y712932D01*
G01X3599797Y714151D01*
G01X3599797Y723123D01*
G01X3599797Y732096D01*
G01X3600500Y733780D01*
G01X3600500Y733780D01*
G01X3601749Y736123D01*
G01X3602295Y736781D01*
G01X3605943Y736615D01*
G01X3609591Y736449D01*
G01X3610702Y735157D01*
G37*
%LPD*%
G36*
G01X3694173Y749430D02*
G01X3692682Y748174D01*
G01X3692682Y723732D01*
G01X3692682Y699291D01*
G01X3693900Y698332D01*
G01X3695117Y697373D01*
G01X3700751Y697373D01*
G01X3706384Y697373D01*
G01X3707389Y698444D01*
G01X3708394Y699515D01*
G01X3708395Y705267D01*
G01X3708396Y711019D01*
G01X3709204Y712625D01*
G01X3710011Y714231D01*
G01X3711167Y714545D01*
G01X3711167Y714545D01*
G01X3714998Y714905D01*
G01X3717673Y714951D01*
G01X3719446Y714046D01*
G01X3719446Y714046D01*
G01X3722235Y705400D01*
G01X3722489Y699319D01*
G01X3723369Y698346D01*
G01X3724249Y697373D01*
G01X3730070Y697384D01*
G01X3735890Y697394D01*
G01X3737033Y698273D01*
G01X3738176Y699153D01*
G01X3738356Y706991D01*
G01X3738536Y714830D01*
G01X3737965Y718244D01*
G01X3737395Y721658D01*
G01X3735407Y723509D01*
G01X3733420Y725359D01*
G01X3733007Y726978D01*
G01X3732595Y728597D01*
G01X3733259Y730868D01*
G01X3733923Y733139D01*
G01X3733719Y738108D01*
G01X3733514Y743077D01*
G01X3732765Y744163D01*
G01X3732765Y744163D01*
G01X3730487Y747018D01*
G01X3728958Y748786D01*
G01X3726186Y749483D01*
G01X3723413Y750180D01*
G01X3709539Y750433D01*
G01X3695665Y750686D01*
G01X3694173Y749430D01*
G37*
%LPC*%
G36*
G01X3715229Y736892D02*
G01X3715229Y736892D01*
G01X3717205Y734319D01*
G01X3718147Y732471D01*
G01X3716868Y730447D01*
G01X3715589Y728423D01*
G01X3714564Y727956D01*
G01X3713539Y727489D01*
G01X3711776Y727760D01*
G01X3711776Y727760D01*
G01X3709463Y728462D01*
G01X3708915Y728893D01*
G01X3708639Y731289D01*
G01X3708363Y733685D01*
G01X3708757Y735073D01*
G01X3709152Y736460D01*
G01X3710275Y737032D01*
G01X3710275Y737032D01*
G01X3712797Y737610D01*
G01X3714196Y737617D01*
G01X3715229Y736892D01*
G37*
%LPD*%
G36*
G01X3748823Y749036D02*
G01X3747158Y747369D01*
G01X3747300Y723488D01*
G01X3747443Y699606D01*
G01X3748739Y698489D01*
G01X3750036Y697373D01*
G01X3755684Y697373D01*
G01X3761332Y697373D01*
G01X3762359Y698094D01*
G01X3763386Y698814D01*
G01X3763386Y706672D01*
G01X3763386Y714530D01*
G01X3764520Y715666D01*
G01X3765654Y716801D01*
G01X3769323Y716801D01*
G01X3772992Y716801D01*
G01X3774428Y715459D01*
G01X3775863Y714117D01*
G01X3775863Y707626D01*
G01X3775863Y701134D01*
G01X3776322Y699925D01*
G01X3776781Y698716D01*
G01X3778513Y697992D01*
G01X3780246Y697268D01*
G01X3785688Y697462D01*
G01X3791131Y697656D01*
G01X3791930Y698456D01*
G01X3792730Y699256D01*
G01X3792730Y711151D01*
G01X3792730Y711151D01*
G01X3792389Y724202D01*
G01X3792048Y725359D01*
G01X3789557Y727903D01*
G01X3789557Y727903D01*
G01X3785805Y731387D01*
G01X3784544Y732326D01*
G01X3785519Y735605D01*
G01X3785519Y735605D01*
G01X3787348Y739985D01*
G01X3787348Y739985D01*
G01X3789217Y744256D01*
G01X3790232Y747427D01*
G01X3789517Y748519D01*
G01X3789517Y748519D01*
G01X3787800Y750148D01*
G01X3786798Y750685D01*
G01X3782359Y750471D01*
G01X3777920Y750257D01*
G01X3776545Y749603D01*
G01X3775170Y748950D01*
G01X3774246Y747046D01*
G01X3774246Y747046D01*
G01X3772728Y744436D01*
G01X3772728Y744436D01*
G01X3770842Y740031D01*
G01X3770842Y740031D01*
G01X3766303Y732170D01*
G01X3765292Y730909D01*
G01X3764455Y731735D01*
G01X3763617Y732561D01*
G01X3763457Y740317D01*
G01X3763296Y748074D01*
G01X3762500Y749130D01*
G01X3761704Y750186D01*
G01X3756096Y750444D01*
G01X3750488Y750703D01*
G01X3748823Y749036D01*
G37*
G36*
G01X3648463Y749405D02*
G01X3646065Y748333D01*
G01X3645549Y746329D01*
G01X3645549Y746329D01*
G01X3643182Y739930D01*
G01X3643182Y739930D01*
G01X3641430Y735395D01*
G01X3641430Y735395D01*
G01X3639629Y730538D01*
G01X3639629Y730538D01*
G01X3638104Y726746D01*
G01X3637459Y724434D01*
G01X3637459Y711789D01*
G01X3637459Y699144D01*
G01X3638550Y698259D01*
G01X3639641Y697373D01*
G01X3645295Y697373D01*
G01X3650949Y697373D01*
G01X3651763Y698274D01*
G01X3652578Y699175D01*
G01X3652820Y703247D01*
G01X3653064Y707319D01*
G01X3653676Y708531D01*
G01X3654289Y709743D01*
G01X3656361Y710266D01*
G01X3656361Y710266D01*
G01X3663304Y710034D01*
G01X3665515Y709280D01*
G01X3666159Y707736D01*
G01X3666804Y706192D01*
G01X3666804Y702741D01*
G01X3666804Y699291D01*
G01X3668021Y698332D01*
G01X3669239Y697373D01*
G01X3674660Y697373D01*
G01X3680081Y697373D01*
G01X3681298Y698332D01*
G01X3682516Y699291D01*
G01X3682516Y710024D01*
G01X3682516Y720757D01*
G01X3682027Y724677D01*
G01X3681538Y728597D01*
G01X3680371Y730595D01*
G01X3680371Y730595D01*
G01X3678298Y735867D01*
G01X3678298Y735867D01*
G01X3676274Y741049D01*
G01X3676274Y741049D01*
G01X3674649Y745329D01*
G01X3674141Y747701D01*
G01X3673360Y748369D01*
G01X3673360Y748369D01*
G01X3670567Y749819D01*
G01X3668554Y750600D01*
G01X3659708Y750539D01*
G01X3650861Y750477D01*
G01X3648463Y749405D01*
G37*
%LPC*%
G36*
G01X3662324Y733949D02*
G01X3663159Y733145D01*
G01X3663754Y729112D01*
G01X3664350Y725080D01*
G01X3663395Y724410D01*
G01X3662439Y723740D01*
G01X3660022Y723740D01*
G01X3657605Y723740D01*
G01X3656428Y724277D01*
G01X3655251Y724813D01*
G01X3655251Y725624D01*
G01X3655251Y725624D01*
G01X3657185Y734354D01*
G01X3657793Y735340D01*
G01X3659641Y735046D01*
G01X3661489Y734753D01*
G01X3662324Y733949D01*
G37*
%LPD*%
G36*
G01X3915435Y749836D02*
G01X3915435Y749836D01*
G01X3913009Y748395D01*
G01X3912187Y747650D01*
G01X3912192Y724940D01*
G01X3912192Y724940D01*
G01X3912475Y700546D01*
G01X3912753Y698862D01*
G01X3913972Y698233D01*
G01X3915191Y697605D01*
G01X3932025Y697467D01*
G01X3948859Y697330D01*
G01X3950168Y697873D01*
G01X3951478Y698416D01*
G01X3951763Y699553D01*
G01X3951763Y699553D01*
G01X3951826Y705306D01*
G01X3951604Y709923D01*
G01X3950826Y710703D01*
G01X3950049Y711482D01*
G01X3941169Y711607D01*
G01X3941169Y711607D01*
G01X3931334Y711941D01*
G01X3930379Y712151D01*
G01X3929771Y713288D01*
G01X3929163Y714425D01*
G01X3930057Y715960D01*
G01X3930950Y717495D01*
G01X3936861Y717734D01*
G01X3942771Y717973D01*
G01X3944391Y719742D01*
G01X3946010Y721510D01*
G01X3945691Y725285D01*
G01X3945372Y729059D01*
G01X3944376Y729858D01*
G01X3943379Y730658D01*
G01X3937344Y730668D01*
G01X3931308Y730678D01*
G01X3930307Y731611D01*
G01X3929307Y732544D01*
G01X3930119Y734733D01*
G01X3930931Y736923D01*
G01X3940479Y737048D01*
G01X3950028Y737173D01*
G01X3950978Y738382D01*
G01X3951929Y739592D01*
G01X3951929Y743506D01*
G01X3951929Y747419D01*
G01X3951171Y748704D01*
G01X3950413Y749988D01*
G01X3947637Y750278D01*
G01X3947637Y750278D01*
G01X3930950Y750550D01*
G01X3917039Y750532D01*
G01X3915435Y749836D01*
G37*
G04 Image End*

G04 Text Start*
G54D10*
G01X3548634Y502666D02*
G01X3541522Y510032D01*
G01X3530346Y513588D01*
G01X3515868Y513588D01*
G01X3504946Y510032D01*
G01X3497580Y502666D01*
G01X3497580Y495554D01*
G01X3501136Y488188D01*
G01X3504946Y484378D01*
G01X3512312Y480822D01*
G01X3534156Y473456D01*
G01X3541522Y469900D01*
G01X3545078Y466344D01*
G01X3548634Y458978D01*
G01X3548634Y448056D01*
G01X3541522Y440690D01*
G01X3530346Y437134D01*
G01X3515868Y437134D01*
G01X3504946Y440690D01*
G01X3497580Y448056D01*
G01X3576320Y488188D02*
G01X3576320Y437134D01*
G01X3576320Y473456D02*
G01X3587242Y484378D01*
G01X3594608Y488188D01*
G01X3605530Y488188D01*
G01X3612896Y484378D01*
G01X3616452Y473456D01*
G01X3616452Y437134D01*
G01X3616452Y473456D02*
G01X3627374Y484378D01*
G01X3634740Y488188D01*
G01X3645662Y488188D01*
G01X3653028Y484378D01*
G01X3656584Y473456D01*
G01X3656584Y437134D01*
G01X3702558Y488188D02*
G01X3695192Y484378D01*
G01X3687826Y477266D01*
G01X3684270Y466344D01*
G01X3684270Y458978D01*
G01X3687826Y448056D01*
G01X3695192Y440690D01*
G01X3702558Y437134D01*
G01X3713480Y437134D01*
G01X3720846Y440690D01*
G01X3728212Y448056D01*
G01X3731768Y458978D01*
G01X3731768Y466344D01*
G01X3728212Y477266D01*
G01X3720846Y484378D01*
G01X3713480Y488188D01*
G01X3702558Y488188D01*
G01X3759454Y513588D02*
G01X3759454Y437134D01*
G01X3868928Y513588D02*
G01X3868928Y437134D01*
G01X3868928Y513588D02*
G01X3901694Y513588D01*
G01X3912870Y510032D01*
G01X3916426Y506476D01*
G01X3919982Y499110D01*
G01X3919982Y491744D01*
G01X3916426Y484378D01*
G01X3912870Y480822D01*
G01X3901694Y477266D01*
G01X3868928Y477266D02*
G01X3901694Y477266D01*
G01X3912870Y473456D01*
G01X3916426Y469900D01*
G01X3919982Y462534D01*
G01X3919982Y451612D01*
G01X3916426Y444246D01*
G01X3912870Y440690D01*
G01X3901694Y437134D01*
G01X3868928Y437134D01*
G01X3965956Y488188D02*
G01X3958590Y484378D01*
G01X3951224Y477266D01*
G01X3947668Y466344D01*
G01X3947668Y458978D01*
G01X3951224Y448056D01*
G01X3958590Y440690D01*
G01X3965956Y437134D01*
G01X3976878Y437134D01*
G01X3984244Y440690D01*
G01X3991610Y448056D01*
G01X3995166Y458978D01*
G01X3995166Y466344D01*
G01X3991610Y477266D01*
G01X3984244Y484378D01*
G01X3976878Y488188D01*
G01X3965956Y488188D01*
G01X4026408Y488188D02*
G01X4048506Y437134D01*
G01X4070350Y488188D02*
G01X4048506Y437134D01*
G01X4041140Y422402D01*
G01X4033774Y415036D01*
G01X4026408Y411480D01*
G01X4022852Y411480D01*
G54D11*
G01X1111672Y1723865D02*
G01X1111672Y1658841D01*
G01X1111672Y1723865D02*
G01X1133262Y1723865D01*
G01X1142660Y1720817D01*
G01X1148756Y1714721D01*
G01X1151804Y1708371D01*
G01X1155106Y1699227D01*
G01X1155106Y1683733D01*
G01X1151804Y1674335D01*
G01X1148756Y1668239D01*
G01X1142660Y1661889D01*
G01X1133262Y1658841D01*
G01X1111672Y1658841D01*
G01X1185332Y1711419D02*
G01X1191428Y1714721D01*
G01X1200572Y1723865D01*
G01X1200572Y1658841D01*
G01X467016Y1075094D02*
G01X467016Y1010070D01*
G01X467016Y1075094D02*
G01X488606Y1075094D01*
G01X498004Y1072046D01*
G01X504100Y1065950D01*
G01X507148Y1059600D01*
G01X510450Y1050456D01*
G01X510450Y1034962D01*
G01X507148Y1025564D01*
G01X504100Y1019468D01*
G01X498004Y1013118D01*
G01X488606Y1010070D01*
G01X467016Y1010070D01*
G01X540676Y1075094D02*
G01X540676Y1010070D01*
G01X614082Y1065950D02*
G01X607986Y1072046D01*
G01X598588Y1075094D01*
G01X586142Y1075094D01*
G01X576998Y1072046D01*
G01X570902Y1065950D01*
G01X570902Y1059600D01*
G01X573950Y1053504D01*
G01X576998Y1050456D01*
G01X583094Y1047408D01*
G01X601636Y1041058D01*
G01X607986Y1038010D01*
G01X611034Y1034962D01*
G01X614082Y1028612D01*
G01X614082Y1019468D01*
G01X607986Y1013118D01*
G01X598588Y1010070D01*
G01X586142Y1010070D01*
G01X576998Y1013118D01*
G01X570902Y1019468D01*
G01X644308Y1075094D02*
G01X644308Y1010070D01*
G01X644308Y1075094D02*
G01X671994Y1075094D01*
G01X681392Y1072046D01*
G01X684440Y1068998D01*
G01X687488Y1062648D01*
G01X687488Y1053504D01*
G01X684440Y1047408D01*
G01X681392Y1044106D01*
G01X671994Y1041058D01*
G01X644308Y1041058D01*
G01X833120Y1757934D02*
G01X833120Y1692910D01*
G01X833120Y1757934D02*
G01X854710Y1757934D01*
G01X864108Y1754886D01*
G01X870204Y1748790D01*
G01X873252Y1742440D01*
G01X876554Y1733296D01*
G01X876554Y1717802D01*
G01X873252Y1708404D01*
G01X870204Y1702308D01*
G01X864108Y1695958D01*
G01X854710Y1692910D01*
G01X833120Y1692910D01*
G01X925322Y1757934D02*
G01X918972Y1754886D01*
G01X912876Y1748790D01*
G01X909828Y1742440D01*
G01X906780Y1733296D01*
G01X906780Y1717802D01*
G01X909828Y1708404D01*
G01X912876Y1702308D01*
G01X918972Y1695958D01*
G01X925322Y1692910D01*
G01X937514Y1692910D01*
G01X943864Y1695958D01*
G01X949960Y1702308D01*
G01X953008Y1708404D01*
G01X956310Y1717802D01*
G01X956310Y1733296D01*
G01X953008Y1742440D01*
G01X949960Y1748790D01*
G01X943864Y1754886D01*
G01X937514Y1757934D01*
G01X925322Y1757934D01*
G01X2478890Y1097247D02*
G01X2478890Y1032223D01*
G01X2478890Y1097247D02*
G01X2519022Y1097247D01*
G01X2478890Y1066259D02*
G01X2503782Y1066259D01*
G01X2478890Y1032223D02*
G01X2519022Y1032223D01*
G01X2549248Y1097247D02*
G01X2592428Y1032223D01*
G01X2592428Y1097247D02*
G01X2549248Y1032223D01*
G01X2622654Y1097247D02*
G01X2622654Y1032223D01*
G01X2622654Y1097247D02*
G01X2650340Y1097247D01*
G01X2659738Y1094199D01*
G01X2662786Y1091151D01*
G01X2665834Y1084801D01*
G01X2665834Y1075657D01*
G01X2662786Y1069561D01*
G01X2659738Y1066259D01*
G01X2650340Y1063211D01*
G01X2622654Y1063211D01*
G01X3901905Y1209695D02*
G01X3966929Y1209695D01*
G01X3966929Y1209695D02*
G01X3966929Y1246779D01*
G01X3901905Y1277005D02*
G01X3966929Y1277005D01*
G01X3901905Y1277005D02*
G01X3901905Y1317137D01*
G01X3932893Y1277005D02*
G01X3932893Y1301643D01*
G01X3966929Y1277005D02*
G01X3966929Y1317137D01*
G01X3901905Y1347363D02*
G01X3966929Y1347363D01*
G01X3901905Y1347363D02*
G01X3901905Y1368953D01*
G01X3904953Y1378097D01*
G01X3911049Y1384447D01*
G01X3917399Y1387495D01*
G01X3926543Y1390543D01*
G01X3942037Y1390543D01*
G01X3951435Y1387495D01*
G01X3957531Y1384447D01*
G01X3963881Y1378097D01*
G01X3966929Y1368953D01*
G01X3966929Y1347363D01*
G01X3914351Y1420769D02*
G01X3911049Y1426865D01*
G01X3901905Y1436009D01*
G01X3966929Y1436009D01*
G01X3530667Y1200193D02*
G01X3595691Y1200193D01*
G01X3595691Y1200193D02*
G01X3595691Y1237277D01*
G01X3530667Y1267503D02*
G01X3595691Y1267503D01*
G01X3530667Y1267503D02*
G01X3530667Y1307635D01*
G01X3561655Y1267503D02*
G01X3561655Y1292141D01*
G01X3595691Y1267503D02*
G01X3595691Y1307635D01*
G01X3530667Y1337861D02*
G01X3595691Y1337861D01*
G01X3530667Y1337861D02*
G01X3530667Y1359451D01*
G01X3533715Y1368595D01*
G01X3539811Y1374945D01*
G01X3546161Y1377993D01*
G01X3555305Y1381041D01*
G01X3570799Y1381041D01*
G01X3580197Y1377993D01*
G01X3586293Y1374945D01*
G01X3592643Y1368595D01*
G01X3595691Y1359451D01*
G01X3595691Y1337861D01*
G01X3546161Y1414315D02*
G01X3543113Y1414315D01*
G01X3536763Y1417363D01*
G01X3533715Y1420411D01*
G01X3530667Y1426507D01*
G01X3530667Y1438953D01*
G01X3533715Y1445303D01*
G01X3536763Y1448351D01*
G01X3543113Y1451399D01*
G01X3549209Y1451399D01*
G01X3555305Y1448351D01*
G01X3564703Y1442001D01*
G01X3595691Y1411267D01*
G01X3595691Y1454447D01*
G01X489966Y2725420D02*
G01X554990Y2725420D01*
G01X554990Y2725420D02*
G01X554990Y2762504D01*
G01X489966Y2792730D02*
G01X554990Y2792730D01*
G01X489966Y2792730D02*
G01X489966Y2820416D01*
G01X493014Y2829814D01*
G01X496062Y2832862D01*
G01X502412Y2835910D01*
G01X511556Y2835910D01*
G01X517652Y2832862D01*
G01X520954Y2829814D01*
G01X524002Y2820416D01*
G01X524002Y2792730D01*
G01X505460Y2912364D02*
G01X499110Y2909316D01*
G01X493014Y2903220D01*
G01X489966Y2896870D01*
G01X489966Y2884678D01*
G01X493014Y2878328D01*
G01X499110Y2872232D01*
G01X505460Y2869184D01*
G01X514604Y2866136D01*
G01X530098Y2866136D01*
G01X539496Y2869184D01*
G01X545592Y2872232D01*
G01X551942Y2878328D01*
G01X554990Y2884678D01*
G01X554990Y2896870D01*
G01X551942Y2903220D01*
G01X545592Y2909316D01*
G01X539496Y2912364D01*
G01X4285234Y4094477D02*
G01X4220210Y4094477D01*
G01X4285234Y4094477D02*
G01X4285234Y4066537D01*
G01X4282186Y4057393D01*
G01X4279138Y4054345D01*
G01X4272788Y4051043D01*
G01X4263644Y4051043D01*
G01X4257548Y4054345D01*
G01X4254246Y4057393D01*
G01X4251198Y4066537D01*
G01X4251198Y4094477D01*
G01X4285234Y4020817D02*
G01X4220210Y4020817D01*
G01X4285234Y4020817D02*
G01X4285234Y3993131D01*
G01X4282186Y3983733D01*
G01X4279138Y3980685D01*
G01X4272788Y3977637D01*
G01X4266692Y3977637D01*
G01X4260596Y3980685D01*
G01X4257548Y3983733D01*
G01X4254246Y3993131D01*
G01X4254246Y4020817D01*
G01X4254246Y3999227D02*
G01X4220210Y3977637D01*
G01X4285234Y3928869D02*
G01X4282186Y3935219D01*
G01X4276090Y3941315D01*
G01X4269740Y3944363D01*
G01X4260596Y3947411D01*
G01X4245102Y3947411D01*
G01X4235704Y3944363D01*
G01X4229608Y3941315D01*
G01X4223258Y3935219D01*
G01X4220210Y3928869D01*
G01X4220210Y3916677D01*
G01X4223258Y3910327D01*
G01X4229608Y3904231D01*
G01X4235704Y3901183D01*
G01X4245102Y3897881D01*
G01X4260596Y3897881D01*
G01X4269740Y3901183D01*
G01X4276090Y3904231D01*
G01X4282186Y3910327D01*
G01X4285234Y3916677D01*
G01X4285234Y3928869D01*
G01X4269740Y3821427D02*
G01X4276090Y3824475D01*
G01X4282186Y3830571D01*
G01X4285234Y3836921D01*
G01X4285234Y3849113D01*
G01X4282186Y3855463D01*
G01X4276090Y3861559D01*
G01X4269740Y3864607D01*
G01X4260596Y3867655D01*
G01X4245102Y3867655D01*
G01X4235704Y3864607D01*
G01X4229608Y3861559D01*
G01X4223258Y3855463D01*
G01X4220210Y3849113D01*
G01X4220210Y3836921D01*
G01X4223258Y3830571D01*
G01X4229608Y3824475D01*
G01X4235704Y3821427D01*
G01X4245102Y3821427D01*
G01X4245102Y3836921D02*
G01X4245102Y3821427D01*
G01X3488873Y3702458D02*
G01X3553897Y3702458D01*
G01X3488873Y3702458D02*
G01X3488873Y3730398D01*
G01X3491921Y3739542D01*
G01X3494969Y3742590D01*
G01X3501319Y3745892D01*
G01X3507415Y3745892D01*
G01X3513511Y3742590D01*
G01X3516559Y3739542D01*
G01X3519861Y3730398D01*
G01X3519861Y3702458D01*
G01X3519861Y3724048D02*
G01X3553897Y3745892D01*
G01X3501319Y3776118D02*
G01X3498017Y3782214D01*
G01X3488873Y3791358D01*
G01X3553897Y3791358D01*
G01X3488873Y3270658D02*
G01X3553897Y3270658D01*
G01X3488873Y3270658D02*
G01X3488873Y3298598D01*
G01X3491921Y3307742D01*
G01X3494969Y3310790D01*
G01X3501319Y3314092D01*
G01X3507415Y3314092D01*
G01X3513511Y3310790D01*
G01X3516559Y3307742D01*
G01X3519861Y3298598D01*
G01X3519861Y3270658D01*
G01X3519861Y3292248D02*
G01X3553897Y3314092D01*
G01X3504367Y3347366D02*
G01X3501319Y3347366D01*
G01X3494969Y3350414D01*
G01X3491921Y3353462D01*
G01X3488873Y3359558D01*
G01X3488873Y3372004D01*
G01X3491921Y3378354D01*
G01X3494969Y3381402D01*
G01X3501319Y3384450D01*
G01X3507415Y3384450D01*
G01X3513511Y3381402D01*
G01X3522909Y3375052D01*
G01X3553897Y3344318D01*
G01X3553897Y3387498D01*
G01X3486440Y2813458D02*
G01X3551464Y2813458D01*
G01X3486440Y2813458D02*
G01X3486440Y2841398D01*
G01X3489488Y2850542D01*
G01X3492536Y2853590D01*
G01X3498886Y2856892D01*
G01X3504982Y2856892D01*
G01X3511078Y2853590D01*
G01X3514126Y2850542D01*
G01X3517428Y2841398D01*
G01X3517428Y2813458D01*
G01X3517428Y2835048D02*
G01X3551464Y2856892D01*
G01X3486440Y2893214D02*
G01X3486440Y2927250D01*
G01X3511078Y2908708D01*
G01X3511078Y2917852D01*
G01X3514126Y2924202D01*
G01X3517428Y2927250D01*
G01X3526572Y2930298D01*
G01X3532922Y2930298D01*
G01X3542066Y2927250D01*
G01X3548416Y2921154D01*
G01X3551464Y2911756D01*
G01X3551464Y2902358D01*
G01X3548416Y2893214D01*
G01X3545114Y2890166D01*
G01X3539018Y2887118D01*
G01X3489437Y2351187D02*
G01X3554461Y2351187D01*
G01X3489437Y2351187D02*
G01X3489437Y2379127D01*
G01X3492485Y2388271D01*
G01X3495533Y2391319D01*
G01X3501883Y2394621D01*
G01X3507979Y2394621D01*
G01X3514075Y2391319D01*
G01X3517123Y2388271D01*
G01X3520425Y2379127D01*
G01X3520425Y2351187D01*
G01X3520425Y2372777D02*
G01X3554461Y2394621D01*
G01X3489437Y2455581D02*
G01X3532617Y2424847D01*
G01X3532617Y2471075D01*
G01X3489437Y2455581D02*
G01X3554461Y2455581D01*
G01X3913287Y1971563D02*
G01X3913287Y1906539D01*
G01X3913287Y1971563D02*
G01X3941227Y1971563D01*
G01X3950371Y1968515D01*
G01X3953419Y1965467D01*
G01X3956721Y1959117D01*
G01X3956721Y1953021D01*
G01X3953419Y1946925D01*
G01X3950371Y1943877D01*
G01X3941227Y1940575D01*
G01X3913287Y1940575D01*
G01X3934877Y1940575D02*
G01X3956721Y1906539D01*
G01X4024031Y1971563D02*
G01X3993043Y1971563D01*
G01X3989995Y1943877D01*
G01X3993043Y1946925D01*
G01X4002187Y1949973D01*
G01X4011585Y1949973D01*
G01X4020983Y1946925D01*
G01X4027079Y1940575D01*
G01X4030127Y1931431D01*
G01X4030127Y1925081D01*
G01X4027079Y1915937D01*
G01X4020983Y1909587D01*
G01X4011585Y1906539D01*
G01X4002187Y1906539D01*
G01X3993043Y1909587D01*
G01X3989995Y1912889D01*
G01X3986947Y1918985D01*
G01X3540237Y1703487D02*
G01X3605261Y1703487D01*
G01X3540237Y1703487D02*
G01X3540237Y1731427D01*
G01X3543285Y1740571D01*
G01X3546333Y1743619D01*
G01X3552683Y1746921D01*
G01X3558779Y1746921D01*
G01X3564875Y1743619D01*
G01X3567923Y1740571D01*
G01X3571225Y1731427D01*
G01X3571225Y1703487D01*
G01X3571225Y1725077D02*
G01X3605261Y1746921D01*
G01X3549381Y1814231D02*
G01X3543285Y1811183D01*
G01X3540237Y1801785D01*
G01X3540237Y1795689D01*
G01X3543285Y1786291D01*
G01X3552683Y1780195D01*
G01X3567923Y1777147D01*
G01X3583417Y1777147D01*
G01X3595863Y1780195D01*
G01X3602213Y1786291D01*
G01X3605261Y1795689D01*
G01X3605261Y1798737D01*
G01X3602213Y1807881D01*
G01X3595863Y1814231D01*
G01X3586719Y1817279D01*
G01X3583417Y1817279D01*
G01X3574273Y1814231D01*
G01X3567923Y1807881D01*
G01X3564875Y1798737D01*
G01X3564875Y1795689D01*
G01X3567923Y1786291D01*
G01X3574273Y1780195D01*
G01X3583417Y1777147D01*
G01X2319020Y1364234D02*
G01X2319020Y1299210D01*
G01X2319020Y1364234D02*
G01X2346960Y1364234D01*
G01X2356104Y1361186D01*
G01X2359152Y1358138D01*
G01X2362454Y1351788D01*
G01X2362454Y1345692D01*
G01X2359152Y1339596D01*
G01X2356104Y1336548D01*
G01X2346960Y1333246D01*
G01X2319020Y1333246D01*
G01X2340610Y1333246D02*
G01X2362454Y1299210D01*
G01X2438908Y1348740D02*
G01X2435860Y1355090D01*
G01X2429764Y1361186D01*
G01X2423414Y1364234D01*
G01X2411222Y1364234D01*
G01X2404872Y1361186D01*
G01X2398776Y1355090D01*
G01X2395728Y1348740D01*
G01X2392680Y1339596D01*
G01X2392680Y1324102D01*
G01X2395728Y1314704D01*
G01X2398776Y1308608D01*
G01X2404872Y1302258D01*
G01X2411222Y1299210D01*
G01X2423414Y1299210D01*
G01X2429764Y1302258D01*
G01X2435860Y1308608D01*
G01X2438908Y1314704D01*
G01X2438908Y1324102D01*
G01X2423414Y1324102D02*
G01X2438908Y1324102D01*
G01X2469134Y1364234D02*
G01X2469134Y1299210D01*
G01X2469134Y1364234D02*
G01X2496820Y1364234D01*
G01X2506218Y1361186D01*
G01X2509266Y1358138D01*
G01X2512314Y1351788D01*
G01X2512314Y1345692D01*
G01X2509266Y1339596D01*
G01X2506218Y1336548D01*
G01X2496820Y1333246D01*
G01X2469134Y1333246D02*
G01X2496820Y1333246D01*
G01X2506218Y1330198D01*
G01X2509266Y1327150D01*
G01X2512314Y1321054D01*
G01X2512314Y1311656D01*
G01X2509266Y1305560D01*
G01X2506218Y1302258D01*
G01X2496820Y1299210D01*
G01X2469134Y1299210D01*
G01X1457616Y1075094D02*
G01X1457616Y1010070D01*
G01X1457616Y1075094D02*
G01X1485556Y1075094D01*
G01X1494700Y1072046D01*
G01X1497748Y1068998D01*
G01X1501050Y1062648D01*
G01X1501050Y1056552D01*
G01X1497748Y1050456D01*
G01X1494700Y1047408D01*
G01X1485556Y1044106D01*
G01X1457616Y1044106D01*
G01X1479206Y1044106D02*
G01X1501050Y1010070D01*
G01X1577504Y1059600D02*
G01X1574456Y1065950D01*
G01X1568360Y1072046D01*
G01X1562010Y1075094D01*
G01X1549818Y1075094D01*
G01X1543468Y1072046D01*
G01X1537372Y1065950D01*
G01X1534324Y1059600D01*
G01X1531276Y1050456D01*
G01X1531276Y1034962D01*
G01X1534324Y1025564D01*
G01X1537372Y1019468D01*
G01X1543468Y1013118D01*
G01X1549818Y1010070D01*
G01X1562010Y1010070D01*
G01X1568360Y1013118D01*
G01X1574456Y1019468D01*
G01X1577504Y1025564D01*
G01X1577504Y1034962D01*
G01X1562010Y1034962D02*
G01X1577504Y1034962D01*
G01X1607730Y1075094D02*
G01X1607730Y1010070D01*
G01X1607730Y1075094D02*
G01X1635416Y1075094D01*
G01X1644814Y1072046D01*
G01X1647862Y1068998D01*
G01X1650910Y1062648D01*
G01X1650910Y1056552D01*
G01X1647862Y1050456D01*
G01X1644814Y1047408D01*
G01X1635416Y1044106D01*
G01X1607730Y1044106D02*
G01X1635416Y1044106D01*
G01X1644814Y1041058D01*
G01X1647862Y1038010D01*
G01X1650910Y1031914D01*
G01X1650910Y1022516D01*
G01X1647862Y1016420D01*
G01X1644814Y1013118D01*
G01X1635416Y1010070D01*
G01X1607730Y1010070D01*
G01X1433322Y4122633D02*
G01X1433322Y4076151D01*
G01X1436370Y4067007D01*
G01X1442720Y4060657D01*
G01X1451864Y4057609D01*
G01X1458214Y4057609D01*
G01X1467358Y4060657D01*
G01X1473454Y4067007D01*
G01X1476756Y4076151D01*
G01X1476756Y4122633D01*
G01X1506982Y4110187D02*
G01X1513078Y4113489D01*
G01X1522222Y4122633D01*
G01X1522222Y4057609D01*
G01X4121404Y1072134D02*
G01X4090416Y1072134D01*
G01X4087368Y1044448D01*
G01X4090416Y1047496D01*
G01X4099814Y1050544D01*
G01X4109212Y1050544D01*
G01X4118356Y1047496D01*
G01X4124452Y1041146D01*
G01X4127754Y1032002D01*
G01X4127754Y1025652D01*
G01X4124452Y1016508D01*
G01X4118356Y1010158D01*
G01X4109212Y1007110D01*
G01X4099814Y1007110D01*
G01X4090416Y1010158D01*
G01X4087368Y1013460D01*
G01X4084320Y1019556D01*
G01X4157980Y1072134D02*
G01X4182618Y1007110D01*
G01X4207510Y1072134D02*
G01X4182618Y1007110D01*
G04 Text End*

G04 PolygonModel Start*
G01X1353657Y1500449D02*
G01X1353657Y1464066D01*
G01X1353657Y1572928D02*
G01X1353657Y1609311D01*
G01X1160920Y1500449D02*
G01X1160920Y1464066D01*
G01X1160920Y1464066D02*
G01X1353657Y1464066D01*
G01X1160920Y1572928D02*
G01X1160920Y1609311D01*
G01X1160920Y1609311D02*
G01X1353657Y1609311D01*
G36*
G01X1277290Y1496687D02*
G01X1277290Y1576687D01*
G01X1237290Y1536687D01*
G01X1277290Y1496687D01*
G37*
G54D12*
G01X514403Y808952D02*
G01X611292Y808952D01*
G01X1217519Y808952D02*
G01X1314399Y808952D01*
G01X1314399Y808952D02*
G01X1314399Y577065D01*
G01X514403Y808952D02*
G01X514403Y577065D01*
G01X632521Y383954D02*
G01X1196282Y383954D01*
G01X2488178Y805705D02*
G01X2585066Y805705D01*
G01X3191293Y805705D02*
G01X3288174Y805705D01*
G01X3288174Y805705D02*
G01X3288174Y573818D01*
G01X2488178Y805705D02*
G01X2488178Y573818D01*
G01X2606295Y380707D02*
G01X3170056Y380707D01*
G01X4224739Y1481475D02*
G01X4224739Y1636415D01*
G01X4224739Y1636415D02*
G01X4021539Y1636415D01*
G01X4021539Y1636415D02*
G01X4021539Y1481475D01*
G01X4227279Y1402735D02*
G01X4227279Y1255415D01*
G01X4227279Y1255415D02*
G01X4186639Y1214775D01*
G01X4186639Y1214775D02*
G01X4059639Y1214775D01*
G01X4059639Y1214775D02*
G01X4021539Y1252875D01*
G01X4021539Y1252875D02*
G01X4021539Y1405275D01*
G01X4073012Y1457152D02*
G01X4173037Y1457152D01*
G01X4123012Y1447160D02*
G01X4123012Y1420261D01*
G01X3853501Y1471973D02*
G01X3853501Y1626913D01*
G01X3853501Y1626913D02*
G01X3650301Y1626913D01*
G01X3650301Y1626913D02*
G01X3650301Y1471973D01*
G01X3856041Y1393233D02*
G01X3856041Y1245913D01*
G01X3856041Y1245913D02*
G01X3815401Y1205273D01*
G01X3815401Y1205273D02*
G01X3688401Y1205273D01*
G01X3688401Y1205273D02*
G01X3650301Y1243373D01*
G01X3650301Y1243373D02*
G01X3650301Y1395773D01*
G01X3701774Y1447650D02*
G01X3801800Y1447650D01*
G01X3751774Y1437658D02*
G01X3751774Y1410759D01*
G01X1130300Y1892300D02*
G01X622300Y1892300D01*
G01X622300Y1892300D02*
G01X622300Y3975100D01*
G01X622300Y3975100D02*
G01X1130300Y3975100D01*
G01X1130300Y3975100D02*
G01X1130300Y1892300D01*
G01X4165600Y2057403D02*
G01X3911600Y2057403D01*
G01X3911600Y2057403D02*
G01X3911600Y4089397D01*
G01X3911600Y4089397D02*
G01X4165600Y4089397D01*
G01X4165600Y4089397D02*
G01X4165600Y2057403D01*
G01X4165600Y3833048D02*
G01X3911600Y3833048D01*
G54D11*
G01X3786845Y3926191D02*
G01X3786845Y4054685D01*
G01X3786845Y4054685D02*
G01X3603427Y4054685D01*
G01X3603427Y4054685D02*
G01X3603427Y3926191D01*
G01X3786845Y3830951D02*
G01X3786845Y3702458D01*
G01X3786845Y3702458D02*
G01X3603427Y3702458D01*
G01X3603427Y3702458D02*
G01X3603427Y3830951D01*
G01X3786845Y3494391D02*
G01X3786845Y3622885D01*
G01X3786845Y3622885D02*
G01X3603427Y3622885D01*
G01X3603427Y3622885D02*
G01X3603427Y3494391D01*
G01X3786845Y3399151D02*
G01X3786845Y3270658D01*
G01X3786845Y3270658D02*
G01X3603427Y3270658D01*
G01X3603427Y3270658D02*
G01X3603427Y3399151D01*
G01X3784412Y3037191D02*
G01X3784412Y3165685D01*
G01X3784412Y3165685D02*
G01X3600994Y3165685D01*
G01X3600994Y3165685D02*
G01X3600994Y3037191D01*
G01X3784412Y2941951D02*
G01X3784412Y2813458D01*
G01X3784412Y2813458D02*
G01X3600994Y2813458D01*
G01X3600994Y2813458D02*
G01X3600994Y2941951D01*
G01X3787409Y2574920D02*
G01X3787409Y2703413D01*
G01X3787409Y2703413D02*
G01X3603991Y2703413D01*
G01X3603991Y2703413D02*
G01X3603991Y2574920D01*
G01X3787409Y2479680D02*
G01X3787409Y2351187D01*
G01X3787409Y2351187D02*
G01X3603991Y2351187D01*
G01X3603991Y2351187D02*
G01X3603991Y2479680D01*
G01X4137020Y1673591D02*
G01X4265513Y1673591D01*
G01X4265513Y1673591D02*
G01X4265513Y1857009D01*
G01X4265513Y1857009D02*
G01X4137020Y1857009D01*
G01X4041780Y1673591D02*
G01X3913287Y1673591D01*
G01X3913287Y1673591D02*
G01X3913287Y1857009D01*
G01X3913287Y1857009D02*
G01X4041780Y1857009D01*
G01X3838209Y1927220D02*
G01X3838209Y2055713D01*
G01X3838209Y2055713D02*
G01X3654791Y2055713D01*
G01X3654791Y2055713D02*
G01X3654791Y1927220D01*
G01X3838209Y1831980D02*
G01X3838209Y1703487D01*
G01X3838209Y1703487D02*
G01X3654791Y1703487D01*
G01X3654791Y1703487D02*
G01X3654791Y1831980D01*
G54D12*
G01X1505003Y808952D02*
G01X1601892Y808952D01*
G01X2208119Y808952D02*
G01X2304999Y808952D01*
G01X2304999Y808952D02*
G01X2304999Y577065D01*
G01X1505003Y808952D02*
G01X1505003Y577065D01*
G01X1623121Y383954D02*
G01X2186882Y383954D01*
G01X1525707Y3926815D02*
G01X1525707Y3997698D01*
G01X1525707Y3672815D02*
G01X1525707Y3750587D01*
G01X1525707Y3418815D02*
G01X1525707Y3496587D01*
G01X1525707Y3164815D02*
G01X1525707Y3242587D01*
G01X1525707Y2910815D02*
G01X1525707Y2988587D01*
G01X1525707Y2656817D02*
G01X1525707Y2734587D01*
G01X1525707Y2402817D02*
G01X1525707Y2480589D01*
G01X1525707Y2148817D02*
G01X1525707Y2226589D01*
G01X1525707Y1894817D02*
G01X1525707Y1972589D01*
G01X1525707Y1647706D02*
G01X1525707Y1718589D01*
G01X1829585Y1647706D02*
G01X1525707Y1647706D01*
G01X2083590Y1647706D02*
G01X2005813Y1647706D01*
G01X2337590Y1647706D02*
G01X2259818Y1647706D01*
G01X2591587Y1647706D02*
G01X2513818Y1647706D01*
G01X2845587Y1647706D02*
G01X2767815Y1647706D01*
G01X3325703Y1647706D02*
G01X3021815Y1647706D01*
G01X3325703Y1718592D02*
G01X3325703Y1647706D01*
G01X3325703Y1972589D02*
G01X3325703Y1894820D01*
G01X3325703Y2226589D02*
G01X3325703Y2148817D01*
G01X3325703Y2480589D02*
G01X3325703Y2402817D01*
G01X3325703Y2734589D02*
G01X3325703Y2656817D01*
G01X3325703Y2988589D02*
G01X3325703Y2910817D01*
G01X3325703Y3242587D02*
G01X3325703Y3164817D01*
G01X3325703Y3496587D02*
G01X3325703Y3418815D01*
G01X3325703Y3750587D02*
G01X3325703Y3672815D01*
G01X3325703Y3997698D02*
G01X3325703Y3926815D01*
G01X3325703Y3997698D02*
G01X1525707Y3997698D01*
G36*
G01X3160707Y3738202D02*
G01X3150707Y3738202D01*
G01X3150707Y3728202D01*
G01X3160707Y3728202D01*
G01X3160707Y3738202D01*
G37*
G36*
G01X3170707Y3738202D02*
G01X3170707Y3668202D01*
G01X3160707Y3668202D01*
G01X3160707Y3738202D01*
G01X3170707Y3738202D01*
G37*
G36*
G01X3140707Y3668202D02*
G01X3190707Y3668202D01*
G01X3190707Y3658202D01*
G01X3140707Y3658202D01*
G01X3140707Y3668202D01*
G37*

G04 Circle Start*
G54D13*
G01X3404921Y3975710D02*
G03X3444900Y3975710I19990J0D01*
G03X3404921Y3975710I-19990J0D01*
G04 Circle End*

M02*

