G04 Layer: TopSolderMaskLayer*
G04 EasyEDA Pro v2.2.32.3, 2024-12-28 23:04:40*
G04 Gerber Generator version 0.3*
G04 Scale: 100 percent, Rotated: No, Reflected: No*
G04 Dimensions in millimeters*
G04 Leading zeros omitted, absolute positions, 3 integers and 5 decimals*
%FSLAX35Y35*%
%MOMM*%
%AMRoundRect*1,1,$1,$2,$3*1,1,$1,$4,$5*1,1,$1,0-$2,0-$3*1,1,$1,0-$4,0-$5*20,1,$1,$2,$3,$4,$5,0*20,1,$1,$4,$5,0-$2,0-$3,0*20,1,$1,0-$2,0-$3,0-$4,0-$5,0*20,1,$1,0-$4,0-$5,$2,$3,0*4,1,4,$2,$3,$4,$5,0-$2,0-$3,0-$4,0-$5,$2,$3,0*%
%ADD10RoundRect,0.08533X0.43084X-0.21833X-0.43084X-0.21833*%
%ADD11RoundRect,0.08906X0.30647X-0.78148X-0.30647X-0.78148*%
%ADD12RoundRect,0.0959X0.75305X-1.00305X-0.75305X-1.00305*%
%ADD13C,2.007*%
%ADD14RoundRect,0.09336X0.70409X0.50432X0.70409X-0.50432*%
%ADD15C,1.902*%
%ADD16RoundRect,0.09681X-0.90259X-0.90259X-0.90259X0.90259*%
%ADD17RoundRect,0.0959X0.75305X0.75305X0.75305X-0.75305*%
%ADD18C,1.602*%
%ADD19RoundRect,0.09387X0.69237X0.57013X0.69237X-0.57013*%
%ADD20RoundRect,0.09387X-0.57013X0.69237X0.57013X0.69237*%
%ADD21RoundRect,0.09387X-0.69237X-0.57013X-0.69237X0.57013*%
%ADD22O,3.15X1.626*%
%ADD23RoundRect,0.09508X1.00346X-0.65346X-1.00346X-0.65346*%
%ADD24RoundRect,0.09508X0.65346X-1.00346X-0.65346X-1.00346*%
%ADD25RoundRect,0.09508X-0.65346X-1.00346X-0.65346X1.00346*%
%ADD26O,1.626X3.15*%
G75*


G04 Pad Start*
G54D10*
G01X1368298Y1536675D03*
G01X1146302Y1536675D03*
G54D11*
G01X664393Y841451D03*
G01X764418Y841451D03*
G01X864418Y841451D03*
G01X964418Y841451D03*
G01X1064417Y841451D03*
G01X1164417Y841451D03*
G54D12*
G01X1294389Y453949D03*
G01X534396Y453949D03*
G54D13*
G01X698497Y1468901D03*
G54D11*
G01X2638167Y838204D03*
G01X2738192Y838204D03*
G01X2838192Y838204D03*
G01X2938192Y838204D03*
G01X3038192Y838204D03*
G01X3138192Y838204D03*
G54D12*
G01X3268163Y450701D03*
G01X2508170Y450701D03*
G54D14*
G01X4123012Y1332123D03*
G01X4123012Y1542181D03*
G01X3751774Y1322621D03*
G01X3751774Y1532679D03*
G54D15*
G01X749300Y3822700D03*
G01X1003300Y3822700D03*
G01X749300Y3568700D03*
G01X1003300Y3568700D03*
G01X749300Y3314700D03*
G01X1003300Y3314700D03*
G01X749300Y3060700D03*
G01X1003300Y3060700D03*
G01X749300Y2806700D03*
G01X1003300Y2806700D03*
G01X749300Y2552700D03*
G01X1003300Y2552700D03*
G01X749300Y2298700D03*
G01X1003300Y2298700D03*
G01X749300Y2044700D03*
G54D16*
G01X1003300Y2044700D03*
G54D17*
G01X4038600Y3962400D03*
G54D18*
G01X4038600Y3708400D03*
G01X4038600Y3454400D03*
G01X4038600Y3200400D03*
G01X4038600Y2946400D03*
G01X4038600Y2692400D03*
G01X4038600Y2438400D03*
G01X4038600Y2184400D03*
G54D19*
G01X3695136Y3978571D03*
G01X3695136Y3778571D03*
G01X3695136Y3546771D03*
G01X3695136Y3346771D03*
G01X3692703Y3089571D03*
G01X3692703Y2889571D03*
G01X3695700Y2627300D03*
G01X3695700Y2427300D03*
G54D20*
G01X4189400Y1765300D03*
G01X3989400Y1765300D03*
G54D21*
G01X3746500Y1979600D03*
G01X3746500Y1779600D03*
G54D22*
G01X2235200Y1117600D03*
G54D11*
G01X1654993Y841451D03*
G01X1755018Y841451D03*
G01X1855018Y841451D03*
G01X1955018Y841451D03*
G01X2055017Y841451D03*
G01X2155017Y841451D03*
G54D12*
G01X2284989Y453949D03*
G01X1524996Y453949D03*
G54D23*
G01X3325698Y1806702D03*
G01X3325698Y2060702D03*
G01X3325698Y2314702D03*
G01X3325698Y2568702D03*
G01X3325698Y2822702D03*
G01X3325698Y3076702D03*
G01X3325698Y3330702D03*
G01X3325698Y3584702D03*
G01X3325698Y3838702D03*
G54D24*
G01X2933700Y1647698D03*
G01X2679700Y1647698D03*
G01X2425700Y1647698D03*
G01X2171700Y1647698D03*
G54D23*
G01X1525702Y1806702D03*
G01X1525702Y2060702D03*
G01X1525702Y2314702D03*
G01X1525702Y2568702D03*
G01X1525702Y2822702D03*
G01X1525702Y3076702D03*
G01X1525702Y3330702D03*
G01X1525702Y3584702D03*
G54D25*
G01X1917700Y1647723D03*
G54D23*
G01X1525702Y3838702D03*
G54D26*
G01X4127500Y889000D03*
G04 Pad End*

M02*

