G04 Layer: TopPasteMaskLayer*
G04 EasyEDA Pro v2.2.32.3, 2024-12-28 23:04:40*
G04 Gerber Generator version 0.3*
G04 Scale: 100 percent, Rotated: No, Reflected: No*
G04 Dimensions in millimeters*
G04 Leading zeros omitted, absolute positions, 3 integers and 5 decimals*
%FSLAX35Y35*%
%MOMM*%
%ADD10R,0.84501X0.41999*%
%ADD11R,0.6X1.55001*%
%ADD12R,1.5X2.0*%
%ADD13C,1.905*%
%ADD14R,1.39954X1.0*%
%ADD15O,3.048X1.524*%
%ADD16R,2.0X1.3*%
%ADD17R,1.3X2.0*%
%ADD18R,1.3X2.0*%
%ADD19O,1.524X3.048*%
G75*


G04 PolygonModel Start*
G36*
G01X3759137Y3708569D02*
G01X3631138Y3708569D01*
G01X3626137Y3713570D01*
G01X3626137Y3828571D01*
G01X3631138Y3833570D01*
G01X3672142Y3834073D01*
G01X3672142Y3789072D01*
G01X3717140Y3789072D01*
G01X3717140Y3833072D01*
G01X3759137Y3833570D01*
G01X3764138Y3828571D01*
G01X3764138Y3713570D01*
G01X3759137Y3708569D01*
G37*
G36*
G01X3759137Y3923570D02*
G01X3717140Y3923572D01*
G01X3717140Y3968071D01*
G01X3672142Y3968071D01*
G01X3672142Y3924073D01*
G01X3631138Y3923570D01*
G01X3626137Y3928571D01*
G01X3626137Y4043570D01*
G01X3631138Y4048571D01*
G01X3759137Y4048571D01*
G01X3764138Y4043570D01*
G01X3764138Y3928571D01*
G01X3759137Y3923570D01*
G37*
G36*
G01X3759137Y3276769D02*
G01X3631138Y3276769D01*
G01X3626137Y3281770D01*
G01X3626137Y3396771D01*
G01X3631138Y3401770D01*
G01X3672142Y3402273D01*
G01X3672142Y3357272D01*
G01X3717140Y3357272D01*
G01X3717140Y3401272D01*
G01X3759137Y3401770D01*
G01X3764138Y3396771D01*
G01X3764138Y3281770D01*
G01X3759137Y3276769D01*
G37*
G36*
G01X3759137Y3491770D02*
G01X3717140Y3491772D01*
G01X3717140Y3536271D01*
G01X3672142Y3536271D01*
G01X3672142Y3492273D01*
G01X3631138Y3491770D01*
G01X3626137Y3496771D01*
G01X3626137Y3611770D01*
G01X3631138Y3616771D01*
G01X3759137Y3616771D01*
G01X3764138Y3611770D01*
G01X3764138Y3496771D01*
G01X3759137Y3491770D01*
G37*
G36*
G01X3756703Y2819569D02*
G01X3628705Y2819569D01*
G01X3623704Y2824570D01*
G01X3623704Y2939571D01*
G01X3628705Y2944570D01*
G01X3669708Y2945073D01*
G01X3669708Y2900072D01*
G01X3714707Y2900072D01*
G01X3714707Y2944072D01*
G01X3756703Y2944570D01*
G01X3761704Y2939571D01*
G01X3761704Y2824570D01*
G01X3756703Y2819569D01*
G37*
G36*
G01X3756703Y3034570D02*
G01X3714707Y3034572D01*
G01X3714707Y3079071D01*
G01X3669708Y3079071D01*
G01X3669708Y3035073D01*
G01X3628705Y3034570D01*
G01X3623704Y3039571D01*
G01X3623704Y3154570D01*
G01X3628705Y3159571D01*
G01X3756703Y3159571D01*
G01X3761704Y3154570D01*
G01X3761704Y3039571D01*
G01X3756703Y3034570D01*
G37*
G36*
G01X3759700Y2357298D02*
G01X3631702Y2357298D01*
G01X3626701Y2362299D01*
G01X3626701Y2477300D01*
G01X3631702Y2482299D01*
G01X3672705Y2482802D01*
G01X3672705Y2437801D01*
G01X3717704Y2437801D01*
G01X3717704Y2481801D01*
G01X3759700Y2482299D01*
G01X3764702Y2477300D01*
G01X3764702Y2362299D01*
G01X3759700Y2357298D01*
G37*
G36*
G01X3759700Y2572299D02*
G01X3717704Y2572301D01*
G01X3717704Y2616799D01*
G01X3672705Y2616799D01*
G01X3672705Y2572802D01*
G01X3631702Y2572299D01*
G01X3626701Y2577300D01*
G01X3626701Y2692298D01*
G01X3631702Y2697300D01*
G01X3759700Y2697300D01*
G01X3764702Y2692298D01*
G01X3764702Y2577300D01*
G01X3759700Y2572299D01*
G37*
G36*
G01X3919398Y1701300D02*
G01X3919398Y1829298D01*
G01X3924399Y1834299D01*
G01X4039400Y1834299D01*
G01X4044399Y1829298D01*
G01X4044902Y1788295D01*
G01X3999901Y1788295D01*
G01X3999901Y1743296D01*
G01X4043901Y1743296D01*
G01X4044399Y1701300D01*
G01X4039400Y1696298D01*
G01X3924399Y1696298D01*
G01X3919398Y1701300D01*
G37*
G36*
G01X4134399Y1701300D02*
G01X4134401Y1743296D01*
G01X4178899Y1743296D01*
G01X4178899Y1788295D01*
G01X4134902Y1788295D01*
G01X4134399Y1829298D01*
G01X4139400Y1834299D01*
G01X4254398Y1834299D01*
G01X4259400Y1829298D01*
G01X4259400Y1701300D01*
G01X4254398Y1696298D01*
G01X4139400Y1696298D01*
G01X4134399Y1701300D01*
G37*
G36*
G01X3810500Y1709598D02*
G01X3682502Y1709598D01*
G01X3677501Y1714599D01*
G01X3677501Y1829600D01*
G01X3682502Y1834599D01*
G01X3723505Y1835102D01*
G01X3723505Y1790101D01*
G01X3768504Y1790101D01*
G01X3768504Y1834101D01*
G01X3810500Y1834599D01*
G01X3815502Y1829600D01*
G01X3815502Y1714599D01*
G01X3810500Y1709598D01*
G37*
G36*
G01X3810500Y1924599D02*
G01X3768504Y1924601D01*
G01X3768504Y1969099D01*
G01X3723505Y1969099D01*
G01X3723505Y1925102D01*
G01X3682502Y1924599D01*
G01X3677501Y1929600D01*
G01X3677501Y2044598D01*
G01X3682502Y2049600D01*
G01X3810500Y2049600D01*
G01X3815502Y2044598D01*
G01X3815502Y1929600D01*
G01X3810500Y1924599D01*
G37*

G04 Pad Start*
G54D10*
G01X1368298Y1536675D03*
G01X1146302Y1536675D03*
G54D11*
G01X664393Y841451D03*
G01X764418Y841451D03*
G01X864418Y841451D03*
G01X964418Y841451D03*
G01X1064417Y841451D03*
G01X1164417Y841451D03*
G54D12*
G01X1294389Y453949D03*
G01X534396Y453949D03*
G54D13*
G01X698497Y1468901D03*
G54D11*
G01X2638167Y838204D03*
G01X2738192Y838204D03*
G01X2838192Y838204D03*
G01X2938192Y838204D03*
G01X3038192Y838204D03*
G01X3138192Y838204D03*
G54D12*
G01X3268163Y450701D03*
G01X2508170Y450701D03*
G54D14*
G01X4123012Y1332123D03*
G01X4123012Y1542181D03*
G01X3751774Y1322621D03*
G01X3751774Y1532679D03*
G54D15*
G01X2235200Y1117600D03*
G54D11*
G01X1654993Y841451D03*
G01X1755018Y841451D03*
G01X1855018Y841451D03*
G01X1955018Y841451D03*
G01X2055017Y841451D03*
G01X2155017Y841451D03*
G54D12*
G01X2284989Y453949D03*
G01X1524996Y453949D03*
G54D16*
G01X3325698Y1806702D03*
G01X3325698Y2060702D03*
G01X3325698Y2314702D03*
G01X3325698Y2568702D03*
G01X3325698Y2822702D03*
G01X3325698Y3076702D03*
G01X3325698Y3330702D03*
G01X3325698Y3584702D03*
G01X3325698Y3838702D03*
G54D17*
G01X2933700Y1647698D03*
G01X2679700Y1647698D03*
G01X2425700Y1647698D03*
G01X2171700Y1647698D03*
G54D16*
G01X1525702Y1806702D03*
G01X1525702Y2060702D03*
G01X1525702Y2314702D03*
G01X1525702Y2568702D03*
G01X1525702Y2822702D03*
G01X1525702Y3076702D03*
G01X1525702Y3330702D03*
G01X1525702Y3584702D03*
G54D18*
G01X1917700Y1647723D03*
G54D16*
G01X1525702Y3838702D03*
G54D19*
G01X4127500Y889000D03*
G04 Pad End*

M02*

