G04 Layer: InnerLayer2*
G04 EasyEDA Pro v2.2.32.3, 2024-12-28 23:04:40*
G04 Gerber Generator version 0.3*
G04 Scale: 100 percent, Rotated: No, Reflected: No*
G04 Dimensions in millimeters*
G04 Leading zeros omitted, absolute positions, 3 integers and 5 decimals*
%FSLAX35Y35*%
%MOMM*%
%ADD10C,1.8*%
%ADD11R,1.8X1.8*%
%ADD12R,1.5X1.5*%
%ADD13C,1.5*%
%ADD14C,0.61*%
%ADD15C,0.254*%
%ADD16C,0.243*%
G75*


G04 Pad Start*
G54D10*
G01X749300Y3822700D03*
G01X1003300Y3822700D03*
G01X749300Y3568700D03*
G01X1003300Y3568700D03*
G01X749300Y3314700D03*
G01X1003300Y3314700D03*
G01X749300Y3060700D03*
G01X1003300Y3060700D03*
G01X749300Y2806700D03*
G01X1003300Y2806700D03*
G01X749300Y2552700D03*
G01X1003300Y2552700D03*
G01X749300Y2298700D03*
G01X1003300Y2298700D03*
G01X749300Y2044700D03*
G54D11*
G01X1003300Y2044700D03*
G54D12*
G01X4038600Y3962400D03*
G54D13*
G01X4038600Y3708400D03*
G01X4038600Y3454400D03*
G01X4038600Y3200400D03*
G01X4038600Y2946400D03*
G01X4038600Y2692400D03*
G01X4038600Y2438400D03*
G01X4038600Y2184400D03*
G04 Pad End*

G04 Via Start*
G54D14*
G01X1197102Y2247875D03*
G01X1298702Y3111475D03*
G01X1419098Y1587475D03*
G01X1952498Y1054075D03*
G01X3123800Y1037101D03*
G01X2706700Y698500D03*
G01X1257300Y850900D03*
G01X2958700Y1091101D03*
G01X1674017Y2086051D03*
G01X1750217Y2492451D03*
G01X1599418Y1679651D03*
G01X1675618Y2238451D03*
G01X1839900Y952500D03*
G01X1843100Y2857500D03*
G01X2528900Y2501900D03*
G01X1528926Y3467100D03*
G01X3987800Y2311400D03*
G01X2700706Y3028493D03*
G01X3488106Y3841293D03*
G01X1689100Y2705100D03*
G01X2422093Y2280107D03*
G01X2930093Y2788107D03*
G01X3919812Y1643781D03*
G01X2472012Y1948581D03*
G01X1689100Y2552700D03*
G01X2286000Y1955800D03*
G01X2463800Y2209800D03*
G01X1993900Y2349500D03*
G01X2362200Y2489200D03*
G01X2971800Y2895600D03*
G01X2794000Y3022600D03*
G01X2184400Y2235200D03*
G01X1737397Y1728102D03*
G01X797597Y1702702D03*
G01X740593Y968451D03*
G01X2721793Y968451D03*
G01X3213100Y952500D03*
G01X2702968Y2120900D03*
G01X2093368Y2501900D03*
G01X3340100Y1625600D03*
G01X2777263Y2159000D03*
G01X2040663Y2641600D03*
G04 Via End*

G04 Track Start*
G54D15*
G01X1419098Y1587475D02*
G01X1419098Y1866875D01*
G01X1114298Y2171675D01*
G01X952525Y2171675D01*
G01X876325Y2247875D01*
G01X876325Y2425675D01*
G01X749300Y2552700D01*
G01X1674017Y2086051D02*
G01X1750217Y2162251D01*
G01X1750217Y2492451D01*
G01X1528926Y3467100D02*
G01X1300326Y3695700D01*
G01X952500Y3695700D01*
G01X876300Y3619500D01*
G01X876300Y3441700D01*
G01X749300Y3314700D01*
G54D16*
G01X2700706Y3028493D02*
G01X2700706Y3053893D01*
G01X3488106Y3841293D01*
G54D15*
G01X1003300Y2298700D02*
G01X1093102Y2388502D01*
G01X1524902Y2388502D01*
G01X1689100Y2552700D01*
G54D16*
G01X4038600Y3454400D02*
G01X4165600Y3327400D01*
G01X4165600Y2667000D01*
G01X4075798Y2577198D01*
G01X3948798Y2577198D01*
G01X3429000Y2057400D01*
G01X2387600Y2057400D01*
G01X2286000Y1955800D01*
G54D15*
G01X1003300Y2552700D02*
G01X1079500Y2628900D01*
G01X1714500Y2628900D01*
G01X1993900Y2349500D01*
G54D16*
G01X4038600Y2692400D02*
G01X2565400Y2692400D01*
G01X2362200Y2489200D01*
G01X4038600Y3708400D02*
G01X3479800Y3708400D01*
G01X2794000Y3022600D01*
G54D15*
G01X3213100Y952500D02*
G01X3213100Y1054100D01*
G01X3123298Y1143902D01*
G01X2996298Y1143902D01*
G01X2098272Y2041928D01*
G01X2098272Y2397528D01*
G01X2008469Y2487331D01*
G01X2008469Y2563531D01*
G01X1003300Y3568700D01*
G54D16*
G01X2702968Y2120900D02*
G01X2433561Y2390308D01*
G01X2204961Y2390308D01*
G01X2093368Y2501900D01*
G04 Track End*

M02*

