G04 Layer: BottomSolderMaskLayer*
G04 EasyEDA Pro v2.2.32.3, 2024-12-28 23:04:40*
G04 Gerber Generator version 0.3*
G04 Scale: 100 percent, Rotated: No, Reflected: No*
G04 Dimensions in millimeters*
G04 Leading zeros omitted, absolute positions, 3 integers and 5 decimals*
%FSLAX35Y35*%
%MOMM*%
%AMRoundRect*1,1,$1,$2,$3*1,1,$1,$4,$5*1,1,$1,0-$2,0-$3*1,1,$1,0-$4,0-$5*20,1,$1,$2,$3,$4,$5,0*20,1,$1,$4,$5,0-$2,0-$3,0*20,1,$1,0-$2,0-$3,0-$4,0-$5,0*20,1,$1,0-$4,0-$5,$2,$3,0*4,1,4,$2,$3,$4,$5,0-$2,0-$3,0-$4,0-$5,$2,$3,0*%
%ADD10C,1.626*%
%ADD11RoundRect,0.09495X-0.70833X0.67833X0.70833X0.67833*%
%ADD12RoundRect,0.09495X0.70833X-0.67833X-0.70833X-0.67833*%
%ADD13RoundRect,0.09387X-0.57013X0.69237X0.57013X0.69237*%
%ADD14C,1.902*%
%ADD15RoundRect,0.09681X-0.90259X-0.90259X-0.90259X0.90259*%
%ADD16RoundRect,0.0959X0.75305X0.75305X0.75305X-0.75305*%
%ADD17C,1.602*%
%ADD18RoundRect,0.09387X0.57013X-0.69237X-0.57013X-0.69237*%
%ADD19RoundRect,0.09387X0.69237X0.57013X0.69237X-0.57013*%
%ADD20O,0.37003X1.60002*%
%ADD21O,1.60002X0.37003*%
%ADD22RoundRect,0.08906X0.30647X-0.78148X-0.30647X-0.78148*%
%ADD23RoundRect,0.0959X0.75305X-1.00305X-0.75305X-1.00305*%
%ADD24RoundRect,0.0882X0.5069X0.28191X0.5069X-0.28191*%
%ADD25C,0.602*%
G75*


G04 Pad Start*
G54D10*
G01X3416300Y1701800D03*
G01X3615463Y1701800D03*
G01X3416300Y1435100D03*
G01X3617368Y1435100D03*
G54D11*
G01X1512900Y1358900D03*
G01X1712900Y1358900D03*
G01X1512900Y1028700D03*
G01X1712900Y1028700D03*
G54D12*
G01X1522400Y1943100D03*
G01X1322400Y1943100D03*
G54D11*
G01X1335100Y2286000D03*
G01X1535100Y2286000D03*
G01X1335100Y2603500D03*
G01X1535100Y2603500D03*
G54D12*
G01X1560500Y2933700D03*
G01X1360500Y2933700D03*
G54D13*
G01X980603Y1100601D03*
G01X787359Y1100601D03*
G54D14*
G01X749300Y3822700D03*
G01X1003300Y3822700D03*
G01X749300Y3568700D03*
G01X1003300Y3568700D03*
G01X749300Y3314700D03*
G01X1003300Y3314700D03*
G01X749300Y3060700D03*
G01X1003300Y3060700D03*
G01X749300Y2806700D03*
G01X1003300Y2806700D03*
G01X749300Y2552700D03*
G01X1003300Y2552700D03*
G01X749300Y2298700D03*
G01X1003300Y2298700D03*
G01X749300Y2044700D03*
G54D15*
G01X1003300Y2044700D03*
G54D16*
G01X4038600Y3962400D03*
G54D17*
G01X4038600Y3708400D03*
G01X4038600Y3454400D03*
G01X4038600Y3200400D03*
G01X4038600Y2946400D03*
G01X4038600Y2692400D03*
G01X4038600Y2438400D03*
G01X4038600Y2184400D03*
G54D18*
G01X3363900Y3124200D03*
G01X3163900Y3124200D03*
G01X3821932Y2879653D03*
G01X3621932Y2879653D03*
G54D19*
G01X2336800Y1738300D03*
G01X2336800Y1538300D03*
G01X3327400Y2601900D03*
G01X3327400Y2401900D03*
G54D20*
G01X2573706Y2076907D03*
G01X2523693Y2076907D03*
G01X2473706Y2076907D03*
G01X2423693Y2076907D03*
G01X2373706Y2076907D03*
G01X2323694Y2076907D03*
G01X2273706Y2076907D03*
G01X2223694Y2076907D03*
G01X2173707Y2076907D03*
G01X2123694Y2076907D03*
G01X2073707Y2076907D03*
G01X2023694Y2076907D03*
G54D21*
G01X1873707Y2226894D03*
G01X1873707Y2276907D03*
G01X1873707Y2326894D03*
G01X1873707Y2376907D03*
G01X1873707Y2426894D03*
G01X1873707Y2476906D03*
G01X1873707Y2526894D03*
G01X1873707Y2576906D03*
G01X1873707Y2626893D03*
G01X1873707Y2676906D03*
G01X1873707Y2726893D03*
G01X1873707Y2776906D03*
G54D20*
G01X2023694Y2926893D03*
G01X2073707Y2926893D03*
G01X2123694Y2926893D03*
G01X2173707Y2926893D03*
G01X2223694Y2926893D03*
G01X2273706Y2926893D03*
G01X2323694Y2926893D03*
G01X2373706Y2926893D03*
G01X2423693Y2926893D03*
G01X2473706Y2926893D03*
G01X2523693Y2926893D03*
G01X2573706Y2926893D03*
G54D21*
G01X2723693Y2776906D03*
G01X2723693Y2726893D03*
G01X2723693Y2676906D03*
G01X2723693Y2626893D03*
G01X2723693Y2576906D03*
G01X2723693Y2526894D03*
G01X2723693Y2476906D03*
G01X2723693Y2426894D03*
G01X2723693Y2376907D03*
G01X2723693Y2326894D03*
G01X2723693Y2276907D03*
G01X2723693Y2226894D03*
G54D22*
G01X3191693Y3654349D03*
G01X3291718Y3654349D03*
G01X3391718Y3654349D03*
G01X3491718Y3654349D03*
G01X3591717Y3654349D03*
G01X3691717Y3654349D03*
G54D23*
G01X3821689Y4041851D03*
G01X3061696Y4041851D03*
G54D24*
G01X749160Y1631709D03*
G01X749160Y1441691D03*
G01X1003440Y1441691D03*
G01X1003440Y1536687D03*
G01X1003440Y1631709D03*
G54D25*
G01X2907900Y1040301D03*
G01X2666600Y1037101D03*
G01X2793600Y1038701D03*
G04 Pad End*

M02*

