G04 EAGLE Gerber X2 export*
%TF.Part,Single*%
%TF.FileFunction,Other,Top Copper*%
%TF.FilePolarity,Positive*%
%TF.GenerationSoftware,Autodesk,EAGLE,9.6.2*%
%TF.CreationDate,2025-02-28T08:43:12Z*%
G75*
%MOMM*%
%FSLAX34Y34*%
%LPD*%
%INTop Copper*%
%AMOC8*
5,1,8,0,0,1.08239X$1,22.5*%
G01*
%ADD10C,1.500000*%
%ADD11R,1.500000X1.500000*%
%ADD12C,1.509000*%
%ADD13C,1.500000*%
%ADD14R,1.100000X1.000000*%
%ADD15R,0.800000X0.800000*%
%ADD16R,0.508000X1.701800*%
%ADD17R,1.193800X2.489200*%
%ADD18R,1.701800X0.508000*%
%ADD19R,2.489200X1.193800*%
%ADD20R,0.450000X0.950000*%
%ADD21R,0.900000X0.800000*%
%ADD22C,0.072500*%
%ADD23C,0.304800*%
%ADD24C,0.254000*%
%ADD25C,0.604000*%
%ADD26C,0.406400*%
%ADD27C,0.508000*%

G36*
X333607Y-4186D02*
X333607Y-4186D01*
X333633Y-4188D01*
X333807Y-4166D01*
X333981Y-4149D01*
X334006Y-4141D01*
X334033Y-4138D01*
X334198Y-4082D01*
X334365Y-4031D01*
X334389Y-4018D01*
X334414Y-4009D01*
X334566Y-3922D01*
X334720Y-3839D01*
X334740Y-3822D01*
X334763Y-3809D01*
X335016Y-3594D01*
X343594Y4984D01*
X343611Y5004D01*
X343631Y5022D01*
X343738Y5160D01*
X343849Y5295D01*
X343861Y5319D01*
X343878Y5340D01*
X343956Y5497D01*
X344038Y5651D01*
X344045Y5677D01*
X344057Y5701D01*
X344103Y5870D01*
X344152Y6037D01*
X344155Y6063D01*
X344162Y6089D01*
X344189Y6420D01*
X344189Y22414D01*
X344189Y22421D01*
X344189Y57767D01*
X344187Y57785D01*
X344189Y57803D01*
X344168Y57985D01*
X344149Y58168D01*
X344144Y58185D01*
X344142Y58203D01*
X344085Y58377D01*
X344031Y58553D01*
X344023Y58568D01*
X344017Y58585D01*
X343927Y58744D01*
X343839Y58907D01*
X343828Y58920D01*
X343819Y58936D01*
X343699Y59076D01*
X343582Y59216D01*
X343568Y59227D01*
X343556Y59241D01*
X343410Y59354D01*
X343268Y59468D01*
X343252Y59477D01*
X343238Y59488D01*
X343073Y59570D01*
X342911Y59654D01*
X342894Y59659D01*
X342878Y59667D01*
X342700Y59715D01*
X342524Y59765D01*
X342506Y59767D01*
X342489Y59771D01*
X342158Y59798D01*
X333965Y59798D01*
X333965Y67355D01*
X333964Y67373D01*
X333965Y67391D01*
X333944Y67573D01*
X333926Y67756D01*
X333920Y67773D01*
X333918Y67791D01*
X333861Y67965D01*
X333807Y68141D01*
X333799Y68157D01*
X333793Y68174D01*
X333718Y68308D01*
X333737Y68346D01*
X333821Y68508D01*
X333826Y68525D01*
X333834Y68541D01*
X333882Y68719D01*
X333932Y68895D01*
X333934Y68913D01*
X333938Y68930D01*
X333965Y69261D01*
X333965Y76818D01*
X342158Y76818D01*
X342176Y76820D01*
X342194Y76818D01*
X342376Y76840D01*
X342559Y76858D01*
X342576Y76863D01*
X342593Y76865D01*
X342768Y76922D01*
X342944Y76976D01*
X342959Y76984D01*
X342976Y76990D01*
X343136Y77080D01*
X343298Y77168D01*
X343311Y77179D01*
X343327Y77188D01*
X343466Y77308D01*
X343607Y77425D01*
X343618Y77439D01*
X343632Y77451D01*
X343744Y77596D01*
X343859Y77739D01*
X343867Y77755D01*
X343878Y77769D01*
X343960Y77934D01*
X344045Y78097D01*
X344050Y78114D01*
X344058Y78130D01*
X344105Y78308D01*
X344156Y78483D01*
X344158Y78501D01*
X344162Y78518D01*
X344189Y78849D01*
X344189Y109583D01*
X344188Y109591D01*
X344189Y109597D01*
X344188Y109606D01*
X344189Y109619D01*
X344168Y109801D01*
X344149Y109984D01*
X344144Y110001D01*
X344142Y110019D01*
X344085Y110192D01*
X344031Y110369D01*
X344023Y110384D01*
X344017Y110401D01*
X343927Y110562D01*
X343839Y110723D01*
X343828Y110736D01*
X343819Y110752D01*
X343699Y110892D01*
X343582Y111032D01*
X343568Y111043D01*
X343556Y111057D01*
X343410Y111170D01*
X343268Y111284D01*
X343252Y111293D01*
X343238Y111304D01*
X343072Y111386D01*
X342911Y111470D01*
X342894Y111475D01*
X342878Y111483D01*
X342700Y111531D01*
X342524Y111581D01*
X342506Y111583D01*
X342489Y111587D01*
X342158Y111614D01*
X333965Y111614D01*
X333965Y119171D01*
X333964Y119189D01*
X333965Y119207D01*
X333944Y119389D01*
X333926Y119572D01*
X333920Y119589D01*
X333918Y119607D01*
X333861Y119781D01*
X333807Y119957D01*
X333799Y119973D01*
X333793Y119990D01*
X333718Y120124D01*
X333737Y120162D01*
X333821Y120324D01*
X333826Y120341D01*
X333834Y120357D01*
X333882Y120535D01*
X333932Y120711D01*
X333934Y120729D01*
X333938Y120746D01*
X333965Y121077D01*
X333965Y128634D01*
X342158Y128634D01*
X342176Y128636D01*
X342194Y128634D01*
X342376Y128656D01*
X342559Y128674D01*
X342576Y128679D01*
X342593Y128681D01*
X342768Y128738D01*
X342944Y128792D01*
X342959Y128800D01*
X342976Y128806D01*
X343136Y128896D01*
X343298Y128984D01*
X343311Y128995D01*
X343327Y129004D01*
X343466Y129124D01*
X343607Y129241D01*
X343618Y129255D01*
X343632Y129267D01*
X343744Y129412D01*
X343859Y129555D01*
X343867Y129571D01*
X343878Y129585D01*
X343960Y129750D01*
X344045Y129913D01*
X344050Y129930D01*
X344058Y129946D01*
X344105Y130124D01*
X344156Y130299D01*
X344158Y130317D01*
X344162Y130334D01*
X344189Y130665D01*
X344189Y329579D01*
X344189Y329584D01*
X344189Y353580D01*
X344186Y353607D01*
X344188Y353633D01*
X344166Y353807D01*
X344149Y353981D01*
X344141Y354006D01*
X344138Y354033D01*
X344082Y354198D01*
X344031Y354365D01*
X344018Y354389D01*
X344009Y354414D01*
X343922Y354566D01*
X343839Y354720D01*
X343822Y354740D01*
X343809Y354763D01*
X343594Y355016D01*
X331016Y367594D01*
X330996Y367611D01*
X330978Y367631D01*
X330840Y367738D01*
X330705Y367849D01*
X330681Y367861D01*
X330660Y367878D01*
X330503Y367956D01*
X330349Y368038D01*
X330324Y368045D01*
X330299Y368057D01*
X330130Y368103D01*
X329963Y368152D01*
X329937Y368155D01*
X329911Y368162D01*
X329580Y368189D01*
X305586Y368189D01*
X305579Y368189D01*
X86421Y368189D01*
X86416Y368189D01*
X18420Y368189D01*
X18393Y368186D01*
X18367Y368188D01*
X18193Y368166D01*
X18019Y368149D01*
X17994Y368141D01*
X17967Y368138D01*
X17802Y368082D01*
X17635Y368031D01*
X17611Y368018D01*
X17586Y368009D01*
X17434Y367922D01*
X17280Y367839D01*
X17260Y367822D01*
X17237Y367809D01*
X16984Y367594D01*
X13187Y363797D01*
X13181Y363790D01*
X13174Y363784D01*
X13054Y363634D01*
X12931Y363485D01*
X12927Y363477D01*
X12922Y363470D01*
X12833Y363300D01*
X12743Y363129D01*
X12740Y363121D01*
X12736Y363113D01*
X12683Y362928D01*
X12628Y362744D01*
X12627Y362735D01*
X12625Y362726D01*
X12609Y362535D01*
X12592Y362343D01*
X12593Y362334D01*
X12592Y362325D01*
X12614Y362135D01*
X12635Y361942D01*
X12638Y361934D01*
X12639Y361925D01*
X12698Y361743D01*
X12757Y361558D01*
X12761Y361551D01*
X12764Y361542D01*
X12859Y361374D01*
X12951Y361206D01*
X12957Y361199D01*
X12962Y361192D01*
X13088Y361046D01*
X13212Y360899D01*
X13219Y360894D01*
X13225Y360887D01*
X13376Y360769D01*
X13528Y360650D01*
X13536Y360645D01*
X13543Y360640D01*
X13715Y360554D01*
X13887Y360467D01*
X13895Y360465D01*
X13903Y360461D01*
X14089Y360411D01*
X14275Y360359D01*
X14284Y360358D01*
X14292Y360356D01*
X14623Y360329D01*
X17298Y360329D01*
X17298Y352772D01*
X17300Y352754D01*
X17299Y352737D01*
X17320Y352554D01*
X17338Y352371D01*
X17344Y352354D01*
X17346Y352337D01*
X17403Y352162D01*
X17456Y351987D01*
X17465Y351971D01*
X17471Y351954D01*
X17546Y351820D01*
X17527Y351782D01*
X17443Y351619D01*
X17438Y351602D01*
X17430Y351586D01*
X17382Y351408D01*
X17332Y351232D01*
X17330Y351215D01*
X17326Y351197D01*
X17298Y350867D01*
X17298Y343310D01*
X7502Y343310D01*
X6854Y343483D01*
X6725Y343542D01*
X6595Y343609D01*
X6542Y343624D01*
X6491Y343647D01*
X6349Y343680D01*
X6208Y343720D01*
X6153Y343725D01*
X6099Y343737D01*
X5953Y343741D01*
X5807Y343753D01*
X5752Y343747D01*
X5696Y343748D01*
X5552Y343723D01*
X5407Y343706D01*
X5354Y343689D01*
X5300Y343680D01*
X5163Y343627D01*
X5024Y343581D01*
X4976Y343554D01*
X4924Y343534D01*
X4801Y343455D01*
X4674Y343383D01*
X4632Y343347D01*
X4585Y343317D01*
X4479Y343216D01*
X4369Y343120D01*
X4335Y343077D01*
X4295Y343038D01*
X4212Y342918D01*
X4122Y342802D01*
X4098Y342753D01*
X4066Y342707D01*
X4008Y342573D01*
X3943Y342442D01*
X3929Y342388D01*
X3907Y342337D01*
X3876Y342194D01*
X3838Y342053D01*
X3833Y341990D01*
X3823Y341943D01*
X3822Y341859D01*
X3811Y341722D01*
X3811Y313586D01*
X3811Y313579D01*
X3811Y310100D01*
X3825Y309955D01*
X3832Y309809D01*
X3845Y309755D01*
X3851Y309700D01*
X3893Y309560D01*
X3929Y309418D01*
X3953Y309368D01*
X3969Y309315D01*
X4038Y309186D01*
X4101Y309054D01*
X4134Y309009D01*
X4161Y308961D01*
X4254Y308848D01*
X4342Y308731D01*
X4383Y308694D01*
X4418Y308651D01*
X4532Y308560D01*
X4641Y308462D01*
X4689Y308434D01*
X4732Y308399D01*
X4861Y308332D01*
X4988Y308257D01*
X5040Y308239D01*
X5089Y308214D01*
X5230Y308173D01*
X5368Y308125D01*
X5423Y308118D01*
X5476Y308102D01*
X5622Y308090D01*
X5767Y308070D01*
X5822Y308074D01*
X5878Y308069D01*
X6022Y308086D01*
X6169Y308095D01*
X6222Y308110D01*
X6277Y308116D01*
X6416Y308162D01*
X6558Y308199D01*
X6615Y308226D01*
X6660Y308241D01*
X6733Y308282D01*
X6854Y308340D01*
X7502Y308513D01*
X17298Y308513D01*
X17298Y300956D01*
X17300Y300938D01*
X17299Y300921D01*
X17320Y300738D01*
X17338Y300555D01*
X17344Y300538D01*
X17346Y300521D01*
X17403Y300346D01*
X17456Y300171D01*
X17465Y300155D01*
X17471Y300138D01*
X17546Y300004D01*
X17527Y299966D01*
X17443Y299803D01*
X17438Y299786D01*
X17430Y299770D01*
X17382Y299592D01*
X17332Y299416D01*
X17330Y299399D01*
X17326Y299381D01*
X17298Y299051D01*
X17298Y290084D01*
X17277Y290004D01*
X17226Y289828D01*
X17225Y289810D01*
X17220Y289793D01*
X17193Y289462D01*
X17193Y282293D01*
X17195Y282275D01*
X17193Y282257D01*
X17215Y282075D01*
X17233Y281892D01*
X17238Y281875D01*
X17240Y281857D01*
X17297Y281683D01*
X17351Y281507D01*
X17360Y281492D01*
X17365Y281475D01*
X17441Y281340D01*
X17422Y281302D01*
X17338Y281140D01*
X17333Y281123D01*
X17325Y281107D01*
X17277Y280929D01*
X17226Y280753D01*
X17225Y280735D01*
X17220Y280718D01*
X17193Y280387D01*
X17193Y272830D01*
X7396Y272830D01*
X6690Y273020D01*
X6595Y273069D01*
X6542Y273084D01*
X6491Y273107D01*
X6348Y273140D01*
X6208Y273180D01*
X6153Y273185D01*
X6099Y273197D01*
X5952Y273201D01*
X5806Y273213D01*
X5751Y273207D01*
X5696Y273208D01*
X5552Y273183D01*
X5407Y273166D01*
X5354Y273149D01*
X5299Y273140D01*
X5163Y273087D01*
X5024Y273042D01*
X4976Y273014D01*
X4924Y272994D01*
X4801Y272916D01*
X4673Y272844D01*
X4631Y272808D01*
X4585Y272778D01*
X4479Y272676D01*
X4368Y272581D01*
X4335Y272537D01*
X4295Y272498D01*
X4211Y272378D01*
X4122Y272262D01*
X4097Y272213D01*
X4066Y272167D01*
X4008Y272033D01*
X3942Y271902D01*
X3928Y271848D01*
X3906Y271798D01*
X3876Y271655D01*
X3838Y271513D01*
X3833Y271450D01*
X3823Y271404D01*
X3822Y271320D01*
X3811Y271182D01*
X3811Y239682D01*
X3825Y239536D01*
X3832Y239390D01*
X3845Y239336D01*
X3851Y239281D01*
X3894Y239141D01*
X3929Y238999D01*
X3953Y238949D01*
X3969Y238896D01*
X4038Y238768D01*
X4101Y238635D01*
X4134Y238591D01*
X4161Y238542D01*
X4254Y238430D01*
X4342Y238312D01*
X4383Y238275D01*
X4418Y238233D01*
X4532Y238141D01*
X4641Y238043D01*
X4689Y238015D01*
X4732Y237981D01*
X4862Y237913D01*
X4988Y237839D01*
X5040Y237821D01*
X5089Y237795D01*
X5230Y237755D01*
X5368Y237706D01*
X5423Y237699D01*
X5476Y237684D01*
X5622Y237672D01*
X5767Y237652D01*
X5822Y237655D01*
X5878Y237651D01*
X6023Y237668D01*
X6169Y237677D01*
X6223Y237691D01*
X6277Y237698D01*
X6417Y237743D01*
X6558Y237781D01*
X6615Y237808D01*
X6660Y237823D01*
X6707Y237849D01*
X7396Y238034D01*
X17193Y238034D01*
X17193Y230477D01*
X17195Y230459D01*
X17193Y230441D01*
X17215Y230259D01*
X17233Y230076D01*
X17238Y230059D01*
X17240Y230041D01*
X17297Y229867D01*
X17351Y229691D01*
X17360Y229676D01*
X17365Y229659D01*
X17441Y229524D01*
X17422Y229486D01*
X17338Y229324D01*
X17333Y229307D01*
X17325Y229291D01*
X17277Y229113D01*
X17226Y228937D01*
X17225Y228919D01*
X17220Y228902D01*
X17193Y228571D01*
X17193Y219850D01*
X17134Y219736D01*
X17129Y219719D01*
X17121Y219703D01*
X17073Y219524D01*
X17022Y219349D01*
X17021Y219331D01*
X17016Y219314D01*
X16989Y218983D01*
X16989Y211485D01*
X16991Y211467D01*
X16990Y211449D01*
X17011Y211267D01*
X17029Y211084D01*
X17034Y211067D01*
X17036Y211049D01*
X17093Y210875D01*
X17147Y210699D01*
X17156Y210683D01*
X17161Y210666D01*
X17237Y210532D01*
X17218Y210494D01*
X17134Y210332D01*
X17129Y210315D01*
X17121Y210299D01*
X17073Y210121D01*
X17022Y209945D01*
X17021Y209927D01*
X17016Y209910D01*
X16989Y209579D01*
X16989Y202022D01*
X7192Y202022D01*
X6368Y202243D01*
X6287Y202256D01*
X6208Y202279D01*
X6088Y202289D01*
X5970Y202308D01*
X5888Y202305D01*
X5806Y202312D01*
X5688Y202298D01*
X5568Y202294D01*
X5488Y202275D01*
X5407Y202265D01*
X5293Y202228D01*
X5176Y202200D01*
X5102Y202166D01*
X5024Y202140D01*
X4919Y202081D01*
X4811Y202031D01*
X4745Y201983D01*
X4673Y201942D01*
X4583Y201864D01*
X4486Y201794D01*
X4431Y201733D01*
X4368Y201679D01*
X4295Y201585D01*
X4214Y201496D01*
X4172Y201426D01*
X4122Y201361D01*
X4068Y201254D01*
X4007Y201152D01*
X3979Y201074D01*
X3942Y201001D01*
X3911Y200885D01*
X3871Y200772D01*
X3859Y200691D01*
X3838Y200612D01*
X3825Y200460D01*
X3813Y200374D01*
X3815Y200334D01*
X3811Y200281D01*
X3811Y168967D01*
X3819Y168885D01*
X3817Y168803D01*
X3839Y168685D01*
X3851Y168566D01*
X3875Y168487D01*
X3889Y168407D01*
X3934Y168296D01*
X3969Y168181D01*
X4008Y168109D01*
X4038Y168033D01*
X4104Y167932D01*
X4161Y167827D01*
X4213Y167764D01*
X4258Y167695D01*
X4342Y167610D01*
X4418Y167518D01*
X4482Y167466D01*
X4540Y167408D01*
X4639Y167340D01*
X4732Y167265D01*
X4805Y167228D01*
X4873Y167181D01*
X4983Y167135D01*
X5089Y167080D01*
X5168Y167057D01*
X5244Y167025D01*
X5361Y167002D01*
X5476Y166969D01*
X5558Y166962D01*
X5639Y166946D01*
X5758Y166945D01*
X5878Y166936D01*
X5959Y166945D01*
X6041Y166945D01*
X6191Y166973D01*
X6277Y166983D01*
X6316Y166995D01*
X6368Y167005D01*
X7192Y167226D01*
X16989Y167226D01*
X16989Y159669D01*
X16991Y159651D01*
X16990Y159633D01*
X17011Y159451D01*
X17029Y159268D01*
X17034Y159251D01*
X17036Y159233D01*
X17093Y159059D01*
X17147Y158883D01*
X17156Y158867D01*
X17161Y158850D01*
X17237Y158716D01*
X17217Y158677D01*
X17134Y158516D01*
X17129Y158499D01*
X17121Y158483D01*
X17073Y158305D01*
X17022Y158129D01*
X17021Y158111D01*
X17016Y158094D01*
X16989Y157763D01*
X16989Y150206D01*
X7193Y150206D01*
X6368Y150427D01*
X6287Y150440D01*
X6208Y150463D01*
X6089Y150473D01*
X5971Y150492D01*
X5889Y150489D01*
X5807Y150496D01*
X5688Y150482D01*
X5569Y150478D01*
X5489Y150459D01*
X5407Y150449D01*
X5293Y150412D01*
X5177Y150384D01*
X5102Y150350D01*
X5024Y150324D01*
X4920Y150265D01*
X4812Y150215D01*
X4745Y150167D01*
X4674Y150126D01*
X4583Y150048D01*
X4487Y149977D01*
X4431Y149917D01*
X4369Y149863D01*
X4296Y149769D01*
X4215Y149680D01*
X4173Y149610D01*
X4122Y149545D01*
X4069Y149438D01*
X4007Y149335D01*
X3980Y149258D01*
X3943Y149184D01*
X3912Y149069D01*
X3872Y148956D01*
X3860Y148875D01*
X3838Y148796D01*
X3826Y148644D01*
X3813Y148558D01*
X3816Y148517D01*
X3811Y148465D01*
X3811Y130420D01*
X3814Y130393D01*
X3812Y130367D01*
X3834Y130192D01*
X3851Y130019D01*
X3859Y129994D01*
X3862Y129967D01*
X3918Y129802D01*
X3969Y129635D01*
X3982Y129611D01*
X3991Y129586D01*
X4078Y129434D01*
X4161Y129280D01*
X4178Y129260D01*
X4191Y129237D01*
X4406Y128984D01*
X19237Y114153D01*
X19251Y114141D01*
X19263Y114128D01*
X19407Y114014D01*
X19549Y113898D01*
X19564Y113889D01*
X19579Y113878D01*
X19743Y113795D01*
X19904Y113709D01*
X19921Y113704D01*
X19937Y113696D01*
X20115Y113646D01*
X20290Y113594D01*
X20308Y113593D01*
X20325Y113588D01*
X20509Y113574D01*
X20691Y113558D01*
X20709Y113560D01*
X20727Y113558D01*
X20909Y113581D01*
X21092Y113601D01*
X21109Y113607D01*
X21126Y113609D01*
X21300Y113667D01*
X21475Y113723D01*
X21491Y113731D01*
X21508Y113737D01*
X21667Y113829D01*
X21828Y113918D01*
X21841Y113929D01*
X21857Y113938D01*
X22110Y114153D01*
X27646Y119689D01*
X32990Y114345D01*
X33004Y114334D01*
X33015Y114321D01*
X33159Y114207D01*
X33301Y114090D01*
X33317Y114082D01*
X33331Y114071D01*
X33495Y113988D01*
X33657Y113902D01*
X33674Y113897D01*
X33690Y113889D01*
X33839Y113847D01*
X33852Y113808D01*
X33907Y113633D01*
X33916Y113617D01*
X33922Y113600D01*
X34014Y113441D01*
X34102Y113280D01*
X34114Y113267D01*
X34123Y113251D01*
X34337Y112998D01*
X39681Y107655D01*
X34144Y102118D01*
X34133Y102104D01*
X34120Y102093D01*
X34006Y101949D01*
X33889Y101807D01*
X33881Y101791D01*
X33870Y101777D01*
X33786Y101612D01*
X33701Y101451D01*
X33696Y101434D01*
X33688Y101418D01*
X33638Y101240D01*
X33586Y101065D01*
X33584Y101047D01*
X33580Y101030D01*
X33566Y100847D01*
X33550Y100664D01*
X33552Y100646D01*
X33550Y100628D01*
X33573Y100447D01*
X33593Y100264D01*
X33598Y100247D01*
X33601Y100229D01*
X33660Y100053D01*
X33715Y99880D01*
X33723Y99864D01*
X33729Y99847D01*
X33821Y99688D01*
X33909Y99527D01*
X33921Y99514D01*
X33930Y99498D01*
X34144Y99245D01*
X52402Y80988D01*
X52406Y80983D01*
X70245Y63144D01*
X70259Y63133D01*
X70270Y63119D01*
X70414Y63006D01*
X70556Y62889D01*
X70572Y62881D01*
X70586Y62870D01*
X70751Y62786D01*
X70912Y62701D01*
X70929Y62696D01*
X70945Y62688D01*
X71123Y62638D01*
X71298Y62586D01*
X71316Y62584D01*
X71333Y62580D01*
X71516Y62566D01*
X71699Y62550D01*
X71717Y62551D01*
X71734Y62550D01*
X71916Y62573D01*
X72099Y62593D01*
X72116Y62598D01*
X72134Y62601D01*
X72307Y62659D01*
X72483Y62714D01*
X72499Y62723D01*
X72516Y62729D01*
X72675Y62821D01*
X72835Y62909D01*
X72849Y62921D01*
X72864Y62930D01*
X73117Y63144D01*
X78654Y68681D01*
X83998Y63338D01*
X84012Y63326D01*
X84023Y63313D01*
X84167Y63199D01*
X84309Y63083D01*
X84325Y63074D01*
X84339Y63063D01*
X84503Y62980D01*
X84665Y62894D01*
X84682Y62889D01*
X84698Y62881D01*
X84846Y62839D01*
X84860Y62800D01*
X84915Y62625D01*
X84924Y62609D01*
X84930Y62592D01*
X85021Y62433D01*
X85110Y62272D01*
X85121Y62259D01*
X85130Y62243D01*
X85345Y61990D01*
X90689Y56647D01*
X85152Y51110D01*
X85141Y51096D01*
X85127Y51084D01*
X85013Y50940D01*
X84897Y50798D01*
X84889Y50783D01*
X84877Y50769D01*
X84793Y50603D01*
X84708Y50443D01*
X84703Y50426D01*
X84695Y50410D01*
X84646Y50232D01*
X84593Y50057D01*
X84592Y50039D01*
X84587Y50022D01*
X84574Y49839D01*
X84557Y49656D01*
X84559Y49638D01*
X84558Y49620D01*
X84581Y49438D01*
X84600Y49255D01*
X84606Y49238D01*
X84608Y49221D01*
X84666Y49047D01*
X84722Y48872D01*
X84731Y48856D01*
X84736Y48839D01*
X84828Y48680D01*
X84917Y48519D01*
X84928Y48506D01*
X84937Y48490D01*
X85152Y48237D01*
X136983Y-3594D01*
X137004Y-3611D01*
X137021Y-3631D01*
X137159Y-3738D01*
X137294Y-3849D01*
X137318Y-3861D01*
X137339Y-3878D01*
X137496Y-3956D01*
X137650Y-4038D01*
X137676Y-4045D01*
X137700Y-4057D01*
X137869Y-4103D01*
X138036Y-4152D01*
X138063Y-4155D01*
X138089Y-4162D01*
X138419Y-4189D01*
X333580Y-4189D01*
X333607Y-4186D01*
G37*
%LPC*%
G36*
X155486Y84693D02*
X155486Y84693D01*
X154593Y85586D01*
X154593Y85709D01*
X154592Y85717D01*
X154593Y85726D01*
X154572Y85918D01*
X154553Y86109D01*
X154550Y86118D01*
X154549Y86127D01*
X154492Y86306D01*
X154435Y86494D01*
X154430Y86502D01*
X154428Y86511D01*
X154335Y86679D01*
X154243Y86848D01*
X154237Y86855D01*
X154233Y86863D01*
X154108Y87011D01*
X153985Y87157D01*
X153978Y87163D01*
X153972Y87170D01*
X153821Y87289D01*
X153671Y87410D01*
X153663Y87414D01*
X153657Y87419D01*
X153485Y87507D01*
X153314Y87595D01*
X153306Y87598D01*
X153298Y87602D01*
X153112Y87654D01*
X152927Y87707D01*
X152918Y87707D01*
X152910Y87710D01*
X152717Y87724D01*
X152526Y87740D01*
X152517Y87739D01*
X152508Y87739D01*
X152315Y87715D01*
X152126Y87693D01*
X152118Y87690D01*
X152109Y87689D01*
X151926Y87627D01*
X151743Y87568D01*
X151735Y87563D01*
X151727Y87561D01*
X151560Y87465D01*
X151393Y87370D01*
X151386Y87364D01*
X151378Y87360D01*
X151125Y87145D01*
X150318Y86338D01*
X141055Y86338D01*
X140162Y87231D01*
X140162Y96494D01*
X141026Y97358D01*
X141078Y97422D01*
X141137Y97479D01*
X141205Y97577D01*
X141281Y97670D01*
X141319Y97742D01*
X141366Y97810D01*
X141413Y97920D01*
X141469Y98025D01*
X141493Y98104D01*
X141525Y98180D01*
X141550Y98296D01*
X141584Y98411D01*
X141592Y98493D01*
X141609Y98573D01*
X141610Y98693D01*
X141621Y98812D01*
X141612Y98894D01*
X141613Y98976D01*
X141590Y99093D01*
X141577Y99212D01*
X141552Y99291D01*
X141537Y99371D01*
X141492Y99482D01*
X141456Y99596D01*
X141416Y99668D01*
X141385Y99744D01*
X141319Y99844D01*
X141261Y99949D01*
X141208Y100011D01*
X141162Y100080D01*
X141078Y100164D01*
X141000Y100256D01*
X140936Y100307D01*
X140878Y100365D01*
X140752Y100452D01*
X140684Y100505D01*
X140648Y100524D01*
X140605Y100554D01*
X140127Y100830D01*
X139654Y101303D01*
X139319Y101882D01*
X139146Y102528D01*
X139146Y104831D01*
X145686Y104831D01*
X145704Y104833D01*
X145722Y104832D01*
X145904Y104853D01*
X146087Y104871D01*
X146104Y104877D01*
X146122Y104879D01*
X146296Y104936D01*
X146472Y104989D01*
X146488Y104998D01*
X146505Y105003D01*
X146665Y105094D01*
X146826Y105181D01*
X146840Y105193D01*
X146855Y105201D01*
X146994Y105322D01*
X147135Y105439D01*
X147136Y105439D01*
X147147Y105453D01*
X147160Y105465D01*
X147273Y105610D01*
X147388Y105753D01*
X147396Y105769D01*
X147407Y105783D01*
X147489Y105948D01*
X147574Y106111D01*
X147578Y106128D01*
X147586Y106144D01*
X147634Y106322D01*
X147685Y106497D01*
X147686Y106515D01*
X147691Y106532D01*
X147718Y106863D01*
X147718Y113404D01*
X150021Y113404D01*
X150667Y113230D01*
X151338Y112843D01*
X151436Y112763D01*
X151444Y112758D01*
X151452Y112753D01*
X151621Y112664D01*
X151792Y112574D01*
X151801Y112571D01*
X151809Y112567D01*
X151993Y112514D01*
X152178Y112459D01*
X152187Y112458D01*
X152196Y112456D01*
X152387Y112440D01*
X152579Y112423D01*
X152588Y112424D01*
X152597Y112423D01*
X152786Y112445D01*
X152979Y112466D01*
X152988Y112469D01*
X152997Y112470D01*
X153180Y112529D01*
X153363Y112587D01*
X153371Y112592D01*
X153380Y112595D01*
X153547Y112689D01*
X153715Y112782D01*
X153722Y112788D01*
X153730Y112793D01*
X153876Y112918D01*
X154022Y113043D01*
X154028Y113050D01*
X154035Y113056D01*
X154151Y113206D01*
X154272Y113358D01*
X154276Y113367D01*
X154282Y113374D01*
X154368Y113546D01*
X154448Y113704D01*
X155486Y114742D01*
X156538Y114742D01*
X156555Y114744D01*
X156573Y114743D01*
X156755Y114764D01*
X156938Y114782D01*
X156955Y114787D01*
X156973Y114789D01*
X157147Y114846D01*
X157323Y114900D01*
X157339Y114909D01*
X157356Y114914D01*
X157516Y115005D01*
X157677Y115092D01*
X157691Y115103D01*
X157706Y115112D01*
X157846Y115232D01*
X157986Y115350D01*
X157998Y115364D01*
X158011Y115375D01*
X158124Y115520D01*
X158239Y115664D01*
X158247Y115679D01*
X158258Y115693D01*
X158340Y115858D01*
X158424Y116021D01*
X158429Y116038D01*
X158437Y116054D01*
X158485Y116232D01*
X158536Y116408D01*
X158537Y116426D01*
X158542Y116443D01*
X158569Y116773D01*
X158569Y133222D01*
X158568Y133231D01*
X158569Y133240D01*
X158548Y133432D01*
X158529Y133623D01*
X158526Y133631D01*
X158525Y133640D01*
X158468Y133822D01*
X158411Y134008D01*
X158406Y134015D01*
X158404Y134024D01*
X158311Y134192D01*
X158219Y134362D01*
X158213Y134368D01*
X158209Y134376D01*
X158084Y134524D01*
X157961Y134671D01*
X157954Y134676D01*
X157948Y134683D01*
X157797Y134803D01*
X157647Y134923D01*
X157640Y134927D01*
X157633Y134933D01*
X157460Y135020D01*
X157290Y135109D01*
X157282Y135111D01*
X157274Y135115D01*
X157088Y135167D01*
X156903Y135220D01*
X156894Y135221D01*
X156886Y135223D01*
X156693Y135237D01*
X156502Y135253D01*
X156493Y135252D01*
X156484Y135253D01*
X156291Y135228D01*
X156102Y135206D01*
X156094Y135203D01*
X156085Y135202D01*
X155902Y135141D01*
X155719Y135081D01*
X155711Y135077D01*
X155703Y135074D01*
X155538Y134979D01*
X155369Y134883D01*
X155362Y134877D01*
X155354Y134873D01*
X155101Y134658D01*
X153292Y132849D01*
X150631Y131747D01*
X149975Y131475D01*
X146385Y131475D01*
X143068Y132849D01*
X140529Y135388D01*
X139155Y138705D01*
X139155Y157523D01*
X139173Y157743D01*
X139173Y170495D01*
X140066Y171388D01*
X156538Y171388D01*
X156555Y171390D01*
X156573Y171388D01*
X156755Y171410D01*
X156938Y171428D01*
X156955Y171433D01*
X156973Y171435D01*
X157147Y171492D01*
X157323Y171546D01*
X157339Y171555D01*
X157356Y171560D01*
X157516Y171651D01*
X157677Y171738D01*
X157691Y171749D01*
X157706Y171758D01*
X157846Y171878D01*
X157986Y171996D01*
X157998Y172010D01*
X158011Y172021D01*
X158123Y172166D01*
X158239Y172309D01*
X158247Y172325D01*
X158258Y172339D01*
X158339Y172503D01*
X158424Y172667D01*
X158429Y172684D01*
X158437Y172700D01*
X158485Y172878D01*
X158536Y173054D01*
X158537Y173071D01*
X158542Y173089D01*
X158569Y173419D01*
X158569Y176278D01*
X158566Y176305D01*
X158568Y176332D01*
X158546Y176506D01*
X158529Y176679D01*
X158521Y176704D01*
X158518Y176731D01*
X158462Y176897D01*
X158411Y177064D01*
X158398Y177087D01*
X158389Y177113D01*
X158302Y177264D01*
X158219Y177418D01*
X158202Y177438D01*
X158189Y177462D01*
X157974Y177715D01*
X156367Y179322D01*
X156346Y179339D01*
X156328Y179359D01*
X156190Y179466D01*
X156055Y179577D01*
X156031Y179589D01*
X156010Y179606D01*
X155853Y179684D01*
X155699Y179766D01*
X155674Y179773D01*
X155650Y179785D01*
X155480Y179831D01*
X155313Y179880D01*
X155287Y179883D01*
X155261Y179890D01*
X154930Y179917D01*
X134173Y179917D01*
X131440Y182650D01*
X131433Y182655D01*
X131427Y182662D01*
X131278Y182783D01*
X131128Y182905D01*
X131121Y182909D01*
X131114Y182915D01*
X130943Y183003D01*
X130773Y183093D01*
X130764Y183096D01*
X130756Y183100D01*
X130572Y183153D01*
X130387Y183208D01*
X130378Y183209D01*
X130369Y183212D01*
X130178Y183227D01*
X129986Y183245D01*
X129977Y183244D01*
X129968Y183244D01*
X129779Y183222D01*
X129586Y183201D01*
X129577Y183199D01*
X129568Y183198D01*
X129386Y183138D01*
X129202Y183080D01*
X129194Y183075D01*
X129185Y183073D01*
X129017Y182978D01*
X128849Y182885D01*
X128843Y182879D01*
X128835Y182875D01*
X128689Y182749D01*
X128542Y182624D01*
X128537Y182617D01*
X128530Y182612D01*
X128413Y182460D01*
X128293Y182309D01*
X128289Y182301D01*
X128283Y182294D01*
X128198Y182121D01*
X128110Y181950D01*
X128108Y181941D01*
X128104Y181933D01*
X128053Y181745D01*
X128002Y181562D01*
X128002Y181553D01*
X128000Y181544D01*
X127972Y181213D01*
X127972Y179580D01*
X127079Y178686D01*
X110327Y178686D01*
X110319Y178689D01*
X110292Y178691D01*
X110267Y178698D01*
X109936Y178725D01*
X95705Y178725D01*
X92388Y180099D01*
X90516Y181971D01*
X90509Y181976D01*
X90504Y181983D01*
X90354Y182104D01*
X90205Y182226D01*
X90197Y182230D01*
X90190Y182236D01*
X90020Y182324D01*
X89849Y182414D01*
X89840Y182417D01*
X89833Y182421D01*
X89648Y182474D01*
X89463Y182529D01*
X89454Y182530D01*
X89446Y182533D01*
X89255Y182548D01*
X89062Y182566D01*
X89053Y182565D01*
X89044Y182565D01*
X88855Y182543D01*
X88662Y182522D01*
X88653Y182520D01*
X88645Y182519D01*
X88463Y182459D01*
X88278Y182401D01*
X88270Y182396D01*
X88262Y182394D01*
X88095Y182299D01*
X87926Y182206D01*
X87919Y182200D01*
X87911Y182196D01*
X87766Y182071D01*
X87619Y181945D01*
X87613Y181938D01*
X87606Y181933D01*
X87489Y181781D01*
X87369Y181630D01*
X87365Y181622D01*
X87360Y181615D01*
X87274Y181442D01*
X87187Y181271D01*
X87184Y181262D01*
X87180Y181254D01*
X87130Y181068D01*
X87079Y180883D01*
X87078Y180874D01*
X87076Y180865D01*
X87049Y180534D01*
X87049Y170104D01*
X87051Y170078D01*
X87049Y170051D01*
X87071Y169877D01*
X87089Y169704D01*
X87096Y169678D01*
X87100Y169651D01*
X87155Y169486D01*
X87207Y169319D01*
X87220Y169295D01*
X87228Y169270D01*
X87315Y169118D01*
X87399Y168965D01*
X87416Y168944D01*
X87429Y168921D01*
X87644Y168668D01*
X104668Y151644D01*
X104689Y151627D01*
X104706Y151606D01*
X104844Y151499D01*
X104979Y151389D01*
X105003Y151376D01*
X105024Y151360D01*
X105181Y151282D01*
X105335Y151200D01*
X105361Y151192D01*
X105385Y151180D01*
X105554Y151135D01*
X105721Y151085D01*
X105748Y151083D01*
X105773Y151076D01*
X106104Y151049D01*
X111404Y151049D01*
X111422Y151051D01*
X111440Y151049D01*
X111622Y151070D01*
X111805Y151089D01*
X111822Y151094D01*
X111839Y151096D01*
X112014Y151153D01*
X112190Y151207D01*
X112205Y151215D01*
X112222Y151221D01*
X112382Y151311D01*
X112544Y151399D01*
X112557Y151410D01*
X112573Y151419D01*
X112712Y151539D01*
X112853Y151656D01*
X112864Y151670D01*
X112878Y151682D01*
X112990Y151827D01*
X113105Y151970D01*
X113113Y151986D01*
X113124Y152000D01*
X113206Y152165D01*
X113291Y152327D01*
X113296Y152344D01*
X113304Y152360D01*
X113351Y152539D01*
X113402Y152714D01*
X113404Y152732D01*
X113408Y152749D01*
X113435Y153080D01*
X113435Y153305D01*
X113432Y153335D01*
X113434Y153364D01*
X113430Y153400D01*
X113430Y170415D01*
X114323Y171308D01*
X130586Y171308D01*
X131479Y170415D01*
X131479Y157712D01*
X131482Y157681D01*
X131480Y157649D01*
X131485Y157615D01*
X131485Y138705D01*
X130111Y135388D01*
X127572Y132849D01*
X124911Y131747D01*
X124255Y131475D01*
X120665Y131475D01*
X117348Y132849D01*
X114809Y135388D01*
X113435Y138705D01*
X113435Y142920D01*
X113433Y142938D01*
X113435Y142956D01*
X113414Y143138D01*
X113395Y143321D01*
X113390Y143338D01*
X113388Y143355D01*
X113331Y143530D01*
X113277Y143706D01*
X113269Y143721D01*
X113263Y143738D01*
X113173Y143898D01*
X113085Y144060D01*
X113074Y144073D01*
X113065Y144089D01*
X112945Y144228D01*
X112828Y144369D01*
X112814Y144380D01*
X112802Y144394D01*
X112657Y144506D01*
X112514Y144621D01*
X112498Y144629D01*
X112484Y144640D01*
X112319Y144722D01*
X112157Y144807D01*
X112140Y144812D01*
X112124Y144820D01*
X111945Y144867D01*
X111770Y144918D01*
X111752Y144920D01*
X111735Y144924D01*
X111404Y144951D01*
X102737Y144951D01*
X80951Y166737D01*
X80951Y189896D01*
X80949Y189922D01*
X80951Y189949D01*
X80929Y190123D01*
X80911Y190296D01*
X80904Y190322D01*
X80900Y190349D01*
X80845Y190514D01*
X80793Y190681D01*
X80780Y190705D01*
X80772Y190730D01*
X80685Y190882D01*
X80601Y191035D01*
X80584Y191056D01*
X80571Y191079D01*
X80356Y191332D01*
X75722Y195966D01*
X75702Y195983D01*
X75684Y196003D01*
X75546Y196110D01*
X75411Y196221D01*
X75387Y196234D01*
X75366Y196250D01*
X75209Y196328D01*
X75055Y196410D01*
X75030Y196417D01*
X75005Y196429D01*
X74836Y196475D01*
X74669Y196525D01*
X74643Y196527D01*
X74617Y196534D01*
X74286Y196561D01*
X65261Y196561D01*
X65252Y196560D01*
X65243Y196561D01*
X65051Y196540D01*
X64860Y196521D01*
X64852Y196519D01*
X64843Y196518D01*
X64660Y196460D01*
X64475Y196403D01*
X64467Y196399D01*
X64459Y196396D01*
X64290Y196303D01*
X64121Y196211D01*
X64115Y196206D01*
X64107Y196201D01*
X63959Y196076D01*
X63812Y195954D01*
X63807Y195947D01*
X63800Y195941D01*
X63680Y195789D01*
X63560Y195640D01*
X63556Y195632D01*
X63550Y195625D01*
X63462Y195452D01*
X63374Y195283D01*
X63372Y195274D01*
X63368Y195266D01*
X63316Y195080D01*
X63263Y194896D01*
X63262Y194887D01*
X63260Y194878D01*
X63246Y194686D01*
X63230Y194494D01*
X63231Y194486D01*
X63230Y194477D01*
X63254Y194285D01*
X63277Y194094D01*
X63280Y194086D01*
X63281Y194077D01*
X63342Y193895D01*
X63402Y193712D01*
X63406Y193704D01*
X63409Y193695D01*
X63505Y193528D01*
X63600Y193361D01*
X63605Y193354D01*
X63610Y193347D01*
X63825Y193094D01*
X64043Y192875D01*
X64043Y186532D01*
X63571Y186060D01*
X63559Y186046D01*
X63546Y186035D01*
X63432Y185891D01*
X63316Y185749D01*
X63307Y185733D01*
X63296Y185719D01*
X63213Y185555D01*
X63127Y185393D01*
X63122Y185376D01*
X63114Y185360D01*
X63064Y185183D01*
X63012Y185007D01*
X63011Y184989D01*
X63006Y184972D01*
X62992Y184789D01*
X62976Y184606D01*
X62978Y184588D01*
X62976Y184571D01*
X62999Y184388D01*
X63019Y184206D01*
X63025Y184189D01*
X63027Y184171D01*
X63085Y183997D01*
X63141Y183822D01*
X63149Y183806D01*
X63155Y183789D01*
X63246Y183631D01*
X63335Y183470D01*
X63347Y183456D01*
X63356Y183441D01*
X63571Y183188D01*
X64043Y182715D01*
X64043Y176211D01*
X63972Y176079D01*
X63967Y176061D01*
X63959Y176045D01*
X63910Y175869D01*
X63858Y175693D01*
X63856Y175675D01*
X63851Y175657D01*
X63838Y175475D01*
X63821Y175292D01*
X63823Y175274D01*
X63822Y175256D01*
X63845Y175073D01*
X63865Y174891D01*
X63870Y174874D01*
X63872Y174856D01*
X63931Y174682D01*
X63986Y174508D01*
X63995Y174492D01*
X64000Y174475D01*
X64092Y174316D01*
X64181Y174155D01*
X64192Y174141D01*
X64201Y174126D01*
X64416Y173873D01*
X64551Y173738D01*
X64886Y173159D01*
X65059Y172512D01*
X65059Y171669D01*
X54009Y171669D01*
X42959Y171669D01*
X42959Y172512D01*
X43132Y173158D01*
X43563Y173904D01*
X43623Y174038D01*
X43691Y174167D01*
X43706Y174221D01*
X43729Y174271D01*
X43761Y174414D01*
X43802Y174554D01*
X43807Y174610D01*
X43819Y174664D01*
X43823Y174810D01*
X43835Y174956D01*
X43828Y175011D01*
X43830Y175066D01*
X43805Y175210D01*
X43788Y175355D01*
X43771Y175408D01*
X43761Y175463D01*
X43708Y175599D01*
X43663Y175738D01*
X43636Y175787D01*
X43616Y175838D01*
X43537Y175961D01*
X43465Y176089D01*
X43429Y176131D01*
X43399Y176178D01*
X43298Y176283D01*
X43202Y176394D01*
X43158Y176427D01*
X43120Y176467D01*
X42999Y176551D01*
X42884Y176640D01*
X42834Y176665D01*
X42789Y176697D01*
X42654Y176754D01*
X42523Y176820D01*
X42470Y176834D01*
X42419Y176856D01*
X42276Y176886D01*
X42135Y176924D01*
X42072Y176929D01*
X42025Y176939D01*
X41941Y176940D01*
X41804Y176951D01*
X32220Y176951D01*
X32193Y176949D01*
X32167Y176951D01*
X31993Y176929D01*
X31819Y176911D01*
X31794Y176904D01*
X31767Y176900D01*
X31601Y176845D01*
X31434Y176793D01*
X31411Y176780D01*
X31385Y176772D01*
X31234Y176685D01*
X31080Y176601D01*
X31060Y176584D01*
X31037Y176571D01*
X30784Y176356D01*
X30574Y176147D01*
X28904Y175455D01*
X27096Y175455D01*
X25426Y176147D01*
X24147Y177426D01*
X23455Y179096D01*
X23455Y180904D01*
X24147Y182574D01*
X25426Y183853D01*
X27096Y184545D01*
X28904Y184545D01*
X30574Y183853D01*
X30784Y183644D01*
X30804Y183627D01*
X30822Y183606D01*
X30960Y183499D01*
X31095Y183389D01*
X31119Y183376D01*
X31140Y183360D01*
X31297Y183282D01*
X31451Y183200D01*
X31476Y183192D01*
X31500Y183180D01*
X31670Y183135D01*
X31837Y183085D01*
X31863Y183083D01*
X31889Y183076D01*
X32220Y183049D01*
X39736Y183049D01*
X39745Y183050D01*
X39754Y183049D01*
X39945Y183070D01*
X40136Y183089D01*
X40145Y183091D01*
X40154Y183092D01*
X40336Y183150D01*
X40521Y183207D01*
X40529Y183211D01*
X40538Y183214D01*
X40706Y183307D01*
X40875Y183399D01*
X40882Y183404D01*
X40890Y183409D01*
X41037Y183533D01*
X41185Y183656D01*
X41190Y183663D01*
X41197Y183669D01*
X41316Y183820D01*
X41437Y183970D01*
X41441Y183978D01*
X41447Y183985D01*
X41534Y184158D01*
X41623Y184327D01*
X41625Y184336D01*
X41629Y184344D01*
X41681Y184530D01*
X41734Y184714D01*
X41735Y184723D01*
X41737Y184732D01*
X41751Y184925D01*
X41767Y185116D01*
X41766Y185124D01*
X41766Y185133D01*
X41742Y185326D01*
X41720Y185515D01*
X41717Y185524D01*
X41716Y185533D01*
X41655Y185716D01*
X41595Y185898D01*
X41591Y185906D01*
X41588Y185914D01*
X41492Y186080D01*
X41397Y186249D01*
X41391Y186256D01*
X41387Y186263D01*
X41172Y186516D01*
X38652Y189036D01*
X36951Y190737D01*
X36951Y200728D01*
X36937Y200873D01*
X36930Y201019D01*
X36917Y201073D01*
X36911Y201128D01*
X36869Y201268D01*
X36833Y201410D01*
X36809Y201460D01*
X36793Y201513D01*
X36724Y201642D01*
X36661Y201774D01*
X36628Y201818D01*
X36601Y201867D01*
X36508Y201979D01*
X36420Y202097D01*
X36379Y202134D01*
X36344Y202176D01*
X36230Y202268D01*
X36121Y202366D01*
X36073Y202394D01*
X36030Y202429D01*
X35900Y202496D01*
X35774Y202570D01*
X35722Y202589D01*
X35673Y202614D01*
X35532Y202655D01*
X35394Y202703D01*
X35339Y202710D01*
X35286Y202726D01*
X35140Y202738D01*
X34995Y202757D01*
X34940Y202754D01*
X34884Y202759D01*
X34740Y202742D01*
X34593Y202732D01*
X34540Y202718D01*
X34485Y202712D01*
X34346Y202666D01*
X34204Y202629D01*
X34147Y202602D01*
X34102Y202587D01*
X34029Y202546D01*
X33904Y202487D01*
X33400Y202195D01*
X32754Y202022D01*
X22957Y202022D01*
X22957Y209579D01*
X22955Y209597D01*
X22956Y209615D01*
X22935Y209797D01*
X22917Y209980D01*
X22912Y209997D01*
X22910Y210015D01*
X22853Y210189D01*
X22799Y210365D01*
X22790Y210380D01*
X22785Y210397D01*
X22709Y210532D01*
X22728Y210569D01*
X22812Y210732D01*
X22817Y210749D01*
X22825Y210765D01*
X22873Y210943D01*
X22924Y211119D01*
X22925Y211137D01*
X22930Y211154D01*
X22957Y211485D01*
X22957Y220206D01*
X23016Y220320D01*
X23021Y220337D01*
X23029Y220353D01*
X23077Y220531D01*
X23128Y220707D01*
X23129Y220725D01*
X23134Y220742D01*
X23161Y221073D01*
X23161Y226540D01*
X35164Y226540D01*
X35164Y223221D01*
X34991Y222574D01*
X34656Y221995D01*
X34023Y221362D01*
X34012Y221348D01*
X33998Y221337D01*
X33885Y221193D01*
X33768Y221051D01*
X33760Y221035D01*
X33749Y221021D01*
X33665Y220856D01*
X33580Y220695D01*
X33575Y220678D01*
X33566Y220662D01*
X33517Y220485D01*
X33465Y220309D01*
X33463Y220291D01*
X33458Y220274D01*
X33445Y220091D01*
X33428Y219908D01*
X33430Y219890D01*
X33429Y219873D01*
X33452Y219691D01*
X33472Y219508D01*
X33477Y219491D01*
X33480Y219473D01*
X33538Y219300D01*
X33593Y219124D01*
X33602Y219108D01*
X33608Y219092D01*
X33700Y218932D01*
X33788Y218772D01*
X33800Y218758D01*
X33809Y218743D01*
X34023Y218490D01*
X34452Y218061D01*
X34787Y217482D01*
X34960Y216835D01*
X34960Y216175D01*
X34961Y216166D01*
X34960Y216157D01*
X34981Y215965D01*
X35000Y215775D01*
X35002Y215766D01*
X35003Y215757D01*
X35061Y215575D01*
X35118Y215390D01*
X35122Y215382D01*
X35125Y215373D01*
X35218Y215205D01*
X35310Y215036D01*
X35315Y215029D01*
X35320Y215021D01*
X35445Y214873D01*
X35567Y214726D01*
X35574Y214721D01*
X35580Y214714D01*
X35732Y214594D01*
X35881Y214474D01*
X35889Y214470D01*
X35896Y214464D01*
X36069Y214377D01*
X36238Y214288D01*
X36247Y214286D01*
X36255Y214282D01*
X36440Y214230D01*
X36625Y214177D01*
X36634Y214176D01*
X36643Y214174D01*
X36835Y214160D01*
X37027Y214144D01*
X37035Y214145D01*
X37044Y214145D01*
X37236Y214169D01*
X37426Y214191D01*
X37435Y214194D01*
X37444Y214195D01*
X37626Y214256D01*
X37809Y214316D01*
X37817Y214320D01*
X37825Y214323D01*
X37993Y214419D01*
X38160Y214514D01*
X38167Y214520D01*
X38174Y214524D01*
X38427Y214739D01*
X39332Y215644D01*
X40386Y216698D01*
X64664Y216698D01*
X64687Y216700D01*
X64709Y216698D01*
X64886Y216720D01*
X65065Y216738D01*
X65086Y216744D01*
X65109Y216747D01*
X65278Y216803D01*
X65450Y216856D01*
X65470Y216866D01*
X65491Y216873D01*
X65646Y216962D01*
X65804Y217048D01*
X65821Y217062D01*
X65841Y217073D01*
X65976Y217191D01*
X66113Y217305D01*
X66127Y217323D01*
X66144Y217337D01*
X66253Y217479D01*
X66366Y217619D01*
X66376Y217639D01*
X66389Y217657D01*
X66541Y217952D01*
X66876Y218761D01*
X69415Y221300D01*
X72732Y222674D01*
X76322Y222674D01*
X79639Y221300D01*
X82178Y218761D01*
X83552Y215444D01*
X83552Y211854D01*
X82178Y208537D01*
X79639Y205998D01*
X78682Y205602D01*
X78670Y205595D01*
X78657Y205591D01*
X78493Y205500D01*
X78327Y205411D01*
X78317Y205403D01*
X78305Y205396D01*
X78162Y205275D01*
X78017Y205155D01*
X78008Y205145D01*
X77998Y205136D01*
X77882Y204989D01*
X77763Y204842D01*
X77757Y204831D01*
X77748Y204820D01*
X77663Y204653D01*
X77576Y204486D01*
X77572Y204473D01*
X77566Y204461D01*
X77516Y204280D01*
X77463Y204100D01*
X77462Y204086D01*
X77458Y204073D01*
X77444Y203885D01*
X77428Y203698D01*
X77430Y203685D01*
X77429Y203672D01*
X77452Y203484D01*
X77473Y203298D01*
X77477Y203286D01*
X77479Y203272D01*
X77539Y203094D01*
X77596Y202915D01*
X77603Y202903D01*
X77607Y202891D01*
X77701Y202727D01*
X77793Y202564D01*
X77801Y202553D01*
X77808Y202542D01*
X78023Y202289D01*
X80034Y200278D01*
X87213Y193099D01*
X87227Y193087D01*
X87238Y193074D01*
X87383Y192960D01*
X87524Y192843D01*
X87540Y192835D01*
X87554Y192824D01*
X87718Y192741D01*
X87880Y192655D01*
X87897Y192650D01*
X87913Y192642D01*
X88091Y192592D01*
X88266Y192540D01*
X88284Y192538D01*
X88301Y192534D01*
X88484Y192520D01*
X88667Y192504D01*
X88685Y192506D01*
X88703Y192504D01*
X88885Y192527D01*
X89067Y192547D01*
X89084Y192552D01*
X89102Y192555D01*
X89276Y192613D01*
X89451Y192669D01*
X89467Y192677D01*
X89484Y192683D01*
X89643Y192775D01*
X89804Y192863D01*
X89817Y192875D01*
X89833Y192884D01*
X90086Y193099D01*
X92388Y195401D01*
X95705Y196775D01*
X114399Y196775D01*
X114401Y196774D01*
X114432Y196771D01*
X114462Y196763D01*
X114793Y196736D01*
X125325Y196736D01*
X125343Y196738D01*
X125361Y196736D01*
X125543Y196758D01*
X125726Y196776D01*
X125743Y196781D01*
X125761Y196783D01*
X125935Y196840D01*
X126111Y196894D01*
X126127Y196902D01*
X126144Y196908D01*
X126304Y196998D01*
X126465Y197086D01*
X126479Y197097D01*
X126494Y197106D01*
X126633Y197226D01*
X126774Y197343D01*
X126785Y197357D01*
X126799Y197369D01*
X126911Y197514D01*
X127026Y197657D01*
X127035Y197673D01*
X127046Y197687D01*
X127128Y197852D01*
X127212Y198014D01*
X127217Y198031D01*
X127225Y198048D01*
X127273Y198226D01*
X127323Y198401D01*
X127325Y198419D01*
X127329Y198436D01*
X127357Y198767D01*
X127357Y201173D01*
X127355Y201191D01*
X127356Y201208D01*
X127335Y201391D01*
X127317Y201574D01*
X127311Y201591D01*
X127309Y201608D01*
X127252Y201783D01*
X127199Y201958D01*
X127190Y201974D01*
X127185Y201991D01*
X127094Y202151D01*
X127007Y202312D01*
X126995Y202326D01*
X126987Y202342D01*
X126866Y202481D01*
X126749Y202622D01*
X126735Y202633D01*
X126723Y202646D01*
X126578Y202759D01*
X126435Y202874D01*
X126419Y202882D01*
X126405Y202893D01*
X126240Y202975D01*
X126078Y203060D01*
X126061Y203064D01*
X126045Y203072D01*
X125867Y203120D01*
X125691Y203171D01*
X125673Y203172D01*
X125656Y203177D01*
X125325Y203204D01*
X114769Y203204D01*
X114738Y203201D01*
X114706Y203203D01*
X114538Y203181D01*
X114479Y203175D01*
X95705Y203175D01*
X92388Y204549D01*
X89849Y207088D01*
X88475Y210405D01*
X88475Y213995D01*
X89849Y217312D01*
X92388Y219851D01*
X95705Y221225D01*
X109773Y221225D01*
X109799Y221227D01*
X109826Y221225D01*
X110000Y221247D01*
X110062Y221254D01*
X125325Y221254D01*
X125343Y221255D01*
X125361Y221254D01*
X125543Y221275D01*
X125726Y221294D01*
X125743Y221299D01*
X125761Y221301D01*
X125935Y221358D01*
X126111Y221412D01*
X126127Y221420D01*
X126144Y221426D01*
X126304Y221516D01*
X126465Y221603D01*
X126479Y221615D01*
X126494Y221624D01*
X126633Y221744D01*
X126774Y221861D01*
X126785Y221875D01*
X126799Y221887D01*
X126911Y222032D01*
X127026Y222175D01*
X127035Y222191D01*
X127046Y222205D01*
X127128Y222370D01*
X127212Y222532D01*
X127217Y222549D01*
X127225Y222565D01*
X127273Y222743D01*
X127323Y222919D01*
X127325Y222937D01*
X127329Y222954D01*
X127357Y223285D01*
X127357Y226719D01*
X127355Y226737D01*
X127356Y226755D01*
X127335Y226937D01*
X127317Y227120D01*
X127311Y227137D01*
X127309Y227154D01*
X127252Y227329D01*
X127199Y227505D01*
X127190Y227520D01*
X127185Y227537D01*
X127094Y227697D01*
X127007Y227859D01*
X126995Y227872D01*
X126987Y227888D01*
X126866Y228027D01*
X126749Y228168D01*
X126735Y228179D01*
X126723Y228193D01*
X126578Y228305D01*
X126435Y228420D01*
X126419Y228428D01*
X126405Y228439D01*
X126240Y228521D01*
X126078Y228606D01*
X126061Y228611D01*
X126045Y228619D01*
X125867Y228667D01*
X125691Y228717D01*
X125673Y228719D01*
X125656Y228723D01*
X125325Y228750D01*
X114760Y228750D01*
X114728Y228747D01*
X114697Y228749D01*
X114529Y228727D01*
X114508Y228725D01*
X95705Y228725D01*
X92388Y230099D01*
X89849Y232638D01*
X88475Y235955D01*
X88475Y239545D01*
X89849Y242862D01*
X92388Y245401D01*
X95705Y246775D01*
X109394Y246775D01*
X109420Y246777D01*
X109447Y246775D01*
X109621Y246797D01*
X109645Y246800D01*
X126523Y246800D01*
X127417Y245907D01*
X127417Y237922D01*
X127419Y237896D01*
X127417Y237869D01*
X127439Y237695D01*
X127456Y237522D01*
X127464Y237496D01*
X127468Y237470D01*
X127523Y237304D01*
X127575Y237137D01*
X127587Y237113D01*
X127596Y237088D01*
X127683Y236936D01*
X127766Y236783D01*
X127783Y236762D01*
X127797Y236739D01*
X128011Y236486D01*
X130821Y233676D01*
X130828Y233671D01*
X130834Y233664D01*
X130983Y233544D01*
X131133Y233421D01*
X131141Y233417D01*
X131148Y233412D01*
X131320Y233322D01*
X131488Y233233D01*
X131497Y233230D01*
X131505Y233226D01*
X131690Y233173D01*
X131874Y233118D01*
X131883Y233117D01*
X131892Y233115D01*
X132083Y233099D01*
X132275Y233082D01*
X132284Y233083D01*
X132293Y233082D01*
X132482Y233104D01*
X132676Y233125D01*
X132684Y233128D01*
X132693Y233129D01*
X132875Y233188D01*
X133059Y233246D01*
X133067Y233251D01*
X133076Y233254D01*
X133244Y233349D01*
X133412Y233441D01*
X133418Y233447D01*
X133426Y233451D01*
X133572Y233577D01*
X133719Y233702D01*
X133724Y233709D01*
X133731Y233715D01*
X133848Y233866D01*
X133968Y234018D01*
X133972Y234026D01*
X133978Y234033D01*
X134063Y234205D01*
X134151Y234377D01*
X134153Y234385D01*
X134157Y234393D01*
X134207Y234577D01*
X134259Y234765D01*
X134259Y234773D01*
X134262Y234782D01*
X134289Y235113D01*
X134289Y291479D01*
X136521Y293711D01*
X335179Y293711D01*
X337411Y291479D01*
X337411Y186721D01*
X335179Y184489D01*
X213594Y184489D01*
X213590Y184488D01*
X213585Y184489D01*
X213391Y184469D01*
X213193Y184449D01*
X213189Y184448D01*
X213185Y184447D01*
X212997Y184389D01*
X212808Y184331D01*
X212805Y184329D01*
X212800Y184327D01*
X212626Y184232D01*
X212454Y184139D01*
X212451Y184136D01*
X212447Y184134D01*
X212294Y184005D01*
X212145Y183881D01*
X212142Y183878D01*
X212139Y183875D01*
X212014Y183718D01*
X212001Y183703D01*
X211939Y183775D01*
X211811Y183925D01*
X211807Y183928D01*
X211804Y183931D01*
X211649Y184051D01*
X211494Y184173D01*
X211490Y184175D01*
X211486Y184178D01*
X211308Y184266D01*
X211134Y184354D01*
X211130Y184355D01*
X211125Y184357D01*
X210934Y184409D01*
X210745Y184460D01*
X210741Y184461D01*
X210737Y184462D01*
X210406Y184489D01*
X164727Y184489D01*
X164718Y184488D01*
X164709Y184489D01*
X164517Y184468D01*
X164326Y184449D01*
X164317Y184446D01*
X164309Y184445D01*
X164126Y184388D01*
X163941Y184331D01*
X163933Y184326D01*
X163925Y184324D01*
X163756Y184231D01*
X163587Y184139D01*
X163580Y184133D01*
X163572Y184129D01*
X163425Y184004D01*
X163278Y183881D01*
X163272Y183874D01*
X163265Y183868D01*
X163145Y183717D01*
X163025Y183567D01*
X163021Y183560D01*
X163016Y183553D01*
X162928Y183380D01*
X162840Y183210D01*
X162838Y183202D01*
X162833Y183194D01*
X162782Y183008D01*
X162729Y182823D01*
X162728Y182814D01*
X162725Y182806D01*
X162711Y182613D01*
X162696Y182422D01*
X162697Y182413D01*
X162696Y182404D01*
X162720Y182211D01*
X162743Y182022D01*
X162745Y182014D01*
X162746Y182005D01*
X162808Y181822D01*
X162867Y181639D01*
X162872Y181631D01*
X162875Y181623D01*
X162970Y181458D01*
X163065Y181289D01*
X163071Y181282D01*
X163076Y181274D01*
X163290Y181021D01*
X164666Y179645D01*
X164666Y173021D01*
X164668Y173003D01*
X164667Y172985D01*
X164688Y172803D01*
X164706Y172620D01*
X164711Y172603D01*
X164713Y172585D01*
X164770Y172411D01*
X164824Y172235D01*
X164833Y172220D01*
X164838Y172203D01*
X164929Y172042D01*
X165016Y171881D01*
X165027Y171868D01*
X165036Y171852D01*
X165156Y171713D01*
X165274Y171572D01*
X165288Y171561D01*
X165299Y171547D01*
X165445Y171434D01*
X165588Y171320D01*
X165603Y171311D01*
X165617Y171301D01*
X165782Y171219D01*
X165945Y171134D01*
X165962Y171129D01*
X165978Y171121D01*
X166156Y171073D01*
X166332Y171023D01*
X166350Y171021D01*
X166367Y171017D01*
X166697Y170990D01*
X181843Y170990D01*
X182736Y170096D01*
X182736Y157953D01*
X182739Y157922D01*
X182737Y157891D01*
X182759Y157722D01*
X182775Y157562D01*
X182775Y138865D01*
X181401Y135548D01*
X178862Y133009D01*
X175815Y131747D01*
X175545Y131635D01*
X171955Y131635D01*
X168638Y133009D01*
X168134Y133513D01*
X168127Y133519D01*
X168121Y133526D01*
X167972Y133646D01*
X167822Y133768D01*
X167814Y133773D01*
X167807Y133778D01*
X167638Y133866D01*
X167467Y133957D01*
X167458Y133960D01*
X167450Y133964D01*
X167266Y134017D01*
X167081Y134072D01*
X167072Y134073D01*
X167063Y134075D01*
X166872Y134091D01*
X166680Y134108D01*
X166671Y134107D01*
X166662Y134108D01*
X166472Y134086D01*
X166279Y134065D01*
X166271Y134062D01*
X166262Y134061D01*
X166079Y134001D01*
X165896Y133943D01*
X165888Y133939D01*
X165879Y133936D01*
X165711Y133841D01*
X165543Y133748D01*
X165536Y133743D01*
X165529Y133738D01*
X165383Y133613D01*
X165236Y133488D01*
X165231Y133481D01*
X165224Y133475D01*
X165106Y133323D01*
X164987Y133172D01*
X164983Y133164D01*
X164977Y133157D01*
X164891Y132983D01*
X164804Y132813D01*
X164802Y132805D01*
X164798Y132796D01*
X164747Y132606D01*
X164696Y132425D01*
X164696Y132416D01*
X164693Y132408D01*
X164666Y132077D01*
X164666Y116773D01*
X164668Y116756D01*
X164667Y116738D01*
X164688Y116555D01*
X164706Y116373D01*
X164711Y116356D01*
X164713Y116338D01*
X164770Y116164D01*
X164824Y115988D01*
X164833Y115972D01*
X164838Y115955D01*
X164929Y115795D01*
X165016Y115634D01*
X165027Y115620D01*
X165036Y115605D01*
X165157Y115465D01*
X165274Y115325D01*
X165288Y115313D01*
X165299Y115300D01*
X165444Y115187D01*
X165588Y115072D01*
X165603Y115064D01*
X165617Y115053D01*
X165782Y114971D01*
X165945Y114887D01*
X165962Y114882D01*
X165978Y114874D01*
X166156Y114826D01*
X166332Y114775D01*
X166350Y114774D01*
X166367Y114769D01*
X166697Y114742D01*
X167749Y114742D01*
X168642Y113849D01*
X168642Y102586D01*
X167210Y101154D01*
X167199Y101140D01*
X167185Y101128D01*
X167071Y100984D01*
X166955Y100842D01*
X166947Y100827D01*
X166936Y100813D01*
X166852Y100648D01*
X166766Y100487D01*
X166761Y100470D01*
X166753Y100454D01*
X166704Y100276D01*
X166652Y100101D01*
X166650Y100083D01*
X166645Y100066D01*
X166632Y99883D01*
X166615Y99700D01*
X166617Y99682D01*
X166616Y99664D01*
X166639Y99482D01*
X166659Y99299D01*
X166664Y99282D01*
X166666Y99265D01*
X166725Y99091D01*
X166780Y98916D01*
X166789Y98900D01*
X166794Y98883D01*
X166886Y98724D01*
X166975Y98563D01*
X166987Y98550D01*
X166995Y98534D01*
X167210Y98281D01*
X168642Y96849D01*
X168642Y85586D01*
X167749Y84693D01*
X155486Y84693D01*
G37*
%LPD*%
%LPC*%
G36*
X263191Y-65D02*
X263191Y-65D01*
X261698Y554D01*
X255791Y6461D01*
X255773Y6475D01*
X255759Y6492D01*
X255617Y6603D01*
X255479Y6716D01*
X255459Y6727D01*
X255442Y6740D01*
X255281Y6821D01*
X255123Y6905D01*
X255102Y6911D01*
X255082Y6921D01*
X254909Y6969D01*
X254737Y7019D01*
X254715Y7022D01*
X254693Y7027D01*
X254515Y7040D01*
X254337Y7056D01*
X254314Y7053D01*
X254292Y7055D01*
X254115Y7032D01*
X253936Y7012D01*
X253915Y7006D01*
X253892Y7003D01*
X253882Y6999D01*
X250205Y6999D01*
X246872Y8380D01*
X244320Y10931D01*
X242940Y14265D01*
X242940Y17873D01*
X244320Y21207D01*
X246872Y23758D01*
X250205Y25139D01*
X253813Y25139D01*
X257147Y23758D01*
X259698Y21207D01*
X261079Y17873D01*
X261079Y14222D01*
X261067Y14177D01*
X261015Y14005D01*
X261013Y13983D01*
X261007Y13961D01*
X260993Y13782D01*
X260977Y13605D01*
X260979Y13582D01*
X260977Y13560D01*
X261000Y13382D01*
X261018Y13204D01*
X261025Y13183D01*
X261028Y13160D01*
X261085Y12991D01*
X261138Y12820D01*
X261149Y12800D01*
X261156Y12779D01*
X261245Y12623D01*
X261331Y12466D01*
X261346Y12449D01*
X261357Y12430D01*
X261571Y12177D01*
X265089Y8660D01*
X265109Y8643D01*
X265127Y8622D01*
X265264Y8516D01*
X265400Y8405D01*
X265424Y8392D01*
X265445Y8376D01*
X265601Y8298D01*
X265756Y8216D01*
X265782Y8208D01*
X265806Y8196D01*
X265974Y8151D01*
X266142Y8101D01*
X266168Y8099D01*
X266194Y8092D01*
X266525Y8065D01*
X267868Y8065D01*
X267881Y8066D01*
X267895Y8065D01*
X268081Y8086D01*
X268269Y8105D01*
X268281Y8109D01*
X268295Y8110D01*
X268473Y8167D01*
X268653Y8223D01*
X268665Y8229D01*
X268678Y8233D01*
X268842Y8325D01*
X269007Y8415D01*
X269018Y8423D01*
X269029Y8430D01*
X269173Y8552D01*
X269317Y8672D01*
X269325Y8683D01*
X269335Y8691D01*
X269452Y8840D01*
X269569Y8986D01*
X269575Y8998D01*
X269583Y9008D01*
X269668Y9176D01*
X269755Y9343D01*
X269758Y9356D01*
X269764Y9368D01*
X269814Y9550D01*
X269866Y9730D01*
X269867Y9744D01*
X269871Y9757D01*
X269884Y9944D01*
X269899Y10132D01*
X269897Y10145D01*
X269898Y10158D01*
X269874Y10346D01*
X269852Y10531D01*
X269848Y10544D01*
X269846Y10557D01*
X269745Y10873D01*
X268340Y14265D01*
X268340Y17873D01*
X268791Y18962D01*
X268797Y18983D01*
X268807Y19003D01*
X268855Y19176D01*
X268907Y19347D01*
X268909Y19370D01*
X268915Y19391D01*
X268928Y19570D01*
X268945Y19748D01*
X268943Y19770D01*
X268945Y19793D01*
X268922Y19971D01*
X268904Y20149D01*
X268897Y20170D01*
X268894Y20192D01*
X268837Y20362D01*
X268784Y20533D01*
X268773Y20553D01*
X268766Y20574D01*
X268677Y20729D01*
X268591Y20886D01*
X268576Y20903D01*
X268565Y20923D01*
X268350Y21176D01*
X264276Y25250D01*
X264276Y37170D01*
X264275Y37175D01*
X264276Y37179D01*
X264255Y37373D01*
X264236Y37571D01*
X264234Y37575D01*
X264234Y37580D01*
X264176Y37765D01*
X264118Y37956D01*
X264115Y37960D01*
X264114Y37964D01*
X264020Y38136D01*
X263926Y38310D01*
X263923Y38313D01*
X263921Y38317D01*
X263794Y38468D01*
X263668Y38619D01*
X263665Y38622D01*
X263662Y38625D01*
X263507Y38749D01*
X263354Y38871D01*
X263350Y38874D01*
X263347Y38876D01*
X263172Y38966D01*
X262997Y39057D01*
X262993Y39058D01*
X262989Y39060D01*
X262801Y39113D01*
X262610Y39168D01*
X262606Y39169D01*
X262601Y39170D01*
X262409Y39185D01*
X262209Y39201D01*
X262204Y39201D01*
X262200Y39201D01*
X262007Y39178D01*
X261809Y39154D01*
X261805Y39153D01*
X261800Y39152D01*
X261616Y39091D01*
X261426Y39029D01*
X261422Y39027D01*
X261418Y39026D01*
X261248Y38929D01*
X261076Y38832D01*
X261072Y38829D01*
X261068Y38826D01*
X260917Y38695D01*
X260771Y38568D01*
X260768Y38565D01*
X260765Y38562D01*
X260644Y38405D01*
X260524Y38250D01*
X260522Y38246D01*
X260519Y38243D01*
X260368Y37948D01*
X259698Y36331D01*
X257147Y33780D01*
X253813Y32399D01*
X250205Y32399D01*
X246872Y33780D01*
X244320Y36331D01*
X242940Y39665D01*
X242940Y43273D01*
X244234Y46397D01*
X244237Y46410D01*
X244244Y46421D01*
X244296Y46602D01*
X244350Y46782D01*
X244351Y46795D01*
X244355Y46808D01*
X244370Y46997D01*
X244388Y47183D01*
X244387Y47196D01*
X244388Y47210D01*
X244366Y47396D01*
X244346Y47583D01*
X244342Y47596D01*
X244341Y47609D01*
X244283Y47787D01*
X244227Y47968D01*
X244220Y47979D01*
X244216Y47992D01*
X244124Y48156D01*
X244033Y48321D01*
X244025Y48331D01*
X244018Y48343D01*
X243895Y48485D01*
X243774Y48629D01*
X243764Y48637D01*
X243755Y48648D01*
X243607Y48762D01*
X243459Y48880D01*
X243447Y48886D01*
X243437Y48894D01*
X243269Y48978D01*
X243101Y49064D01*
X243088Y49068D01*
X243076Y49074D01*
X242894Y49123D01*
X242714Y49174D01*
X242701Y49175D01*
X242688Y49178D01*
X242357Y49205D01*
X236262Y49205D01*
X236248Y49204D01*
X236235Y49205D01*
X236049Y49184D01*
X235861Y49165D01*
X235848Y49161D01*
X235835Y49160D01*
X235657Y49103D01*
X235476Y49047D01*
X235464Y49041D01*
X235452Y49037D01*
X235288Y48945D01*
X235122Y48855D01*
X235112Y48847D01*
X235100Y48840D01*
X234957Y48717D01*
X234813Y48598D01*
X234805Y48587D01*
X234794Y48579D01*
X234678Y48430D01*
X234561Y48284D01*
X234555Y48272D01*
X234546Y48262D01*
X234461Y48092D01*
X234375Y47927D01*
X234372Y47914D01*
X234365Y47902D01*
X234316Y47720D01*
X234264Y47540D01*
X234263Y47526D01*
X234259Y47513D01*
X234246Y47327D01*
X234231Y47138D01*
X234232Y47125D01*
X234232Y47112D01*
X234256Y46925D01*
X234278Y46739D01*
X234282Y46726D01*
X234284Y46713D01*
X234385Y46397D01*
X235679Y43273D01*
X235679Y39665D01*
X234298Y36331D01*
X231747Y33780D01*
X228413Y32399D01*
X224805Y32399D01*
X221472Y33780D01*
X218920Y36331D01*
X217540Y39665D01*
X217540Y43273D01*
X218920Y46607D01*
X221472Y49158D01*
X224805Y50539D01*
X225745Y50539D01*
X225772Y50541D01*
X225798Y50539D01*
X225972Y50561D01*
X226146Y50579D01*
X226171Y50586D01*
X226198Y50590D01*
X226363Y50645D01*
X226531Y50697D01*
X226554Y50710D01*
X226579Y50718D01*
X226731Y50805D01*
X226885Y50889D01*
X226905Y50906D01*
X226928Y50919D01*
X227181Y51134D01*
X231245Y55198D01*
X231259Y55215D01*
X231276Y55229D01*
X231387Y55371D01*
X231500Y55509D01*
X231511Y55529D01*
X231525Y55546D01*
X231605Y55707D01*
X231689Y55865D01*
X231695Y55886D01*
X231705Y55906D01*
X231753Y56079D01*
X231804Y56251D01*
X231806Y56273D01*
X231812Y56294D01*
X231824Y56473D01*
X231840Y56652D01*
X231838Y56674D01*
X231839Y56696D01*
X231816Y56874D01*
X231797Y57052D01*
X231790Y57073D01*
X231787Y57095D01*
X231686Y57411D01*
X231523Y57804D01*
X231523Y59612D01*
X232215Y61282D01*
X233493Y62561D01*
X235164Y63252D01*
X236972Y63252D01*
X238642Y62561D01*
X239105Y62097D01*
X239126Y62080D01*
X239143Y62060D01*
X239281Y61953D01*
X239417Y61842D01*
X239440Y61830D01*
X239462Y61813D01*
X239618Y61735D01*
X239772Y61654D01*
X239798Y61646D01*
X239822Y61634D01*
X239991Y61589D01*
X240158Y61539D01*
X240185Y61537D01*
X240211Y61530D01*
X240542Y61502D01*
X247674Y61502D01*
X247692Y61504D01*
X247710Y61503D01*
X247892Y61524D01*
X248075Y61542D01*
X248092Y61548D01*
X248109Y61550D01*
X248284Y61607D01*
X248460Y61660D01*
X248475Y61669D01*
X248492Y61675D01*
X248652Y61765D01*
X248814Y61852D01*
X248827Y61864D01*
X248843Y61872D01*
X248982Y61993D01*
X249123Y62110D01*
X249134Y62124D01*
X249148Y62136D01*
X249259Y62280D01*
X249375Y62424D01*
X249383Y62440D01*
X249394Y62454D01*
X249476Y62619D01*
X249561Y62781D01*
X249566Y62798D01*
X249574Y62814D01*
X249621Y62992D01*
X249672Y63168D01*
X249674Y63186D01*
X249678Y63203D01*
X249705Y63534D01*
X249705Y65424D01*
X249703Y65442D01*
X249705Y65460D01*
X249684Y65642D01*
X249665Y65825D01*
X249660Y65842D01*
X249658Y65859D01*
X249601Y66034D01*
X249547Y66210D01*
X249539Y66225D01*
X249533Y66242D01*
X249443Y66402D01*
X249355Y66564D01*
X249344Y66577D01*
X249335Y66593D01*
X249215Y66732D01*
X249098Y66873D01*
X249084Y66884D01*
X249072Y66898D01*
X248927Y67010D01*
X248784Y67125D01*
X248768Y67133D01*
X248754Y67144D01*
X248589Y67226D01*
X248427Y67311D01*
X248410Y67316D01*
X248394Y67324D01*
X248215Y67371D01*
X248040Y67422D01*
X248022Y67424D01*
X248005Y67428D01*
X247674Y67455D01*
X245782Y67455D01*
X244080Y68160D01*
X244020Y68207D01*
X243885Y68317D01*
X243861Y68330D01*
X243840Y68346D01*
X243683Y68424D01*
X243529Y68506D01*
X243504Y68514D01*
X243480Y68526D01*
X243310Y68571D01*
X243143Y68621D01*
X243117Y68623D01*
X243091Y68630D01*
X242760Y68657D01*
X228296Y68657D01*
X228269Y68655D01*
X228243Y68657D01*
X228069Y68635D01*
X227895Y68617D01*
X227870Y68610D01*
X227843Y68606D01*
X227677Y68551D01*
X227510Y68499D01*
X227487Y68486D01*
X227461Y68478D01*
X227310Y68391D01*
X227156Y68307D01*
X227136Y68290D01*
X227113Y68277D01*
X226860Y68062D01*
X226650Y67853D01*
X224980Y67161D01*
X223172Y67161D01*
X221502Y67853D01*
X220524Y68830D01*
X220517Y68836D01*
X220512Y68843D01*
X220362Y68963D01*
X220213Y69086D01*
X220205Y69090D01*
X220198Y69095D01*
X220028Y69184D01*
X219857Y69274D01*
X219848Y69277D01*
X219841Y69281D01*
X219656Y69334D01*
X219471Y69389D01*
X219462Y69390D01*
X219454Y69392D01*
X219263Y69408D01*
X219070Y69425D01*
X219061Y69424D01*
X219052Y69425D01*
X218863Y69403D01*
X218670Y69382D01*
X218661Y69379D01*
X218653Y69378D01*
X218471Y69319D01*
X218286Y69260D01*
X218278Y69256D01*
X218270Y69253D01*
X218103Y69159D01*
X217934Y69066D01*
X217927Y69060D01*
X217919Y69055D01*
X217774Y68930D01*
X217627Y68805D01*
X217621Y68798D01*
X217614Y68792D01*
X217498Y68642D01*
X217377Y68489D01*
X217373Y68481D01*
X217368Y68474D01*
X217283Y68304D01*
X217195Y68130D01*
X217192Y68122D01*
X217188Y68114D01*
X217139Y67928D01*
X217087Y67742D01*
X217086Y67733D01*
X217084Y67725D01*
X217057Y67394D01*
X217057Y52286D01*
X210584Y45814D01*
X210570Y45796D01*
X210553Y45782D01*
X210442Y45641D01*
X210329Y45502D01*
X210318Y45482D01*
X210305Y45465D01*
X210224Y45305D01*
X210140Y45146D01*
X210134Y45125D01*
X210124Y45105D01*
X210077Y44933D01*
X210026Y44761D01*
X210023Y44738D01*
X210018Y44717D01*
X210005Y44539D01*
X209989Y44360D01*
X209992Y44337D01*
X209990Y44315D01*
X210013Y44138D01*
X210033Y43959D01*
X210039Y43938D01*
X210042Y43916D01*
X210144Y43600D01*
X210279Y43273D01*
X210279Y39665D01*
X208898Y36331D01*
X206347Y33780D01*
X203013Y32399D01*
X199405Y32399D01*
X196072Y33780D01*
X193520Y36331D01*
X193359Y36721D01*
X193357Y36725D01*
X193356Y36729D01*
X193262Y36902D01*
X193169Y37076D01*
X193166Y37080D01*
X193164Y37083D01*
X193039Y37234D01*
X192912Y37386D01*
X192909Y37389D01*
X192906Y37393D01*
X192752Y37516D01*
X192600Y37640D01*
X192596Y37642D01*
X192592Y37645D01*
X192418Y37736D01*
X192243Y37827D01*
X192239Y37829D01*
X192235Y37831D01*
X192047Y37885D01*
X191857Y37940D01*
X191852Y37941D01*
X191848Y37942D01*
X191651Y37958D01*
X191456Y37975D01*
X191451Y37974D01*
X191447Y37975D01*
X191252Y37952D01*
X191056Y37930D01*
X191051Y37928D01*
X191047Y37928D01*
X190859Y37867D01*
X190672Y37807D01*
X190669Y37804D01*
X190664Y37803D01*
X190491Y37706D01*
X190321Y37610D01*
X190317Y37607D01*
X190314Y37605D01*
X190165Y37477D01*
X190015Y37348D01*
X190012Y37345D01*
X190009Y37342D01*
X189890Y37189D01*
X189767Y37031D01*
X189765Y37027D01*
X189762Y37024D01*
X189675Y36849D01*
X189586Y36672D01*
X189585Y36667D01*
X189583Y36663D01*
X189532Y36473D01*
X189480Y36283D01*
X189479Y36279D01*
X189478Y36275D01*
X189451Y35944D01*
X189451Y25399D01*
X184974Y20922D01*
X184959Y20904D01*
X184942Y20890D01*
X184832Y20749D01*
X184719Y20610D01*
X184708Y20590D01*
X184694Y20573D01*
X184614Y20412D01*
X184530Y20254D01*
X184524Y20233D01*
X184513Y20213D01*
X184466Y20040D01*
X184415Y19869D01*
X184413Y19846D01*
X184407Y19825D01*
X184395Y19647D01*
X184379Y19468D01*
X184381Y19445D01*
X184380Y19423D01*
X184403Y19247D01*
X184422Y19067D01*
X184429Y19046D01*
X184432Y19024D01*
X184533Y18708D01*
X184879Y17873D01*
X184879Y14265D01*
X183498Y10931D01*
X183083Y10516D01*
X183077Y10509D01*
X183071Y10504D01*
X182951Y10355D01*
X182828Y10205D01*
X182824Y10197D01*
X182818Y10190D01*
X182731Y10021D01*
X182639Y9849D01*
X182637Y9840D01*
X182633Y9833D01*
X182580Y9649D01*
X182525Y9463D01*
X182524Y9454D01*
X182521Y9446D01*
X182506Y9255D01*
X182488Y9062D01*
X182489Y9053D01*
X182489Y9044D01*
X182511Y8855D01*
X182532Y8662D01*
X182534Y8653D01*
X182535Y8645D01*
X182595Y8462D01*
X182653Y8278D01*
X182658Y8270D01*
X182660Y8262D01*
X182755Y8093D01*
X182848Y7926D01*
X182854Y7919D01*
X182858Y7911D01*
X182984Y7766D01*
X183108Y7619D01*
X183116Y7613D01*
X183121Y7606D01*
X183273Y7489D01*
X183424Y7369D01*
X183432Y7365D01*
X183439Y7360D01*
X183613Y7273D01*
X183783Y7187D01*
X183792Y7184D01*
X183800Y7180D01*
X183988Y7130D01*
X184171Y7079D01*
X184180Y7078D01*
X184189Y7076D01*
X184519Y7049D01*
X187036Y7049D01*
X187063Y7051D01*
X187089Y7049D01*
X187263Y7071D01*
X187437Y7089D01*
X187462Y7096D01*
X187489Y7100D01*
X187654Y7155D01*
X187822Y7207D01*
X187845Y7220D01*
X187871Y7228D01*
X188022Y7315D01*
X188176Y7399D01*
X188196Y7416D01*
X188219Y7429D01*
X188472Y7644D01*
X192045Y11216D01*
X192059Y11234D01*
X192076Y11248D01*
X192187Y11389D01*
X192300Y11528D01*
X192311Y11548D01*
X192324Y11565D01*
X192405Y11726D01*
X192489Y11884D01*
X192495Y11905D01*
X192505Y11925D01*
X192553Y12098D01*
X192604Y12269D01*
X192606Y12292D01*
X192612Y12313D01*
X192624Y12492D01*
X192640Y12670D01*
X192638Y12693D01*
X192639Y12715D01*
X192616Y12893D01*
X192597Y13071D01*
X192590Y13092D01*
X192587Y13114D01*
X192485Y13430D01*
X192140Y14265D01*
X192140Y17873D01*
X193520Y21207D01*
X196072Y23758D01*
X199405Y25139D01*
X203013Y25139D01*
X206347Y23758D01*
X208898Y21207D01*
X210279Y17873D01*
X210279Y14265D01*
X208898Y10931D01*
X206347Y8380D01*
X203013Y6999D01*
X199405Y6999D01*
X198570Y7345D01*
X198549Y7352D01*
X198529Y7362D01*
X198357Y7410D01*
X198185Y7462D01*
X198163Y7464D01*
X198141Y7470D01*
X197962Y7483D01*
X197784Y7500D01*
X197762Y7497D01*
X197740Y7499D01*
X197562Y7477D01*
X197384Y7458D01*
X197362Y7451D01*
X197340Y7449D01*
X197171Y7392D01*
X196999Y7338D01*
X196980Y7328D01*
X196959Y7320D01*
X196803Y7231D01*
X196646Y7145D01*
X196629Y7131D01*
X196610Y7119D01*
X196357Y6905D01*
X190403Y951D01*
X142737Y951D01*
X140357Y3332D01*
X140356Y3332D01*
X132951Y10737D01*
X132951Y51780D01*
X132949Y51807D01*
X132951Y51833D01*
X132929Y52007D01*
X132911Y52181D01*
X132904Y52206D01*
X132900Y52233D01*
X132845Y52398D01*
X132793Y52566D01*
X132780Y52589D01*
X132772Y52615D01*
X132685Y52766D01*
X132601Y52920D01*
X132584Y52940D01*
X132571Y52963D01*
X132356Y53216D01*
X132147Y53426D01*
X131455Y55096D01*
X131455Y56904D01*
X132147Y58574D01*
X133426Y59853D01*
X135096Y60545D01*
X136904Y60545D01*
X138574Y59853D01*
X139853Y58574D01*
X140545Y56904D01*
X140545Y55096D01*
X139853Y53426D01*
X139644Y53216D01*
X139627Y53196D01*
X139606Y53178D01*
X139499Y53040D01*
X139389Y52905D01*
X139376Y52881D01*
X139360Y52860D01*
X139282Y52703D01*
X139200Y52549D01*
X139192Y52524D01*
X139180Y52500D01*
X139135Y52330D01*
X139085Y52163D01*
X139083Y52137D01*
X139076Y52111D01*
X139049Y51780D01*
X139049Y49243D01*
X139065Y49075D01*
X139077Y48907D01*
X139085Y48875D01*
X139089Y48842D01*
X139138Y48681D01*
X139182Y48519D01*
X139197Y48489D01*
X139207Y48457D01*
X139287Y48309D01*
X139362Y48159D01*
X139383Y48132D01*
X139399Y48103D01*
X139506Y47974D01*
X139610Y47841D01*
X139635Y47819D01*
X139656Y47794D01*
X139787Y47689D01*
X139915Y47579D01*
X139944Y47562D01*
X139970Y47542D01*
X140119Y47464D01*
X140266Y47382D01*
X140298Y47371D01*
X140327Y47356D01*
X140489Y47310D01*
X140649Y47258D01*
X140682Y47254D01*
X140714Y47245D01*
X140882Y47231D01*
X141049Y47212D01*
X141083Y47215D01*
X141116Y47212D01*
X141282Y47231D01*
X141451Y47246D01*
X141483Y47255D01*
X141515Y47259D01*
X141675Y47311D01*
X141837Y47358D01*
X141867Y47373D01*
X141898Y47384D01*
X142045Y47467D01*
X142194Y47544D01*
X142220Y47565D01*
X142249Y47582D01*
X142376Y47692D01*
X142507Y47798D01*
X142531Y47826D01*
X142553Y47845D01*
X142606Y47913D01*
X142707Y48030D01*
X143839Y49162D01*
X145123Y50095D01*
X146538Y50816D01*
X147985Y51286D01*
X147985Y41862D01*
X147987Y41844D01*
X147985Y41827D01*
X148007Y41644D01*
X148025Y41464D01*
X148018Y41442D01*
X148017Y41424D01*
X148012Y41407D01*
X147985Y41076D01*
X147985Y31652D01*
X146538Y32122D01*
X145123Y32843D01*
X143839Y33776D01*
X142702Y34913D01*
X142611Y35015D01*
X142504Y35144D01*
X142478Y35165D01*
X142456Y35190D01*
X142321Y35291D01*
X142190Y35396D01*
X142161Y35412D01*
X142134Y35432D01*
X141982Y35504D01*
X141833Y35582D01*
X141801Y35591D01*
X141771Y35605D01*
X141607Y35647D01*
X141446Y35693D01*
X141413Y35696D01*
X141381Y35704D01*
X141212Y35712D01*
X141044Y35726D01*
X141012Y35722D01*
X140978Y35724D01*
X140812Y35699D01*
X140645Y35679D01*
X140613Y35669D01*
X140580Y35664D01*
X140422Y35607D01*
X140262Y35554D01*
X140233Y35538D01*
X140202Y35527D01*
X140058Y35439D01*
X139911Y35356D01*
X139886Y35335D01*
X139858Y35318D01*
X139734Y35204D01*
X139606Y35093D01*
X139586Y35067D01*
X139562Y35045D01*
X139463Y34908D01*
X139360Y34775D01*
X139345Y34746D01*
X139325Y34719D01*
X139255Y34565D01*
X139180Y34415D01*
X139172Y34383D01*
X139158Y34352D01*
X139120Y34189D01*
X139076Y34026D01*
X139073Y33989D01*
X139066Y33961D01*
X139063Y33874D01*
X139049Y33695D01*
X139049Y22439D01*
X139050Y22430D01*
X139049Y22421D01*
X139070Y22229D01*
X139089Y22038D01*
X139091Y22030D01*
X139092Y22021D01*
X139150Y21838D01*
X139207Y21653D01*
X139211Y21645D01*
X139214Y21637D01*
X139307Y21468D01*
X139399Y21299D01*
X139404Y21292D01*
X139409Y21284D01*
X139533Y21138D01*
X139656Y20990D01*
X139663Y20984D01*
X139669Y20978D01*
X139820Y20858D01*
X139970Y20738D01*
X139978Y20733D01*
X139985Y20728D01*
X140158Y20640D01*
X140327Y20552D01*
X140336Y20550D01*
X140344Y20546D01*
X140530Y20494D01*
X140714Y20441D01*
X140723Y20440D01*
X140732Y20438D01*
X140925Y20423D01*
X141116Y20408D01*
X141124Y20409D01*
X141133Y20408D01*
X141326Y20432D01*
X141515Y20455D01*
X141524Y20457D01*
X141533Y20459D01*
X141716Y20520D01*
X141898Y20580D01*
X141906Y20584D01*
X141914Y20587D01*
X142080Y20682D01*
X142249Y20777D01*
X142256Y20783D01*
X142263Y20788D01*
X142516Y21002D01*
X145272Y23758D01*
X148605Y25139D01*
X152213Y25139D01*
X155547Y23758D01*
X158098Y21207D01*
X159479Y17873D01*
X159479Y14265D01*
X158098Y10931D01*
X157683Y10516D01*
X157677Y10509D01*
X157671Y10504D01*
X157551Y10355D01*
X157428Y10205D01*
X157424Y10197D01*
X157418Y10190D01*
X157331Y10021D01*
X157239Y9849D01*
X157237Y9840D01*
X157233Y9833D01*
X157180Y9649D01*
X157125Y9463D01*
X157124Y9454D01*
X157121Y9446D01*
X157106Y9255D01*
X157088Y9062D01*
X157089Y9053D01*
X157089Y9044D01*
X157111Y8855D01*
X157132Y8662D01*
X157134Y8653D01*
X157135Y8645D01*
X157195Y8462D01*
X157253Y8278D01*
X157258Y8270D01*
X157260Y8262D01*
X157355Y8093D01*
X157448Y7926D01*
X157454Y7919D01*
X157458Y7911D01*
X157584Y7766D01*
X157708Y7619D01*
X157716Y7613D01*
X157721Y7606D01*
X157873Y7489D01*
X158024Y7369D01*
X158032Y7365D01*
X158039Y7360D01*
X158213Y7273D01*
X158383Y7187D01*
X158392Y7184D01*
X158400Y7180D01*
X158588Y7130D01*
X158771Y7079D01*
X158780Y7078D01*
X158789Y7076D01*
X159119Y7049D01*
X167099Y7049D01*
X167108Y7050D01*
X167117Y7049D01*
X167307Y7069D01*
X167500Y7089D01*
X167508Y7091D01*
X167517Y7092D01*
X167701Y7150D01*
X167885Y7207D01*
X167893Y7211D01*
X167901Y7214D01*
X168070Y7307D01*
X168239Y7399D01*
X168246Y7404D01*
X168254Y7409D01*
X168401Y7534D01*
X168548Y7656D01*
X168554Y7663D01*
X168561Y7669D01*
X168679Y7820D01*
X168800Y7970D01*
X168805Y7978D01*
X168810Y7985D01*
X168897Y8157D01*
X168986Y8327D01*
X168988Y8336D01*
X168992Y8344D01*
X169044Y8528D01*
X169097Y8714D01*
X169098Y8723D01*
X169100Y8732D01*
X169115Y8924D01*
X169130Y9116D01*
X169129Y9124D01*
X169130Y9133D01*
X169106Y9325D01*
X169083Y9515D01*
X169081Y9524D01*
X169079Y9533D01*
X169018Y9715D01*
X168958Y9898D01*
X168954Y9906D01*
X168951Y9914D01*
X168855Y10082D01*
X168761Y10249D01*
X168755Y10256D01*
X168750Y10263D01*
X168536Y10516D01*
X168120Y10931D01*
X166740Y14265D01*
X166740Y17873D01*
X168120Y21207D01*
X170672Y23758D01*
X174005Y25139D01*
X177613Y25139D01*
X178448Y24793D01*
X178470Y24786D01*
X178490Y24776D01*
X178663Y24728D01*
X178834Y24676D01*
X178856Y24674D01*
X178877Y24668D01*
X179057Y24655D01*
X179235Y24638D01*
X179257Y24641D01*
X179279Y24639D01*
X179457Y24661D01*
X179635Y24680D01*
X179656Y24687D01*
X179678Y24689D01*
X179848Y24746D01*
X180019Y24800D01*
X180039Y24810D01*
X180060Y24818D01*
X180215Y24907D01*
X180373Y24993D01*
X180390Y25007D01*
X180409Y25019D01*
X180662Y25233D01*
X182759Y27330D01*
X182776Y27351D01*
X182796Y27368D01*
X182903Y27506D01*
X183014Y27641D01*
X183026Y27665D01*
X183043Y27686D01*
X183121Y27843D01*
X183202Y27997D01*
X183210Y28023D01*
X183222Y28047D01*
X183268Y28216D01*
X183317Y28383D01*
X183320Y28410D01*
X183327Y28435D01*
X183354Y28766D01*
X183354Y31737D01*
X183352Y31750D01*
X183353Y31764D01*
X183333Y31949D01*
X183314Y32138D01*
X183310Y32150D01*
X183308Y32164D01*
X183252Y32340D01*
X183196Y32523D01*
X183189Y32534D01*
X183185Y32547D01*
X183093Y32711D01*
X183004Y32877D01*
X182995Y32887D01*
X182989Y32899D01*
X182866Y33042D01*
X182746Y33186D01*
X182736Y33194D01*
X182727Y33204D01*
X182578Y33321D01*
X182432Y33438D01*
X182420Y33444D01*
X182410Y33453D01*
X182241Y33538D01*
X182075Y33624D01*
X182062Y33627D01*
X182050Y33633D01*
X181868Y33683D01*
X181688Y33735D01*
X181675Y33736D01*
X181662Y33740D01*
X181475Y33753D01*
X181287Y33768D01*
X181273Y33766D01*
X181260Y33767D01*
X181074Y33743D01*
X180887Y33721D01*
X180874Y33717D01*
X180861Y33715D01*
X180545Y33614D01*
X177613Y32399D01*
X174005Y32399D01*
X170672Y33780D01*
X168120Y36331D01*
X166740Y39665D01*
X166740Y43273D01*
X168120Y46607D01*
X170672Y49158D01*
X173420Y50296D01*
X173432Y50303D01*
X173445Y50307D01*
X173609Y50398D01*
X173775Y50487D01*
X173785Y50495D01*
X173797Y50502D01*
X173940Y50623D01*
X174085Y50743D01*
X174094Y50753D01*
X174104Y50762D01*
X174221Y50910D01*
X174339Y51056D01*
X174345Y51067D01*
X174354Y51078D01*
X174439Y51246D01*
X174526Y51412D01*
X174530Y51425D01*
X174536Y51437D01*
X174587Y51618D01*
X174639Y51799D01*
X174640Y51812D01*
X174644Y51825D01*
X174658Y52013D01*
X174674Y52200D01*
X174672Y52213D01*
X174673Y52226D01*
X174650Y52415D01*
X174629Y52600D01*
X174625Y52612D01*
X174623Y52626D01*
X174563Y52805D01*
X174506Y52983D01*
X174499Y52995D01*
X174495Y53007D01*
X174401Y53170D01*
X174309Y53335D01*
X174300Y53345D01*
X174294Y53356D01*
X174079Y53609D01*
X172951Y54737D01*
X172951Y70092D01*
X172950Y70105D01*
X172951Y70118D01*
X172930Y70305D01*
X172911Y70492D01*
X172907Y70505D01*
X172906Y70518D01*
X172849Y70697D01*
X172793Y70877D01*
X172787Y70889D01*
X172783Y70902D01*
X172691Y71066D01*
X172601Y71231D01*
X172593Y71241D01*
X172586Y71253D01*
X172463Y71397D01*
X172344Y71541D01*
X172333Y71549D01*
X172325Y71559D01*
X172176Y71675D01*
X172030Y71793D01*
X172018Y71799D01*
X172008Y71807D01*
X171838Y71892D01*
X171673Y71978D01*
X171660Y71982D01*
X171648Y71988D01*
X171466Y72038D01*
X171286Y72090D01*
X171272Y72091D01*
X171259Y72094D01*
X171073Y72107D01*
X170884Y72123D01*
X170871Y72121D01*
X170858Y72122D01*
X170671Y72098D01*
X170485Y72076D01*
X170472Y72072D01*
X170459Y72070D01*
X170143Y71968D01*
X168904Y71455D01*
X167096Y71455D01*
X165426Y72147D01*
X165216Y72356D01*
X165196Y72373D01*
X165178Y72394D01*
X165040Y72501D01*
X164905Y72611D01*
X164881Y72624D01*
X164860Y72640D01*
X164703Y72718D01*
X164549Y72800D01*
X164524Y72808D01*
X164500Y72820D01*
X164330Y72865D01*
X164163Y72915D01*
X164137Y72917D01*
X164111Y72924D01*
X163780Y72951D01*
X132220Y72951D01*
X132193Y72949D01*
X132167Y72951D01*
X131993Y72929D01*
X131819Y72911D01*
X131794Y72904D01*
X131767Y72900D01*
X131601Y72845D01*
X131434Y72793D01*
X131411Y72780D01*
X131385Y72772D01*
X131234Y72685D01*
X131080Y72601D01*
X131060Y72584D01*
X131037Y72571D01*
X130784Y72356D01*
X130574Y72147D01*
X128904Y71455D01*
X127096Y71455D01*
X125426Y72147D01*
X124147Y73426D01*
X123455Y75096D01*
X123455Y76904D01*
X124147Y78574D01*
X125426Y79853D01*
X127096Y80545D01*
X128904Y80545D01*
X130574Y79853D01*
X130784Y79644D01*
X130804Y79627D01*
X130822Y79606D01*
X130960Y79499D01*
X131095Y79389D01*
X131119Y79376D01*
X131140Y79360D01*
X131297Y79282D01*
X131451Y79200D01*
X131476Y79192D01*
X131500Y79180D01*
X131670Y79135D01*
X131837Y79085D01*
X131863Y79083D01*
X131889Y79076D01*
X132220Y79049D01*
X163780Y79049D01*
X163807Y79051D01*
X163833Y79049D01*
X164007Y79071D01*
X164181Y79089D01*
X164206Y79096D01*
X164233Y79100D01*
X164399Y79155D01*
X164566Y79207D01*
X164589Y79220D01*
X164615Y79228D01*
X164766Y79315D01*
X164920Y79399D01*
X164940Y79416D01*
X164963Y79429D01*
X165216Y79644D01*
X165426Y79853D01*
X167096Y80545D01*
X168904Y80545D01*
X170143Y80032D01*
X170156Y80028D01*
X170167Y80022D01*
X170347Y79970D01*
X170528Y79915D01*
X170541Y79914D01*
X170554Y79910D01*
X170742Y79895D01*
X170929Y79877D01*
X170942Y79878D01*
X170956Y79877D01*
X171142Y79899D01*
X171329Y79919D01*
X171342Y79923D01*
X171355Y79924D01*
X171535Y79983D01*
X171714Y80039D01*
X171725Y80045D01*
X171738Y80049D01*
X171903Y80142D01*
X172067Y80232D01*
X172077Y80240D01*
X172089Y80247D01*
X172231Y80370D01*
X172375Y80491D01*
X172383Y80501D01*
X172394Y80510D01*
X172508Y80657D01*
X172626Y80806D01*
X172632Y80818D01*
X172640Y80828D01*
X172724Y80997D01*
X172810Y81164D01*
X172814Y81177D01*
X172820Y81189D01*
X172869Y81372D01*
X172920Y81551D01*
X172921Y81565D01*
X172924Y81578D01*
X172951Y81908D01*
X172951Y117263D01*
X182737Y127049D01*
X185896Y127049D01*
X185922Y127051D01*
X185949Y127049D01*
X186123Y127071D01*
X186296Y127089D01*
X186322Y127096D01*
X186349Y127100D01*
X186514Y127155D01*
X186681Y127207D01*
X186705Y127220D01*
X186730Y127228D01*
X186882Y127315D01*
X187035Y127399D01*
X187056Y127416D01*
X187079Y127429D01*
X187332Y127644D01*
X192091Y132403D01*
X192103Y132417D01*
X192116Y132428D01*
X192230Y132572D01*
X192347Y132714D01*
X192355Y132730D01*
X192366Y132744D01*
X192449Y132908D01*
X192535Y133070D01*
X192540Y133087D01*
X192548Y133103D01*
X192598Y133281D01*
X192650Y133456D01*
X192652Y133474D01*
X192656Y133491D01*
X192670Y133674D01*
X192686Y133857D01*
X192684Y133875D01*
X192686Y133893D01*
X192663Y134075D01*
X192643Y134257D01*
X192638Y134274D01*
X192635Y134292D01*
X192577Y134466D01*
X192521Y134641D01*
X192513Y134657D01*
X192507Y134674D01*
X192415Y134833D01*
X192327Y134994D01*
X192315Y135007D01*
X192306Y135023D01*
X192091Y135276D01*
X191819Y135548D01*
X190445Y138865D01*
X190445Y153378D01*
X190442Y153406D01*
X190444Y153434D01*
X190433Y153525D01*
X190433Y170495D01*
X191326Y171388D01*
X205951Y171388D01*
X205965Y171390D01*
X205978Y171388D01*
X206164Y171409D01*
X206352Y171428D01*
X206365Y171432D01*
X206378Y171434D01*
X206557Y171491D01*
X206737Y171546D01*
X206749Y171553D01*
X206761Y171557D01*
X206925Y171648D01*
X207091Y171738D01*
X207101Y171747D01*
X207113Y171753D01*
X207256Y171876D01*
X207400Y171996D01*
X207408Y172006D01*
X207419Y172015D01*
X207534Y172163D01*
X207652Y172309D01*
X207659Y172321D01*
X207667Y172332D01*
X207751Y172500D01*
X207838Y172667D01*
X207841Y172680D01*
X207848Y172692D01*
X207897Y172874D01*
X207949Y173054D01*
X207950Y173067D01*
X207954Y173080D01*
X207967Y173267D01*
X207982Y173455D01*
X207981Y173468D01*
X207981Y173482D01*
X207957Y173667D01*
X207935Y173855D01*
X207931Y173868D01*
X207929Y173881D01*
X207828Y174197D01*
X207455Y175096D01*
X207455Y176904D01*
X208147Y178574D01*
X209426Y179853D01*
X211183Y180581D01*
X211187Y180583D01*
X211192Y180584D01*
X211366Y180679D01*
X211538Y180771D01*
X211542Y180774D01*
X211546Y180776D01*
X211696Y180901D01*
X211849Y181027D01*
X211851Y181031D01*
X211855Y181034D01*
X211978Y181187D01*
X211998Y181212D01*
X212066Y181135D01*
X212196Y180984D01*
X212199Y180981D01*
X212202Y180978D01*
X212359Y180857D01*
X212514Y180737D01*
X212518Y180735D01*
X212522Y180732D01*
X212817Y180581D01*
X214574Y179853D01*
X215853Y178574D01*
X216545Y176904D01*
X216545Y176608D01*
X216547Y176582D01*
X216545Y176555D01*
X216549Y176529D01*
X216549Y173495D01*
X216551Y173478D01*
X216549Y173460D01*
X216570Y173277D01*
X216589Y173095D01*
X216594Y173078D01*
X216596Y173060D01*
X216653Y172885D01*
X216707Y172710D01*
X216715Y172694D01*
X216721Y172677D01*
X216811Y172517D01*
X216899Y172356D01*
X216910Y172342D01*
X216919Y172327D01*
X217039Y172187D01*
X217156Y172047D01*
X217170Y172035D01*
X217182Y172022D01*
X217327Y171909D01*
X217470Y171794D01*
X217486Y171786D01*
X217500Y171775D01*
X217665Y171693D01*
X217827Y171609D01*
X217844Y171604D01*
X217860Y171596D01*
X218039Y171548D01*
X218214Y171497D01*
X218232Y171496D01*
X218249Y171491D01*
X218580Y171464D01*
X232433Y171464D01*
X233326Y170571D01*
X233326Y157908D01*
X233329Y157877D01*
X233327Y157845D01*
X233349Y157677D01*
X233355Y157622D01*
X233355Y138845D01*
X231981Y135528D01*
X230969Y134516D01*
X230964Y134509D01*
X230957Y134504D01*
X230836Y134353D01*
X230714Y134205D01*
X230710Y134197D01*
X230704Y134190D01*
X230616Y134020D01*
X230526Y133849D01*
X230523Y133840D01*
X230519Y133833D01*
X230466Y133648D01*
X230411Y133463D01*
X230410Y133454D01*
X230407Y133446D01*
X230392Y133252D01*
X230374Y133062D01*
X230375Y133053D01*
X230375Y133044D01*
X230397Y132855D01*
X230418Y132662D01*
X230420Y132653D01*
X230421Y132645D01*
X230481Y132463D01*
X230539Y132278D01*
X230544Y132270D01*
X230546Y132262D01*
X230641Y132095D01*
X230734Y131926D01*
X230740Y131919D01*
X230744Y131911D01*
X230869Y131766D01*
X230995Y131619D01*
X231002Y131613D01*
X231007Y131606D01*
X231158Y131490D01*
X231310Y131369D01*
X231319Y131365D01*
X231325Y131360D01*
X231496Y131275D01*
X231669Y131187D01*
X231678Y131184D01*
X231686Y131180D01*
X231872Y131130D01*
X232057Y131079D01*
X232066Y131078D01*
X232075Y131076D01*
X232406Y131049D01*
X237263Y131049D01*
X243049Y125263D01*
X243049Y92220D01*
X243051Y92193D01*
X243049Y92166D01*
X243071Y91993D01*
X243089Y91819D01*
X243097Y91794D01*
X243100Y91767D01*
X243155Y91602D01*
X243207Y91434D01*
X243220Y91411D01*
X243228Y91385D01*
X243315Y91235D01*
X243399Y91080D01*
X243416Y91060D01*
X243429Y91037D01*
X243644Y90784D01*
X243853Y90574D01*
X244545Y88904D01*
X244545Y87096D01*
X243853Y85426D01*
X242574Y84147D01*
X240904Y83455D01*
X239096Y83455D01*
X237426Y84147D01*
X236147Y85426D01*
X235455Y87096D01*
X235455Y88904D01*
X236147Y90574D01*
X236356Y90784D01*
X236373Y90804D01*
X236394Y90822D01*
X236501Y90960D01*
X236611Y91095D01*
X236624Y91119D01*
X236640Y91140D01*
X236718Y91296D01*
X236800Y91451D01*
X236808Y91476D01*
X236820Y91500D01*
X236865Y91669D01*
X236915Y91837D01*
X236917Y91863D01*
X236924Y91889D01*
X236951Y92220D01*
X236951Y121896D01*
X236949Y121922D01*
X236951Y121949D01*
X236929Y122123D01*
X236911Y122296D01*
X236904Y122322D01*
X236900Y122349D01*
X236845Y122514D01*
X236793Y122681D01*
X236780Y122705D01*
X236772Y122730D01*
X236685Y122882D01*
X236601Y123035D01*
X236584Y123056D01*
X236571Y123079D01*
X236356Y123332D01*
X235332Y124356D01*
X235311Y124373D01*
X235294Y124394D01*
X235156Y124501D01*
X235021Y124611D01*
X234997Y124624D01*
X234976Y124640D01*
X234819Y124718D01*
X234665Y124800D01*
X234639Y124808D01*
X234615Y124820D01*
X234446Y124865D01*
X234279Y124915D01*
X234252Y124917D01*
X234227Y124924D01*
X233896Y124951D01*
X218580Y124951D01*
X218562Y124949D01*
X218544Y124951D01*
X218362Y124930D01*
X218179Y124911D01*
X218162Y124906D01*
X218145Y124904D01*
X217970Y124847D01*
X217794Y124793D01*
X217779Y124785D01*
X217762Y124779D01*
X217602Y124689D01*
X217440Y124601D01*
X217427Y124590D01*
X217411Y124581D01*
X217272Y124461D01*
X217131Y124344D01*
X217120Y124330D01*
X217106Y124318D01*
X216994Y124173D01*
X216879Y124030D01*
X216871Y124014D01*
X216860Y124000D01*
X216778Y123835D01*
X216693Y123673D01*
X216688Y123656D01*
X216680Y123640D01*
X216633Y123461D01*
X216582Y123286D01*
X216580Y123268D01*
X216576Y123251D01*
X216549Y122920D01*
X216549Y120322D01*
X216551Y120304D01*
X216549Y120286D01*
X216570Y120104D01*
X216589Y119921D01*
X216594Y119904D01*
X216596Y119887D01*
X216653Y119712D01*
X216707Y119536D01*
X216715Y119521D01*
X216721Y119504D01*
X216811Y119344D01*
X216899Y119182D01*
X216910Y119169D01*
X216919Y119153D01*
X217039Y119014D01*
X217156Y118873D01*
X217170Y118862D01*
X217182Y118848D01*
X217327Y118736D01*
X217470Y118621D01*
X217486Y118613D01*
X217500Y118602D01*
X217665Y118520D01*
X217827Y118435D01*
X217844Y118430D01*
X217860Y118422D01*
X217969Y118393D01*
X217969Y111000D01*
X217970Y110983D01*
X217969Y110965D01*
X217990Y110782D01*
X218008Y110600D01*
X218014Y110583D01*
X218016Y110565D01*
X218073Y110390D01*
X218127Y110215D01*
X218135Y110199D01*
X218141Y110182D01*
X218231Y110022D01*
X218318Y109861D01*
X218330Y109847D01*
X218339Y109832D01*
X218459Y109692D01*
X218576Y109552D01*
X218590Y109540D01*
X218602Y109527D01*
X218747Y109414D01*
X218890Y109299D01*
X218906Y109291D01*
X218920Y109280D01*
X219085Y109198D01*
X219247Y109114D01*
X219264Y109109D01*
X219280Y109101D01*
X219458Y109053D01*
X219634Y109002D01*
X219652Y109001D01*
X219669Y108996D01*
X220000Y108969D01*
X220018Y108971D01*
X220035Y108969D01*
X220036Y108969D01*
X220218Y108991D01*
X220401Y109009D01*
X220418Y109014D01*
X220436Y109016D01*
X220610Y109073D01*
X220786Y109127D01*
X220801Y109136D01*
X220818Y109141D01*
X220979Y109232D01*
X221140Y109319D01*
X221153Y109330D01*
X221169Y109339D01*
X221308Y109459D01*
X221449Y109577D01*
X221460Y109591D01*
X221474Y109602D01*
X221586Y109747D01*
X221701Y109890D01*
X221710Y109906D01*
X221720Y109920D01*
X221802Y110085D01*
X221887Y110248D01*
X221892Y110265D01*
X221900Y110281D01*
X221948Y110459D01*
X221998Y110635D01*
X222000Y110652D01*
X222004Y110670D01*
X222031Y111000D01*
X222031Y118291D01*
X222585Y118291D01*
X223231Y118118D01*
X223870Y117749D01*
X223900Y117725D01*
X224035Y117615D01*
X224059Y117602D01*
X224080Y117586D01*
X224237Y117508D01*
X224391Y117426D01*
X224416Y117418D01*
X224440Y117406D01*
X224610Y117361D01*
X224777Y117311D01*
X224803Y117309D01*
X224829Y117302D01*
X225160Y117275D01*
X229382Y117275D01*
X230275Y116382D01*
X230275Y105454D01*
X230208Y105328D01*
X230200Y105303D01*
X230188Y105279D01*
X230143Y105110D01*
X230093Y104942D01*
X230091Y104916D01*
X230084Y104890D01*
X230057Y104559D01*
X230057Y101027D01*
X228152Y99122D01*
X227772Y98742D01*
X227767Y98735D01*
X227760Y98730D01*
X227640Y98580D01*
X227517Y98431D01*
X227513Y98423D01*
X227507Y98416D01*
X227419Y98246D01*
X227329Y98075D01*
X227326Y98066D01*
X227322Y98059D01*
X227268Y97873D01*
X227214Y97689D01*
X227213Y97680D01*
X227211Y97672D01*
X227195Y97479D01*
X227177Y97288D01*
X227178Y97279D01*
X227178Y97270D01*
X227200Y97080D01*
X227221Y96888D01*
X227224Y96879D01*
X227225Y96871D01*
X227284Y96688D01*
X227342Y96504D01*
X227347Y96496D01*
X227349Y96488D01*
X227444Y96321D01*
X227537Y96152D01*
X227543Y96145D01*
X227547Y96137D01*
X227673Y95992D01*
X227798Y95845D01*
X227805Y95839D01*
X227810Y95832D01*
X227962Y95715D01*
X228113Y95595D01*
X228122Y95591D01*
X228129Y95586D01*
X228301Y95500D01*
X228472Y95413D01*
X228481Y95410D01*
X228489Y95406D01*
X228677Y95356D01*
X228860Y95305D01*
X228869Y95304D01*
X228878Y95302D01*
X229209Y95275D01*
X229382Y95275D01*
X230275Y94382D01*
X230275Y83618D01*
X229382Y82725D01*
X225160Y82725D01*
X225133Y82723D01*
X225106Y82725D01*
X224933Y82703D01*
X224759Y82685D01*
X224734Y82678D01*
X224707Y82674D01*
X224541Y82619D01*
X224374Y82567D01*
X224351Y82554D01*
X224325Y82546D01*
X224174Y82459D01*
X224020Y82375D01*
X224000Y82358D01*
X223976Y82345D01*
X223858Y82245D01*
X223231Y81882D01*
X222585Y81709D01*
X222031Y81709D01*
X222031Y89000D01*
X222030Y89017D01*
X222031Y89035D01*
X222010Y89218D01*
X221991Y89400D01*
X221986Y89417D01*
X221984Y89435D01*
X221927Y89610D01*
X221873Y89785D01*
X221865Y89801D01*
X221859Y89818D01*
X221769Y89978D01*
X221682Y90139D01*
X221670Y90153D01*
X221661Y90168D01*
X221541Y90308D01*
X221424Y90448D01*
X221410Y90460D01*
X221398Y90473D01*
X221253Y90586D01*
X221110Y90701D01*
X221094Y90709D01*
X221080Y90720D01*
X220915Y90802D01*
X220753Y90886D01*
X220736Y90891D01*
X220720Y90899D01*
X220542Y90947D01*
X220366Y90998D01*
X220348Y90999D01*
X220331Y91004D01*
X220000Y91031D01*
X219982Y91029D01*
X219965Y91031D01*
X219964Y91031D01*
X219782Y91009D01*
X219599Y90991D01*
X219582Y90986D01*
X219564Y90984D01*
X219390Y90927D01*
X219214Y90873D01*
X219199Y90864D01*
X219182Y90859D01*
X219021Y90768D01*
X218860Y90681D01*
X218847Y90670D01*
X218831Y90661D01*
X218692Y90541D01*
X218551Y90423D01*
X218540Y90409D01*
X218526Y90398D01*
X218414Y90253D01*
X218299Y90110D01*
X218290Y90094D01*
X218280Y90080D01*
X218198Y89915D01*
X218113Y89752D01*
X218108Y89735D01*
X218100Y89719D01*
X218052Y89541D01*
X218002Y89365D01*
X218000Y89348D01*
X217996Y89330D01*
X217969Y89000D01*
X217969Y81370D01*
X217948Y81360D01*
X217935Y81348D01*
X217919Y81339D01*
X217781Y81220D01*
X217639Y81102D01*
X217628Y81088D01*
X217614Y81076D01*
X217502Y80932D01*
X217387Y80788D01*
X217379Y80772D01*
X217368Y80758D01*
X217286Y80594D01*
X217201Y80431D01*
X217196Y80414D01*
X217188Y80398D01*
X217141Y80219D01*
X217090Y80044D01*
X217089Y80026D01*
X217084Y80009D01*
X217057Y79678D01*
X217057Y76018D01*
X217058Y76009D01*
X217057Y76000D01*
X217078Y75808D01*
X217097Y75617D01*
X217099Y75609D01*
X217100Y75600D01*
X217158Y75417D01*
X217215Y75232D01*
X217219Y75224D01*
X217222Y75216D01*
X217315Y75048D01*
X217407Y74878D01*
X217412Y74871D01*
X217417Y74864D01*
X217542Y74716D01*
X217664Y74569D01*
X217671Y74563D01*
X217677Y74557D01*
X217828Y74437D01*
X217978Y74317D01*
X217986Y74313D01*
X217993Y74307D01*
X218164Y74220D01*
X218335Y74131D01*
X218344Y74129D01*
X218352Y74125D01*
X218538Y74073D01*
X218722Y74020D01*
X218731Y74019D01*
X218740Y74017D01*
X218932Y74003D01*
X219124Y73987D01*
X219132Y73988D01*
X219141Y73987D01*
X219334Y74012D01*
X219523Y74034D01*
X219532Y74037D01*
X219541Y74038D01*
X219724Y74099D01*
X219906Y74159D01*
X219914Y74163D01*
X219922Y74166D01*
X220088Y74261D01*
X220257Y74357D01*
X220264Y74362D01*
X220271Y74367D01*
X220524Y74582D01*
X221502Y75559D01*
X223172Y76251D01*
X224980Y76251D01*
X226650Y75559D01*
X226860Y75350D01*
X226880Y75333D01*
X226898Y75312D01*
X227036Y75205D01*
X227171Y75095D01*
X227195Y75082D01*
X227216Y75066D01*
X227373Y74988D01*
X227527Y74906D01*
X227552Y74898D01*
X227576Y74886D01*
X227746Y74841D01*
X227913Y74791D01*
X227939Y74789D01*
X227965Y74782D01*
X228296Y74755D01*
X242172Y74755D01*
X242199Y74757D01*
X242225Y74755D01*
X242399Y74777D01*
X242573Y74795D01*
X242598Y74802D01*
X242625Y74806D01*
X242791Y74861D01*
X242958Y74913D01*
X242981Y74926D01*
X243007Y74934D01*
X243158Y75021D01*
X243312Y75105D01*
X243332Y75122D01*
X243355Y75135D01*
X243608Y75350D01*
X244112Y75853D01*
X245782Y76545D01*
X247674Y76545D01*
X247692Y76547D01*
X247710Y76545D01*
X247892Y76566D01*
X248075Y76585D01*
X248092Y76590D01*
X248109Y76592D01*
X248284Y76649D01*
X248460Y76703D01*
X248475Y76711D01*
X248492Y76717D01*
X248652Y76807D01*
X248814Y76895D01*
X248827Y76906D01*
X248843Y76915D01*
X248982Y77035D01*
X249123Y77152D01*
X249134Y77166D01*
X249148Y77178D01*
X249260Y77323D01*
X249375Y77466D01*
X249383Y77482D01*
X249394Y77496D01*
X249476Y77661D01*
X249561Y77823D01*
X249566Y77840D01*
X249574Y77856D01*
X249621Y78035D01*
X249672Y78210D01*
X249674Y78228D01*
X249678Y78245D01*
X249705Y78576D01*
X249705Y88409D01*
X249703Y88436D01*
X249705Y88463D01*
X249683Y88637D01*
X249665Y88810D01*
X249658Y88836D01*
X249654Y88862D01*
X249599Y89028D01*
X249547Y89195D01*
X249534Y89219D01*
X249526Y89244D01*
X249525Y89245D01*
X249525Y99159D01*
X249563Y99231D01*
X249568Y99248D01*
X249577Y99264D01*
X249626Y99442D01*
X249678Y99617D01*
X249680Y99635D01*
X249685Y99652D01*
X249698Y99835D01*
X249715Y100018D01*
X249713Y100036D01*
X249714Y100053D01*
X249691Y100234D01*
X249671Y100418D01*
X249666Y100435D01*
X249664Y100453D01*
X249605Y100627D01*
X249550Y100802D01*
X249541Y100818D01*
X249535Y100835D01*
X249525Y100852D01*
X249525Y110767D01*
X249554Y110822D01*
X249558Y110835D01*
X249561Y110840D01*
X249564Y110852D01*
X249574Y110871D01*
X249619Y111041D01*
X249669Y111207D01*
X249670Y111219D01*
X249672Y111227D01*
X249673Y111242D01*
X249678Y111260D01*
X249705Y111591D01*
X249705Y129657D01*
X249703Y129680D01*
X249705Y129702D01*
X249683Y129879D01*
X249665Y130058D01*
X249659Y130079D01*
X249656Y130101D01*
X249600Y130270D01*
X249547Y130443D01*
X249537Y130462D01*
X249530Y130484D01*
X249441Y130640D01*
X249355Y130797D01*
X249341Y130814D01*
X249330Y130833D01*
X249212Y130969D01*
X249098Y131106D01*
X249080Y131120D01*
X249066Y131137D01*
X248924Y131246D01*
X248784Y131358D01*
X248764Y131369D01*
X248746Y131382D01*
X248451Y131534D01*
X244938Y132989D01*
X242399Y135528D01*
X241025Y138845D01*
X241025Y153645D01*
X241023Y153671D01*
X241025Y153698D01*
X241012Y153795D01*
X241012Y170762D01*
X241905Y171656D01*
X258169Y171656D01*
X259062Y170762D01*
X259062Y157870D01*
X259065Y157839D01*
X259063Y157808D01*
X259075Y157716D01*
X259075Y138845D01*
X257701Y135528D01*
X255890Y133717D01*
X255873Y133696D01*
X255852Y133679D01*
X255745Y133541D01*
X255635Y133405D01*
X255622Y133382D01*
X255606Y133360D01*
X255528Y133204D01*
X255446Y133050D01*
X255438Y133024D01*
X255426Y133000D01*
X255381Y132831D01*
X255331Y132664D01*
X255329Y132637D01*
X255322Y132611D01*
X255295Y132280D01*
X255295Y132151D01*
X255296Y132142D01*
X255295Y132133D01*
X255316Y131940D01*
X255335Y131750D01*
X255337Y131742D01*
X255338Y131733D01*
X255396Y131549D01*
X255453Y131365D01*
X255457Y131357D01*
X255460Y131349D01*
X255553Y131180D01*
X255645Y131011D01*
X255650Y131005D01*
X255655Y130997D01*
X255779Y130850D01*
X255902Y130702D01*
X255909Y130696D01*
X255915Y130690D01*
X256066Y130570D01*
X256216Y130450D01*
X256224Y130446D01*
X256231Y130440D01*
X256404Y130352D01*
X256573Y130264D01*
X256582Y130262D01*
X256590Y130258D01*
X256776Y130206D01*
X256960Y130153D01*
X256969Y130152D01*
X256978Y130150D01*
X257171Y130136D01*
X257362Y130120D01*
X257370Y130121D01*
X257379Y130120D01*
X257572Y130145D01*
X257761Y130167D01*
X257770Y130170D01*
X257779Y130171D01*
X257962Y130232D01*
X258144Y130292D01*
X258152Y130296D01*
X258160Y130299D01*
X258327Y130395D01*
X258495Y130490D01*
X258502Y130495D01*
X258509Y130500D01*
X258762Y130715D01*
X266000Y137953D01*
X266017Y137973D01*
X266038Y137991D01*
X266145Y138129D01*
X266255Y138264D01*
X266268Y138288D01*
X266284Y138309D01*
X266362Y138466D01*
X266444Y138620D01*
X266452Y138645D01*
X266464Y138669D01*
X266509Y138839D01*
X266559Y139006D01*
X266561Y139032D01*
X266568Y139058D01*
X266595Y139389D01*
X266595Y153432D01*
X266593Y153459D01*
X266595Y153485D01*
X266573Y153659D01*
X266557Y153815D01*
X266557Y170575D01*
X267450Y171468D01*
X283713Y171468D01*
X284607Y170575D01*
X284607Y158091D01*
X284610Y158060D01*
X284608Y158029D01*
X284630Y157860D01*
X284645Y157708D01*
X284645Y140123D01*
X284646Y140114D01*
X284645Y140105D01*
X284666Y139913D01*
X284685Y139722D01*
X284687Y139714D01*
X284688Y139705D01*
X284746Y139523D01*
X284803Y139337D01*
X284807Y139330D01*
X284810Y139321D01*
X284903Y139153D01*
X284995Y138983D01*
X285000Y138977D01*
X285005Y138969D01*
X285129Y138822D01*
X285252Y138674D01*
X285259Y138669D01*
X285265Y138662D01*
X285416Y138543D01*
X285566Y138422D01*
X285574Y138418D01*
X285581Y138412D01*
X285754Y138324D01*
X285923Y138236D01*
X285932Y138234D01*
X285940Y138230D01*
X286126Y138178D01*
X286310Y138125D01*
X286319Y138124D01*
X286328Y138122D01*
X286521Y138108D01*
X286712Y138092D01*
X286720Y138093D01*
X286729Y138092D01*
X286922Y138117D01*
X287111Y138139D01*
X287120Y138142D01*
X287129Y138143D01*
X287312Y138204D01*
X287494Y138264D01*
X287502Y138268D01*
X287510Y138271D01*
X287677Y138367D01*
X287845Y138462D01*
X287852Y138467D01*
X287859Y138472D01*
X288112Y138687D01*
X291720Y142295D01*
X291737Y142315D01*
X291758Y142333D01*
X291864Y142470D01*
X291975Y142606D01*
X291988Y142630D01*
X292004Y142651D01*
X292082Y142807D01*
X292164Y142962D01*
X292172Y142988D01*
X292184Y143012D01*
X292229Y143180D01*
X292279Y143348D01*
X292281Y143374D01*
X292288Y143400D01*
X292315Y143731D01*
X292315Y153197D01*
X292313Y153224D01*
X292315Y153251D01*
X292293Y153424D01*
X292292Y153432D01*
X292292Y170325D01*
X293185Y171218D01*
X309448Y171218D01*
X310341Y170325D01*
X310341Y158056D01*
X310344Y158024D01*
X310342Y157993D01*
X310364Y157824D01*
X310365Y157821D01*
X310365Y139005D01*
X308991Y135688D01*
X306452Y133149D01*
X303135Y131775D01*
X299545Y131775D01*
X296228Y133149D01*
X294790Y134587D01*
X294776Y134598D01*
X294765Y134612D01*
X294621Y134725D01*
X294478Y134842D01*
X294463Y134851D01*
X294449Y134862D01*
X294285Y134945D01*
X294123Y135031D01*
X294106Y135036D01*
X294090Y135044D01*
X293913Y135093D01*
X293737Y135146D01*
X293719Y135147D01*
X293702Y135152D01*
X293519Y135165D01*
X293336Y135182D01*
X293318Y135180D01*
X293300Y135181D01*
X293118Y135158D01*
X292936Y135139D01*
X292919Y135133D01*
X292901Y135131D01*
X292727Y135073D01*
X292552Y135017D01*
X292536Y135008D01*
X292519Y135003D01*
X292360Y134911D01*
X292199Y134822D01*
X292186Y134811D01*
X292170Y134802D01*
X291917Y134587D01*
X285042Y127711D01*
X272505Y127711D01*
X272478Y127709D01*
X272452Y127711D01*
X272278Y127689D01*
X272104Y127671D01*
X272079Y127664D01*
X272052Y127660D01*
X271887Y127605D01*
X271719Y127553D01*
X271696Y127541D01*
X271671Y127532D01*
X271519Y127445D01*
X271365Y127361D01*
X271345Y127344D01*
X271322Y127331D01*
X271069Y127116D01*
X270783Y126831D01*
X270772Y126817D01*
X270758Y126805D01*
X270644Y126661D01*
X270528Y126519D01*
X270520Y126504D01*
X270509Y126489D01*
X270425Y126326D01*
X270339Y126164D01*
X270334Y126146D01*
X270326Y126131D01*
X270277Y125954D01*
X270225Y125778D01*
X270223Y125760D01*
X270218Y125743D01*
X270205Y125559D01*
X270188Y125377D01*
X270190Y125359D01*
X270189Y125341D01*
X270212Y125158D01*
X270232Y124977D01*
X270237Y124960D01*
X270239Y124942D01*
X270298Y124767D01*
X270353Y124593D01*
X270362Y124577D01*
X270367Y124560D01*
X270459Y124401D01*
X270548Y124240D01*
X270559Y124227D01*
X270568Y124211D01*
X270783Y123958D01*
X272167Y122574D01*
X272859Y120904D01*
X272859Y119096D01*
X272167Y117426D01*
X270890Y116148D01*
X270873Y116128D01*
X270852Y116110D01*
X270745Y115972D01*
X270635Y115837D01*
X270622Y115813D01*
X270606Y115792D01*
X270528Y115635D01*
X270446Y115481D01*
X270438Y115456D01*
X270426Y115432D01*
X270381Y115262D01*
X270331Y115095D01*
X270329Y115069D01*
X270322Y115043D01*
X270295Y114712D01*
X270295Y111591D01*
X270296Y111574D01*
X270295Y111557D01*
X270296Y111547D01*
X270295Y111537D01*
X270317Y111363D01*
X270335Y111190D01*
X270340Y111172D01*
X270342Y111157D01*
X270344Y111150D01*
X270346Y111138D01*
X270401Y110972D01*
X270453Y110805D01*
X270463Y110787D01*
X270467Y110774D01*
X270470Y110769D01*
X270474Y110756D01*
X270475Y110755D01*
X270475Y100841D01*
X270437Y100769D01*
X270432Y100752D01*
X270423Y100736D01*
X270374Y100559D01*
X270322Y100383D01*
X270320Y100366D01*
X270315Y100348D01*
X270302Y100165D01*
X270285Y99982D01*
X270287Y99965D01*
X270286Y99947D01*
X270309Y99764D01*
X270329Y99582D01*
X270334Y99565D01*
X270336Y99547D01*
X270395Y99374D01*
X270450Y99198D01*
X270459Y99182D01*
X270465Y99166D01*
X270475Y99148D01*
X270475Y89233D01*
X270446Y89178D01*
X270438Y89153D01*
X270426Y89129D01*
X270381Y88959D01*
X270331Y88793D01*
X270329Y88766D01*
X270322Y88740D01*
X270295Y88409D01*
X270295Y86576D01*
X270297Y86558D01*
X270295Y86540D01*
X270316Y86358D01*
X270335Y86175D01*
X270340Y86158D01*
X270342Y86141D01*
X270399Y85965D01*
X270453Y85790D01*
X270461Y85775D01*
X270467Y85758D01*
X270557Y85598D01*
X270645Y85436D01*
X270656Y85423D01*
X270665Y85407D01*
X270785Y85268D01*
X270902Y85127D01*
X270916Y85116D01*
X270928Y85102D01*
X271073Y84990D01*
X271216Y84875D01*
X271232Y84867D01*
X271246Y84856D01*
X271411Y84774D01*
X271573Y84689D01*
X271590Y84684D01*
X271606Y84676D01*
X271785Y84629D01*
X271960Y84578D01*
X271978Y84576D01*
X271995Y84572D01*
X272326Y84545D01*
X274218Y84545D01*
X275888Y83853D01*
X276867Y82874D01*
X276888Y82857D01*
X276906Y82837D01*
X277044Y82730D01*
X277179Y82619D01*
X277203Y82606D01*
X277224Y82590D01*
X277381Y82512D01*
X277535Y82430D01*
X277560Y82423D01*
X277584Y82411D01*
X277754Y82365D01*
X277921Y82315D01*
X277947Y82313D01*
X277973Y82306D01*
X278304Y82279D01*
X285694Y82279D01*
X285703Y82280D01*
X285712Y82279D01*
X285904Y82300D01*
X286094Y82319D01*
X286103Y82321D01*
X286112Y82322D01*
X286295Y82380D01*
X286479Y82437D01*
X286487Y82441D01*
X286496Y82444D01*
X286665Y82537D01*
X286833Y82629D01*
X286840Y82634D01*
X286848Y82639D01*
X286996Y82764D01*
X287143Y82886D01*
X287148Y82893D01*
X287155Y82899D01*
X287275Y83051D01*
X287395Y83200D01*
X287399Y83208D01*
X287405Y83215D01*
X287491Y83386D01*
X287580Y83558D01*
X287583Y83566D01*
X287587Y83574D01*
X287639Y83760D01*
X287692Y83944D01*
X287693Y83953D01*
X287695Y83962D01*
X287709Y84154D01*
X287725Y84346D01*
X287724Y84355D01*
X287724Y84364D01*
X287700Y84554D01*
X287678Y84746D01*
X287675Y84754D01*
X287674Y84763D01*
X287613Y84945D01*
X287553Y85128D01*
X287549Y85136D01*
X287546Y85145D01*
X287449Y85312D01*
X287355Y85479D01*
X287349Y85486D01*
X287345Y85494D01*
X287130Y85747D01*
X286912Y85965D01*
X286912Y92308D01*
X287384Y92780D01*
X287395Y92794D01*
X287409Y92805D01*
X287523Y92949D01*
X287639Y93091D01*
X287648Y93107D01*
X287659Y93121D01*
X287742Y93285D01*
X287828Y93447D01*
X287833Y93464D01*
X287841Y93480D01*
X287890Y93656D01*
X287943Y93833D01*
X287944Y93851D01*
X287949Y93868D01*
X287962Y94051D01*
X287979Y94234D01*
X287977Y94252D01*
X287978Y94269D01*
X287955Y94452D01*
X287936Y94634D01*
X287930Y94651D01*
X287928Y94669D01*
X287870Y94843D01*
X287814Y95018D01*
X287805Y95034D01*
X287800Y95051D01*
X287708Y95209D01*
X287619Y95370D01*
X287608Y95384D01*
X287599Y95399D01*
X287384Y95652D01*
X286912Y96125D01*
X286912Y102629D01*
X286982Y102762D01*
X286987Y102779D01*
X286996Y102795D01*
X287045Y102971D01*
X287097Y103147D01*
X287099Y103165D01*
X287104Y103183D01*
X287117Y103365D01*
X287134Y103548D01*
X287132Y103566D01*
X287133Y103584D01*
X287110Y103767D01*
X287090Y103949D01*
X287085Y103966D01*
X287082Y103984D01*
X287024Y104158D01*
X286969Y104333D01*
X286960Y104348D01*
X286954Y104365D01*
X286863Y104524D01*
X286774Y104685D01*
X286762Y104699D01*
X286753Y104714D01*
X286539Y104967D01*
X286404Y105102D01*
X286069Y105682D01*
X285896Y106328D01*
X285896Y107171D01*
X296945Y107171D01*
X296946Y107171D01*
X307995Y107171D01*
X307995Y106328D01*
X307803Y105609D01*
X307787Y105579D01*
X307772Y105526D01*
X307749Y105475D01*
X307716Y105332D01*
X307676Y105192D01*
X307671Y105137D01*
X307659Y105083D01*
X307655Y104936D01*
X307643Y104790D01*
X307649Y104735D01*
X307648Y104680D01*
X307673Y104536D01*
X307690Y104391D01*
X307707Y104338D01*
X307716Y104283D01*
X307769Y104147D01*
X307815Y104008D01*
X307842Y103960D01*
X307862Y103908D01*
X307941Y103785D01*
X308013Y103657D01*
X308049Y103615D01*
X308078Y103569D01*
X308180Y103463D01*
X308276Y103352D01*
X308319Y103319D01*
X308358Y103279D01*
X308478Y103195D01*
X308594Y103106D01*
X308643Y103081D01*
X308689Y103050D01*
X308823Y102992D01*
X308954Y102926D01*
X309008Y102912D01*
X309059Y102890D01*
X309202Y102860D01*
X309343Y102822D01*
X309406Y102817D01*
X309452Y102807D01*
X309536Y102806D01*
X309674Y102795D01*
X315526Y102795D01*
X315553Y102797D01*
X315579Y102795D01*
X315753Y102817D01*
X315927Y102835D01*
X315952Y102842D01*
X315979Y102846D01*
X316145Y102901D01*
X316312Y102953D01*
X316335Y102966D01*
X316361Y102974D01*
X316512Y103061D01*
X316666Y103145D01*
X316686Y103162D01*
X316709Y103175D01*
X316962Y103390D01*
X317426Y103853D01*
X319096Y104545D01*
X320904Y104545D01*
X322574Y103853D01*
X323853Y102574D01*
X324545Y100904D01*
X324545Y99096D01*
X323853Y97426D01*
X322574Y96147D01*
X320904Y95455D01*
X319096Y95455D01*
X317426Y96147D01*
X316962Y96610D01*
X316942Y96627D01*
X316924Y96648D01*
X316786Y96755D01*
X316651Y96865D01*
X316627Y96878D01*
X316606Y96894D01*
X316449Y96972D01*
X316295Y97054D01*
X316270Y97062D01*
X316246Y97074D01*
X316076Y97119D01*
X315909Y97169D01*
X315883Y97171D01*
X315857Y97178D01*
X315526Y97205D01*
X308901Y97205D01*
X308875Y97203D01*
X308848Y97205D01*
X308674Y97183D01*
X308501Y97165D01*
X308475Y97158D01*
X308449Y97154D01*
X308283Y97099D01*
X308116Y97047D01*
X308092Y97034D01*
X308067Y97026D01*
X307915Y96939D01*
X307762Y96855D01*
X307741Y96838D01*
X307718Y96825D01*
X307465Y96610D01*
X306507Y95652D01*
X306496Y95639D01*
X306482Y95627D01*
X306369Y95483D01*
X306252Y95341D01*
X306244Y95325D01*
X306233Y95311D01*
X306149Y95146D01*
X306064Y94985D01*
X306059Y94968D01*
X306050Y94952D01*
X306001Y94775D01*
X305949Y94599D01*
X305947Y94582D01*
X305942Y94564D01*
X305929Y94381D01*
X305912Y94198D01*
X305914Y94181D01*
X305913Y94163D01*
X305936Y93981D01*
X305956Y93798D01*
X305961Y93781D01*
X305963Y93763D01*
X306022Y93590D01*
X306077Y93414D01*
X306086Y93399D01*
X306092Y93382D01*
X306184Y93222D01*
X306272Y93062D01*
X306284Y93048D01*
X306293Y93033D01*
X306507Y92780D01*
X307058Y92229D01*
X307075Y92215D01*
X307090Y92198D01*
X307231Y92088D01*
X307369Y91974D01*
X307389Y91964D01*
X307407Y91950D01*
X307567Y91869D01*
X307725Y91786D01*
X307746Y91779D01*
X307766Y91769D01*
X307939Y91722D01*
X308111Y91671D01*
X308133Y91669D01*
X308155Y91663D01*
X308335Y91651D01*
X308512Y91634D01*
X308534Y91637D01*
X308556Y91635D01*
X308735Y91659D01*
X308912Y91678D01*
X308933Y91685D01*
X308956Y91687D01*
X309271Y91789D01*
X311096Y92545D01*
X312904Y92545D01*
X314574Y91853D01*
X315853Y90574D01*
X316545Y88904D01*
X316545Y87096D01*
X315853Y85426D01*
X314574Y84147D01*
X312904Y83455D01*
X311096Y83455D01*
X309788Y83997D01*
X309775Y84001D01*
X309763Y84007D01*
X309583Y84059D01*
X309403Y84114D01*
X309389Y84115D01*
X309376Y84118D01*
X309189Y84134D01*
X309002Y84152D01*
X308989Y84150D01*
X308975Y84151D01*
X308788Y84129D01*
X308601Y84110D01*
X308589Y84106D01*
X308575Y84104D01*
X308396Y84046D01*
X308217Y83990D01*
X308205Y83984D01*
X308192Y83980D01*
X308028Y83887D01*
X307864Y83797D01*
X307854Y83788D01*
X307842Y83782D01*
X307699Y83659D01*
X307556Y83538D01*
X307547Y83527D01*
X307537Y83519D01*
X307422Y83370D01*
X307305Y83223D01*
X307299Y83211D01*
X307290Y83200D01*
X307206Y83032D01*
X307121Y82865D01*
X307117Y82852D01*
X307111Y82840D01*
X307062Y82656D01*
X307011Y82477D01*
X307010Y82464D01*
X307007Y82451D01*
X306979Y82120D01*
X306979Y76059D01*
X306086Y75165D01*
X287805Y75165D01*
X287384Y75587D01*
X287363Y75603D01*
X287346Y75624D01*
X287208Y75731D01*
X287073Y75842D01*
X287049Y75854D01*
X287028Y75871D01*
X286871Y75949D01*
X286717Y76030D01*
X286691Y76038D01*
X286667Y76050D01*
X286498Y76095D01*
X286331Y76145D01*
X286304Y76147D01*
X286278Y76154D01*
X285948Y76181D01*
X276375Y76181D01*
X276344Y76178D01*
X276313Y76181D01*
X276144Y76158D01*
X275975Y76142D01*
X275945Y76132D01*
X275914Y76128D01*
X275598Y76027D01*
X274218Y75455D01*
X272326Y75455D01*
X272308Y75453D01*
X272290Y75455D01*
X272108Y75434D01*
X271925Y75415D01*
X271908Y75410D01*
X271891Y75408D01*
X271716Y75351D01*
X271540Y75297D01*
X271525Y75289D01*
X271508Y75283D01*
X271348Y75193D01*
X271186Y75105D01*
X271173Y75094D01*
X271157Y75085D01*
X271018Y74965D01*
X270877Y74848D01*
X270866Y74834D01*
X270852Y74822D01*
X270740Y74677D01*
X270625Y74534D01*
X270617Y74518D01*
X270606Y74504D01*
X270524Y74339D01*
X270439Y74177D01*
X270434Y74160D01*
X270426Y74144D01*
X270379Y73965D01*
X270328Y73790D01*
X270326Y73772D01*
X270322Y73755D01*
X270295Y73424D01*
X270295Y52478D01*
X270304Y52385D01*
X270303Y52292D01*
X270324Y52185D01*
X270335Y52077D01*
X270362Y51988D01*
X270380Y51897D01*
X270421Y51796D01*
X270453Y51693D01*
X270497Y51611D01*
X270533Y51524D01*
X270593Y51434D01*
X270645Y51339D01*
X270704Y51267D01*
X270756Y51189D01*
X270833Y51113D01*
X270902Y51029D01*
X270975Y50971D01*
X271041Y50905D01*
X271132Y50845D01*
X271216Y50777D01*
X271299Y50734D01*
X271376Y50682D01*
X271477Y50641D01*
X271573Y50591D01*
X271663Y50566D01*
X271749Y50530D01*
X271856Y50510D01*
X271960Y50480D01*
X272053Y50472D01*
X272145Y50455D01*
X272253Y50456D01*
X272362Y50447D01*
X272454Y50458D01*
X272547Y50459D01*
X272654Y50481D01*
X272761Y50494D01*
X272850Y50523D01*
X272941Y50542D01*
X273065Y50593D01*
X273144Y50619D01*
X273187Y50643D01*
X273248Y50668D01*
X273538Y50816D01*
X274985Y51286D01*
X274985Y41862D01*
X274987Y41844D01*
X274985Y41827D01*
X275007Y41644D01*
X275025Y41464D01*
X275018Y41442D01*
X275017Y41424D01*
X275012Y41407D01*
X274985Y41076D01*
X274985Y31652D01*
X273538Y32122D01*
X272819Y32489D01*
X272732Y32523D01*
X272649Y32565D01*
X272545Y32595D01*
X272443Y32635D01*
X272352Y32651D01*
X272262Y32677D01*
X272154Y32686D01*
X272047Y32704D01*
X271954Y32702D01*
X271861Y32710D01*
X271753Y32697D01*
X271644Y32694D01*
X271553Y32674D01*
X271461Y32663D01*
X271358Y32629D01*
X271252Y32605D01*
X271167Y32567D01*
X271078Y32538D01*
X270984Y32485D01*
X270885Y32440D01*
X270809Y32386D01*
X270728Y32340D01*
X270645Y32269D01*
X270557Y32206D01*
X270493Y32138D01*
X270423Y32077D01*
X270356Y31991D01*
X270282Y31912D01*
X270233Y31832D01*
X270176Y31759D01*
X270128Y31662D01*
X270071Y31569D01*
X270038Y31482D01*
X269997Y31398D01*
X269969Y31293D01*
X269931Y31192D01*
X269916Y31100D01*
X269892Y31010D01*
X269881Y30876D01*
X269868Y30794D01*
X269870Y30744D01*
X269865Y30679D01*
X269865Y28407D01*
X269868Y28380D01*
X269866Y28354D01*
X269888Y28180D01*
X269905Y28006D01*
X269913Y27981D01*
X269916Y27954D01*
X269972Y27788D01*
X270023Y27621D01*
X270036Y27598D01*
X270044Y27573D01*
X270132Y27421D01*
X270215Y27267D01*
X270232Y27247D01*
X270245Y27224D01*
X270460Y26971D01*
X272303Y25128D01*
X272320Y25114D01*
X272334Y25097D01*
X272476Y24986D01*
X272614Y24873D01*
X272634Y24862D01*
X272651Y24849D01*
X272812Y24768D01*
X272970Y24684D01*
X272991Y24678D01*
X273011Y24668D01*
X273184Y24621D01*
X273356Y24570D01*
X273378Y24567D01*
X273400Y24562D01*
X273578Y24549D01*
X273757Y24533D01*
X273779Y24536D01*
X273801Y24534D01*
X273979Y24557D01*
X274157Y24577D01*
X274178Y24583D01*
X274200Y24586D01*
X274516Y24688D01*
X275605Y25139D01*
X279213Y25139D01*
X282547Y23758D01*
X285098Y21207D01*
X286479Y17873D01*
X286479Y14265D01*
X285074Y10873D01*
X285070Y10860D01*
X285064Y10849D01*
X285012Y10669D01*
X284958Y10488D01*
X284956Y10475D01*
X284953Y10462D01*
X284937Y10274D01*
X284920Y10087D01*
X284921Y10074D01*
X284920Y10060D01*
X284942Y9872D01*
X284961Y9687D01*
X284965Y9674D01*
X284967Y9661D01*
X285025Y9481D01*
X285081Y9302D01*
X285087Y9291D01*
X285092Y9278D01*
X285184Y9114D01*
X285274Y8949D01*
X285283Y8939D01*
X285290Y8927D01*
X285412Y8785D01*
X285534Y8641D01*
X285544Y8633D01*
X285553Y8622D01*
X285701Y8508D01*
X285848Y8390D01*
X285860Y8384D01*
X285871Y8376D01*
X286039Y8292D01*
X286206Y8206D01*
X286219Y8202D01*
X286231Y8196D01*
X286414Y8147D01*
X286594Y8096D01*
X286607Y8095D01*
X286620Y8092D01*
X286951Y8065D01*
X293268Y8065D01*
X293281Y8066D01*
X293295Y8065D01*
X293481Y8086D01*
X293669Y8105D01*
X293681Y8109D01*
X293695Y8110D01*
X293873Y8167D01*
X294053Y8223D01*
X294065Y8229D01*
X294078Y8233D01*
X294242Y8325D01*
X294407Y8415D01*
X294418Y8423D01*
X294429Y8430D01*
X294573Y8552D01*
X294717Y8672D01*
X294725Y8683D01*
X294735Y8691D01*
X294852Y8840D01*
X294969Y8986D01*
X294975Y8998D01*
X294983Y9008D01*
X295068Y9176D01*
X295155Y9343D01*
X295158Y9356D01*
X295164Y9368D01*
X295214Y9550D01*
X295266Y9730D01*
X295267Y9744D01*
X295271Y9757D01*
X295284Y9944D01*
X295299Y10132D01*
X295297Y10145D01*
X295298Y10158D01*
X295274Y10346D01*
X295252Y10531D01*
X295248Y10544D01*
X295246Y10557D01*
X295145Y10873D01*
X293740Y14265D01*
X293740Y17873D01*
X295120Y21207D01*
X297672Y23758D01*
X301005Y25139D01*
X304613Y25139D01*
X307947Y23758D01*
X310498Y21207D01*
X311879Y17873D01*
X311879Y14265D01*
X310474Y10873D01*
X310470Y10860D01*
X310464Y10849D01*
X310412Y10669D01*
X310358Y10488D01*
X310356Y10475D01*
X310353Y10462D01*
X310337Y10274D01*
X310320Y10087D01*
X310321Y10074D01*
X310320Y10060D01*
X310342Y9872D01*
X310361Y9687D01*
X310365Y9674D01*
X310367Y9661D01*
X310425Y9481D01*
X310481Y9302D01*
X310487Y9291D01*
X310492Y9278D01*
X310584Y9114D01*
X310674Y8949D01*
X310683Y8939D01*
X310690Y8927D01*
X310812Y8785D01*
X310934Y8641D01*
X310944Y8633D01*
X310953Y8622D01*
X311101Y8508D01*
X311248Y8390D01*
X311260Y8384D01*
X311271Y8376D01*
X311439Y8292D01*
X311606Y8206D01*
X311619Y8202D01*
X311631Y8196D01*
X311814Y8147D01*
X311994Y8096D01*
X312007Y8095D01*
X312020Y8092D01*
X312351Y8065D01*
X313615Y8065D01*
X313642Y8067D01*
X313669Y8065D01*
X313843Y8087D01*
X314016Y8105D01*
X314041Y8112D01*
X314068Y8116D01*
X314234Y8171D01*
X314401Y8223D01*
X314424Y8236D01*
X314450Y8244D01*
X314601Y8331D01*
X314755Y8415D01*
X314775Y8432D01*
X314799Y8445D01*
X315052Y8660D01*
X318624Y12232D01*
X318639Y12250D01*
X318655Y12264D01*
X318766Y12405D01*
X318879Y12544D01*
X318890Y12563D01*
X318904Y12581D01*
X318984Y12742D01*
X319068Y12900D01*
X319074Y12921D01*
X319084Y12941D01*
X319132Y13113D01*
X319183Y13285D01*
X319185Y13308D01*
X319191Y13329D01*
X319203Y13507D01*
X319219Y13686D01*
X319217Y13709D01*
X319218Y13731D01*
X319195Y13907D01*
X319176Y14087D01*
X319169Y14108D01*
X319166Y14130D01*
X319140Y14213D01*
X319140Y17873D01*
X320517Y21199D01*
X320520Y21207D01*
X320524Y21215D01*
X320577Y21397D01*
X320634Y21584D01*
X320634Y21593D01*
X320637Y21602D01*
X320653Y21792D01*
X320672Y21985D01*
X320671Y21994D01*
X320672Y22003D01*
X320650Y22192D01*
X320630Y22385D01*
X320627Y22394D01*
X320626Y22403D01*
X320568Y22586D01*
X320510Y22770D01*
X320506Y22777D01*
X320503Y22786D01*
X320409Y22954D01*
X320317Y23123D01*
X320311Y23130D01*
X320307Y23137D01*
X320182Y23283D01*
X320058Y23431D01*
X320051Y23437D01*
X320045Y23443D01*
X319894Y23562D01*
X319743Y23682D01*
X319735Y23686D01*
X319728Y23692D01*
X319556Y23778D01*
X319385Y23866D01*
X319376Y23868D01*
X319368Y23872D01*
X319181Y23924D01*
X318998Y23976D01*
X318989Y23976D01*
X318980Y23979D01*
X318786Y23992D01*
X318596Y24007D01*
X318587Y24006D01*
X318578Y24006D01*
X318386Y23981D01*
X318196Y23958D01*
X318188Y23955D01*
X318179Y23954D01*
X317863Y23853D01*
X316904Y23455D01*
X315096Y23455D01*
X313426Y24147D01*
X312147Y25426D01*
X311455Y27096D01*
X311455Y27392D01*
X311453Y27418D01*
X311455Y27445D01*
X311433Y27619D01*
X311415Y27792D01*
X311408Y27818D01*
X311404Y27845D01*
X311349Y28010D01*
X311297Y28177D01*
X311284Y28201D01*
X311276Y28226D01*
X311189Y28377D01*
X311105Y28531D01*
X311088Y28552D01*
X311075Y28575D01*
X310860Y28828D01*
X307465Y32223D01*
X307448Y32237D01*
X307433Y32254D01*
X307292Y32365D01*
X307154Y32478D01*
X307134Y32489D01*
X307116Y32503D01*
X306956Y32583D01*
X306798Y32667D01*
X306777Y32673D01*
X306757Y32683D01*
X306584Y32731D01*
X306412Y32782D01*
X306390Y32784D01*
X306368Y32790D01*
X306190Y32802D01*
X306011Y32818D01*
X305989Y32816D01*
X305967Y32817D01*
X305790Y32794D01*
X305611Y32775D01*
X305590Y32768D01*
X305567Y32765D01*
X305252Y32664D01*
X304613Y32399D01*
X301005Y32399D01*
X297672Y33780D01*
X295120Y36331D01*
X293740Y39665D01*
X293740Y43273D01*
X295120Y46607D01*
X297672Y49158D01*
X301005Y50539D01*
X304613Y50539D01*
X307947Y49158D01*
X310498Y46607D01*
X311879Y43273D01*
X311879Y39665D01*
X311452Y38633D01*
X311445Y38612D01*
X311435Y38592D01*
X311387Y38419D01*
X311335Y38248D01*
X311333Y38225D01*
X311327Y38204D01*
X311314Y38025D01*
X311297Y37847D01*
X311299Y37825D01*
X311298Y37802D01*
X311320Y37624D01*
X311339Y37446D01*
X311345Y37425D01*
X311348Y37403D01*
X311405Y37233D01*
X311459Y37062D01*
X311469Y37043D01*
X311476Y37021D01*
X311566Y36866D01*
X311652Y36709D01*
X311666Y36692D01*
X311677Y36672D01*
X311892Y36419D01*
X315172Y33140D01*
X315193Y33123D01*
X315210Y33102D01*
X315348Y32996D01*
X315483Y32885D01*
X315507Y32872D01*
X315528Y32856D01*
X315684Y32778D01*
X315839Y32696D01*
X315865Y32688D01*
X315889Y32676D01*
X316058Y32631D01*
X316225Y32581D01*
X316252Y32579D01*
X316277Y32572D01*
X316608Y32545D01*
X316904Y32545D01*
X318574Y31853D01*
X319853Y30574D01*
X320545Y28904D01*
X320545Y27096D01*
X320229Y26334D01*
X320226Y26325D01*
X320222Y26317D01*
X320168Y26131D01*
X320113Y25948D01*
X320112Y25939D01*
X320109Y25931D01*
X320092Y25738D01*
X320074Y25547D01*
X320075Y25539D01*
X320075Y25530D01*
X320096Y25340D01*
X320116Y25147D01*
X320119Y25138D01*
X320120Y25130D01*
X320178Y24947D01*
X320236Y24763D01*
X320240Y24755D01*
X320243Y24746D01*
X320337Y24578D01*
X320429Y24409D01*
X320435Y24403D01*
X320439Y24395D01*
X320564Y24249D01*
X320688Y24101D01*
X320695Y24096D01*
X320701Y24089D01*
X320852Y23970D01*
X321003Y23850D01*
X321011Y23846D01*
X321018Y23841D01*
X321189Y23755D01*
X321361Y23666D01*
X321370Y23664D01*
X321378Y23660D01*
X321563Y23609D01*
X321749Y23557D01*
X321757Y23556D01*
X321766Y23554D01*
X321960Y23540D01*
X322150Y23526D01*
X322159Y23527D01*
X322168Y23526D01*
X322360Y23551D01*
X322550Y23574D01*
X322558Y23577D01*
X322567Y23578D01*
X322883Y23680D01*
X326405Y25139D01*
X330013Y25139D01*
X333347Y23758D01*
X335898Y21207D01*
X337279Y17873D01*
X337279Y14265D01*
X335898Y10931D01*
X333347Y8380D01*
X330013Y6999D01*
X326338Y6999D01*
X326201Y7041D01*
X326179Y7043D01*
X326157Y7049D01*
X325978Y7062D01*
X325800Y7079D01*
X325778Y7077D01*
X325756Y7078D01*
X325577Y7056D01*
X325400Y7037D01*
X325378Y7031D01*
X325356Y7028D01*
X325186Y6971D01*
X325015Y6917D01*
X324996Y6907D01*
X324975Y6900D01*
X324819Y6810D01*
X324662Y6724D01*
X324645Y6710D01*
X324626Y6699D01*
X324373Y6484D01*
X319872Y1983D01*
X318443Y554D01*
X316949Y-65D01*
X263191Y-65D01*
G37*
%LPD*%
%LPC*%
G36*
X54213Y242477D02*
X54213Y242477D01*
X43163Y242477D01*
X43163Y243321D01*
X43336Y243967D01*
X43504Y244256D01*
X43564Y244390D01*
X43631Y244519D01*
X43646Y244573D01*
X43669Y244623D01*
X43702Y244766D01*
X43743Y244906D01*
X43747Y244962D01*
X43759Y245016D01*
X43763Y245162D01*
X43775Y245308D01*
X43769Y245363D01*
X43770Y245418D01*
X43746Y245563D01*
X43729Y245707D01*
X43711Y245760D01*
X43702Y245815D01*
X43649Y245951D01*
X43604Y246090D01*
X43576Y246139D01*
X43556Y246190D01*
X43478Y246313D01*
X43406Y246441D01*
X43370Y246483D01*
X43340Y246530D01*
X43238Y246635D01*
X43143Y246746D01*
X43099Y246780D01*
X43060Y246820D01*
X42940Y246903D01*
X42825Y246992D01*
X42775Y247017D01*
X42729Y247049D01*
X42595Y247107D01*
X42464Y247172D01*
X42410Y247186D01*
X42359Y247208D01*
X42216Y247238D01*
X42075Y247276D01*
X42012Y247281D01*
X41966Y247291D01*
X41882Y247292D01*
X41744Y247303D01*
X29988Y247303D01*
X29966Y247301D01*
X29943Y247303D01*
X29766Y247281D01*
X29587Y247263D01*
X29566Y247257D01*
X29544Y247254D01*
X29374Y247198D01*
X29202Y247145D01*
X29183Y247135D01*
X29162Y247128D01*
X29006Y247039D01*
X28848Y246954D01*
X28831Y246939D01*
X28812Y246928D01*
X28676Y246810D01*
X28539Y246696D01*
X28525Y246678D01*
X28508Y246664D01*
X28399Y246522D01*
X28287Y246382D01*
X28276Y246362D01*
X28263Y246345D01*
X28111Y246049D01*
X27853Y245426D01*
X26574Y244147D01*
X24904Y243455D01*
X23096Y243455D01*
X21426Y244147D01*
X20147Y245426D01*
X19455Y247096D01*
X19455Y248904D01*
X20147Y250574D01*
X21426Y251853D01*
X23096Y252545D01*
X23392Y252545D01*
X23418Y252547D01*
X23445Y252545D01*
X23619Y252567D01*
X23792Y252585D01*
X23818Y252592D01*
X23845Y252596D01*
X24010Y252651D01*
X24177Y252703D01*
X24201Y252716D01*
X24226Y252724D01*
X24378Y252811D01*
X24531Y252895D01*
X24552Y252912D01*
X24575Y252925D01*
X24828Y253140D01*
X25089Y253401D01*
X43215Y253401D01*
X43233Y253403D01*
X43251Y253401D01*
X43433Y253423D01*
X43616Y253441D01*
X43633Y253446D01*
X43650Y253448D01*
X43825Y253505D01*
X44001Y253559D01*
X44016Y253567D01*
X44033Y253573D01*
X44193Y253663D01*
X44355Y253751D01*
X44368Y253762D01*
X44384Y253771D01*
X44523Y253891D01*
X44664Y254008D01*
X44675Y254022D01*
X44689Y254034D01*
X44801Y254179D01*
X44916Y254322D01*
X44924Y254338D01*
X44935Y254352D01*
X45017Y254517D01*
X45102Y254679D01*
X45107Y254696D01*
X45115Y254713D01*
X45162Y254891D01*
X45213Y255066D01*
X45215Y255084D01*
X45219Y255101D01*
X45246Y255432D01*
X45244Y255450D01*
X45246Y255468D01*
X45225Y255650D01*
X45206Y255833D01*
X45201Y255850D01*
X45199Y255867D01*
X45142Y256042D01*
X45088Y256218D01*
X45080Y256233D01*
X45074Y256250D01*
X44984Y256410D01*
X44896Y256572D01*
X44885Y256585D01*
X44876Y256601D01*
X44756Y256740D01*
X44639Y256881D01*
X44625Y256892D01*
X44613Y256906D01*
X44468Y257018D01*
X44325Y257133D01*
X44309Y257141D01*
X44295Y257152D01*
X44130Y257234D01*
X43968Y257319D01*
X43951Y257324D01*
X43935Y257332D01*
X43756Y257380D01*
X43581Y257430D01*
X43563Y257432D01*
X43546Y257436D01*
X43215Y257463D01*
X20732Y257463D01*
X20705Y257461D01*
X20679Y257463D01*
X20505Y257441D01*
X20331Y257423D01*
X20306Y257416D01*
X20279Y257412D01*
X20114Y257357D01*
X19946Y257305D01*
X19923Y257293D01*
X19897Y257284D01*
X19746Y257197D01*
X19592Y257114D01*
X19572Y257096D01*
X19549Y257083D01*
X19296Y256868D01*
X18574Y256147D01*
X16904Y255455D01*
X15096Y255455D01*
X13426Y256147D01*
X12147Y257426D01*
X11455Y259096D01*
X11455Y260904D01*
X12147Y262574D01*
X13426Y263853D01*
X14008Y264094D01*
X14009Y264094D01*
X15096Y264545D01*
X16904Y264545D01*
X18906Y263715D01*
X18936Y263706D01*
X18964Y263692D01*
X19129Y263648D01*
X19292Y263599D01*
X19323Y263596D01*
X19353Y263588D01*
X19683Y263561D01*
X22294Y263561D01*
X22307Y263562D01*
X22320Y263561D01*
X22507Y263582D01*
X22694Y263601D01*
X22707Y263605D01*
X22721Y263606D01*
X22900Y263664D01*
X23079Y263719D01*
X23091Y263725D01*
X23104Y263729D01*
X23269Y263821D01*
X23433Y263911D01*
X23444Y263919D01*
X23455Y263926D01*
X23599Y264048D01*
X23743Y264168D01*
X23751Y264179D01*
X23761Y264187D01*
X23877Y264336D01*
X23995Y264482D01*
X24001Y264494D01*
X24009Y264505D01*
X24094Y264673D01*
X24180Y264839D01*
X24184Y264852D01*
X24190Y264864D01*
X24240Y265046D01*
X24292Y265226D01*
X24293Y265240D01*
X24297Y265253D01*
X24309Y265441D01*
X24325Y265628D01*
X24323Y265641D01*
X24324Y265654D01*
X24300Y265842D01*
X24278Y266027D01*
X24274Y266040D01*
X24272Y266053D01*
X24170Y266369D01*
X23455Y268096D01*
X23455Y269904D01*
X23504Y270022D01*
X23508Y270035D01*
X23514Y270046D01*
X23566Y270227D01*
X23620Y270407D01*
X23622Y270420D01*
X23625Y270433D01*
X23641Y270621D01*
X23659Y270808D01*
X23657Y270821D01*
X23658Y270835D01*
X23636Y271022D01*
X23617Y271208D01*
X23613Y271221D01*
X23611Y271234D01*
X23553Y271414D01*
X23497Y271593D01*
X23491Y271604D01*
X23487Y271617D01*
X23394Y271782D01*
X23304Y271946D01*
X23295Y271956D01*
X23289Y271968D01*
X23166Y272110D01*
X23161Y272116D01*
X23161Y280387D01*
X23159Y280405D01*
X23160Y280423D01*
X23139Y280605D01*
X23121Y280788D01*
X23116Y280805D01*
X23113Y280823D01*
X23057Y280997D01*
X23003Y281173D01*
X22994Y281189D01*
X22989Y281206D01*
X22913Y281340D01*
X22932Y281378D01*
X23016Y281540D01*
X23021Y281557D01*
X23029Y281573D01*
X23077Y281751D01*
X23128Y281927D01*
X23129Y281945D01*
X23134Y281962D01*
X23161Y282293D01*
X23161Y291260D01*
X23182Y291340D01*
X23233Y291515D01*
X23234Y291533D01*
X23239Y291550D01*
X23266Y291881D01*
X23266Y297020D01*
X35269Y297020D01*
X35269Y293700D01*
X35096Y293054D01*
X34761Y292474D01*
X34342Y292055D01*
X34331Y292042D01*
X34317Y292030D01*
X34203Y291886D01*
X34087Y291744D01*
X34079Y291728D01*
X34068Y291714D01*
X33985Y291550D01*
X33899Y291388D01*
X33894Y291371D01*
X33885Y291355D01*
X33836Y291179D01*
X33784Y291002D01*
X33782Y290984D01*
X33778Y290967D01*
X33764Y290785D01*
X33748Y290601D01*
X33749Y290584D01*
X33748Y290566D01*
X33771Y290382D01*
X33791Y290201D01*
X33796Y290184D01*
X33799Y290166D01*
X33857Y289992D01*
X33912Y289817D01*
X33921Y289802D01*
X33927Y289785D01*
X34019Y289625D01*
X34107Y289465D01*
X34119Y289451D01*
X34128Y289436D01*
X34342Y289183D01*
X34656Y288869D01*
X34991Y288290D01*
X35164Y287644D01*
X35164Y286576D01*
X35165Y286558D01*
X35164Y286540D01*
X35185Y286358D01*
X35204Y286175D01*
X35209Y286158D01*
X35211Y286141D01*
X35268Y285966D01*
X35322Y285790D01*
X35330Y285775D01*
X35336Y285758D01*
X35426Y285598D01*
X35513Y285436D01*
X35525Y285423D01*
X35534Y285407D01*
X35654Y285268D01*
X35771Y285127D01*
X35785Y285116D01*
X35797Y285102D01*
X35942Y284990D01*
X36085Y284875D01*
X36101Y284867D01*
X36115Y284856D01*
X36280Y284774D01*
X36442Y284689D01*
X36459Y284684D01*
X36475Y284676D01*
X36654Y284629D01*
X36829Y284578D01*
X36847Y284576D01*
X36864Y284572D01*
X37195Y284545D01*
X38071Y284545D01*
X39741Y283853D01*
X39951Y283644D01*
X39971Y283627D01*
X39989Y283606D01*
X40127Y283499D01*
X40262Y283389D01*
X40286Y283376D01*
X40307Y283360D01*
X40464Y283282D01*
X40618Y283200D01*
X40643Y283192D01*
X40667Y283180D01*
X40837Y283135D01*
X41004Y283085D01*
X41030Y283083D01*
X41056Y283076D01*
X41387Y283049D01*
X43736Y283049D01*
X43745Y283050D01*
X43754Y283049D01*
X43945Y283070D01*
X44136Y283089D01*
X44145Y283091D01*
X44154Y283092D01*
X44338Y283150D01*
X44521Y283207D01*
X44529Y283211D01*
X44538Y283214D01*
X44706Y283307D01*
X44875Y283399D01*
X44882Y283404D01*
X44890Y283409D01*
X45037Y283533D01*
X45185Y283656D01*
X45190Y283663D01*
X45197Y283669D01*
X45317Y283821D01*
X45437Y283970D01*
X45441Y283978D01*
X45447Y283985D01*
X45534Y284157D01*
X45623Y284327D01*
X45625Y284336D01*
X45629Y284344D01*
X45681Y284529D01*
X45734Y284714D01*
X45735Y284723D01*
X45737Y284732D01*
X45751Y284924D01*
X45767Y285116D01*
X45766Y285124D01*
X45766Y285133D01*
X45742Y285326D01*
X45720Y285515D01*
X45717Y285524D01*
X45716Y285533D01*
X45655Y285716D01*
X45595Y285898D01*
X45591Y285906D01*
X45588Y285915D01*
X45491Y286082D01*
X45397Y286249D01*
X45391Y286256D01*
X45387Y286263D01*
X45172Y286516D01*
X44896Y286792D01*
X44828Y286860D01*
X44807Y286877D01*
X44790Y286898D01*
X44652Y287005D01*
X44517Y287115D01*
X44493Y287128D01*
X44472Y287144D01*
X44315Y287222D01*
X44161Y287304D01*
X44135Y287312D01*
X44111Y287324D01*
X43942Y287369D01*
X43775Y287419D01*
X43748Y287421D01*
X43723Y287428D01*
X43392Y287455D01*
X43096Y287455D01*
X41426Y288147D01*
X40147Y289426D01*
X39455Y291096D01*
X39455Y292904D01*
X40147Y294574D01*
X41426Y295853D01*
X43096Y296545D01*
X44904Y296545D01*
X46574Y295853D01*
X47853Y294574D01*
X48545Y292904D01*
X48545Y292608D01*
X48547Y292582D01*
X48545Y292555D01*
X48567Y292381D01*
X48585Y292208D01*
X48592Y292182D01*
X48596Y292155D01*
X48651Y291990D01*
X48703Y291823D01*
X48716Y291799D01*
X48724Y291774D01*
X48811Y291622D01*
X48895Y291469D01*
X48912Y291448D01*
X48925Y291425D01*
X49140Y291172D01*
X49208Y291104D01*
X49229Y291087D01*
X49246Y291066D01*
X49384Y290959D01*
X49519Y290849D01*
X49543Y290836D01*
X49564Y290820D01*
X49721Y290741D01*
X49875Y290660D01*
X49901Y290652D01*
X49925Y290640D01*
X50094Y290595D01*
X50261Y290545D01*
X50288Y290543D01*
X50313Y290536D01*
X50644Y290509D01*
X87637Y290509D01*
X87660Y290511D01*
X87682Y290509D01*
X87859Y290531D01*
X88038Y290549D01*
X88059Y290555D01*
X88081Y290558D01*
X88251Y290614D01*
X88423Y290667D01*
X88443Y290677D01*
X88464Y290684D01*
X88619Y290773D01*
X88777Y290859D01*
X88794Y290873D01*
X88813Y290884D01*
X88949Y291002D01*
X89086Y291116D01*
X89100Y291134D01*
X89117Y291148D01*
X89226Y291290D01*
X89338Y291430D01*
X89349Y291450D01*
X89362Y291468D01*
X89514Y291763D01*
X89849Y292572D01*
X92388Y295111D01*
X95705Y296485D01*
X114669Y296485D01*
X114707Y296482D01*
X126888Y296482D01*
X127781Y295589D01*
X127781Y279325D01*
X126888Y278432D01*
X109818Y278432D01*
X109780Y278435D01*
X95705Y278435D01*
X92388Y279809D01*
X89849Y282348D01*
X89514Y283157D01*
X89503Y283177D01*
X89496Y283198D01*
X89408Y283354D01*
X89324Y283512D01*
X89309Y283529D01*
X89299Y283549D01*
X89182Y283684D01*
X89067Y283823D01*
X89050Y283837D01*
X89035Y283854D01*
X88894Y283963D01*
X88755Y284076D01*
X88735Y284087D01*
X88717Y284100D01*
X88556Y284180D01*
X88398Y284263D01*
X88377Y284270D01*
X88357Y284280D01*
X88183Y284326D01*
X88012Y284376D01*
X87990Y284378D01*
X87968Y284384D01*
X87637Y284411D01*
X80804Y284411D01*
X80795Y284410D01*
X80786Y284411D01*
X80593Y284390D01*
X80404Y284371D01*
X80395Y284369D01*
X80386Y284368D01*
X80203Y284310D01*
X80019Y284253D01*
X80011Y284249D01*
X80002Y284246D01*
X79835Y284154D01*
X79665Y284061D01*
X79658Y284056D01*
X79650Y284051D01*
X79503Y283927D01*
X79355Y283804D01*
X79350Y283797D01*
X79343Y283791D01*
X79223Y283639D01*
X79103Y283490D01*
X79099Y283482D01*
X79093Y283475D01*
X79006Y283302D01*
X78917Y283133D01*
X78915Y283124D01*
X78911Y283116D01*
X78859Y282930D01*
X78806Y282746D01*
X78805Y282737D01*
X78803Y282728D01*
X78789Y282535D01*
X78773Y282344D01*
X78774Y282336D01*
X78774Y282327D01*
X78798Y282134D01*
X78820Y281945D01*
X78823Y281936D01*
X78824Y281927D01*
X78885Y281744D01*
X78945Y281562D01*
X78949Y281554D01*
X78952Y281546D01*
X79048Y281379D01*
X79143Y281211D01*
X79149Y281204D01*
X79153Y281197D01*
X79368Y280944D01*
X90065Y270246D01*
X90083Y270232D01*
X90097Y270215D01*
X90238Y270104D01*
X90377Y269991D01*
X90397Y269981D01*
X90414Y269967D01*
X90575Y269886D01*
X90733Y269802D01*
X90754Y269796D01*
X90774Y269786D01*
X90947Y269739D01*
X91119Y269688D01*
X91141Y269686D01*
X91162Y269680D01*
X91341Y269667D01*
X91520Y269651D01*
X91542Y269654D01*
X91564Y269652D01*
X91742Y269675D01*
X91920Y269695D01*
X91941Y269701D01*
X91963Y269704D01*
X92279Y269806D01*
X93202Y270188D01*
X95705Y271225D01*
X114564Y271225D01*
X114733Y271211D01*
X126745Y271211D01*
X127638Y270318D01*
X127638Y254055D01*
X126745Y253161D01*
X109796Y253161D01*
X109627Y253175D01*
X95705Y253175D01*
X92388Y254549D01*
X89849Y257088D01*
X88475Y260405D01*
X88475Y262372D01*
X88473Y262398D01*
X88475Y262425D01*
X88453Y262599D01*
X88435Y262772D01*
X88428Y262798D01*
X88424Y262825D01*
X88368Y262990D01*
X88317Y263157D01*
X88304Y263181D01*
X88296Y263206D01*
X88209Y263358D01*
X88125Y263511D01*
X88108Y263532D01*
X88095Y263555D01*
X87880Y263808D01*
X75332Y276356D01*
X75311Y276373D01*
X75294Y276394D01*
X75156Y276501D01*
X75021Y276611D01*
X74997Y276624D01*
X74976Y276640D01*
X74819Y276718D01*
X74665Y276800D01*
X74639Y276808D01*
X74615Y276820D01*
X74446Y276865D01*
X74279Y276915D01*
X74252Y276917D01*
X74227Y276924D01*
X73896Y276951D01*
X65789Y276951D01*
X65780Y276950D01*
X65771Y276951D01*
X65581Y276931D01*
X65388Y276911D01*
X65380Y276909D01*
X65371Y276908D01*
X65188Y276850D01*
X65003Y276793D01*
X64995Y276789D01*
X64987Y276786D01*
X64818Y276693D01*
X64649Y276601D01*
X64642Y276596D01*
X64635Y276591D01*
X64487Y276466D01*
X64340Y276344D01*
X64335Y276337D01*
X64328Y276331D01*
X64208Y276180D01*
X64088Y276030D01*
X64084Y276022D01*
X64078Y276015D01*
X63990Y275842D01*
X63902Y275673D01*
X63900Y275664D01*
X63896Y275656D01*
X63844Y275470D01*
X63791Y275286D01*
X63790Y275277D01*
X63788Y275268D01*
X63774Y275076D01*
X63758Y274884D01*
X63759Y274876D01*
X63758Y274867D01*
X63783Y274675D01*
X63805Y274485D01*
X63808Y274476D01*
X63809Y274467D01*
X63869Y274287D01*
X63930Y274102D01*
X63934Y274094D01*
X63937Y274086D01*
X64032Y273921D01*
X64128Y273751D01*
X64134Y273744D01*
X64138Y273737D01*
X64247Y273609D01*
X64247Y267247D01*
X63902Y266901D01*
X63890Y266888D01*
X63877Y266876D01*
X63763Y266732D01*
X63646Y266590D01*
X63638Y266574D01*
X63627Y266560D01*
X63544Y266396D01*
X63458Y266234D01*
X63453Y266217D01*
X63445Y266201D01*
X63395Y266024D01*
X63343Y265848D01*
X63341Y265831D01*
X63337Y265813D01*
X63323Y265630D01*
X63307Y265447D01*
X63309Y265430D01*
X63307Y265412D01*
X63330Y265230D01*
X63350Y265047D01*
X63355Y265030D01*
X63358Y265012D01*
X63416Y264838D01*
X63472Y264663D01*
X63480Y264648D01*
X63486Y264631D01*
X63578Y264471D01*
X63666Y264311D01*
X63678Y264297D01*
X63687Y264282D01*
X63902Y264029D01*
X64247Y263684D01*
X64247Y257341D01*
X63775Y256868D01*
X63763Y256855D01*
X63750Y256843D01*
X63636Y256699D01*
X63519Y256557D01*
X63511Y256541D01*
X63500Y256527D01*
X63417Y256363D01*
X63331Y256201D01*
X63326Y256184D01*
X63318Y256168D01*
X63268Y255991D01*
X63216Y255815D01*
X63214Y255798D01*
X63210Y255780D01*
X63196Y255597D01*
X63180Y255414D01*
X63182Y255397D01*
X63180Y255379D01*
X63203Y255197D01*
X63223Y255014D01*
X63228Y254997D01*
X63231Y254979D01*
X63289Y254805D01*
X63345Y254630D01*
X63353Y254615D01*
X63359Y254598D01*
X63450Y254439D01*
X63539Y254278D01*
X63551Y254264D01*
X63560Y254249D01*
X63775Y253996D01*
X64247Y253524D01*
X64247Y247019D01*
X64176Y246887D01*
X64171Y246869D01*
X64163Y246853D01*
X64114Y246677D01*
X64062Y246501D01*
X64060Y246483D01*
X64055Y246466D01*
X64042Y246283D01*
X64025Y246100D01*
X64027Y246082D01*
X64026Y246064D01*
X64049Y245881D01*
X64068Y245700D01*
X64074Y245683D01*
X64076Y245665D01*
X64135Y245490D01*
X64190Y245316D01*
X64199Y245300D01*
X64204Y245283D01*
X64296Y245124D01*
X64385Y244963D01*
X64396Y244950D01*
X64405Y244934D01*
X64620Y244681D01*
X64755Y244546D01*
X65090Y243967D01*
X65263Y243321D01*
X65263Y242477D01*
X54213Y242477D01*
X54213Y242477D01*
G37*
%LPD*%
%LPC*%
G36*
X84731Y90136D02*
X84731Y90136D01*
X83061Y90828D01*
X81782Y92106D01*
X81090Y93777D01*
X81090Y94427D01*
X81088Y94444D01*
X81090Y94462D01*
X81068Y94644D01*
X81050Y94827D01*
X81045Y94844D01*
X81043Y94862D01*
X80986Y95037D01*
X80932Y95212D01*
X80924Y95228D01*
X80918Y95245D01*
X80828Y95405D01*
X80740Y95566D01*
X80729Y95580D01*
X80720Y95595D01*
X80600Y95735D01*
X80483Y95875D01*
X80469Y95887D01*
X80457Y95900D01*
X80312Y96013D01*
X80169Y96128D01*
X80153Y96136D01*
X80139Y96147D01*
X79974Y96229D01*
X79812Y96313D01*
X79795Y96318D01*
X79778Y96326D01*
X79600Y96374D01*
X79425Y96425D01*
X79407Y96426D01*
X79390Y96431D01*
X79059Y96458D01*
X77491Y96458D01*
X75820Y97150D01*
X74542Y98428D01*
X73850Y100098D01*
X73850Y101424D01*
X73848Y101442D01*
X73850Y101460D01*
X73828Y101642D01*
X73810Y101825D01*
X73805Y101842D01*
X73803Y101859D01*
X73746Y102034D01*
X73692Y102210D01*
X73683Y102225D01*
X73678Y102242D01*
X73587Y102402D01*
X73500Y102564D01*
X73489Y102577D01*
X73480Y102593D01*
X73360Y102732D01*
X73242Y102873D01*
X73228Y102884D01*
X73217Y102898D01*
X73072Y103010D01*
X72929Y103125D01*
X72913Y103133D01*
X72899Y103144D01*
X72734Y103226D01*
X72571Y103311D01*
X72554Y103316D01*
X72538Y103324D01*
X72360Y103371D01*
X72184Y103422D01*
X72167Y103424D01*
X72149Y103428D01*
X71819Y103455D01*
X71096Y103455D01*
X69426Y104147D01*
X68147Y105426D01*
X67455Y107096D01*
X67455Y108969D01*
X67499Y109114D01*
X67500Y109123D01*
X67503Y109132D01*
X67519Y109323D01*
X67537Y109515D01*
X67536Y109524D01*
X67537Y109533D01*
X67516Y109724D01*
X67496Y109915D01*
X67493Y109924D01*
X67492Y109933D01*
X67433Y110116D01*
X67376Y110300D01*
X67372Y110308D01*
X67369Y110316D01*
X67275Y110484D01*
X67183Y110653D01*
X67177Y110660D01*
X67172Y110668D01*
X67047Y110814D01*
X66923Y110961D01*
X66916Y110967D01*
X66910Y110974D01*
X66760Y111092D01*
X66609Y111212D01*
X66601Y111216D01*
X66593Y111222D01*
X66423Y111307D01*
X66251Y111396D01*
X66242Y111398D01*
X66234Y111402D01*
X66048Y111453D01*
X65863Y111506D01*
X65854Y111506D01*
X65845Y111509D01*
X65653Y111522D01*
X65462Y111537D01*
X65453Y111536D01*
X65444Y111536D01*
X65255Y111512D01*
X65062Y111488D01*
X65053Y111485D01*
X65044Y111484D01*
X64955Y111455D01*
X63096Y111455D01*
X61426Y112147D01*
X60147Y113426D01*
X59455Y115096D01*
X59455Y116904D01*
X60147Y118574D01*
X61426Y119853D01*
X61602Y119926D01*
X61614Y119932D01*
X61626Y119936D01*
X61791Y120027D01*
X61957Y120116D01*
X61967Y120124D01*
X61979Y120131D01*
X62122Y120252D01*
X62267Y120372D01*
X62276Y120383D01*
X62286Y120392D01*
X62402Y120539D01*
X62521Y120685D01*
X62527Y120697D01*
X62535Y120707D01*
X62621Y120875D01*
X62708Y121042D01*
X62712Y121054D01*
X62718Y121066D01*
X62768Y121247D01*
X62821Y121428D01*
X62822Y121441D01*
X62826Y121454D01*
X62839Y121643D01*
X62856Y121829D01*
X62854Y121842D01*
X62855Y121856D01*
X62831Y122043D01*
X62810Y122229D01*
X62806Y122242D01*
X62805Y122255D01*
X62745Y122433D01*
X62687Y122612D01*
X62681Y122624D01*
X62676Y122637D01*
X62582Y122800D01*
X62491Y122964D01*
X62482Y122974D01*
X62475Y122986D01*
X62261Y123239D01*
X58406Y127094D01*
X58406Y128357D01*
X71332Y141284D01*
X71928Y141284D01*
X71954Y141286D01*
X71981Y141284D01*
X72155Y141306D01*
X72328Y141324D01*
X72354Y141331D01*
X72381Y141335D01*
X72546Y141390D01*
X72713Y141442D01*
X72737Y141455D01*
X72762Y141463D01*
X72914Y141550D01*
X73067Y141633D01*
X73088Y141651D01*
X73111Y141664D01*
X73364Y141879D01*
X75534Y144049D01*
X92263Y144049D01*
X115049Y121263D01*
X115049Y120220D01*
X115051Y120193D01*
X115049Y120167D01*
X115071Y119993D01*
X115089Y119819D01*
X115096Y119794D01*
X115100Y119767D01*
X115155Y119601D01*
X115207Y119434D01*
X115220Y119411D01*
X115228Y119385D01*
X115315Y119234D01*
X115399Y119080D01*
X115416Y119060D01*
X115429Y119037D01*
X115644Y118784D01*
X115853Y118574D01*
X116545Y116904D01*
X116545Y115096D01*
X115853Y113426D01*
X114574Y112147D01*
X112904Y111455D01*
X111096Y111455D01*
X109426Y112147D01*
X108147Y113426D01*
X107455Y115096D01*
X107455Y116904D01*
X107911Y118004D01*
X107917Y118025D01*
X107928Y118045D01*
X107976Y118218D01*
X108027Y118390D01*
X108030Y118412D01*
X108036Y118433D01*
X108049Y118612D01*
X108066Y118790D01*
X108063Y118812D01*
X108065Y118835D01*
X108042Y119013D01*
X108024Y119191D01*
X108017Y119212D01*
X108014Y119234D01*
X107957Y119404D01*
X107904Y119575D01*
X107893Y119595D01*
X107886Y119616D01*
X107797Y119771D01*
X107711Y119928D01*
X107697Y119945D01*
X107685Y119965D01*
X107471Y120218D01*
X90332Y137356D01*
X90311Y137373D01*
X90294Y137394D01*
X90156Y137501D01*
X90021Y137611D01*
X89997Y137624D01*
X89976Y137640D01*
X89819Y137718D01*
X89665Y137800D01*
X89639Y137808D01*
X89615Y137820D01*
X89446Y137865D01*
X89279Y137915D01*
X89252Y137917D01*
X89226Y137924D01*
X88896Y137951D01*
X80832Y137951D01*
X80823Y137950D01*
X80814Y137951D01*
X80622Y137930D01*
X80431Y137911D01*
X80423Y137909D01*
X80414Y137908D01*
X80231Y137850D01*
X80046Y137793D01*
X80038Y137789D01*
X80030Y137786D01*
X79861Y137693D01*
X79692Y137601D01*
X79685Y137596D01*
X79678Y137591D01*
X79531Y137467D01*
X79383Y137344D01*
X79377Y137337D01*
X79371Y137331D01*
X79252Y137180D01*
X79131Y137030D01*
X79126Y137022D01*
X79121Y137015D01*
X79033Y136842D01*
X78945Y136673D01*
X78943Y136664D01*
X78939Y136656D01*
X78887Y136470D01*
X78834Y136286D01*
X78833Y136277D01*
X78831Y136268D01*
X78816Y136075D01*
X78801Y135884D01*
X78802Y135876D01*
X78801Y135867D01*
X78826Y135674D01*
X78848Y135485D01*
X78850Y135476D01*
X78852Y135467D01*
X78913Y135284D01*
X78973Y135102D01*
X78977Y135094D01*
X78980Y135086D01*
X79076Y134919D01*
X79170Y134751D01*
X79176Y134744D01*
X79181Y134737D01*
X79395Y134484D01*
X84085Y129794D01*
X84085Y129306D01*
X84087Y129288D01*
X84086Y129270D01*
X84107Y129088D01*
X84125Y128905D01*
X84130Y128888D01*
X84133Y128870D01*
X84190Y128696D01*
X84243Y128520D01*
X84252Y128505D01*
X84257Y128488D01*
X84348Y128327D01*
X84435Y128166D01*
X84447Y128153D01*
X84455Y128137D01*
X84576Y127998D01*
X84693Y127857D01*
X84707Y127846D01*
X84718Y127832D01*
X84864Y127720D01*
X85007Y127605D01*
X85022Y127596D01*
X85037Y127585D01*
X85201Y127503D01*
X85364Y127419D01*
X85381Y127414D01*
X85397Y127406D01*
X85575Y127358D01*
X85751Y127308D01*
X85769Y127306D01*
X85786Y127302D01*
X86117Y127274D01*
X86605Y127274D01*
X91090Y122789D01*
X91090Y122122D01*
X91092Y122104D01*
X91090Y122086D01*
X91112Y121904D01*
X91130Y121721D01*
X91135Y121704D01*
X91137Y121686D01*
X91194Y121512D01*
X91248Y121336D01*
X91257Y121320D01*
X91262Y121303D01*
X91352Y121143D01*
X91440Y120982D01*
X91451Y120968D01*
X91460Y120953D01*
X91580Y120813D01*
X91698Y120673D01*
X91711Y120662D01*
X91723Y120648D01*
X91868Y120536D01*
X92011Y120420D01*
X92027Y120412D01*
X92041Y120401D01*
X92206Y120319D01*
X92369Y120235D01*
X92386Y120230D01*
X92402Y120222D01*
X92580Y120174D01*
X92756Y120123D01*
X92773Y120122D01*
X92791Y120117D01*
X93121Y120090D01*
X93789Y120090D01*
X98274Y115605D01*
X98274Y115117D01*
X98276Y115099D01*
X98274Y115081D01*
X98296Y114899D01*
X98314Y114716D01*
X98319Y114699D01*
X98321Y114682D01*
X98378Y114507D01*
X98432Y114331D01*
X98441Y114316D01*
X98446Y114299D01*
X98537Y114139D01*
X98624Y113977D01*
X98635Y113964D01*
X98644Y113948D01*
X98764Y113809D01*
X98882Y113668D01*
X98896Y113657D01*
X98907Y113643D01*
X99052Y113531D01*
X99195Y113416D01*
X99211Y113408D01*
X99225Y113397D01*
X99390Y113315D01*
X99553Y113230D01*
X99570Y113225D01*
X99586Y113217D01*
X99764Y113169D01*
X99940Y113119D01*
X99957Y113117D01*
X99975Y113113D01*
X100305Y113086D01*
X100794Y113086D01*
X105393Y108486D01*
X105437Y108343D01*
X105445Y108327D01*
X105451Y108310D01*
X105541Y108150D01*
X105629Y107989D01*
X105640Y107975D01*
X105649Y107960D01*
X105769Y107820D01*
X105886Y107680D01*
X105900Y107668D01*
X105912Y107655D01*
X106057Y107542D01*
X106200Y107427D01*
X106216Y107419D01*
X106230Y107408D01*
X106395Y107326D01*
X106557Y107242D01*
X106574Y107237D01*
X106591Y107229D01*
X106769Y107181D01*
X106944Y107130D01*
X106962Y107129D01*
X106979Y107124D01*
X107310Y107097D01*
X107501Y107097D01*
X108147Y106924D01*
X108727Y106589D01*
X109323Y105993D01*
X101510Y98180D01*
X101509Y98180D01*
X93696Y90367D01*
X93100Y90963D01*
X92683Y91685D01*
X92635Y91752D01*
X92595Y91824D01*
X92518Y91915D01*
X92448Y92012D01*
X92388Y92068D01*
X92335Y92131D01*
X92241Y92205D01*
X92153Y92286D01*
X92083Y92329D01*
X92019Y92380D01*
X91912Y92435D01*
X91810Y92497D01*
X91733Y92526D01*
X91660Y92563D01*
X91545Y92595D01*
X91432Y92636D01*
X91351Y92649D01*
X91272Y92671D01*
X91153Y92680D01*
X91034Y92698D01*
X90953Y92694D01*
X90870Y92700D01*
X90751Y92685D01*
X90632Y92680D01*
X90553Y92660D01*
X90471Y92650D01*
X90357Y92612D01*
X90241Y92583D01*
X90167Y92548D01*
X90089Y92522D01*
X89986Y92462D01*
X89878Y92411D01*
X89812Y92362D01*
X89740Y92321D01*
X89624Y92222D01*
X89555Y92170D01*
X89528Y92140D01*
X89487Y92106D01*
X88209Y90828D01*
X86539Y90136D01*
X84731Y90136D01*
G37*
%LPD*%
%LPC*%
G36*
X34162Y310790D02*
X34162Y310790D01*
X34140Y310980D01*
X34137Y310988D01*
X34136Y310997D01*
X34075Y311180D01*
X34015Y311363D01*
X34011Y311370D01*
X34008Y311379D01*
X33912Y311544D01*
X33817Y311713D01*
X33811Y311720D01*
X33807Y311728D01*
X33592Y311981D01*
X32147Y313426D01*
X31455Y315096D01*
X31455Y316904D01*
X32147Y318574D01*
X33426Y319853D01*
X35096Y320545D01*
X35392Y320545D01*
X35418Y320547D01*
X35445Y320545D01*
X35619Y320567D01*
X35792Y320585D01*
X35818Y320592D01*
X35845Y320596D01*
X36010Y320651D01*
X36177Y320703D01*
X36201Y320716D01*
X36226Y320724D01*
X36377Y320811D01*
X36531Y320895D01*
X36552Y320912D01*
X36575Y320925D01*
X36828Y321140D01*
X39809Y324120D01*
X39817Y324131D01*
X39827Y324139D01*
X39945Y324286D01*
X40064Y324432D01*
X40070Y324443D01*
X40078Y324454D01*
X40165Y324622D01*
X40252Y324787D01*
X40256Y324800D01*
X40262Y324812D01*
X40314Y324994D01*
X40367Y325173D01*
X40368Y325187D01*
X40372Y325200D01*
X40386Y325386D01*
X40403Y325574D01*
X40402Y325588D01*
X40403Y325601D01*
X40381Y325786D01*
X40360Y325974D01*
X40356Y325987D01*
X40354Y326001D01*
X40296Y326178D01*
X40239Y326358D01*
X40232Y326370D01*
X40228Y326383D01*
X40135Y326546D01*
X40044Y326711D01*
X40035Y326721D01*
X40028Y326733D01*
X39905Y326874D01*
X39783Y327018D01*
X39773Y327026D01*
X39764Y327036D01*
X39615Y327151D01*
X39467Y327267D01*
X39455Y327273D01*
X39445Y327282D01*
X39150Y327433D01*
X37426Y328147D01*
X36147Y329426D01*
X35455Y331096D01*
X35455Y332904D01*
X36163Y334614D01*
X36189Y334645D01*
X36311Y334795D01*
X36316Y334803D01*
X36321Y334810D01*
X36410Y334980D01*
X36500Y335151D01*
X36503Y335159D01*
X36507Y335167D01*
X36560Y335353D01*
X36615Y335537D01*
X36616Y335546D01*
X36618Y335554D01*
X36634Y335746D01*
X36651Y335938D01*
X36650Y335947D01*
X36651Y335956D01*
X36629Y336144D01*
X36608Y336338D01*
X36605Y336347D01*
X36604Y336355D01*
X36545Y336537D01*
X36487Y336722D01*
X36482Y336730D01*
X36479Y336738D01*
X36385Y336905D01*
X36292Y337074D01*
X36286Y337081D01*
X36281Y337089D01*
X36156Y337235D01*
X36031Y337381D01*
X36024Y337387D01*
X36018Y337394D01*
X35866Y337511D01*
X35715Y337631D01*
X35707Y337635D01*
X35700Y337640D01*
X35528Y337726D01*
X35356Y337813D01*
X35348Y337816D01*
X35340Y337820D01*
X35153Y337870D01*
X34969Y337921D01*
X34960Y337922D01*
X34951Y337924D01*
X34620Y337951D01*
X32220Y337951D01*
X32193Y337949D01*
X32166Y337951D01*
X31993Y337929D01*
X31819Y337911D01*
X31794Y337903D01*
X31767Y337900D01*
X31602Y337845D01*
X31434Y337793D01*
X31411Y337780D01*
X31385Y337772D01*
X31235Y337685D01*
X31080Y337601D01*
X31060Y337584D01*
X31037Y337571D01*
X30784Y337356D01*
X30574Y337147D01*
X28904Y336455D01*
X27096Y336455D01*
X25426Y337147D01*
X24147Y338426D01*
X23455Y340096D01*
X23455Y341278D01*
X23453Y341296D01*
X23455Y341314D01*
X23434Y341496D01*
X23415Y341679D01*
X23410Y341696D01*
X23408Y341714D01*
X23351Y341888D01*
X23297Y342064D01*
X23289Y342080D01*
X23283Y342097D01*
X23266Y342127D01*
X23266Y348836D01*
X35269Y348836D01*
X35269Y346080D01*
X35271Y346062D01*
X35269Y346044D01*
X35291Y345862D01*
X35309Y345679D01*
X35314Y345662D01*
X35316Y345645D01*
X35373Y345470D01*
X35427Y345294D01*
X35436Y345279D01*
X35441Y345262D01*
X35531Y345102D01*
X35619Y344940D01*
X35630Y344927D01*
X35639Y344911D01*
X35759Y344772D01*
X35877Y344631D01*
X35890Y344620D01*
X35902Y344606D01*
X36047Y344494D01*
X36190Y344379D01*
X36206Y344371D01*
X36220Y344360D01*
X36385Y344278D01*
X36548Y344193D01*
X36565Y344188D01*
X36581Y344180D01*
X36759Y344133D01*
X36935Y344082D01*
X36952Y344080D01*
X36970Y344076D01*
X37300Y344049D01*
X43423Y344049D01*
X43450Y344051D01*
X43476Y344049D01*
X43650Y344071D01*
X43824Y344089D01*
X43849Y344096D01*
X43876Y344100D01*
X44041Y344155D01*
X44208Y344207D01*
X44232Y344220D01*
X44257Y344228D01*
X44409Y344315D01*
X44563Y344399D01*
X44583Y344416D01*
X44606Y344429D01*
X44859Y344644D01*
X45178Y344962D01*
X63459Y344962D01*
X64352Y344069D01*
X64352Y337726D01*
X64007Y337381D01*
X63996Y337367D01*
X63982Y337355D01*
X63868Y337212D01*
X63752Y337069D01*
X63743Y337053D01*
X63732Y337039D01*
X63649Y336876D01*
X63563Y336713D01*
X63558Y336696D01*
X63550Y336680D01*
X63501Y336503D01*
X63448Y336328D01*
X63447Y336310D01*
X63442Y336293D01*
X63429Y336109D01*
X63412Y335927D01*
X63414Y335909D01*
X63413Y335891D01*
X63436Y335709D01*
X63455Y335526D01*
X63461Y335509D01*
X63463Y335492D01*
X63521Y335318D01*
X63577Y335143D01*
X63586Y335127D01*
X63591Y335110D01*
X63683Y334950D01*
X63772Y334790D01*
X63783Y334777D01*
X63792Y334761D01*
X64007Y334508D01*
X64352Y334163D01*
X64352Y327820D01*
X63880Y327348D01*
X63869Y327334D01*
X63855Y327322D01*
X63741Y327179D01*
X63625Y327036D01*
X63616Y327020D01*
X63605Y327006D01*
X63522Y326842D01*
X63436Y326680D01*
X63431Y326663D01*
X63423Y326647D01*
X63373Y326470D01*
X63321Y326295D01*
X63320Y326277D01*
X63315Y326260D01*
X63302Y326077D01*
X63285Y325894D01*
X63287Y325876D01*
X63286Y325858D01*
X63309Y325676D01*
X63328Y325493D01*
X63334Y325476D01*
X63336Y325459D01*
X63394Y325285D01*
X63450Y325109D01*
X63459Y325094D01*
X63464Y325077D01*
X63556Y324918D01*
X63645Y324757D01*
X63656Y324744D01*
X63665Y324728D01*
X63880Y324475D01*
X64352Y324003D01*
X64352Y317499D01*
X64282Y317366D01*
X64276Y317349D01*
X64268Y317333D01*
X64219Y317156D01*
X64167Y316980D01*
X64165Y316962D01*
X64160Y316945D01*
X64147Y316762D01*
X64130Y316579D01*
X64132Y316561D01*
X64131Y316543D01*
X64154Y316361D01*
X64174Y316179D01*
X64179Y316162D01*
X64181Y316144D01*
X64240Y315969D01*
X64295Y315795D01*
X64304Y315779D01*
X64310Y315762D01*
X64401Y315603D01*
X64490Y315443D01*
X64502Y315429D01*
X64511Y315413D01*
X64725Y315160D01*
X64860Y315025D01*
X65195Y314446D01*
X65368Y313800D01*
X65368Y312957D01*
X54319Y312957D01*
X54318Y312957D01*
X42984Y312957D01*
X42919Y313077D01*
X42913Y313084D01*
X42909Y313092D01*
X42783Y313239D01*
X42661Y313386D01*
X42654Y313392D01*
X42648Y313399D01*
X42496Y313519D01*
X42347Y313639D01*
X42339Y313643D01*
X42332Y313648D01*
X42160Y313736D01*
X41990Y313824D01*
X41981Y313827D01*
X41973Y313831D01*
X41787Y313882D01*
X41603Y313935D01*
X41594Y313936D01*
X41585Y313939D01*
X41393Y313953D01*
X41202Y313968D01*
X41193Y313967D01*
X41184Y313968D01*
X40991Y313944D01*
X40802Y313921D01*
X40793Y313919D01*
X40784Y313918D01*
X40602Y313856D01*
X40419Y313797D01*
X40411Y313792D01*
X40403Y313789D01*
X40237Y313694D01*
X40068Y313599D01*
X40062Y313593D01*
X40054Y313588D01*
X39801Y313374D01*
X38574Y312147D01*
X36904Y311455D01*
X35742Y311455D01*
X35733Y311454D01*
X35725Y311455D01*
X35534Y311435D01*
X35342Y311415D01*
X35333Y311413D01*
X35324Y311412D01*
X35141Y311354D01*
X34957Y311297D01*
X34949Y311293D01*
X34940Y311290D01*
X34772Y311197D01*
X34603Y311105D01*
X34596Y311100D01*
X34588Y311095D01*
X34441Y310971D01*
X34294Y310848D01*
X34288Y310841D01*
X34281Y310835D01*
X34174Y310699D01*
X34162Y310790D01*
G37*
%LPD*%
%LPC*%
G36*
X315995Y123108D02*
X315995Y123108D01*
X315995Y126428D01*
X316168Y127074D01*
X316503Y127653D01*
X316976Y128126D01*
X317555Y128461D01*
X318201Y128634D01*
X320853Y128634D01*
X320857Y128634D01*
X320862Y128634D01*
X321056Y128654D01*
X321253Y128674D01*
X321258Y128675D01*
X321262Y128676D01*
X321450Y128734D01*
X321638Y128792D01*
X321642Y128794D01*
X321646Y128795D01*
X321817Y128889D01*
X321992Y128984D01*
X321996Y128987D01*
X322000Y128989D01*
X322150Y129116D01*
X322302Y129241D01*
X322304Y129245D01*
X322308Y129248D01*
X322431Y129402D01*
X322554Y129555D01*
X322556Y129559D01*
X322559Y129563D01*
X322650Y129740D01*
X322739Y129913D01*
X322741Y129917D01*
X322743Y129921D01*
X322797Y130113D01*
X322851Y130299D01*
X322851Y130304D01*
X322852Y130308D01*
X322867Y130500D01*
X322884Y130701D01*
X322883Y130705D01*
X322883Y130710D01*
X322860Y130900D01*
X322837Y131101D01*
X322835Y131105D01*
X322835Y131109D01*
X322773Y131295D01*
X322712Y131483D01*
X322710Y131487D01*
X322708Y131492D01*
X322612Y131661D01*
X322514Y131834D01*
X322511Y131837D01*
X322509Y131841D01*
X322379Y131990D01*
X322251Y132139D01*
X322247Y132141D01*
X322244Y132145D01*
X322088Y132265D01*
X321933Y132385D01*
X321929Y132387D01*
X321925Y132390D01*
X321630Y132542D01*
X320888Y132849D01*
X318349Y135388D01*
X316975Y138705D01*
X316975Y153507D01*
X316975Y153510D01*
X316975Y170612D01*
X317868Y171505D01*
X334131Y171505D01*
X335024Y170612D01*
X335024Y157700D01*
X335025Y157697D01*
X335025Y138705D01*
X333651Y135388D01*
X331112Y132849D01*
X329252Y132079D01*
X329232Y132068D01*
X329211Y132061D01*
X329055Y131973D01*
X328897Y131888D01*
X328880Y131874D01*
X328860Y131863D01*
X328725Y131746D01*
X328587Y131632D01*
X328573Y131615D01*
X328556Y131600D01*
X328446Y131459D01*
X328333Y131319D01*
X328322Y131300D01*
X328309Y131282D01*
X328229Y131122D01*
X328146Y130963D01*
X328140Y130942D01*
X328130Y130922D01*
X328083Y130748D01*
X328033Y130577D01*
X328031Y130554D01*
X328025Y130533D01*
X327998Y130202D01*
X327998Y123108D01*
X315995Y123108D01*
G37*
%LPD*%
%LPC*%
G36*
X267489Y305001D02*
X267489Y305001D01*
X266596Y305895D01*
X266596Y318599D01*
X266595Y318608D01*
X266595Y337595D01*
X267969Y340912D01*
X270508Y343451D01*
X273825Y344825D01*
X277415Y344825D01*
X280732Y343451D01*
X283271Y340912D01*
X284645Y337595D01*
X284645Y323000D01*
X284646Y322991D01*
X284646Y305895D01*
X283752Y305001D01*
X267489Y305001D01*
G37*
%LPD*%
%LPC*%
G36*
X165614Y305079D02*
X165614Y305079D01*
X164721Y305972D01*
X164721Y323023D01*
X164725Y323081D01*
X164725Y337455D01*
X166099Y340772D01*
X168638Y343311D01*
X171955Y344685D01*
X175545Y344685D01*
X178862Y343311D01*
X181401Y340772D01*
X182775Y337455D01*
X182775Y318507D01*
X182770Y318449D01*
X182770Y305972D01*
X181877Y305079D01*
X165614Y305079D01*
G37*
%LPD*%
%LPC*%
G36*
X216211Y305095D02*
X216211Y305095D01*
X215318Y305988D01*
X215318Y318411D01*
X215315Y318442D01*
X215317Y318473D01*
X215305Y318561D01*
X215305Y337435D01*
X216679Y340752D01*
X219218Y343291D01*
X219271Y343313D01*
X219272Y343313D01*
X222535Y344665D01*
X226125Y344665D01*
X229442Y343291D01*
X231981Y340752D01*
X233355Y337435D01*
X233355Y323105D01*
X233358Y323077D01*
X233356Y323049D01*
X233367Y322958D01*
X233367Y305988D01*
X232474Y305095D01*
X216211Y305095D01*
G37*
%LPD*%
%LPC*%
G36*
X191319Y305181D02*
X191319Y305181D01*
X190426Y306074D01*
X190426Y322963D01*
X190445Y323198D01*
X190445Y337455D01*
X191819Y340772D01*
X194358Y343311D01*
X197675Y344685D01*
X201265Y344685D01*
X204582Y343311D01*
X207121Y340772D01*
X208495Y337455D01*
X208495Y318649D01*
X208476Y318414D01*
X208476Y306074D01*
X207582Y305181D01*
X191319Y305181D01*
G37*
%LPD*%
%LPC*%
G36*
X114319Y305079D02*
X114319Y305079D01*
X113426Y305972D01*
X113426Y322970D01*
X113435Y323086D01*
X113435Y337295D01*
X114809Y340612D01*
X117348Y343151D01*
X120665Y344525D01*
X124255Y344525D01*
X127572Y343151D01*
X130111Y340612D01*
X131485Y337295D01*
X131485Y318394D01*
X131475Y318278D01*
X131475Y305972D01*
X130582Y305079D01*
X114319Y305079D01*
G37*
%LPD*%
%LPC*%
G36*
X241926Y305295D02*
X241926Y305295D01*
X241033Y306188D01*
X241033Y318422D01*
X241030Y318454D01*
X241032Y318485D01*
X241025Y318536D01*
X241025Y337435D01*
X242399Y340752D01*
X244938Y343291D01*
X244991Y343313D01*
X244992Y343313D01*
X248255Y344665D01*
X251845Y344665D01*
X255162Y343291D01*
X257701Y340752D01*
X259075Y337435D01*
X259075Y323301D01*
X259078Y323272D01*
X259076Y323243D01*
X259082Y323190D01*
X259082Y306188D01*
X258189Y305295D01*
X241926Y305295D01*
G37*
%LPD*%
%LPC*%
G36*
X317846Y305187D02*
X317846Y305187D01*
X316952Y306080D01*
X316952Y322928D01*
X316975Y323208D01*
X316975Y337295D01*
X318349Y340612D01*
X320888Y343151D01*
X324205Y344525D01*
X327795Y344525D01*
X331112Y343151D01*
X333651Y340612D01*
X335025Y337295D01*
X335025Y318525D01*
X335002Y318246D01*
X335002Y306080D01*
X334109Y305187D01*
X317846Y305187D01*
G37*
%LPD*%
%LPC*%
G36*
X140062Y305238D02*
X140062Y305238D01*
X139169Y306131D01*
X139169Y318267D01*
X139166Y318298D01*
X139168Y318330D01*
X139155Y318429D01*
X139155Y337295D01*
X140529Y340612D01*
X143068Y343151D01*
X146385Y344525D01*
X149975Y344525D01*
X153292Y343151D01*
X155831Y340612D01*
X157205Y337295D01*
X157205Y323250D01*
X157207Y323223D01*
X157205Y323196D01*
X157219Y323091D01*
X157219Y306131D01*
X156325Y305238D01*
X140062Y305238D01*
G37*
%LPD*%
%LPC*%
G36*
X113545Y30555D02*
X113545Y30555D01*
X110228Y31929D01*
X107689Y34467D01*
X106315Y37784D01*
X106315Y41375D01*
X107689Y44692D01*
X110228Y47230D01*
X110766Y47453D01*
X110781Y47461D01*
X110798Y47467D01*
X110958Y47556D01*
X111120Y47643D01*
X111134Y47655D01*
X111150Y47663D01*
X111289Y47782D01*
X111431Y47900D01*
X111442Y47913D01*
X111456Y47925D01*
X111569Y48070D01*
X111685Y48212D01*
X111693Y48228D01*
X111704Y48242D01*
X111787Y48407D01*
X111872Y48569D01*
X111877Y48586D01*
X111885Y48602D01*
X111933Y48779D01*
X111985Y48955D01*
X111986Y48973D01*
X111991Y48990D01*
X112004Y49174D01*
X112019Y49356D01*
X112017Y49374D01*
X112019Y49392D01*
X111995Y49575D01*
X111974Y49756D01*
X111969Y49773D01*
X111966Y49791D01*
X111865Y50107D01*
X111455Y51096D01*
X111455Y52904D01*
X112147Y54574D01*
X113426Y55853D01*
X115096Y56545D01*
X116904Y56545D01*
X118574Y55853D01*
X119853Y54574D01*
X120545Y52904D01*
X120545Y51096D01*
X119905Y49551D01*
X119898Y49530D01*
X119888Y49510D01*
X119840Y49337D01*
X119788Y49165D01*
X119786Y49143D01*
X119780Y49122D01*
X119767Y48942D01*
X119750Y48765D01*
X119752Y48743D01*
X119751Y48720D01*
X119773Y48541D01*
X119792Y48364D01*
X119798Y48343D01*
X119801Y48321D01*
X119858Y48150D01*
X119912Y47980D01*
X119922Y47960D01*
X119929Y47939D01*
X120019Y47784D01*
X120105Y47627D01*
X120119Y47609D01*
X120130Y47590D01*
X120345Y47337D01*
X122991Y44692D01*
X124365Y41375D01*
X124365Y37784D01*
X122991Y34467D01*
X120452Y31929D01*
X117135Y30555D01*
X113545Y30555D01*
G37*
%LPD*%
%LPC*%
G36*
X326405Y32399D02*
X326405Y32399D01*
X323072Y33780D01*
X320520Y36331D01*
X319140Y39665D01*
X319140Y43273D01*
X320520Y46607D01*
X323072Y49158D01*
X326405Y50539D01*
X330013Y50539D01*
X333347Y49158D01*
X335898Y46607D01*
X337279Y43273D01*
X337279Y39665D01*
X335898Y36331D01*
X333347Y33780D01*
X330013Y32399D01*
X326405Y32399D01*
G37*
%LPD*%
%LPC*%
G36*
X224805Y6999D02*
X224805Y6999D01*
X221472Y8380D01*
X218920Y10931D01*
X217540Y14265D01*
X217540Y17873D01*
X218920Y21207D01*
X221472Y23758D01*
X224805Y25139D01*
X228413Y25139D01*
X231747Y23758D01*
X234298Y21207D01*
X235679Y17873D01*
X235679Y14265D01*
X234298Y10931D01*
X231747Y8380D01*
X228413Y6999D01*
X224805Y6999D01*
G37*
%LPD*%
%LPC*%
G36*
X293518Y304032D02*
X293518Y304032D01*
X292872Y304205D01*
X292292Y304540D01*
X291819Y305013D01*
X291485Y305592D01*
X291312Y306238D01*
X291312Y311574D01*
X291646Y311574D01*
X291697Y311579D01*
X291748Y311576D01*
X291897Y311599D01*
X292046Y311614D01*
X292095Y311629D01*
X292146Y311636D01*
X292287Y311688D01*
X292431Y311732D01*
X292476Y311756D01*
X292524Y311774D01*
X292653Y311852D01*
X292785Y311924D01*
X292825Y311956D01*
X292868Y311983D01*
X292979Y312085D01*
X293095Y312181D01*
X293127Y312221D01*
X293164Y312256D01*
X293253Y312378D01*
X293347Y312495D01*
X293370Y312540D01*
X293400Y312582D01*
X293463Y312719D01*
X293532Y312852D01*
X293547Y312901D01*
X293568Y312948D01*
X293602Y313095D01*
X293644Y313239D01*
X293648Y313290D01*
X293660Y313340D01*
X293664Y313491D01*
X293677Y313641D01*
X293671Y313691D01*
X293672Y313742D01*
X293647Y313891D01*
X293630Y314040D01*
X293614Y314089D01*
X293605Y314139D01*
X293552Y314280D01*
X293505Y314423D01*
X293480Y314468D01*
X293461Y314515D01*
X293342Y314713D01*
X293307Y314774D01*
X293298Y314784D01*
X293289Y314799D01*
X292692Y315620D01*
X292642Y315710D01*
X292604Y315753D01*
X292573Y315802D01*
X292473Y315905D01*
X292379Y316015D01*
X292333Y316050D01*
X292293Y316091D01*
X292174Y316173D01*
X292060Y316261D01*
X292009Y316287D01*
X291961Y316320D01*
X291829Y316376D01*
X291700Y316441D01*
X291644Y316456D01*
X291591Y316478D01*
X291451Y316508D01*
X291312Y316545D01*
X291312Y319772D01*
X291307Y319814D01*
X291299Y319922D01*
X291299Y325801D01*
X298853Y325801D01*
X298853Y314541D01*
X298855Y314523D01*
X298853Y314506D01*
X298875Y314323D01*
X298893Y314141D01*
X298898Y314124D01*
X298900Y314106D01*
X298914Y314065D01*
X298886Y313971D01*
X298885Y313953D01*
X298880Y313936D01*
X298853Y313605D01*
X298853Y304032D01*
X293518Y304032D01*
G37*
%LPD*%
%LPC*%
G36*
X303852Y304032D02*
X303852Y304032D01*
X303852Y308728D01*
X303850Y308746D01*
X303851Y308764D01*
X303839Y308866D01*
X303839Y313605D01*
X303837Y313623D01*
X303839Y313640D01*
X303818Y313822D01*
X303799Y314005D01*
X303794Y314023D01*
X303792Y314040D01*
X303779Y314081D01*
X303806Y314176D01*
X303808Y314193D01*
X303812Y314211D01*
X303839Y314541D01*
X303839Y325801D01*
X311381Y325801D01*
X311381Y322221D01*
X311391Y322121D01*
X311391Y322022D01*
X311393Y322008D01*
X311393Y316547D01*
X311356Y316538D01*
X311299Y316532D01*
X311161Y316490D01*
X311021Y316456D01*
X310969Y316431D01*
X310914Y316414D01*
X310787Y316346D01*
X310657Y316284D01*
X310611Y316250D01*
X310560Y316223D01*
X310450Y316130D01*
X310334Y316044D01*
X310295Y316002D01*
X310251Y315965D01*
X310161Y315853D01*
X310064Y315745D01*
X310029Y315690D01*
X309998Y315651D01*
X309969Y315595D01*
X309391Y314799D01*
X309365Y314755D01*
X309333Y314715D01*
X309264Y314581D01*
X309188Y314451D01*
X309171Y314403D01*
X309148Y314358D01*
X309106Y314213D01*
X309057Y314071D01*
X309050Y314020D01*
X309036Y313971D01*
X309024Y313821D01*
X309004Y313671D01*
X309008Y313620D01*
X309003Y313569D01*
X309021Y313420D01*
X309031Y313270D01*
X309044Y313220D01*
X309050Y313170D01*
X309097Y313026D01*
X309136Y312881D01*
X309159Y312835D01*
X309175Y312787D01*
X309249Y312656D01*
X309316Y312521D01*
X309348Y312481D01*
X309373Y312436D01*
X309471Y312322D01*
X309564Y312204D01*
X309603Y312170D01*
X309636Y312131D01*
X309755Y312039D01*
X309869Y311941D01*
X309914Y311916D01*
X309954Y311885D01*
X310089Y311818D01*
X310220Y311744D01*
X310269Y311728D01*
X310315Y311705D01*
X310460Y311666D01*
X310603Y311620D01*
X310654Y311614D01*
X310704Y311601D01*
X310934Y311582D01*
X311003Y311574D01*
X311017Y311575D01*
X311034Y311574D01*
X311393Y311574D01*
X311393Y306238D01*
X311220Y305592D01*
X310885Y305013D01*
X310412Y304540D01*
X309833Y304205D01*
X309187Y304032D01*
X303852Y304032D01*
G37*
%LPD*%
%LPC*%
G36*
X303839Y330799D02*
X303839Y330799D01*
X303839Y345545D01*
X305194Y345105D01*
X306602Y344388D01*
X307881Y343459D01*
X308999Y342341D01*
X309928Y341062D01*
X310645Y339654D01*
X311133Y338151D01*
X311381Y336590D01*
X311381Y330799D01*
X303839Y330799D01*
G37*
%LPD*%
%LPC*%
G36*
X291299Y330799D02*
X291299Y330799D01*
X291299Y336590D01*
X291547Y338151D01*
X292035Y339654D01*
X292752Y341062D01*
X293681Y342341D01*
X294799Y343459D01*
X296078Y344388D01*
X297486Y345105D01*
X298841Y345545D01*
X298841Y330799D01*
X291299Y330799D01*
G37*
%LPD*%
%LPC*%
G36*
X23266Y302987D02*
X23266Y302987D01*
X23266Y308513D01*
X32156Y308513D01*
X32165Y308514D01*
X32174Y308513D01*
X32365Y308534D01*
X32556Y308553D01*
X32565Y308556D01*
X32574Y308557D01*
X32755Y308614D01*
X32941Y308671D01*
X32949Y308675D01*
X32958Y308678D01*
X33126Y308771D01*
X33295Y308863D01*
X33302Y308869D01*
X33310Y308873D01*
X33458Y308998D01*
X33605Y309121D01*
X33610Y309128D01*
X33617Y309133D01*
X33725Y309269D01*
X33736Y309179D01*
X33758Y308989D01*
X33761Y308980D01*
X33762Y308971D01*
X33823Y308789D01*
X33883Y308606D01*
X33888Y308598D01*
X33890Y308590D01*
X33987Y308422D01*
X34081Y308255D01*
X34087Y308248D01*
X34091Y308241D01*
X34306Y307988D01*
X34761Y307532D01*
X35096Y306953D01*
X35269Y306307D01*
X35269Y302987D01*
X23266Y302987D01*
G37*
%LPD*%
%LPC*%
G36*
X23161Y232508D02*
X23161Y232508D01*
X23161Y238034D01*
X32957Y238034D01*
X33604Y237861D01*
X34183Y237526D01*
X34656Y237053D01*
X34991Y236474D01*
X35164Y235828D01*
X35164Y232508D01*
X23161Y232508D01*
G37*
%LPD*%
%LPC*%
G36*
X23266Y354803D02*
X23266Y354803D01*
X23266Y360329D01*
X33063Y360329D01*
X33709Y360156D01*
X34288Y359821D01*
X34761Y359348D01*
X35096Y358769D01*
X35269Y358123D01*
X35269Y354803D01*
X23266Y354803D01*
G37*
%LPD*%
%LPC*%
G36*
X22957Y161700D02*
X22957Y161700D01*
X22957Y167226D01*
X32754Y167226D01*
X33400Y167052D01*
X33979Y166718D01*
X34452Y166245D01*
X34787Y165666D01*
X34960Y165019D01*
X34960Y161700D01*
X22957Y161700D01*
G37*
%LPD*%
%LPC*%
G36*
X315995Y71292D02*
X315995Y71292D01*
X315995Y74612D01*
X316168Y75258D01*
X316503Y75837D01*
X316976Y76310D01*
X317555Y76645D01*
X318201Y76818D01*
X327998Y76818D01*
X327998Y71292D01*
X315995Y71292D01*
G37*
%LPD*%
%LPC*%
G36*
X22957Y155732D02*
X22957Y155732D01*
X34960Y155732D01*
X34960Y152412D01*
X34787Y151766D01*
X34452Y151187D01*
X33979Y150714D01*
X33400Y150379D01*
X32754Y150206D01*
X22957Y150206D01*
X22957Y155732D01*
G37*
%LPD*%
%LPC*%
G36*
X82874Y72901D02*
X82874Y72901D01*
X89801Y79828D01*
X90381Y80163D01*
X91027Y80336D01*
X91696Y80336D01*
X92342Y80163D01*
X92921Y79828D01*
X95269Y77481D01*
X86781Y68994D01*
X82874Y72901D01*
G37*
%LPD*%
%LPC*%
G36*
X91001Y64774D02*
X91001Y64774D01*
X99488Y73261D01*
X101836Y70914D01*
X102170Y70334D01*
X102343Y69688D01*
X102343Y69019D01*
X102170Y68373D01*
X101836Y67794D01*
X94908Y60866D01*
X91001Y64774D01*
G37*
%LPD*%
%LPC*%
G36*
X31866Y123909D02*
X31866Y123909D01*
X38793Y130836D01*
X39373Y131171D01*
X40019Y131344D01*
X40688Y131344D01*
X41334Y131171D01*
X41913Y130836D01*
X44261Y128489D01*
X35773Y120001D01*
X31866Y123909D01*
G37*
%LPD*%
%LPC*%
G36*
X39993Y115782D02*
X39993Y115782D01*
X48481Y124269D01*
X50828Y121922D01*
X51162Y121342D01*
X51336Y120696D01*
X51336Y120027D01*
X51162Y119381D01*
X50828Y118802D01*
X43901Y111874D01*
X39993Y115782D01*
G37*
%LPD*%
%LPC*%
G36*
X318201Y111614D02*
X318201Y111614D01*
X317555Y111788D01*
X316976Y112122D01*
X316503Y112595D01*
X316168Y113175D01*
X315995Y113821D01*
X315995Y117140D01*
X327998Y117140D01*
X327998Y111614D01*
X318201Y111614D01*
G37*
%LPD*%
%LPC*%
G36*
X318201Y59798D02*
X318201Y59798D01*
X317555Y59972D01*
X316976Y60306D01*
X316503Y60779D01*
X316168Y61359D01*
X315995Y62005D01*
X315995Y65324D01*
X327998Y65324D01*
X327998Y59798D01*
X318201Y59798D01*
G37*
%LPD*%
%LPC*%
G36*
X279834Y43893D02*
X279834Y43893D01*
X279834Y51286D01*
X281281Y50816D01*
X282695Y50095D01*
X283980Y49162D01*
X285102Y48039D01*
X286036Y46755D01*
X286756Y45341D01*
X287226Y43893D01*
X279834Y43893D01*
G37*
%LPD*%
%LPC*%
G36*
X152834Y43893D02*
X152834Y43893D01*
X152834Y51286D01*
X154281Y50816D01*
X155695Y50095D01*
X156980Y49162D01*
X158102Y48039D01*
X159036Y46755D01*
X159756Y45341D01*
X160226Y43893D01*
X152834Y43893D01*
G37*
%LPD*%
%LPC*%
G36*
X152834Y39045D02*
X152834Y39045D01*
X160226Y39045D01*
X159756Y37597D01*
X159036Y36183D01*
X158102Y34899D01*
X156980Y33776D01*
X155695Y32843D01*
X154281Y32122D01*
X152834Y31652D01*
X152834Y39045D01*
G37*
%LPD*%
%LPC*%
G36*
X279834Y39045D02*
X279834Y39045D01*
X287226Y39045D01*
X286756Y37597D01*
X286036Y36183D01*
X285102Y34899D01*
X283980Y33776D01*
X282695Y32843D01*
X281281Y32122D01*
X279834Y31652D01*
X279834Y39045D01*
G37*
%LPD*%
%LPC*%
G36*
X285896Y111234D02*
X285896Y111234D01*
X285896Y112077D01*
X286069Y112723D01*
X286404Y113302D01*
X286877Y113775D01*
X287456Y114110D01*
X288102Y114283D01*
X294914Y114283D01*
X294914Y111234D01*
X285896Y111234D01*
G37*
%LPD*%
%LPC*%
G36*
X298977Y111234D02*
X298977Y111234D01*
X298977Y114283D01*
X305789Y114283D01*
X306435Y114110D01*
X307015Y113775D01*
X307488Y113302D01*
X307822Y112723D01*
X307995Y112077D01*
X307995Y111234D01*
X298977Y111234D01*
G37*
%LPD*%
%LPC*%
G36*
X56350Y308894D02*
X56350Y308894D01*
X65368Y308894D01*
X65368Y308051D01*
X65195Y307405D01*
X64860Y306825D01*
X64387Y306352D01*
X63808Y306018D01*
X63162Y305845D01*
X56350Y305845D01*
X56350Y308894D01*
G37*
%LPD*%
%LPC*%
G36*
X56040Y167606D02*
X56040Y167606D01*
X65059Y167606D01*
X65059Y166763D01*
X64886Y166117D01*
X64551Y165538D01*
X64078Y165065D01*
X63499Y164730D01*
X62853Y164557D01*
X56040Y164557D01*
X56040Y167606D01*
G37*
%LPD*%
%LPC*%
G36*
X56244Y238415D02*
X56244Y238415D01*
X65263Y238415D01*
X65263Y237572D01*
X65090Y236925D01*
X64755Y236346D01*
X64282Y235873D01*
X63703Y235538D01*
X63056Y235365D01*
X56244Y235365D01*
X56244Y238415D01*
G37*
%LPD*%
%LPC*%
G36*
X105819Y96744D02*
X105819Y96744D01*
X112196Y103120D01*
X112792Y102524D01*
X113126Y101945D01*
X113299Y101299D01*
X113299Y100630D01*
X113126Y99984D01*
X112792Y99404D01*
X107975Y94587D01*
X105819Y96744D01*
G37*
%LPD*%
%LPC*%
G36*
X45475Y305845D02*
X45475Y305845D01*
X44829Y306018D01*
X44249Y306352D01*
X43776Y306825D01*
X43442Y307405D01*
X43269Y308051D01*
X43269Y308894D01*
X52287Y308894D01*
X52287Y305845D01*
X45475Y305845D01*
G37*
%LPD*%
%LPC*%
G36*
X45165Y164557D02*
X45165Y164557D01*
X44519Y164730D01*
X43940Y165065D01*
X43467Y165538D01*
X43132Y166117D01*
X42959Y166763D01*
X42959Y167606D01*
X51978Y167606D01*
X51978Y164557D01*
X45165Y164557D01*
G37*
%LPD*%
%LPC*%
G36*
X45369Y235365D02*
X45369Y235365D01*
X44723Y235538D01*
X44144Y235873D01*
X43671Y236346D01*
X43336Y236925D01*
X43163Y237572D01*
X43163Y238415D01*
X52182Y238415D01*
X52182Y235365D01*
X45369Y235365D01*
G37*
%LPD*%
%LPC*%
G36*
X98391Y86390D02*
X98391Y86390D01*
X97744Y86563D01*
X97165Y86898D01*
X96569Y87494D01*
X102946Y93871D01*
X105102Y91714D01*
X100285Y86898D01*
X99706Y86563D01*
X99060Y86390D01*
X98391Y86390D01*
G37*
%LPD*%
%LPC*%
G36*
X139146Y108894D02*
X139146Y108894D01*
X139146Y111197D01*
X139319Y111843D01*
X139654Y112423D01*
X140127Y112896D01*
X140706Y113230D01*
X141352Y113404D01*
X143655Y113404D01*
X143655Y108894D01*
X139146Y108894D01*
G37*
%LPD*%
D10*
X122460Y335500D02*
X122460Y320500D01*
X148180Y320500D02*
X148180Y335500D01*
X112500Y187750D02*
X97500Y187750D01*
X97500Y212200D02*
X112500Y212200D01*
X112500Y237750D02*
X97500Y237750D01*
X97500Y262200D02*
X112500Y262200D01*
X112500Y287460D02*
X97500Y287460D01*
X173750Y320660D02*
X173750Y335660D01*
X199470Y335660D02*
X199470Y320660D01*
X224330Y320640D02*
X224330Y335640D01*
X250050Y335640D02*
X250050Y320640D01*
X275620Y320800D02*
X275620Y335800D01*
X301340Y335800D02*
X301340Y320800D01*
X326000Y320500D02*
X326000Y335500D01*
X122460Y155500D02*
X122460Y140500D01*
X148180Y140500D02*
X148180Y155500D01*
X173750Y155660D02*
X173750Y140660D01*
X199470Y140660D02*
X199470Y155660D01*
X224330Y155640D02*
X224330Y140640D01*
X250050Y140640D02*
X250050Y155640D01*
X275620Y155800D02*
X275620Y140800D01*
X301340Y140800D02*
X301340Y155800D01*
X326000Y155500D02*
X326000Y140500D01*
D11*
X325977Y314212D03*
X301352Y314073D03*
X275621Y314026D03*
X250058Y314320D03*
X224342Y314119D03*
X199451Y314206D03*
X173745Y314103D03*
X148194Y314263D03*
X122450Y314103D03*
X118756Y287457D03*
X118614Y262186D03*
X118392Y237775D03*
X118774Y212229D03*
X118948Y187711D03*
X122455Y162284D03*
X148198Y162363D03*
X173711Y161965D03*
X199458Y162363D03*
X224302Y162439D03*
X250037Y162631D03*
X275582Y162443D03*
X301317Y162194D03*
X326000Y162481D03*
D12*
X150409Y41469D03*
X150409Y16069D03*
X175809Y41469D03*
X175809Y16069D03*
X201209Y41469D03*
X201209Y16069D03*
X226609Y41469D03*
X226609Y16069D03*
X252009Y41469D03*
X252009Y16069D03*
X277409Y41469D03*
X277409Y16069D03*
X302809Y41469D03*
X302809Y16069D03*
X328209Y41469D03*
X328209Y16069D03*
D13*
X115340Y39579D03*
D14*
X161618Y91218D03*
X161618Y108218D03*
D15*
X145687Y106863D03*
X145687Y91863D03*
D16*
G36*
X63523Y124134D02*
X59931Y127726D01*
X71963Y139758D01*
X75555Y136166D01*
X63523Y124134D01*
G37*
G36*
X70528Y117130D02*
X66936Y120722D01*
X78968Y132754D01*
X82560Y129162D01*
X70528Y117130D01*
G37*
G36*
X77532Y110125D02*
X73940Y113717D01*
X85972Y125749D01*
X89564Y122157D01*
X77532Y110125D01*
G37*
G36*
X84717Y102941D02*
X81125Y106533D01*
X93157Y118565D01*
X96749Y114973D01*
X84717Y102941D01*
G37*
G36*
X91721Y95936D02*
X88129Y99528D01*
X100161Y111560D01*
X103753Y107968D01*
X91721Y95936D01*
G37*
G36*
X98726Y88932D02*
X95134Y92524D01*
X107166Y104556D01*
X110758Y100964D01*
X98726Y88932D01*
G37*
D17*
G36*
X82202Y51753D02*
X73760Y60195D01*
X91360Y77795D01*
X99802Y69353D01*
X82202Y51753D01*
G37*
G36*
X31195Y102761D02*
X22753Y111203D01*
X40353Y128803D01*
X48795Y120361D01*
X31195Y102761D01*
G37*
D18*
X54213Y270418D03*
X54213Y260512D03*
X54213Y250352D03*
X54213Y240446D03*
D19*
X20177Y229524D03*
X20177Y281340D03*
D18*
X54009Y199610D03*
X54009Y189704D03*
X54009Y179544D03*
X54009Y169638D03*
D19*
X19973Y158716D03*
X19973Y210532D03*
D18*
X54318Y340897D03*
X54318Y330991D03*
X54318Y320831D03*
X54318Y310925D03*
D19*
X20282Y300003D03*
X20282Y351819D03*
D13*
X74527Y213649D03*
D20*
X226500Y111000D03*
X220000Y111000D03*
X213500Y111000D03*
X213500Y89000D03*
X220000Y89000D03*
X226500Y89000D03*
D21*
X188000Y110500D03*
X188000Y89500D03*
D22*
X253588Y101812D02*
X253588Y109788D01*
X253588Y101812D02*
X251412Y101812D01*
X251412Y109788D01*
X253588Y109788D01*
X253588Y102501D02*
X251412Y102501D01*
X251412Y103190D02*
X253588Y103190D01*
X253588Y103879D02*
X251412Y103879D01*
X251412Y104568D02*
X253588Y104568D01*
X253588Y105257D02*
X251412Y105257D01*
X251412Y105946D02*
X253588Y105946D01*
X253588Y106635D02*
X251412Y106635D01*
X251412Y107324D02*
X253588Y107324D01*
X253588Y108013D02*
X251412Y108013D01*
X251412Y108702D02*
X253588Y108702D01*
X253588Y109391D02*
X251412Y109391D01*
X258588Y109788D02*
X258588Y101812D01*
X256412Y101812D01*
X256412Y109788D01*
X258588Y109788D01*
X258588Y102501D02*
X256412Y102501D01*
X256412Y103190D02*
X258588Y103190D01*
X258588Y103879D02*
X256412Y103879D01*
X256412Y104568D02*
X258588Y104568D01*
X258588Y105257D02*
X256412Y105257D01*
X256412Y105946D02*
X258588Y105946D01*
X258588Y106635D02*
X256412Y106635D01*
X256412Y107324D02*
X258588Y107324D01*
X258588Y108013D02*
X256412Y108013D01*
X256412Y108702D02*
X258588Y108702D01*
X258588Y109391D02*
X256412Y109391D01*
X263588Y109788D02*
X263588Y101812D01*
X261412Y101812D01*
X261412Y109788D01*
X263588Y109788D01*
X263588Y102501D02*
X261412Y102501D01*
X261412Y103190D02*
X263588Y103190D01*
X263588Y103879D02*
X261412Y103879D01*
X261412Y104568D02*
X263588Y104568D01*
X263588Y105257D02*
X261412Y105257D01*
X261412Y105946D02*
X263588Y105946D01*
X263588Y106635D02*
X261412Y106635D01*
X261412Y107324D02*
X263588Y107324D01*
X263588Y108013D02*
X261412Y108013D01*
X261412Y108702D02*
X263588Y108702D01*
X263588Y109391D02*
X261412Y109391D01*
X268588Y109788D02*
X268588Y101812D01*
X266412Y101812D01*
X266412Y109788D01*
X268588Y109788D01*
X268588Y102501D02*
X266412Y102501D01*
X266412Y103190D02*
X268588Y103190D01*
X268588Y103879D02*
X266412Y103879D01*
X266412Y104568D02*
X268588Y104568D01*
X268588Y105257D02*
X266412Y105257D01*
X266412Y105946D02*
X268588Y105946D01*
X268588Y106635D02*
X266412Y106635D01*
X266412Y107324D02*
X268588Y107324D01*
X268588Y108013D02*
X266412Y108013D01*
X266412Y108702D02*
X268588Y108702D01*
X268588Y109391D02*
X266412Y109391D01*
X253588Y98188D02*
X253588Y90212D01*
X251412Y90212D01*
X251412Y98188D01*
X253588Y98188D01*
X253588Y90901D02*
X251412Y90901D01*
X251412Y91590D02*
X253588Y91590D01*
X253588Y92279D02*
X251412Y92279D01*
X251412Y92968D02*
X253588Y92968D01*
X253588Y93657D02*
X251412Y93657D01*
X251412Y94346D02*
X253588Y94346D01*
X253588Y95035D02*
X251412Y95035D01*
X251412Y95724D02*
X253588Y95724D01*
X253588Y96413D02*
X251412Y96413D01*
X251412Y97102D02*
X253588Y97102D01*
X253588Y97791D02*
X251412Y97791D01*
X258588Y98188D02*
X258588Y90212D01*
X256412Y90212D01*
X256412Y98188D01*
X258588Y98188D01*
X258588Y90901D02*
X256412Y90901D01*
X256412Y91590D02*
X258588Y91590D01*
X258588Y92279D02*
X256412Y92279D01*
X256412Y92968D02*
X258588Y92968D01*
X258588Y93657D02*
X256412Y93657D01*
X256412Y94346D02*
X258588Y94346D01*
X258588Y95035D02*
X256412Y95035D01*
X256412Y95724D02*
X258588Y95724D01*
X258588Y96413D02*
X256412Y96413D01*
X256412Y97102D02*
X258588Y97102D01*
X258588Y97791D02*
X256412Y97791D01*
X263588Y98188D02*
X263588Y90212D01*
X261412Y90212D01*
X261412Y98188D01*
X263588Y98188D01*
X263588Y90901D02*
X261412Y90901D01*
X261412Y91590D02*
X263588Y91590D01*
X263588Y92279D02*
X261412Y92279D01*
X261412Y92968D02*
X263588Y92968D01*
X263588Y93657D02*
X261412Y93657D01*
X261412Y94346D02*
X263588Y94346D01*
X263588Y95035D02*
X261412Y95035D01*
X261412Y95724D02*
X263588Y95724D01*
X263588Y96413D02*
X261412Y96413D01*
X261412Y97102D02*
X263588Y97102D01*
X263588Y97791D02*
X261412Y97791D01*
X268588Y98188D02*
X268588Y90212D01*
X266412Y90212D01*
X266412Y98188D01*
X268588Y98188D01*
X268588Y90901D02*
X266412Y90901D01*
X266412Y91590D02*
X268588Y91590D01*
X268588Y92279D02*
X266412Y92279D01*
X266412Y92968D02*
X268588Y92968D01*
X268588Y93657D02*
X266412Y93657D01*
X266412Y94346D02*
X268588Y94346D01*
X268588Y95035D02*
X266412Y95035D01*
X266412Y95724D02*
X268588Y95724D01*
X268588Y96413D02*
X266412Y96413D01*
X266412Y97102D02*
X268588Y97102D01*
X268588Y97791D02*
X266412Y97791D01*
D18*
X296946Y79230D03*
X296946Y89136D03*
X296946Y99296D03*
X296946Y109202D03*
D19*
X330982Y120124D03*
X330982Y68308D03*
D23*
X220000Y81206D02*
X220000Y89000D01*
X220000Y81206D02*
X221506Y79700D01*
X230596Y79700D01*
X233020Y117884D02*
X229384Y121520D01*
X222718Y121520D01*
X220000Y118803D02*
X220000Y111000D01*
X233020Y82125D02*
X230596Y79700D01*
X233020Y82125D02*
X233020Y117884D01*
X222718Y121520D02*
X220000Y118803D01*
X199470Y135470D02*
X199470Y148160D01*
X199470Y135470D02*
X188000Y124000D01*
X184000Y124000D01*
X176000Y116000D01*
X176000Y56000D01*
X180197Y52062D02*
X186402Y45857D01*
X179938Y52062D02*
X176000Y56000D01*
X179938Y52062D02*
X180197Y52062D01*
X186402Y45857D02*
X186402Y26662D01*
X175809Y16069D01*
D24*
X252500Y60500D02*
X252500Y94200D01*
X250708Y58708D02*
X236068Y58708D01*
D25*
X236068Y58708D03*
D24*
X250708Y58708D02*
X252500Y60500D01*
X257500Y57500D02*
X257500Y94200D01*
X252000Y52000D02*
X232000Y52000D01*
X226609Y46609D01*
X226609Y41469D01*
X252000Y52000D02*
X257500Y57500D01*
X262500Y54500D02*
X262500Y94200D01*
X252009Y44009D02*
X252009Y41469D01*
X252009Y44009D02*
X262500Y54500D01*
X267500Y46181D02*
X267500Y94200D01*
X267500Y46181D02*
X267070Y45752D01*
X267070Y26408D01*
X277409Y16069D01*
D25*
X116000Y52000D03*
D23*
X116000Y40240D01*
X115340Y39579D01*
D25*
X136000Y56000D03*
D23*
X136000Y12000D01*
X144000Y4000D01*
X189140Y4000D01*
X201209Y16069D01*
D26*
X213500Y53760D02*
X213500Y89000D01*
X213500Y53760D02*
X201209Y41469D01*
D27*
X316140Y4000D02*
X328209Y16069D01*
X316140Y4000D02*
X264000Y4000D01*
X252009Y15991D01*
X252009Y16069D01*
D25*
X240000Y88000D03*
X212000Y176000D03*
D23*
X213500Y174500D01*
X213500Y128000D01*
X122460Y148000D02*
X104000Y148000D01*
X84000Y168000D02*
X84000Y192000D01*
X76390Y199610D01*
X54009Y199610D01*
X96000Y156000D02*
X104000Y148000D01*
X96000Y156000D02*
X84000Y168000D01*
X122455Y162284D02*
X122455Y148005D01*
X122460Y148000D01*
X236000Y128000D02*
X240000Y124000D01*
X236000Y128000D02*
X213500Y128000D01*
X213500Y111000D01*
X240000Y124000D02*
X240000Y88000D01*
D24*
X296946Y99296D02*
X297650Y100000D01*
X320000Y100000D01*
D25*
X320000Y100000D03*
X24000Y248000D03*
D23*
X26352Y250352D01*
X54213Y250352D01*
D25*
X312000Y88000D03*
D24*
X298082Y88000D01*
X296946Y89136D01*
D23*
X54213Y260512D02*
X16512Y260512D01*
X16000Y260000D01*
D25*
X16000Y260000D03*
X316000Y28000D03*
D23*
X302809Y41191D01*
X302809Y41469D01*
X54318Y320831D02*
X40831Y320831D01*
X36000Y316000D01*
D25*
X36000Y316000D03*
X37167Y280000D03*
D23*
X76000Y280000D01*
X93800Y262200D02*
X105000Y262200D01*
X93800Y262200D02*
X76000Y280000D01*
X74748Y124942D02*
X65806Y116000D01*
X64000Y116000D01*
D25*
X64000Y116000D03*
D23*
X54318Y330991D02*
X41009Y330991D01*
X40000Y332000D01*
D25*
X40000Y332000D03*
X44000Y292000D03*
D23*
X48540Y287460D01*
X105000Y287460D01*
X95941Y103748D02*
X86874Y94681D01*
X85635Y94681D01*
D25*
X85635Y94681D03*
D23*
X79186Y101003D02*
X88937Y110753D01*
X79186Y101003D02*
X78395Y101003D01*
D25*
X78395Y101003D03*
D23*
X81752Y117752D02*
X81752Y117937D01*
X81752Y117752D02*
X72000Y108000D01*
D25*
X72000Y108000D03*
D23*
X161618Y108218D02*
X161618Y178383D01*
X157035Y182966D02*
X135436Y182966D01*
X157035Y182966D02*
X161618Y178383D01*
X130405Y187996D02*
X130405Y229781D01*
X130405Y187996D02*
X135436Y182966D01*
X122436Y237750D02*
X105000Y237750D01*
X122436Y237750D02*
X130405Y229781D01*
X146332Y91218D02*
X161618Y91218D01*
X146332Y91218D02*
X145687Y91863D01*
X74527Y213649D02*
X41649Y213649D01*
X40000Y212000D01*
X40000Y192000D01*
X42296Y189704D01*
X54009Y189704D01*
D26*
X226500Y111000D02*
X226500Y102500D01*
X224000Y100000D01*
X198500Y100000D02*
X188000Y89500D01*
X198500Y100000D02*
X224000Y100000D01*
D23*
X274084Y79230D02*
X296946Y79230D01*
X274084Y79230D02*
X273314Y80000D01*
D25*
X273314Y80000D03*
X246686Y72000D03*
D23*
X246392Y71706D01*
X224076Y71706D01*
D25*
X224076Y71706D03*
X192000Y80000D03*
D23*
X188000Y84000D01*
X188000Y89500D01*
D25*
X168000Y76000D03*
D23*
X128000Y76000D01*
D25*
X128000Y76000D03*
X28000Y180000D03*
D23*
X53553Y180000D01*
X54009Y179544D01*
D25*
X112000Y116000D03*
D23*
X112000Y120000D01*
D25*
X28000Y269000D03*
D23*
X29418Y270418D01*
X54213Y270418D01*
X91000Y141000D02*
X112000Y120000D01*
X76797Y141000D02*
X67743Y131946D01*
X76797Y141000D02*
X91000Y141000D01*
D25*
X28000Y341000D03*
D23*
X54216Y341000D01*
X54318Y340897D01*
D25*
X197719Y110762D03*
D27*
X188262Y110762D01*
X188000Y110500D01*
D25*
X268314Y120000D03*
D24*
X267500Y119186D01*
X267500Y105800D01*
X262500Y105800D02*
X262500Y122500D01*
X301340Y147962D02*
X301340Y148300D01*
X283884Y130506D02*
X270506Y130506D01*
X283884Y130506D02*
X301340Y147962D01*
X270506Y130506D02*
X262500Y122500D01*
X257500Y125500D02*
X257500Y105800D01*
X275620Y143620D02*
X275620Y148300D01*
X275620Y143620D02*
X257500Y125500D01*
X252500Y105800D02*
X252500Y145690D01*
X250050Y148140D01*
M02*
