G04 EAGLE Gerber X2 export*
%TF.Part,Single*%
%TF.FileFunction,Other,Bottom Copper*%
%TF.FilePolarity,Positive*%
%TF.GenerationSoftware,Autodesk,EAGLE,9.6.2*%
%TF.CreationDate,2025-02-28T08:43:12Z*%
G75*
%MOMM*%
%FSLAX34Y34*%
%LPD*%
%INBottom Copper*%
%AMOC8*
5,1,8,0,0,1.08239X$1,22.5*%
G01*
%ADD10C,1.500000*%
%ADD11R,1.500000X1.500000*%
%ADD12C,1.509000*%
%ADD13C,0.304800*%
%ADD14C,0.604000*%
%ADD15C,0.254000*%
%ADD16C,0.508000*%

G36*
X122938Y79051D02*
X122938Y79051D01*
X122956Y79049D01*
X123138Y79070D01*
X123321Y79089D01*
X123338Y79094D01*
X123355Y79096D01*
X123530Y79153D01*
X123706Y79207D01*
X123721Y79215D01*
X123738Y79221D01*
X123898Y79311D01*
X124060Y79399D01*
X124073Y79410D01*
X124089Y79419D01*
X124228Y79539D01*
X124369Y79656D01*
X124380Y79670D01*
X124394Y79682D01*
X124506Y79827D01*
X124621Y79970D01*
X124629Y79986D01*
X124640Y80000D01*
X124722Y80165D01*
X124807Y80327D01*
X124812Y80344D01*
X124820Y80360D01*
X124867Y80539D01*
X124918Y80714D01*
X124920Y80732D01*
X124924Y80749D01*
X124951Y81080D01*
X124951Y97896D01*
X124949Y97922D01*
X124951Y97949D01*
X124929Y98123D01*
X124911Y98296D01*
X124904Y98322D01*
X124900Y98349D01*
X124845Y98514D01*
X124793Y98681D01*
X124780Y98705D01*
X124772Y98730D01*
X124685Y98882D01*
X124601Y99035D01*
X124585Y99055D01*
X124577Y99069D01*
X124571Y99079D01*
X124356Y99332D01*
X112828Y110860D01*
X112807Y110877D01*
X112790Y110898D01*
X112652Y111005D01*
X112517Y111115D01*
X112493Y111128D01*
X112472Y111144D01*
X112315Y111222D01*
X112161Y111304D01*
X112135Y111312D01*
X112111Y111324D01*
X111942Y111369D01*
X111775Y111419D01*
X111748Y111421D01*
X111723Y111428D01*
X111392Y111455D01*
X111096Y111455D01*
X109426Y112147D01*
X108147Y113426D01*
X107455Y115096D01*
X107455Y116904D01*
X108147Y118574D01*
X109426Y119853D01*
X111096Y120545D01*
X112904Y120545D01*
X114574Y119853D01*
X115853Y118574D01*
X116545Y116904D01*
X116545Y116608D01*
X116547Y116582D01*
X116545Y116555D01*
X116567Y116381D01*
X116585Y116208D01*
X116592Y116182D01*
X116596Y116155D01*
X116651Y115990D01*
X116703Y115823D01*
X116716Y115799D01*
X116724Y115774D01*
X116811Y115622D01*
X116895Y115469D01*
X116912Y115448D01*
X116925Y115425D01*
X117140Y115172D01*
X129484Y102828D01*
X129491Y102822D01*
X129496Y102815D01*
X129646Y102695D01*
X129795Y102573D01*
X129803Y102569D01*
X129810Y102563D01*
X129980Y102475D01*
X130151Y102384D01*
X130160Y102382D01*
X130167Y102377D01*
X130352Y102324D01*
X130537Y102269D01*
X130546Y102269D01*
X130554Y102266D01*
X130746Y102250D01*
X130938Y102233D01*
X130947Y102234D01*
X130956Y102233D01*
X131145Y102255D01*
X131338Y102276D01*
X131347Y102279D01*
X131355Y102280D01*
X131537Y102339D01*
X131722Y102398D01*
X131730Y102402D01*
X131738Y102405D01*
X131907Y102500D01*
X132074Y102593D01*
X132081Y102598D01*
X132089Y102603D01*
X132235Y102729D01*
X132381Y102853D01*
X132387Y102860D01*
X132394Y102866D01*
X132511Y103017D01*
X132631Y103169D01*
X132635Y103177D01*
X132640Y103184D01*
X132726Y103356D01*
X132813Y103528D01*
X132816Y103537D01*
X132820Y103545D01*
X132870Y103731D01*
X132921Y103916D01*
X132922Y103925D01*
X132924Y103933D01*
X132951Y104264D01*
X132951Y133324D01*
X132950Y133333D01*
X132951Y133342D01*
X132930Y133534D01*
X132911Y133725D01*
X132909Y133734D01*
X132908Y133743D01*
X132850Y133925D01*
X132793Y134110D01*
X132789Y134118D01*
X132786Y134126D01*
X132693Y134295D01*
X132601Y134464D01*
X132596Y134471D01*
X132591Y134479D01*
X132466Y134627D01*
X132344Y134773D01*
X132337Y134779D01*
X132331Y134786D01*
X132179Y134906D01*
X132030Y135026D01*
X132022Y135030D01*
X132015Y135035D01*
X131843Y135123D01*
X131673Y135211D01*
X131664Y135214D01*
X131656Y135218D01*
X131470Y135269D01*
X131286Y135323D01*
X131277Y135323D01*
X131268Y135326D01*
X131076Y135340D01*
X130884Y135355D01*
X130876Y135354D01*
X130867Y135355D01*
X130674Y135331D01*
X130485Y135309D01*
X130476Y135306D01*
X130467Y135305D01*
X130284Y135243D01*
X130102Y135184D01*
X130094Y135179D01*
X130086Y135176D01*
X129920Y135081D01*
X129751Y134986D01*
X129744Y134980D01*
X129737Y134975D01*
X129484Y134761D01*
X127572Y132849D01*
X124255Y131475D01*
X120665Y131475D01*
X117348Y132849D01*
X114809Y135388D01*
X113435Y138705D01*
X113435Y153305D01*
X113432Y153335D01*
X113434Y153364D01*
X113430Y153400D01*
X113430Y170415D01*
X114323Y171308D01*
X126156Y171308D01*
X126182Y171311D01*
X126209Y171309D01*
X126383Y171331D01*
X126556Y171348D01*
X126582Y171356D01*
X126608Y171360D01*
X126774Y171415D01*
X126941Y171466D01*
X126965Y171479D01*
X126990Y171488D01*
X127142Y171575D01*
X127295Y171658D01*
X127316Y171675D01*
X127339Y171689D01*
X127592Y171903D01*
X136913Y181225D01*
X136924Y181238D01*
X136938Y181250D01*
X137051Y181394D01*
X137168Y181536D01*
X137176Y181552D01*
X137187Y181566D01*
X137271Y181730D01*
X137357Y181892D01*
X137362Y181909D01*
X137370Y181925D01*
X137419Y182102D01*
X137471Y182278D01*
X137473Y182295D01*
X137478Y182313D01*
X137491Y182496D01*
X137508Y182679D01*
X137506Y182696D01*
X137507Y182714D01*
X137484Y182896D01*
X137464Y183079D01*
X137459Y183096D01*
X137457Y183114D01*
X137398Y183287D01*
X137343Y183463D01*
X137334Y183478D01*
X137329Y183495D01*
X137237Y183655D01*
X137148Y183815D01*
X137137Y183829D01*
X137128Y183844D01*
X136913Y184097D01*
X134289Y186721D01*
X134289Y291479D01*
X136521Y293711D01*
X333904Y293711D01*
X333922Y293713D01*
X333940Y293712D01*
X334122Y293733D01*
X334305Y293751D01*
X334322Y293756D01*
X334339Y293758D01*
X334514Y293815D01*
X334690Y293869D01*
X334705Y293878D01*
X334722Y293883D01*
X334882Y293974D01*
X335044Y294061D01*
X335057Y294072D01*
X335073Y294081D01*
X335212Y294201D01*
X335353Y294319D01*
X335364Y294333D01*
X335378Y294344D01*
X335490Y294489D01*
X335605Y294633D01*
X335613Y294648D01*
X335624Y294662D01*
X335706Y294827D01*
X335791Y294990D01*
X335796Y295007D01*
X335804Y295023D01*
X335851Y295201D01*
X335902Y295377D01*
X335904Y295395D01*
X335908Y295412D01*
X335935Y295742D01*
X335935Y303156D01*
X335933Y303174D01*
X335935Y303191D01*
X335914Y303374D01*
X335895Y303556D01*
X335890Y303574D01*
X335888Y303591D01*
X335831Y303766D01*
X335777Y303941D01*
X335769Y303957D01*
X335763Y303974D01*
X335673Y304134D01*
X335585Y304295D01*
X335574Y304309D01*
X335565Y304325D01*
X335445Y304464D01*
X335328Y304605D01*
X335314Y304616D01*
X335302Y304629D01*
X335157Y304742D01*
X335014Y304857D01*
X334998Y304865D01*
X334984Y304876D01*
X334819Y304958D01*
X334657Y305043D01*
X334640Y305047D01*
X334624Y305055D01*
X334445Y305103D01*
X334270Y305154D01*
X334252Y305155D01*
X334235Y305160D01*
X333904Y305187D01*
X317846Y305187D01*
X316952Y306080D01*
X316952Y322928D01*
X316975Y323208D01*
X316975Y337295D01*
X318349Y340612D01*
X320888Y343151D01*
X322549Y343839D01*
X324205Y344525D01*
X327795Y344525D01*
X331112Y343151D01*
X333651Y340612D01*
X335025Y337295D01*
X335025Y325565D01*
X335027Y325538D01*
X335025Y325512D01*
X335047Y325338D01*
X335065Y325164D01*
X335072Y325139D01*
X335076Y325112D01*
X335131Y324947D01*
X335183Y324779D01*
X335196Y324756D01*
X335204Y324731D01*
X335291Y324579D01*
X335375Y324425D01*
X335392Y324405D01*
X335405Y324382D01*
X335620Y324129D01*
X340722Y319027D01*
X340729Y319021D01*
X340734Y319014D01*
X340884Y318894D01*
X341033Y318772D01*
X341041Y318767D01*
X341048Y318762D01*
X341219Y318673D01*
X341389Y318583D01*
X341397Y318580D01*
X341405Y318576D01*
X341591Y318523D01*
X341775Y318468D01*
X341784Y318467D01*
X341792Y318465D01*
X341984Y318449D01*
X342176Y318432D01*
X342185Y318433D01*
X342194Y318432D01*
X342383Y318454D01*
X342576Y318475D01*
X342585Y318478D01*
X342593Y318479D01*
X342775Y318538D01*
X342960Y318597D01*
X342968Y318601D01*
X342976Y318604D01*
X343145Y318699D01*
X343312Y318792D01*
X343319Y318797D01*
X343327Y318802D01*
X343473Y318928D01*
X343619Y319052D01*
X343625Y319059D01*
X343632Y319065D01*
X343749Y319216D01*
X343869Y319368D01*
X343873Y319376D01*
X343878Y319383D01*
X343963Y319554D01*
X344051Y319727D01*
X344054Y319735D01*
X344058Y319743D01*
X344107Y319929D01*
X344159Y320115D01*
X344160Y320124D01*
X344162Y320132D01*
X344189Y320463D01*
X344189Y329579D01*
X344189Y329584D01*
X344189Y353580D01*
X344186Y353607D01*
X344188Y353633D01*
X344166Y353807D01*
X344149Y353981D01*
X344141Y354006D01*
X344138Y354033D01*
X344082Y354198D01*
X344031Y354365D01*
X344018Y354389D01*
X344009Y354414D01*
X343922Y354566D01*
X343839Y354720D01*
X343822Y354740D01*
X343809Y354763D01*
X343594Y355016D01*
X331016Y367594D01*
X330996Y367611D01*
X330978Y367631D01*
X330840Y367738D01*
X330705Y367849D01*
X330681Y367861D01*
X330660Y367878D01*
X330503Y367956D01*
X330349Y368038D01*
X330324Y368045D01*
X330299Y368057D01*
X330130Y368103D01*
X329963Y368152D01*
X329937Y368155D01*
X329911Y368162D01*
X329580Y368189D01*
X305586Y368189D01*
X305579Y368189D01*
X195692Y368189D01*
X195683Y368188D01*
X195674Y368189D01*
X195483Y368168D01*
X195292Y368149D01*
X195283Y368147D01*
X195274Y368146D01*
X195092Y368088D01*
X194907Y368031D01*
X194899Y368027D01*
X194890Y368024D01*
X194722Y367931D01*
X194553Y367839D01*
X194546Y367834D01*
X194538Y367829D01*
X194391Y367705D01*
X194243Y367582D01*
X194238Y367575D01*
X194231Y367569D01*
X194112Y367418D01*
X193991Y367268D01*
X193987Y367260D01*
X193981Y367253D01*
X193894Y367080D01*
X193805Y366911D01*
X193803Y366902D01*
X193799Y366894D01*
X193747Y366708D01*
X193694Y366524D01*
X193693Y366515D01*
X193691Y366506D01*
X193677Y366313D01*
X193661Y366122D01*
X193662Y366114D01*
X193662Y366105D01*
X193686Y365912D01*
X193708Y365723D01*
X193711Y365714D01*
X193712Y365705D01*
X193773Y365522D01*
X193833Y365340D01*
X193837Y365332D01*
X193840Y365324D01*
X193936Y365157D01*
X194031Y364989D01*
X194037Y364982D01*
X194041Y364975D01*
X194256Y364722D01*
X200119Y358859D01*
X202500Y356478D01*
X202500Y345531D01*
X202502Y345508D01*
X202500Y345486D01*
X202522Y345309D01*
X202539Y345130D01*
X202546Y345109D01*
X202549Y345087D01*
X202605Y344917D01*
X202658Y344745D01*
X202668Y344725D01*
X202675Y344704D01*
X202764Y344549D01*
X202849Y344391D01*
X202864Y344374D01*
X202875Y344355D01*
X202993Y344219D01*
X203107Y344082D01*
X203124Y344068D01*
X203139Y344051D01*
X203281Y343942D01*
X203421Y343830D01*
X203441Y343819D01*
X203458Y343806D01*
X203753Y343654D01*
X204582Y343311D01*
X207121Y340772D01*
X208495Y337455D01*
X208495Y318649D01*
X208476Y318414D01*
X208476Y306074D01*
X207582Y305181D01*
X191319Y305181D01*
X190426Y306074D01*
X190426Y322963D01*
X190445Y323198D01*
X190445Y337455D01*
X191819Y340772D01*
X194358Y343311D01*
X195148Y343638D01*
X195168Y343649D01*
X195189Y343656D01*
X195345Y343744D01*
X195503Y343828D01*
X195520Y343843D01*
X195540Y343853D01*
X195675Y343970D01*
X195813Y344085D01*
X195827Y344102D01*
X195844Y344117D01*
X195954Y344258D01*
X196067Y344397D01*
X196077Y344417D01*
X196091Y344435D01*
X196171Y344595D01*
X196254Y344754D01*
X196260Y344775D01*
X196270Y344795D01*
X196317Y344969D01*
X196367Y345140D01*
X196369Y345162D01*
X196375Y345184D01*
X196402Y345515D01*
X196402Y353111D01*
X196399Y353138D01*
X196401Y353164D01*
X196379Y353338D01*
X196362Y353512D01*
X196354Y353537D01*
X196351Y353564D01*
X196295Y353729D01*
X196244Y353897D01*
X196231Y353920D01*
X196223Y353945D01*
X196135Y354097D01*
X196052Y354251D01*
X196035Y354271D01*
X196022Y354294D01*
X195807Y354547D01*
X187332Y363022D01*
X187311Y363039D01*
X187294Y363060D01*
X187156Y363167D01*
X187021Y363277D01*
X186997Y363290D01*
X186976Y363306D01*
X186819Y363384D01*
X186665Y363466D01*
X186639Y363474D01*
X186615Y363486D01*
X186446Y363531D01*
X186279Y363581D01*
X186252Y363583D01*
X186227Y363590D01*
X185896Y363617D01*
X171692Y363617D01*
X171683Y363616D01*
X171674Y363617D01*
X171483Y363596D01*
X171292Y363577D01*
X171283Y363575D01*
X171274Y363574D01*
X171092Y363516D01*
X170907Y363459D01*
X170899Y363455D01*
X170890Y363452D01*
X170722Y363359D01*
X170553Y363267D01*
X170546Y363262D01*
X170538Y363257D01*
X170391Y363133D01*
X170243Y363010D01*
X170238Y363003D01*
X170231Y362997D01*
X170112Y362846D01*
X169991Y362696D01*
X169987Y362688D01*
X169981Y362681D01*
X169894Y362508D01*
X169805Y362339D01*
X169803Y362330D01*
X169799Y362322D01*
X169747Y362136D01*
X169694Y361952D01*
X169693Y361943D01*
X169691Y361934D01*
X169677Y361741D01*
X169661Y361550D01*
X169662Y361542D01*
X169662Y361533D01*
X169686Y361340D01*
X169708Y361151D01*
X169711Y361142D01*
X169712Y361133D01*
X169773Y360950D01*
X169833Y360768D01*
X169837Y360760D01*
X169840Y360752D01*
X169936Y360585D01*
X170031Y360417D01*
X170037Y360410D01*
X170041Y360403D01*
X170256Y360150D01*
X174418Y355988D01*
X176799Y353607D01*
X176799Y345523D01*
X176801Y345500D01*
X176799Y345478D01*
X176821Y345301D01*
X176839Y345122D01*
X176845Y345101D01*
X176848Y345079D01*
X176904Y344909D01*
X176957Y344737D01*
X176967Y344717D01*
X176974Y344696D01*
X177063Y344541D01*
X177149Y344383D01*
X177163Y344366D01*
X177174Y344347D01*
X177292Y344211D01*
X177406Y344074D01*
X177424Y344060D01*
X177438Y344043D01*
X177581Y343934D01*
X177720Y343822D01*
X177740Y343811D01*
X177758Y343798D01*
X178053Y343646D01*
X178862Y343311D01*
X181401Y340772D01*
X182775Y337455D01*
X182775Y318507D01*
X182770Y318449D01*
X182770Y305972D01*
X181877Y305079D01*
X165614Y305079D01*
X164721Y305972D01*
X164721Y323023D01*
X164725Y323081D01*
X164725Y337455D01*
X166099Y340772D01*
X168638Y343311D01*
X169447Y343646D01*
X169467Y343657D01*
X169488Y343664D01*
X169644Y343752D01*
X169802Y343836D01*
X169819Y343851D01*
X169839Y343861D01*
X169974Y343978D01*
X170113Y344093D01*
X170127Y344110D01*
X170144Y344125D01*
X170253Y344266D01*
X170366Y344405D01*
X170377Y344425D01*
X170390Y344443D01*
X170470Y344604D01*
X170553Y344762D01*
X170560Y344783D01*
X170570Y344803D01*
X170616Y344977D01*
X170666Y345148D01*
X170668Y345170D01*
X170674Y345192D01*
X170701Y345523D01*
X170701Y350240D01*
X170699Y350266D01*
X170701Y350293D01*
X170679Y350467D01*
X170661Y350640D01*
X170654Y350666D01*
X170650Y350693D01*
X170595Y350858D01*
X170543Y351025D01*
X170530Y351049D01*
X170522Y351074D01*
X170435Y351226D01*
X170351Y351379D01*
X170334Y351400D01*
X170321Y351423D01*
X170106Y351676D01*
X163332Y358450D01*
X163311Y358467D01*
X163294Y358488D01*
X163156Y358595D01*
X163021Y358705D01*
X162997Y358718D01*
X162976Y358734D01*
X162819Y358812D01*
X162665Y358894D01*
X162639Y358902D01*
X162615Y358914D01*
X162446Y358959D01*
X162279Y359009D01*
X162252Y359011D01*
X162227Y359018D01*
X161896Y359045D01*
X147692Y359045D01*
X147683Y359044D01*
X147674Y359045D01*
X147481Y359024D01*
X147292Y359005D01*
X147283Y359003D01*
X147274Y359002D01*
X147090Y358943D01*
X146907Y358887D01*
X146899Y358883D01*
X146890Y358880D01*
X146722Y358787D01*
X146553Y358695D01*
X146546Y358690D01*
X146538Y358685D01*
X146391Y358561D01*
X146243Y358438D01*
X146238Y358431D01*
X146231Y358425D01*
X146111Y358273D01*
X145991Y358124D01*
X145987Y358116D01*
X145981Y358109D01*
X145893Y357935D01*
X145805Y357767D01*
X145803Y357758D01*
X145799Y357750D01*
X145747Y357564D01*
X145694Y357380D01*
X145693Y357371D01*
X145691Y357362D01*
X145677Y357169D01*
X145661Y356978D01*
X145662Y356970D01*
X145662Y356961D01*
X145686Y356768D01*
X145708Y356579D01*
X145711Y356570D01*
X145712Y356561D01*
X145773Y356379D01*
X145833Y356196D01*
X145837Y356188D01*
X145840Y356180D01*
X145936Y356013D01*
X146031Y355845D01*
X146037Y355838D01*
X146041Y355831D01*
X146256Y355578D01*
X148862Y352972D01*
X151243Y350591D01*
X151243Y345357D01*
X151245Y345335D01*
X151243Y345312D01*
X151265Y345135D01*
X151283Y344956D01*
X151289Y344935D01*
X151292Y344913D01*
X151348Y344743D01*
X151401Y344571D01*
X151411Y344552D01*
X151418Y344531D01*
X151507Y344375D01*
X151592Y344217D01*
X151607Y344200D01*
X151618Y344181D01*
X151736Y344046D01*
X151850Y343908D01*
X151868Y343894D01*
X151882Y343877D01*
X152025Y343768D01*
X152164Y343656D01*
X152184Y343646D01*
X152201Y343632D01*
X152497Y343480D01*
X153292Y343151D01*
X155831Y340612D01*
X157205Y337295D01*
X157205Y323250D01*
X157207Y323223D01*
X157205Y323196D01*
X157219Y323091D01*
X157219Y306131D01*
X156325Y305238D01*
X140062Y305238D01*
X139169Y306131D01*
X139169Y318267D01*
X139166Y318298D01*
X139168Y318330D01*
X139155Y318429D01*
X139155Y337295D01*
X140529Y340612D01*
X143068Y343151D01*
X143891Y343492D01*
X143911Y343502D01*
X143932Y343509D01*
X144088Y343597D01*
X144246Y343682D01*
X144263Y343696D01*
X144283Y343707D01*
X144418Y343824D01*
X144556Y343938D01*
X144571Y343956D01*
X144587Y343970D01*
X144697Y344112D01*
X144810Y344251D01*
X144821Y344271D01*
X144834Y344288D01*
X144914Y344449D01*
X144997Y344608D01*
X145004Y344629D01*
X145013Y344649D01*
X145060Y344822D01*
X145110Y344994D01*
X145112Y345016D01*
X145118Y345038D01*
X145145Y345368D01*
X145145Y347224D01*
X145143Y347250D01*
X145144Y347277D01*
X145123Y347451D01*
X145105Y347625D01*
X145097Y347650D01*
X145094Y347677D01*
X145038Y347842D01*
X144987Y348009D01*
X144974Y348033D01*
X144966Y348058D01*
X144879Y348210D01*
X144795Y348363D01*
X144778Y348384D01*
X144765Y348407D01*
X144550Y348660D01*
X139332Y353878D01*
X139311Y353895D01*
X139294Y353916D01*
X139156Y354023D01*
X139021Y354133D01*
X138997Y354146D01*
X138976Y354162D01*
X138819Y354240D01*
X138665Y354322D01*
X138639Y354330D01*
X138615Y354342D01*
X138446Y354387D01*
X138279Y354437D01*
X138252Y354439D01*
X138227Y354446D01*
X137896Y354473D01*
X122742Y354473D01*
X122733Y354472D01*
X122724Y354473D01*
X122533Y354452D01*
X122342Y354433D01*
X122333Y354431D01*
X122324Y354430D01*
X122142Y354372D01*
X121957Y354315D01*
X121949Y354311D01*
X121940Y354308D01*
X121772Y354215D01*
X121603Y354123D01*
X121596Y354118D01*
X121588Y354113D01*
X121440Y353988D01*
X121293Y353866D01*
X121288Y353859D01*
X121281Y353853D01*
X121161Y353701D01*
X121041Y353552D01*
X121037Y353544D01*
X121031Y353537D01*
X120944Y353365D01*
X120855Y353195D01*
X120853Y353186D01*
X120849Y353178D01*
X120797Y352992D01*
X120744Y352808D01*
X120743Y352799D01*
X120741Y352790D01*
X120727Y352598D01*
X120711Y352406D01*
X120712Y352398D01*
X120712Y352389D01*
X120736Y352196D01*
X120758Y352007D01*
X120761Y351998D01*
X120762Y351989D01*
X120824Y351806D01*
X120883Y351624D01*
X120887Y351616D01*
X120890Y351608D01*
X120987Y351440D01*
X121081Y351273D01*
X121087Y351266D01*
X121091Y351259D01*
X121306Y351006D01*
X123128Y349184D01*
X125509Y346803D01*
X125509Y345363D01*
X125511Y345340D01*
X125509Y345318D01*
X125531Y345140D01*
X125549Y344962D01*
X125555Y344941D01*
X125558Y344919D01*
X125614Y344748D01*
X125667Y344577D01*
X125677Y344558D01*
X125684Y344536D01*
X125773Y344380D01*
X125859Y344223D01*
X125873Y344206D01*
X125884Y344187D01*
X126002Y344051D01*
X126116Y343914D01*
X126134Y343900D01*
X126148Y343883D01*
X126291Y343774D01*
X126430Y343662D01*
X126450Y343651D01*
X126468Y343638D01*
X126763Y343486D01*
X127572Y343151D01*
X130111Y340612D01*
X131485Y337295D01*
X131485Y318394D01*
X131475Y318278D01*
X131475Y305972D01*
X130582Y305079D01*
X114319Y305079D01*
X113426Y305972D01*
X113426Y322970D01*
X113435Y323086D01*
X113435Y337295D01*
X114809Y340612D01*
X117506Y343309D01*
X117518Y343323D01*
X117531Y343335D01*
X117645Y343479D01*
X117762Y343621D01*
X117770Y343637D01*
X117781Y343651D01*
X117864Y343815D01*
X117950Y343977D01*
X117955Y343994D01*
X117963Y344010D01*
X118013Y344187D01*
X118065Y344362D01*
X118067Y344380D01*
X118071Y344397D01*
X118085Y344580D01*
X118101Y344763D01*
X118099Y344781D01*
X118101Y344799D01*
X118078Y344981D01*
X118058Y345164D01*
X118053Y345181D01*
X118050Y345198D01*
X117992Y345372D01*
X117936Y345548D01*
X117928Y345563D01*
X117922Y345580D01*
X117831Y345739D01*
X117742Y345900D01*
X117730Y345913D01*
X117721Y345929D01*
X117506Y346182D01*
X115332Y348356D01*
X115311Y348373D01*
X115294Y348394D01*
X115156Y348501D01*
X115021Y348611D01*
X114997Y348624D01*
X114976Y348640D01*
X114819Y348718D01*
X114665Y348800D01*
X114639Y348808D01*
X114615Y348820D01*
X114446Y348865D01*
X114279Y348915D01*
X114252Y348917D01*
X114227Y348924D01*
X113896Y348951D01*
X77443Y348951D01*
X77416Y348949D01*
X77390Y348951D01*
X77216Y348929D01*
X77042Y348911D01*
X77017Y348904D01*
X76990Y348900D01*
X76824Y348845D01*
X76657Y348793D01*
X76634Y348780D01*
X76608Y348772D01*
X76457Y348685D01*
X76303Y348601D01*
X76283Y348584D01*
X76260Y348571D01*
X76007Y348356D01*
X70733Y343083D01*
X70729Y343078D01*
X70724Y343073D01*
X70711Y343058D01*
X70696Y343045D01*
X70589Y342907D01*
X70478Y342771D01*
X70472Y342761D01*
X70471Y342760D01*
X70465Y342747D01*
X70449Y342726D01*
X70371Y342569D01*
X70289Y342415D01*
X70282Y342390D01*
X70270Y342366D01*
X70224Y342196D01*
X70174Y342030D01*
X70172Y342003D01*
X70165Y341977D01*
X70138Y341646D01*
X70138Y222575D01*
X70141Y222548D01*
X70139Y222522D01*
X70161Y222348D01*
X70178Y222174D01*
X70186Y222149D01*
X70189Y222122D01*
X70245Y221957D01*
X70296Y221789D01*
X70309Y221766D01*
X70317Y221741D01*
X70405Y221589D01*
X70488Y221435D01*
X70505Y221415D01*
X70518Y221392D01*
X70733Y221139D01*
X83049Y208823D01*
X83049Y117152D01*
X83051Y117125D01*
X83049Y117098D01*
X83071Y116924D01*
X83089Y116751D01*
X83096Y116725D01*
X83100Y116699D01*
X83155Y116533D01*
X83207Y116366D01*
X83220Y116342D01*
X83228Y116317D01*
X83315Y116165D01*
X83399Y116012D01*
X83416Y115991D01*
X83429Y115968D01*
X83644Y115715D01*
X87511Y111847D01*
X87511Y100073D01*
X87514Y100046D01*
X87512Y100019D01*
X87534Y99845D01*
X87551Y99672D01*
X87559Y99647D01*
X87563Y99620D01*
X87618Y99454D01*
X87669Y99287D01*
X87682Y99264D01*
X87691Y99238D01*
X87778Y99087D01*
X87861Y98933D01*
X87878Y98913D01*
X87892Y98889D01*
X88106Y98636D01*
X89488Y97255D01*
X90180Y95585D01*
X90180Y93777D01*
X89488Y92106D01*
X88209Y90828D01*
X86539Y90136D01*
X84731Y90136D01*
X83061Y90828D01*
X81782Y92106D01*
X81090Y93777D01*
X81090Y94427D01*
X81088Y94444D01*
X81090Y94462D01*
X81068Y94644D01*
X81050Y94827D01*
X81045Y94844D01*
X81043Y94862D01*
X80986Y95037D01*
X80932Y95212D01*
X80924Y95228D01*
X80918Y95245D01*
X80828Y95405D01*
X80740Y95566D01*
X80729Y95580D01*
X80720Y95595D01*
X80600Y95735D01*
X80483Y95875D01*
X80469Y95887D01*
X80457Y95900D01*
X80312Y96013D01*
X80169Y96128D01*
X80153Y96136D01*
X80139Y96147D01*
X79974Y96229D01*
X79812Y96313D01*
X79795Y96318D01*
X79778Y96326D01*
X79600Y96374D01*
X79425Y96425D01*
X79407Y96426D01*
X79390Y96431D01*
X79059Y96458D01*
X77491Y96458D01*
X75820Y97150D01*
X74542Y98428D01*
X73850Y100098D01*
X73850Y101424D01*
X73848Y101442D01*
X73850Y101460D01*
X73828Y101642D01*
X73810Y101825D01*
X73805Y101842D01*
X73803Y101859D01*
X73746Y102034D01*
X73692Y102210D01*
X73683Y102225D01*
X73678Y102242D01*
X73587Y102402D01*
X73500Y102564D01*
X73489Y102577D01*
X73480Y102593D01*
X73360Y102732D01*
X73242Y102873D01*
X73228Y102884D01*
X73217Y102898D01*
X73072Y103010D01*
X72929Y103125D01*
X72913Y103133D01*
X72899Y103144D01*
X72734Y103226D01*
X72571Y103311D01*
X72554Y103316D01*
X72538Y103324D01*
X72360Y103371D01*
X72184Y103422D01*
X72167Y103424D01*
X72149Y103428D01*
X71819Y103455D01*
X71096Y103455D01*
X69426Y104147D01*
X68147Y105426D01*
X67455Y107096D01*
X67455Y107392D01*
X67453Y107418D01*
X67455Y107445D01*
X67433Y107619D01*
X67415Y107792D01*
X67408Y107818D01*
X67404Y107845D01*
X67349Y108010D01*
X67297Y108177D01*
X67284Y108201D01*
X67276Y108226D01*
X67189Y108378D01*
X67105Y108531D01*
X67088Y108552D01*
X67075Y108575D01*
X67019Y108641D01*
X67019Y109424D01*
X67017Y109442D01*
X67019Y109460D01*
X66998Y109642D01*
X66979Y109825D01*
X66974Y109842D01*
X66972Y109859D01*
X66915Y110034D01*
X66861Y110210D01*
X66853Y110225D01*
X66847Y110242D01*
X66757Y110402D01*
X66669Y110564D01*
X66658Y110577D01*
X66649Y110593D01*
X66529Y110732D01*
X66412Y110873D01*
X66398Y110884D01*
X66386Y110898D01*
X66241Y111010D01*
X66098Y111125D01*
X66082Y111133D01*
X66068Y111144D01*
X65903Y111226D01*
X65741Y111311D01*
X65724Y111316D01*
X65708Y111324D01*
X65529Y111371D01*
X65354Y111422D01*
X65336Y111424D01*
X65319Y111428D01*
X64988Y111455D01*
X63096Y111455D01*
X61426Y112147D01*
X60147Y113426D01*
X59455Y115096D01*
X59455Y115392D01*
X59453Y115418D01*
X59455Y115445D01*
X59433Y115619D01*
X59415Y115792D01*
X59408Y115818D01*
X59404Y115845D01*
X59349Y116010D01*
X59297Y116177D01*
X59284Y116201D01*
X59276Y116226D01*
X59189Y116378D01*
X59105Y116531D01*
X59088Y116552D01*
X59075Y116575D01*
X58860Y116828D01*
X55019Y120669D01*
X55019Y207990D01*
X55017Y208017D01*
X55019Y208044D01*
X54997Y208218D01*
X54979Y208391D01*
X54972Y208416D01*
X54968Y208443D01*
X54913Y208609D01*
X54861Y208776D01*
X54848Y208800D01*
X54840Y208825D01*
X54753Y208976D01*
X54669Y209130D01*
X54652Y209150D01*
X54639Y209174D01*
X54424Y209427D01*
X51332Y212519D01*
X48951Y214900D01*
X48951Y286092D01*
X48950Y286105D01*
X48951Y286118D01*
X48930Y286305D01*
X48911Y286492D01*
X48907Y286505D01*
X48906Y286518D01*
X48849Y286697D01*
X48793Y286877D01*
X48787Y286889D01*
X48783Y286902D01*
X48691Y287066D01*
X48601Y287231D01*
X48593Y287241D01*
X48586Y287253D01*
X48463Y287397D01*
X48344Y287541D01*
X48333Y287549D01*
X48325Y287559D01*
X48176Y287675D01*
X48030Y287793D01*
X48018Y287799D01*
X48008Y287807D01*
X47838Y287892D01*
X47673Y287978D01*
X47660Y287982D01*
X47648Y287988D01*
X47466Y288038D01*
X47286Y288090D01*
X47272Y288091D01*
X47259Y288094D01*
X47073Y288107D01*
X46884Y288123D01*
X46871Y288121D01*
X46858Y288122D01*
X46671Y288098D01*
X46485Y288076D01*
X46472Y288072D01*
X46459Y288070D01*
X46143Y287968D01*
X44904Y287455D01*
X43096Y287455D01*
X41857Y287968D01*
X41844Y287972D01*
X41833Y287978D01*
X41653Y288030D01*
X41472Y288085D01*
X41459Y288086D01*
X41446Y288090D01*
X41258Y288105D01*
X41071Y288123D01*
X41058Y288122D01*
X41044Y288123D01*
X40858Y288101D01*
X40671Y288081D01*
X40658Y288077D01*
X40645Y288076D01*
X40465Y288017D01*
X40286Y287961D01*
X40275Y287955D01*
X40262Y287951D01*
X40097Y287858D01*
X39933Y287768D01*
X39923Y287760D01*
X39911Y287753D01*
X39769Y287630D01*
X39625Y287509D01*
X39617Y287499D01*
X39606Y287490D01*
X39492Y287342D01*
X39374Y287194D01*
X39368Y287182D01*
X39360Y287172D01*
X39276Y287003D01*
X39190Y286836D01*
X39186Y286823D01*
X39180Y286811D01*
X39131Y286628D01*
X39080Y286449D01*
X39079Y286435D01*
X39076Y286422D01*
X39049Y286092D01*
X39049Y285387D01*
X39051Y285360D01*
X39049Y285334D01*
X39071Y285160D01*
X39089Y284986D01*
X39096Y284961D01*
X39100Y284934D01*
X39155Y284768D01*
X39207Y284601D01*
X39220Y284578D01*
X39228Y284552D01*
X39315Y284401D01*
X39399Y284247D01*
X39416Y284227D01*
X39429Y284204D01*
X39644Y283951D01*
X41020Y282574D01*
X41712Y280904D01*
X41712Y279096D01*
X41020Y277426D01*
X39741Y276147D01*
X38071Y275455D01*
X36263Y275455D01*
X34593Y276147D01*
X34516Y276223D01*
X34509Y276229D01*
X34504Y276236D01*
X34354Y276356D01*
X34205Y276478D01*
X34197Y276483D01*
X34190Y276488D01*
X34020Y276577D01*
X33849Y276667D01*
X33841Y276670D01*
X33833Y276674D01*
X33647Y276727D01*
X33463Y276782D01*
X33454Y276783D01*
X33446Y276785D01*
X33254Y276801D01*
X33062Y276818D01*
X33053Y276817D01*
X33044Y276818D01*
X32854Y276796D01*
X32662Y276775D01*
X32653Y276772D01*
X32645Y276771D01*
X32462Y276712D01*
X32278Y276653D01*
X32270Y276649D01*
X32262Y276646D01*
X32095Y276552D01*
X31926Y276459D01*
X31919Y276453D01*
X31911Y276448D01*
X31766Y276323D01*
X31619Y276198D01*
X31613Y276191D01*
X31606Y276185D01*
X31488Y276033D01*
X31369Y275882D01*
X31365Y275874D01*
X31360Y275867D01*
X31274Y275694D01*
X31187Y275523D01*
X31184Y275515D01*
X31180Y275507D01*
X31130Y275320D01*
X31079Y275135D01*
X31078Y275127D01*
X31076Y275118D01*
X31049Y274787D01*
X31049Y273220D01*
X31051Y273193D01*
X31049Y273166D01*
X31071Y272993D01*
X31089Y272819D01*
X31097Y272794D01*
X31100Y272767D01*
X31155Y272602D01*
X31207Y272434D01*
X31220Y272411D01*
X31228Y272385D01*
X31315Y272235D01*
X31399Y272080D01*
X31416Y272060D01*
X31429Y272037D01*
X31644Y271784D01*
X31853Y271574D01*
X32545Y269904D01*
X32545Y268096D01*
X31853Y266426D01*
X31644Y266216D01*
X31627Y266196D01*
X31606Y266178D01*
X31499Y266040D01*
X31389Y265905D01*
X31376Y265881D01*
X31360Y265860D01*
X31282Y265703D01*
X31200Y265549D01*
X31192Y265524D01*
X31180Y265500D01*
X31135Y265330D01*
X31085Y265163D01*
X31083Y265137D01*
X31076Y265111D01*
X31049Y264780D01*
X31049Y254686D01*
X31051Y254659D01*
X31049Y254632D01*
X31071Y254458D01*
X31089Y254285D01*
X31096Y254260D01*
X31100Y254233D01*
X31155Y254067D01*
X31207Y253900D01*
X31220Y253877D01*
X31228Y253851D01*
X31315Y253700D01*
X31399Y253546D01*
X31416Y253526D01*
X31429Y253502D01*
X31644Y253249D01*
X33117Y251776D01*
X33117Y182921D01*
X33081Y182885D01*
X33067Y182868D01*
X33050Y182853D01*
X32939Y182712D01*
X32826Y182574D01*
X32816Y182554D01*
X32802Y182536D01*
X32722Y182377D01*
X32638Y182218D01*
X32631Y182197D01*
X32621Y182177D01*
X32574Y182005D01*
X32523Y181832D01*
X32521Y181810D01*
X32515Y181788D01*
X32503Y181611D01*
X32486Y181431D01*
X32489Y181409D01*
X32487Y181387D01*
X32510Y181210D01*
X32530Y181031D01*
X32537Y181010D01*
X32539Y180987D01*
X32545Y180971D01*
X32545Y179096D01*
X31853Y177426D01*
X31644Y177216D01*
X31627Y177196D01*
X31606Y177178D01*
X31499Y177040D01*
X31389Y176905D01*
X31376Y176881D01*
X31360Y176860D01*
X31282Y176703D01*
X31200Y176549D01*
X31192Y176524D01*
X31180Y176500D01*
X31135Y176330D01*
X31085Y176163D01*
X31083Y176137D01*
X31076Y176111D01*
X31049Y175780D01*
X31049Y130104D01*
X31051Y130078D01*
X31049Y130051D01*
X31071Y129876D01*
X31089Y129704D01*
X31096Y129678D01*
X31100Y129651D01*
X31155Y129486D01*
X31207Y129319D01*
X31220Y129295D01*
X31228Y129270D01*
X31315Y129118D01*
X31399Y128965D01*
X31416Y128944D01*
X31429Y128921D01*
X31644Y128668D01*
X80668Y79644D01*
X80689Y79627D01*
X80706Y79606D01*
X80844Y79499D01*
X80979Y79389D01*
X81003Y79376D01*
X81024Y79360D01*
X81181Y79282D01*
X81335Y79200D01*
X81361Y79192D01*
X81385Y79180D01*
X81554Y79135D01*
X81721Y79085D01*
X81748Y79083D01*
X81773Y79076D01*
X82104Y79049D01*
X122920Y79049D01*
X122938Y79051D01*
G37*
G36*
X166091Y8526D02*
X166091Y8526D01*
X166104Y8525D01*
X166290Y8546D01*
X166478Y8565D01*
X166491Y8569D01*
X166504Y8570D01*
X166682Y8627D01*
X166863Y8683D01*
X166875Y8689D01*
X166887Y8693D01*
X167052Y8785D01*
X167217Y8875D01*
X167227Y8883D01*
X167239Y8890D01*
X167383Y9013D01*
X167526Y9132D01*
X167535Y9143D01*
X167545Y9151D01*
X167661Y9300D01*
X167779Y9446D01*
X167785Y9458D01*
X167793Y9468D01*
X167878Y9638D01*
X167964Y9803D01*
X167968Y9816D01*
X167974Y9828D01*
X168024Y10010D01*
X168075Y10190D01*
X168077Y10204D01*
X168080Y10217D01*
X168093Y10403D01*
X168108Y10592D01*
X168107Y10605D01*
X168108Y10618D01*
X168083Y10805D01*
X168061Y10991D01*
X168057Y11004D01*
X168056Y11017D01*
X167954Y11333D01*
X166740Y14265D01*
X166740Y17873D01*
X168120Y21207D01*
X170672Y23758D01*
X174005Y25139D01*
X177613Y25139D01*
X180947Y23758D01*
X183498Y21207D01*
X184879Y17873D01*
X184879Y14265D01*
X183665Y11333D01*
X183661Y11320D01*
X183655Y11309D01*
X183603Y11128D01*
X183548Y10948D01*
X183547Y10935D01*
X183543Y10922D01*
X183528Y10733D01*
X183510Y10547D01*
X183512Y10534D01*
X183510Y10520D01*
X183532Y10334D01*
X183552Y10147D01*
X183556Y10134D01*
X183557Y10121D01*
X183615Y9943D01*
X183672Y9762D01*
X183678Y9751D01*
X183682Y9738D01*
X183775Y9574D01*
X183865Y9409D01*
X183874Y9399D01*
X183880Y9387D01*
X184003Y9245D01*
X184124Y9101D01*
X184135Y9093D01*
X184143Y9082D01*
X184291Y8968D01*
X184439Y8850D01*
X184451Y8844D01*
X184461Y8836D01*
X184630Y8752D01*
X184797Y8666D01*
X184810Y8662D01*
X184822Y8656D01*
X185005Y8607D01*
X185184Y8556D01*
X185198Y8555D01*
X185211Y8552D01*
X185541Y8525D01*
X191477Y8525D01*
X191491Y8526D01*
X191504Y8525D01*
X191690Y8546D01*
X191878Y8565D01*
X191891Y8569D01*
X191904Y8570D01*
X192082Y8627D01*
X192263Y8683D01*
X192275Y8689D01*
X192287Y8693D01*
X192452Y8785D01*
X192617Y8875D01*
X192627Y8883D01*
X192639Y8890D01*
X192783Y9013D01*
X192926Y9132D01*
X192935Y9143D01*
X192945Y9151D01*
X193061Y9300D01*
X193179Y9446D01*
X193185Y9458D01*
X193193Y9468D01*
X193278Y9638D01*
X193364Y9803D01*
X193368Y9816D01*
X193374Y9828D01*
X193424Y10010D01*
X193475Y10190D01*
X193477Y10204D01*
X193480Y10217D01*
X193493Y10403D01*
X193508Y10592D01*
X193507Y10605D01*
X193508Y10618D01*
X193483Y10805D01*
X193461Y10991D01*
X193457Y11004D01*
X193456Y11017D01*
X193354Y11333D01*
X192140Y14265D01*
X192140Y17873D01*
X193520Y21207D01*
X196072Y23758D01*
X199405Y25139D01*
X203013Y25139D01*
X206347Y23758D01*
X208898Y21207D01*
X210279Y17873D01*
X210279Y14265D01*
X209065Y11333D01*
X209061Y11320D01*
X209055Y11309D01*
X209003Y11128D01*
X208948Y10948D01*
X208947Y10935D01*
X208943Y10922D01*
X208928Y10733D01*
X208910Y10547D01*
X208912Y10534D01*
X208910Y10520D01*
X208932Y10334D01*
X208952Y10147D01*
X208956Y10134D01*
X208957Y10121D01*
X209015Y9943D01*
X209072Y9762D01*
X209078Y9751D01*
X209082Y9738D01*
X209175Y9574D01*
X209265Y9409D01*
X209274Y9399D01*
X209280Y9387D01*
X209403Y9245D01*
X209524Y9101D01*
X209535Y9093D01*
X209543Y9082D01*
X209691Y8968D01*
X209839Y8850D01*
X209851Y8844D01*
X209861Y8836D01*
X210030Y8752D01*
X210197Y8666D01*
X210210Y8662D01*
X210222Y8656D01*
X210405Y8607D01*
X210584Y8556D01*
X210598Y8555D01*
X210611Y8552D01*
X210941Y8525D01*
X216877Y8525D01*
X216891Y8526D01*
X216904Y8525D01*
X217090Y8546D01*
X217278Y8565D01*
X217291Y8569D01*
X217304Y8570D01*
X217482Y8627D01*
X217663Y8683D01*
X217675Y8689D01*
X217687Y8693D01*
X217852Y8785D01*
X218017Y8875D01*
X218027Y8883D01*
X218039Y8890D01*
X218183Y9013D01*
X218326Y9132D01*
X218335Y9143D01*
X218345Y9151D01*
X218461Y9300D01*
X218579Y9446D01*
X218585Y9458D01*
X218593Y9468D01*
X218678Y9638D01*
X218764Y9803D01*
X218768Y9816D01*
X218774Y9828D01*
X218824Y10010D01*
X218875Y10190D01*
X218877Y10204D01*
X218880Y10217D01*
X218893Y10403D01*
X218908Y10592D01*
X218907Y10605D01*
X218908Y10618D01*
X218883Y10805D01*
X218861Y10991D01*
X218857Y11004D01*
X218856Y11017D01*
X218754Y11333D01*
X217540Y14265D01*
X217540Y17873D01*
X218920Y21207D01*
X221472Y23758D01*
X224805Y25139D01*
X228413Y25139D01*
X229502Y24688D01*
X229524Y24681D01*
X229544Y24671D01*
X229716Y24623D01*
X229888Y24571D01*
X229910Y24569D01*
X229932Y24563D01*
X230111Y24550D01*
X230289Y24533D01*
X230311Y24535D01*
X230333Y24534D01*
X230511Y24556D01*
X230689Y24575D01*
X230710Y24581D01*
X230733Y24584D01*
X230903Y24641D01*
X231073Y24695D01*
X231093Y24705D01*
X231114Y24712D01*
X231269Y24802D01*
X231427Y24888D01*
X231444Y24902D01*
X231463Y24913D01*
X231716Y25128D01*
X233559Y26971D01*
X233576Y26991D01*
X233596Y27009D01*
X233703Y27147D01*
X233814Y27282D01*
X233826Y27306D01*
X233843Y27327D01*
X233920Y27483D01*
X234002Y27638D01*
X234010Y27664D01*
X234022Y27687D01*
X234067Y27856D01*
X234117Y28024D01*
X234120Y28050D01*
X234127Y28076D01*
X234154Y28407D01*
X234154Y31737D01*
X234152Y31750D01*
X234153Y31764D01*
X234132Y31950D01*
X234114Y32138D01*
X234110Y32150D01*
X234108Y32164D01*
X234051Y32342D01*
X233996Y32523D01*
X233989Y32534D01*
X233985Y32547D01*
X233893Y32711D01*
X233804Y32877D01*
X233795Y32887D01*
X233789Y32899D01*
X233666Y33042D01*
X233546Y33186D01*
X233536Y33194D01*
X233527Y33204D01*
X233378Y33321D01*
X233232Y33438D01*
X233220Y33444D01*
X233210Y33453D01*
X233041Y33538D01*
X232875Y33624D01*
X232862Y33627D01*
X232850Y33633D01*
X232668Y33683D01*
X232488Y33735D01*
X232475Y33736D01*
X232462Y33740D01*
X232275Y33753D01*
X232087Y33768D01*
X232073Y33766D01*
X232060Y33767D01*
X231874Y33743D01*
X231687Y33721D01*
X231674Y33717D01*
X231661Y33715D01*
X231345Y33614D01*
X228413Y32399D01*
X224805Y32399D01*
X221472Y33780D01*
X218920Y36331D01*
X217540Y39665D01*
X217540Y43273D01*
X218920Y46607D01*
X221472Y49158D01*
X224805Y50539D01*
X228413Y50539D01*
X230464Y49689D01*
X230477Y49685D01*
X230489Y49679D01*
X230669Y49627D01*
X230850Y49573D01*
X230863Y49571D01*
X230876Y49568D01*
X231064Y49552D01*
X231251Y49535D01*
X231264Y49536D01*
X231277Y49535D01*
X231464Y49557D01*
X231651Y49576D01*
X231664Y49580D01*
X231677Y49582D01*
X231856Y49640D01*
X232035Y49696D01*
X232047Y49702D01*
X232060Y49707D01*
X232224Y49799D01*
X232389Y49889D01*
X232399Y49898D01*
X232411Y49905D01*
X232552Y50027D01*
X232697Y50148D01*
X232705Y50159D01*
X232715Y50168D01*
X232830Y50316D01*
X232948Y50463D01*
X232954Y50475D01*
X232962Y50486D01*
X233046Y50654D01*
X233132Y50821D01*
X233135Y50834D01*
X233141Y50846D01*
X233190Y51029D01*
X233241Y51209D01*
X233242Y51222D01*
X233246Y51235D01*
X233273Y51566D01*
X233273Y54234D01*
X233270Y54260D01*
X233272Y54287D01*
X233250Y54461D01*
X233233Y54634D01*
X233225Y54660D01*
X233222Y54687D01*
X233166Y54852D01*
X233115Y55019D01*
X233102Y55043D01*
X233094Y55068D01*
X233007Y55219D01*
X232923Y55373D01*
X232906Y55394D01*
X232893Y55417D01*
X232678Y55670D01*
X232215Y56133D01*
X231523Y57804D01*
X231523Y59612D01*
X232215Y61282D01*
X233493Y62561D01*
X235164Y63252D01*
X235174Y63252D01*
X235192Y63254D01*
X235210Y63253D01*
X235392Y63274D01*
X235575Y63292D01*
X235592Y63298D01*
X235609Y63300D01*
X235784Y63357D01*
X235960Y63410D01*
X235975Y63419D01*
X235992Y63425D01*
X236152Y63515D01*
X236314Y63602D01*
X236327Y63614D01*
X236343Y63622D01*
X236482Y63743D01*
X236623Y63860D01*
X236634Y63874D01*
X236648Y63886D01*
X236760Y64031D01*
X236875Y64174D01*
X236883Y64190D01*
X236894Y64204D01*
X236976Y64369D01*
X237061Y64531D01*
X237066Y64548D01*
X237074Y64564D01*
X237121Y64742D01*
X237172Y64918D01*
X237174Y64936D01*
X237178Y64953D01*
X237205Y65284D01*
X237205Y83526D01*
X237203Y83553D01*
X237205Y83579D01*
X237183Y83753D01*
X237165Y83927D01*
X237158Y83952D01*
X237154Y83979D01*
X237099Y84145D01*
X237047Y84312D01*
X237034Y84335D01*
X237026Y84361D01*
X236939Y84512D01*
X236855Y84666D01*
X236838Y84686D01*
X236825Y84709D01*
X236610Y84962D01*
X236147Y85426D01*
X235455Y87096D01*
X235455Y88904D01*
X236147Y90574D01*
X237426Y91853D01*
X237694Y91964D01*
X239096Y92545D01*
X240904Y92545D01*
X242574Y91853D01*
X243853Y90574D01*
X244545Y88904D01*
X244545Y87096D01*
X243853Y85426D01*
X243390Y84962D01*
X243373Y84942D01*
X243352Y84924D01*
X243245Y84786D01*
X243135Y84651D01*
X243122Y84627D01*
X243106Y84606D01*
X243028Y84449D01*
X242946Y84295D01*
X242938Y84270D01*
X242926Y84246D01*
X242881Y84076D01*
X242831Y83909D01*
X242829Y83883D01*
X242822Y83857D01*
X242795Y83526D01*
X242795Y78347D01*
X242796Y78334D01*
X242795Y78321D01*
X242816Y78134D01*
X242835Y77947D01*
X242839Y77934D01*
X242840Y77921D01*
X242898Y77741D01*
X242953Y77562D01*
X242959Y77550D01*
X242963Y77537D01*
X243055Y77372D01*
X243145Y77208D01*
X243153Y77198D01*
X243160Y77186D01*
X243283Y77042D01*
X243402Y76899D01*
X243413Y76890D01*
X243421Y76880D01*
X243570Y76764D01*
X243716Y76646D01*
X243728Y76640D01*
X243739Y76632D01*
X243907Y76547D01*
X244073Y76461D01*
X244086Y76457D01*
X244098Y76451D01*
X244279Y76401D01*
X244460Y76349D01*
X244474Y76348D01*
X244487Y76345D01*
X244673Y76332D01*
X244862Y76316D01*
X244875Y76318D01*
X244888Y76317D01*
X245074Y76341D01*
X245261Y76363D01*
X245274Y76367D01*
X245287Y76369D01*
X245603Y76471D01*
X245782Y76545D01*
X247590Y76545D01*
X249260Y75853D01*
X249470Y75644D01*
X249490Y75627D01*
X249508Y75606D01*
X249646Y75499D01*
X249781Y75389D01*
X249805Y75376D01*
X249826Y75360D01*
X249983Y75282D01*
X250137Y75200D01*
X250162Y75192D01*
X250186Y75180D01*
X250356Y75135D01*
X250523Y75085D01*
X250549Y75083D01*
X250575Y75076D01*
X250906Y75049D01*
X263210Y75049D01*
X263236Y75051D01*
X263263Y75049D01*
X263437Y75071D01*
X263610Y75089D01*
X263636Y75096D01*
X263663Y75100D01*
X263828Y75155D01*
X263995Y75207D01*
X264019Y75220D01*
X264044Y75228D01*
X264196Y75315D01*
X264349Y75399D01*
X264370Y75416D01*
X264393Y75429D01*
X264646Y75644D01*
X268174Y79172D01*
X268191Y79193D01*
X268212Y79210D01*
X268319Y79348D01*
X268429Y79483D01*
X268442Y79507D01*
X268458Y79528D01*
X268536Y79685D01*
X268618Y79839D01*
X268626Y79865D01*
X268638Y79889D01*
X268683Y80058D01*
X268733Y80225D01*
X268735Y80252D01*
X268742Y80277D01*
X268769Y80608D01*
X268769Y80904D01*
X269461Y82574D01*
X270740Y83853D01*
X272410Y84545D01*
X274218Y84545D01*
X275888Y83853D01*
X277167Y82574D01*
X277859Y80904D01*
X277859Y79096D01*
X277167Y77426D01*
X275888Y76147D01*
X274218Y75455D01*
X273922Y75455D01*
X273896Y75453D01*
X273869Y75455D01*
X273695Y75433D01*
X273522Y75415D01*
X273496Y75408D01*
X273469Y75404D01*
X273304Y75349D01*
X273137Y75297D01*
X273113Y75284D01*
X273088Y75276D01*
X272936Y75189D01*
X272783Y75105D01*
X272762Y75088D01*
X272739Y75075D01*
X272486Y74860D01*
X266577Y68951D01*
X250906Y68951D01*
X250879Y68949D01*
X250853Y68951D01*
X250679Y68929D01*
X250505Y68911D01*
X250480Y68904D01*
X250453Y68900D01*
X250287Y68845D01*
X250120Y68793D01*
X250097Y68780D01*
X250071Y68772D01*
X249920Y68685D01*
X249766Y68601D01*
X249746Y68584D01*
X249723Y68571D01*
X249470Y68356D01*
X249260Y68147D01*
X247590Y67455D01*
X245782Y67455D01*
X245603Y67529D01*
X245590Y67533D01*
X245579Y67539D01*
X245398Y67591D01*
X245218Y67646D01*
X245205Y67647D01*
X245192Y67651D01*
X245003Y67666D01*
X244817Y67684D01*
X244804Y67683D01*
X244790Y67684D01*
X244604Y67662D01*
X244417Y67642D01*
X244404Y67638D01*
X244391Y67637D01*
X244212Y67578D01*
X244032Y67522D01*
X244021Y67516D01*
X244008Y67512D01*
X243844Y67419D01*
X243679Y67329D01*
X243669Y67321D01*
X243657Y67314D01*
X243515Y67191D01*
X243371Y67070D01*
X243363Y67060D01*
X243352Y67051D01*
X243237Y66902D01*
X243120Y66755D01*
X243114Y66743D01*
X243106Y66733D01*
X243022Y66564D01*
X242936Y66397D01*
X242932Y66384D01*
X242926Y66372D01*
X242877Y66190D01*
X242826Y66010D01*
X242825Y65996D01*
X242822Y65983D01*
X242795Y65653D01*
X242795Y64997D01*
X242797Y64970D01*
X242795Y64943D01*
X242817Y64769D01*
X242835Y64596D01*
X242842Y64571D01*
X242846Y64544D01*
X242901Y64378D01*
X242953Y64211D01*
X242966Y64188D01*
X242974Y64162D01*
X243061Y64011D01*
X243145Y63857D01*
X243162Y63837D01*
X243175Y63813D01*
X243390Y63560D01*
X244676Y62274D01*
X244676Y55142D01*
X244402Y54868D01*
X244385Y54847D01*
X244365Y54829D01*
X244258Y54691D01*
X244147Y54556D01*
X244134Y54532D01*
X244118Y54511D01*
X244040Y54354D01*
X243958Y54200D01*
X243951Y54175D01*
X243939Y54151D01*
X243893Y53981D01*
X243844Y53814D01*
X243841Y53788D01*
X243834Y53762D01*
X243807Y53431D01*
X243807Y50928D01*
X243808Y50915D01*
X243807Y50902D01*
X243828Y50716D01*
X243847Y50528D01*
X243851Y50515D01*
X243852Y50502D01*
X243910Y50323D01*
X243965Y50143D01*
X243972Y50131D01*
X243976Y50118D01*
X244068Y49954D01*
X244157Y49789D01*
X244165Y49779D01*
X244172Y49767D01*
X244295Y49624D01*
X244415Y49480D01*
X244425Y49471D01*
X244434Y49461D01*
X244582Y49345D01*
X244728Y49227D01*
X244740Y49221D01*
X244751Y49213D01*
X244919Y49128D01*
X245086Y49042D01*
X245099Y49038D01*
X245111Y49032D01*
X245292Y48983D01*
X245473Y48930D01*
X245486Y48929D01*
X245499Y48926D01*
X245687Y48913D01*
X245874Y48898D01*
X245887Y48899D01*
X245901Y48898D01*
X246088Y48923D01*
X246274Y48944D01*
X246286Y48949D01*
X246300Y48950D01*
X246616Y49052D01*
X250205Y50539D01*
X253813Y50539D01*
X257147Y49158D01*
X259698Y46607D01*
X261079Y43273D01*
X261079Y39665D01*
X259698Y36331D01*
X257147Y33780D01*
X253813Y32399D01*
X250205Y32399D01*
X246616Y33886D01*
X246603Y33890D01*
X246591Y33896D01*
X246411Y33948D01*
X246230Y34003D01*
X246217Y34004D01*
X246204Y34008D01*
X246016Y34023D01*
X245829Y34041D01*
X245816Y34039D01*
X245803Y34040D01*
X245617Y34019D01*
X245429Y33999D01*
X245416Y33995D01*
X245403Y33994D01*
X245224Y33935D01*
X245045Y33879D01*
X245033Y33873D01*
X245020Y33869D01*
X244856Y33776D01*
X244691Y33686D01*
X244681Y33677D01*
X244670Y33671D01*
X244528Y33548D01*
X244383Y33427D01*
X244375Y33416D01*
X244365Y33408D01*
X244250Y33260D01*
X244132Y33112D01*
X244126Y33100D01*
X244118Y33090D01*
X244034Y32921D01*
X243948Y32754D01*
X243945Y32741D01*
X243939Y32729D01*
X243890Y32546D01*
X243839Y32367D01*
X243838Y32353D01*
X243834Y32340D01*
X243807Y32010D01*
X243807Y29065D01*
X243810Y29038D01*
X243808Y29012D01*
X243830Y28837D01*
X243847Y28664D01*
X243855Y28639D01*
X243858Y28612D01*
X243914Y28446D01*
X243965Y28279D01*
X243978Y28256D01*
X243986Y28231D01*
X244074Y28079D01*
X244157Y27925D01*
X244174Y27905D01*
X244187Y27882D01*
X244402Y27629D01*
X246903Y25128D01*
X246920Y25114D01*
X246934Y25097D01*
X247076Y24986D01*
X247214Y24873D01*
X247234Y24862D01*
X247251Y24849D01*
X247412Y24768D01*
X247570Y24684D01*
X247591Y24678D01*
X247611Y24668D01*
X247784Y24621D01*
X247956Y24570D01*
X247978Y24567D01*
X248000Y24562D01*
X248178Y24549D01*
X248357Y24533D01*
X248379Y24536D01*
X248401Y24534D01*
X248579Y24557D01*
X248757Y24577D01*
X248778Y24583D01*
X248800Y24586D01*
X249116Y24688D01*
X250205Y25139D01*
X253813Y25139D01*
X257147Y23758D01*
X259698Y21207D01*
X261079Y17873D01*
X261079Y14265D01*
X259865Y11333D01*
X259861Y11320D01*
X259855Y11309D01*
X259803Y11128D01*
X259748Y10948D01*
X259747Y10935D01*
X259743Y10922D01*
X259728Y10733D01*
X259710Y10547D01*
X259712Y10534D01*
X259710Y10520D01*
X259732Y10334D01*
X259752Y10147D01*
X259756Y10134D01*
X259757Y10121D01*
X259815Y9943D01*
X259872Y9762D01*
X259878Y9751D01*
X259882Y9738D01*
X259975Y9574D01*
X260065Y9409D01*
X260074Y9399D01*
X260080Y9387D01*
X260203Y9245D01*
X260324Y9101D01*
X260335Y9093D01*
X260343Y9082D01*
X260491Y8968D01*
X260639Y8850D01*
X260651Y8844D01*
X260661Y8836D01*
X260830Y8752D01*
X260997Y8666D01*
X261010Y8662D01*
X261022Y8656D01*
X261205Y8607D01*
X261384Y8556D01*
X261398Y8555D01*
X261411Y8552D01*
X261741Y8525D01*
X267677Y8525D01*
X267691Y8526D01*
X267704Y8525D01*
X267890Y8546D01*
X268078Y8565D01*
X268091Y8569D01*
X268104Y8570D01*
X268282Y8627D01*
X268463Y8683D01*
X268475Y8689D01*
X268487Y8693D01*
X268652Y8785D01*
X268817Y8875D01*
X268827Y8883D01*
X268839Y8890D01*
X268983Y9013D01*
X269126Y9132D01*
X269135Y9143D01*
X269145Y9151D01*
X269261Y9300D01*
X269379Y9446D01*
X269385Y9458D01*
X269393Y9468D01*
X269478Y9638D01*
X269564Y9803D01*
X269568Y9816D01*
X269574Y9828D01*
X269624Y10010D01*
X269675Y10190D01*
X269677Y10204D01*
X269680Y10217D01*
X269693Y10403D01*
X269708Y10592D01*
X269707Y10605D01*
X269708Y10618D01*
X269683Y10805D01*
X269661Y10991D01*
X269657Y11004D01*
X269656Y11017D01*
X269554Y11333D01*
X268340Y14265D01*
X268340Y17873D01*
X269720Y21207D01*
X272272Y23758D01*
X275605Y25139D01*
X279213Y25139D01*
X282547Y23758D01*
X285098Y21207D01*
X286313Y18275D01*
X286319Y18263D01*
X286323Y18250D01*
X286414Y18086D01*
X286503Y17920D01*
X286511Y17910D01*
X286518Y17898D01*
X286639Y17755D01*
X286759Y17610D01*
X286770Y17601D01*
X286778Y17591D01*
X286926Y17474D01*
X287072Y17356D01*
X287084Y17350D01*
X287094Y17341D01*
X287263Y17256D01*
X287428Y17169D01*
X287441Y17165D01*
X287453Y17159D01*
X287635Y17108D01*
X287815Y17056D01*
X287828Y17055D01*
X287841Y17051D01*
X288030Y17037D01*
X288216Y17021D01*
X288229Y17023D01*
X288243Y17022D01*
X288431Y17045D01*
X288616Y17066D01*
X288629Y17070D01*
X288642Y17072D01*
X288821Y17132D01*
X288999Y17190D01*
X289011Y17196D01*
X289024Y17200D01*
X289187Y17294D01*
X289351Y17386D01*
X289361Y17395D01*
X289373Y17401D01*
X289626Y17616D01*
X291127Y19118D01*
X292898Y19118D01*
X292920Y19120D01*
X292942Y19118D01*
X293120Y19140D01*
X293299Y19158D01*
X293320Y19164D01*
X293342Y19167D01*
X293513Y19223D01*
X293683Y19276D01*
X293703Y19286D01*
X293724Y19293D01*
X293880Y19382D01*
X294038Y19468D01*
X294055Y19482D01*
X294074Y19493D01*
X294209Y19611D01*
X294347Y19725D01*
X294361Y19743D01*
X294378Y19757D01*
X294487Y19900D01*
X294599Y20039D01*
X294609Y20059D01*
X294623Y20076D01*
X294775Y20372D01*
X295120Y21207D01*
X297672Y23758D01*
X298761Y24209D01*
X298780Y24219D01*
X298802Y24226D01*
X298958Y24315D01*
X299116Y24399D01*
X299133Y24413D01*
X299152Y24424D01*
X299288Y24541D01*
X299426Y24656D01*
X299440Y24673D01*
X299457Y24687D01*
X299567Y24829D01*
X299680Y24968D01*
X299690Y24988D01*
X299695Y24995D01*
X303632Y28932D01*
X303638Y28939D01*
X303645Y28944D01*
X303765Y29094D01*
X303887Y29243D01*
X303891Y29251D01*
X303897Y29258D01*
X303986Y29428D01*
X304076Y29599D01*
X304078Y29608D01*
X304083Y29615D01*
X304136Y29800D01*
X304191Y29985D01*
X304192Y29994D01*
X304194Y30002D01*
X304210Y30194D01*
X304227Y30386D01*
X304226Y30395D01*
X304227Y30404D01*
X304205Y30593D01*
X304184Y30786D01*
X304181Y30795D01*
X304180Y30803D01*
X304121Y30985D01*
X304062Y31170D01*
X304058Y31178D01*
X304055Y31186D01*
X303960Y31355D01*
X303867Y31522D01*
X303862Y31529D01*
X303857Y31537D01*
X303731Y31683D01*
X303607Y31829D01*
X303600Y31835D01*
X303594Y31842D01*
X303443Y31959D01*
X303291Y32079D01*
X303283Y32083D01*
X303276Y32088D01*
X303104Y32174D01*
X302932Y32261D01*
X302923Y32264D01*
X302915Y32268D01*
X302729Y32318D01*
X302544Y32369D01*
X302535Y32370D01*
X302527Y32372D01*
X302196Y32399D01*
X301005Y32399D01*
X297672Y33780D01*
X295120Y36331D01*
X293740Y39665D01*
X293740Y43273D01*
X295120Y46607D01*
X297672Y49158D01*
X298761Y49609D01*
X298780Y49619D01*
X298802Y49626D01*
X298958Y49715D01*
X299116Y49799D01*
X299133Y49813D01*
X299152Y49824D01*
X299288Y49941D01*
X299426Y50056D01*
X299440Y50073D01*
X299457Y50087D01*
X299567Y50229D01*
X299680Y50368D01*
X299690Y50388D01*
X299704Y50406D01*
X299784Y50566D01*
X299867Y50725D01*
X299873Y50746D01*
X299883Y50766D01*
X299930Y50940D01*
X299980Y51111D01*
X299982Y51133D01*
X299988Y51155D01*
X300015Y51486D01*
X300015Y63967D01*
X308610Y72563D01*
X308627Y72583D01*
X308648Y72601D01*
X308754Y72739D01*
X308865Y72874D01*
X308878Y72898D01*
X308894Y72919D01*
X308972Y73076D01*
X309054Y73230D01*
X309062Y73255D01*
X309074Y73279D01*
X309119Y73449D01*
X309169Y73616D01*
X309171Y73642D01*
X309178Y73668D01*
X309205Y73999D01*
X309205Y83526D01*
X309203Y83553D01*
X309205Y83579D01*
X309183Y83753D01*
X309165Y83927D01*
X309158Y83952D01*
X309154Y83979D01*
X309099Y84145D01*
X309047Y84312D01*
X309034Y84335D01*
X309026Y84361D01*
X308939Y84512D01*
X308855Y84666D01*
X308838Y84686D01*
X308825Y84709D01*
X308610Y84962D01*
X308147Y85426D01*
X307455Y87096D01*
X307455Y88904D01*
X308147Y90574D01*
X309426Y91853D01*
X309694Y91964D01*
X311096Y92545D01*
X312904Y92545D01*
X314397Y91926D01*
X314410Y91923D01*
X314421Y91916D01*
X314602Y91864D01*
X314782Y91810D01*
X314795Y91809D01*
X314808Y91805D01*
X314996Y91790D01*
X315183Y91772D01*
X315196Y91773D01*
X315210Y91772D01*
X315397Y91794D01*
X315583Y91814D01*
X315596Y91817D01*
X315609Y91819D01*
X315789Y91878D01*
X315968Y91933D01*
X315979Y91940D01*
X315992Y91944D01*
X316157Y92037D01*
X316321Y92127D01*
X316331Y92135D01*
X316343Y92142D01*
X316485Y92265D01*
X316629Y92386D01*
X316637Y92396D01*
X316648Y92405D01*
X316763Y92553D01*
X316880Y92701D01*
X316886Y92712D01*
X316894Y92723D01*
X316978Y92892D01*
X317064Y93059D01*
X317068Y93072D01*
X317074Y93084D01*
X317123Y93267D01*
X317174Y93446D01*
X317175Y93459D01*
X317178Y93472D01*
X317205Y93803D01*
X317205Y95526D01*
X317203Y95553D01*
X317205Y95579D01*
X317183Y95753D01*
X317165Y95927D01*
X317158Y95952D01*
X317154Y95979D01*
X317099Y96145D01*
X317047Y96312D01*
X317034Y96335D01*
X317026Y96361D01*
X316939Y96512D01*
X316855Y96666D01*
X316838Y96686D01*
X316825Y96709D01*
X316610Y96962D01*
X316147Y97426D01*
X315455Y99096D01*
X315455Y100904D01*
X316147Y102574D01*
X316803Y103230D01*
X316809Y103237D01*
X316815Y103243D01*
X316935Y103392D01*
X317058Y103542D01*
X317062Y103549D01*
X317068Y103556D01*
X317156Y103726D01*
X317247Y103897D01*
X317249Y103906D01*
X317253Y103914D01*
X317306Y104098D01*
X317361Y104283D01*
X317362Y104292D01*
X317365Y104301D01*
X317380Y104492D01*
X317398Y104684D01*
X317397Y104693D01*
X317397Y104702D01*
X317375Y104891D01*
X317354Y105084D01*
X317352Y105093D01*
X317351Y105102D01*
X317291Y105285D01*
X317233Y105468D01*
X317228Y105476D01*
X317226Y105485D01*
X317131Y105653D01*
X317038Y105821D01*
X317032Y105827D01*
X317028Y105835D01*
X316902Y105981D01*
X316777Y106128D01*
X316771Y106133D01*
X316765Y106140D01*
X316612Y106258D01*
X316462Y106377D01*
X316454Y106381D01*
X316447Y106387D01*
X316275Y106472D01*
X316103Y106560D01*
X316094Y106562D01*
X316086Y106566D01*
X315900Y106616D01*
X315715Y106668D01*
X315706Y106668D01*
X315697Y106671D01*
X315367Y106698D01*
X200186Y106698D01*
X200155Y106695D01*
X200123Y106697D01*
X199954Y106675D01*
X199785Y106658D01*
X199755Y106649D01*
X199724Y106645D01*
X199408Y106543D01*
X198623Y106218D01*
X196815Y106218D01*
X195144Y106909D01*
X193866Y108188D01*
X193174Y109858D01*
X193174Y111666D01*
X193866Y113337D01*
X195144Y114615D01*
X196815Y115307D01*
X198623Y115307D01*
X199408Y114982D01*
X199438Y114973D01*
X199466Y114959D01*
X199631Y114915D01*
X199794Y114865D01*
X199825Y114862D01*
X199855Y114854D01*
X200186Y114827D01*
X262498Y114827D01*
X262511Y114828D01*
X262524Y114827D01*
X262711Y114848D01*
X262898Y114867D01*
X262911Y114871D01*
X262924Y114872D01*
X263102Y114930D01*
X263283Y114985D01*
X263295Y114992D01*
X263308Y114996D01*
X263472Y115087D01*
X263637Y115177D01*
X263647Y115185D01*
X263659Y115192D01*
X263803Y115315D01*
X263946Y115435D01*
X263955Y115445D01*
X263965Y115454D01*
X264081Y115602D01*
X264199Y115748D01*
X264205Y115760D01*
X264213Y115771D01*
X264298Y115940D01*
X264384Y116106D01*
X264388Y116118D01*
X264394Y116131D01*
X264444Y116313D01*
X264496Y116493D01*
X264497Y116506D01*
X264500Y116519D01*
X264513Y116707D01*
X264528Y116894D01*
X264527Y116907D01*
X264528Y116921D01*
X264503Y117108D01*
X264482Y117294D01*
X264477Y117306D01*
X264476Y117320D01*
X264374Y117636D01*
X263769Y119096D01*
X263769Y119751D01*
X263767Y119778D01*
X263769Y119804D01*
X263747Y119978D01*
X263729Y120152D01*
X263722Y120177D01*
X263718Y120204D01*
X263663Y120369D01*
X263611Y120537D01*
X263598Y120560D01*
X263590Y120585D01*
X263503Y120737D01*
X263419Y120891D01*
X263402Y120911D01*
X263389Y120934D01*
X263174Y121187D01*
X261205Y123156D01*
X261205Y134128D01*
X261204Y134137D01*
X261205Y134146D01*
X261184Y134338D01*
X261165Y134529D01*
X261163Y134538D01*
X261162Y134547D01*
X261104Y134729D01*
X261047Y134914D01*
X261043Y134922D01*
X261040Y134930D01*
X260947Y135099D01*
X260855Y135268D01*
X260850Y135275D01*
X260845Y135283D01*
X260721Y135430D01*
X260598Y135577D01*
X260591Y135583D01*
X260585Y135590D01*
X260434Y135709D01*
X260284Y135830D01*
X260276Y135834D01*
X260269Y135839D01*
X260096Y135927D01*
X259927Y136015D01*
X259918Y136018D01*
X259910Y136022D01*
X259724Y136074D01*
X259540Y136127D01*
X259531Y136127D01*
X259522Y136130D01*
X259329Y136144D01*
X259138Y136159D01*
X259130Y136158D01*
X259121Y136159D01*
X258928Y136135D01*
X258739Y136113D01*
X258730Y136110D01*
X258721Y136109D01*
X258538Y136047D01*
X258356Y135988D01*
X258348Y135983D01*
X258340Y135980D01*
X258174Y135885D01*
X258005Y135790D01*
X257998Y135784D01*
X257991Y135779D01*
X257738Y135565D01*
X255162Y132989D01*
X251845Y131615D01*
X248255Y131615D01*
X244938Y132989D01*
X242399Y135528D01*
X241025Y138845D01*
X241025Y153645D01*
X241023Y153671D01*
X241025Y153698D01*
X241012Y153795D01*
X241012Y170762D01*
X241905Y171656D01*
X258381Y171656D01*
X258405Y171643D01*
X258413Y171640D01*
X258421Y171636D01*
X258606Y171583D01*
X258791Y171528D01*
X258800Y171527D01*
X258808Y171525D01*
X258999Y171509D01*
X259192Y171492D01*
X259201Y171492D01*
X259210Y171492D01*
X259399Y171514D01*
X259592Y171535D01*
X259601Y171538D01*
X259609Y171539D01*
X259792Y171598D01*
X259976Y171656D01*
X259984Y171661D01*
X259992Y171664D01*
X260160Y171758D01*
X260328Y171851D01*
X260335Y171857D01*
X260343Y171861D01*
X260488Y171987D01*
X260635Y172112D01*
X260641Y172119D01*
X260648Y172125D01*
X260765Y172276D01*
X260885Y172428D01*
X260889Y172436D01*
X260894Y172443D01*
X260979Y172614D01*
X261067Y172786D01*
X261070Y172795D01*
X261074Y172803D01*
X261124Y172989D01*
X261157Y173109D01*
X266842Y178795D01*
X313638Y178795D01*
X320332Y172100D01*
X320353Y172083D01*
X320371Y172063D01*
X320508Y171956D01*
X320644Y171845D01*
X320668Y171833D01*
X320689Y171816D01*
X320846Y171738D01*
X321000Y171657D01*
X321025Y171649D01*
X321049Y171637D01*
X321219Y171591D01*
X321385Y171542D01*
X321412Y171539D01*
X321438Y171532D01*
X321769Y171505D01*
X333904Y171505D01*
X333922Y171507D01*
X333940Y171506D01*
X334122Y171527D01*
X334305Y171545D01*
X334322Y171550D01*
X334339Y171553D01*
X334514Y171609D01*
X334690Y171663D01*
X334705Y171672D01*
X334722Y171677D01*
X334882Y171768D01*
X335044Y171855D01*
X335057Y171867D01*
X335073Y171875D01*
X335212Y171996D01*
X335353Y172113D01*
X335364Y172127D01*
X335378Y172138D01*
X335490Y172283D01*
X335605Y172427D01*
X335613Y172442D01*
X335624Y172457D01*
X335706Y172621D01*
X335791Y172784D01*
X335796Y172801D01*
X335804Y172817D01*
X335851Y172995D01*
X335902Y173171D01*
X335904Y173189D01*
X335908Y173206D01*
X335935Y173537D01*
X335935Y182458D01*
X335933Y182475D01*
X335935Y182493D01*
X335914Y182675D01*
X335895Y182858D01*
X335890Y182875D01*
X335888Y182893D01*
X335831Y183067D01*
X335777Y183243D01*
X335769Y183259D01*
X335763Y183276D01*
X335673Y183436D01*
X335585Y183597D01*
X335574Y183611D01*
X335565Y183626D01*
X335445Y183766D01*
X335328Y183906D01*
X335314Y183918D01*
X335302Y183931D01*
X335157Y184044D01*
X335014Y184159D01*
X334998Y184167D01*
X334984Y184178D01*
X334819Y184260D01*
X334657Y184344D01*
X334640Y184349D01*
X334624Y184357D01*
X334445Y184405D01*
X334270Y184456D01*
X334252Y184457D01*
X334235Y184462D01*
X333904Y184489D01*
X213594Y184489D01*
X213590Y184488D01*
X213585Y184489D01*
X213391Y184469D01*
X213193Y184449D01*
X213189Y184448D01*
X213185Y184447D01*
X212997Y184389D01*
X212808Y184331D01*
X212805Y184329D01*
X212800Y184327D01*
X212626Y184232D01*
X212454Y184139D01*
X212451Y184136D01*
X212447Y184134D01*
X212294Y184005D01*
X212145Y183881D01*
X212142Y183878D01*
X212139Y183875D01*
X212014Y183718D01*
X211893Y183567D01*
X211891Y183564D01*
X211888Y183560D01*
X211795Y183380D01*
X211707Y183210D01*
X211706Y183206D01*
X211704Y183202D01*
X211650Y183009D01*
X211596Y182823D01*
X211596Y182819D01*
X211594Y182814D01*
X211579Y182622D01*
X211563Y182422D01*
X211564Y182417D01*
X211563Y182413D01*
X211587Y182218D01*
X211610Y182022D01*
X211611Y182018D01*
X211612Y182013D01*
X211673Y181828D01*
X211735Y181639D01*
X211737Y181635D01*
X211738Y181631D01*
X211835Y181462D01*
X211933Y181289D01*
X211936Y181285D01*
X211938Y181281D01*
X212066Y181135D01*
X212196Y180984D01*
X212199Y180981D01*
X212202Y180978D01*
X212359Y180857D01*
X212514Y180737D01*
X212518Y180735D01*
X212522Y180732D01*
X212817Y180581D01*
X214574Y179853D01*
X215853Y178574D01*
X216545Y176904D01*
X216545Y175096D01*
X216204Y174273D01*
X216200Y174260D01*
X216194Y174248D01*
X216142Y174068D01*
X216087Y173887D01*
X216086Y173874D01*
X216082Y173861D01*
X216067Y173673D01*
X216049Y173486D01*
X216050Y173473D01*
X216049Y173460D01*
X216071Y173273D01*
X216091Y173086D01*
X216095Y173073D01*
X216096Y173060D01*
X216155Y172881D01*
X216211Y172702D01*
X216217Y172690D01*
X216221Y172677D01*
X216314Y172513D01*
X216404Y172348D01*
X216413Y172338D01*
X216419Y172327D01*
X216541Y172185D01*
X216663Y172040D01*
X216673Y172032D01*
X216682Y172022D01*
X216830Y171907D01*
X216978Y171789D01*
X216990Y171783D01*
X217000Y171775D01*
X217169Y171691D01*
X217336Y171605D01*
X217349Y171602D01*
X217361Y171596D01*
X217544Y171547D01*
X217723Y171496D01*
X217737Y171495D01*
X217750Y171491D01*
X218080Y171464D01*
X232433Y171464D01*
X233326Y170571D01*
X233326Y157908D01*
X233329Y157877D01*
X233327Y157845D01*
X233349Y157677D01*
X233355Y157622D01*
X233355Y138845D01*
X231981Y135528D01*
X229442Y132989D01*
X228303Y132517D01*
X228283Y132507D01*
X228262Y132500D01*
X228106Y132412D01*
X227948Y132327D01*
X227931Y132313D01*
X227911Y132302D01*
X227775Y132185D01*
X227637Y132071D01*
X227623Y132053D01*
X227606Y132039D01*
X227497Y131898D01*
X227384Y131758D01*
X227373Y131738D01*
X227360Y131721D01*
X227280Y131560D01*
X227197Y131402D01*
X227190Y131380D01*
X227180Y131360D01*
X227134Y131187D01*
X227084Y131015D01*
X227082Y130993D01*
X227076Y130971D01*
X227049Y130641D01*
X227049Y126737D01*
X221263Y120951D01*
X170104Y120951D01*
X170078Y120949D01*
X170051Y120951D01*
X169877Y120929D01*
X169704Y120911D01*
X169678Y120904D01*
X169651Y120900D01*
X169486Y120845D01*
X169319Y120793D01*
X169295Y120780D01*
X169270Y120772D01*
X169118Y120685D01*
X168965Y120601D01*
X168944Y120584D01*
X168921Y120571D01*
X168668Y120356D01*
X163644Y115332D01*
X163627Y115311D01*
X163606Y115294D01*
X163499Y115156D01*
X163389Y115021D01*
X163376Y114997D01*
X163360Y114976D01*
X163282Y114819D01*
X163200Y114665D01*
X163192Y114639D01*
X163180Y114615D01*
X163135Y114446D01*
X163085Y114279D01*
X163083Y114252D01*
X163076Y114227D01*
X163049Y113896D01*
X163049Y81908D01*
X163050Y81895D01*
X163049Y81882D01*
X163070Y81694D01*
X163089Y81508D01*
X163093Y81495D01*
X163094Y81482D01*
X163151Y81303D01*
X163207Y81123D01*
X163213Y81111D01*
X163217Y81098D01*
X163309Y80934D01*
X163399Y80769D01*
X163407Y80758D01*
X163414Y80747D01*
X163536Y80603D01*
X163656Y80459D01*
X163667Y80451D01*
X163675Y80441D01*
X163824Y80324D01*
X163970Y80207D01*
X163982Y80201D01*
X163992Y80193D01*
X164162Y80108D01*
X164327Y80022D01*
X164340Y80018D01*
X164352Y80012D01*
X164534Y79962D01*
X164714Y79910D01*
X164728Y79909D01*
X164741Y79906D01*
X164929Y79893D01*
X165116Y79877D01*
X165129Y79879D01*
X165142Y79878D01*
X165330Y79902D01*
X165515Y79924D01*
X165528Y79928D01*
X165541Y79930D01*
X165857Y80032D01*
X167096Y80545D01*
X168904Y80545D01*
X170574Y79853D01*
X170784Y79644D01*
X170804Y79627D01*
X170822Y79606D01*
X170960Y79499D01*
X171095Y79389D01*
X171119Y79376D01*
X171140Y79360D01*
X171297Y79282D01*
X171451Y79200D01*
X171476Y79192D01*
X171500Y79180D01*
X171670Y79135D01*
X171837Y79085D01*
X171863Y79083D01*
X171889Y79076D01*
X172220Y79049D01*
X185424Y79049D01*
X185442Y79051D01*
X185460Y79049D01*
X185642Y79070D01*
X185825Y79089D01*
X185842Y79094D01*
X185859Y79096D01*
X186034Y79153D01*
X186210Y79207D01*
X186225Y79215D01*
X186242Y79221D01*
X186402Y79311D01*
X186564Y79399D01*
X186577Y79410D01*
X186593Y79419D01*
X186732Y79539D01*
X186873Y79656D01*
X186884Y79670D01*
X186898Y79682D01*
X187010Y79827D01*
X187125Y79970D01*
X187133Y79986D01*
X187144Y80000D01*
X187226Y80165D01*
X187311Y80327D01*
X187316Y80344D01*
X187324Y80360D01*
X187371Y80539D01*
X187422Y80714D01*
X187424Y80732D01*
X187428Y80749D01*
X187437Y80861D01*
X188147Y82574D01*
X189426Y83853D01*
X191096Y84545D01*
X192904Y84545D01*
X194574Y83853D01*
X195853Y82574D01*
X196545Y80904D01*
X196545Y80608D01*
X196547Y80582D01*
X196545Y80555D01*
X196567Y80381D01*
X196585Y80208D01*
X196592Y80182D01*
X196596Y80155D01*
X196651Y79990D01*
X196703Y79823D01*
X196716Y79799D01*
X196724Y79774D01*
X196811Y79622D01*
X196895Y79469D01*
X196912Y79448D01*
X196925Y79425D01*
X197140Y79172D01*
X200668Y75644D01*
X200689Y75627D01*
X200706Y75606D01*
X200844Y75499D01*
X200979Y75389D01*
X201003Y75376D01*
X201024Y75360D01*
X201181Y75282D01*
X201335Y75200D01*
X201361Y75192D01*
X201385Y75180D01*
X201554Y75135D01*
X201721Y75085D01*
X201748Y75083D01*
X201773Y75076D01*
X202104Y75049D01*
X220150Y75049D01*
X220177Y75051D01*
X220203Y75049D01*
X220377Y75071D01*
X220551Y75089D01*
X220576Y75096D01*
X220603Y75100D01*
X220769Y75155D01*
X220936Y75207D01*
X220959Y75220D01*
X220985Y75228D01*
X221136Y75315D01*
X221290Y75399D01*
X221310Y75416D01*
X221333Y75429D01*
X221472Y75547D01*
X221876Y75714D01*
X223172Y76251D01*
X224980Y76251D01*
X226650Y75559D01*
X227929Y74280D01*
X228621Y72610D01*
X228621Y70802D01*
X227929Y69132D01*
X226650Y67853D01*
X224980Y67161D01*
X223172Y67161D01*
X221502Y67853D01*
X220998Y68356D01*
X220978Y68373D01*
X220960Y68394D01*
X220822Y68501D01*
X220687Y68611D01*
X220663Y68624D01*
X220642Y68640D01*
X220485Y68718D01*
X220331Y68800D01*
X220306Y68808D01*
X220282Y68820D01*
X220112Y68865D01*
X219945Y68915D01*
X219919Y68917D01*
X219893Y68924D01*
X219562Y68951D01*
X198737Y68951D01*
X193436Y74252D01*
X193423Y74263D01*
X193411Y74277D01*
X193267Y74391D01*
X193125Y74507D01*
X193109Y74516D01*
X193095Y74527D01*
X192931Y74610D01*
X192769Y74696D01*
X192752Y74701D01*
X192736Y74709D01*
X192559Y74758D01*
X192383Y74811D01*
X192365Y74812D01*
X192348Y74817D01*
X192165Y74830D01*
X191982Y74847D01*
X191964Y74845D01*
X191947Y74846D01*
X191765Y74823D01*
X191582Y74804D01*
X191565Y74798D01*
X191547Y74796D01*
X191374Y74738D01*
X191198Y74682D01*
X191182Y74673D01*
X191166Y74668D01*
X191006Y74576D01*
X190846Y74487D01*
X190832Y74476D01*
X190817Y74467D01*
X190564Y74252D01*
X189263Y72951D01*
X172220Y72951D01*
X172193Y72949D01*
X172167Y72951D01*
X171993Y72929D01*
X171819Y72911D01*
X171794Y72904D01*
X171767Y72900D01*
X171601Y72845D01*
X171434Y72793D01*
X171411Y72780D01*
X171385Y72772D01*
X171234Y72685D01*
X171080Y72601D01*
X171060Y72584D01*
X171037Y72571D01*
X170784Y72356D01*
X170574Y72147D01*
X168904Y71455D01*
X167096Y71455D01*
X165857Y71968D01*
X165844Y71972D01*
X165833Y71978D01*
X165652Y72030D01*
X165472Y72085D01*
X165459Y72086D01*
X165446Y72090D01*
X165258Y72105D01*
X165071Y72123D01*
X165058Y72122D01*
X165044Y72123D01*
X164857Y72101D01*
X164671Y72081D01*
X164658Y72077D01*
X164645Y72076D01*
X164465Y72017D01*
X164286Y71961D01*
X164275Y71955D01*
X164262Y71951D01*
X164097Y71858D01*
X163933Y71768D01*
X163923Y71760D01*
X163911Y71753D01*
X163769Y71630D01*
X163625Y71509D01*
X163617Y71499D01*
X163606Y71490D01*
X163491Y71341D01*
X163374Y71194D01*
X163368Y71182D01*
X163360Y71172D01*
X163276Y71002D01*
X163190Y70836D01*
X163186Y70823D01*
X163180Y70811D01*
X163131Y70628D01*
X163080Y70449D01*
X163079Y70435D01*
X163076Y70422D01*
X163049Y70092D01*
X163049Y48963D01*
X163051Y48937D01*
X163049Y48910D01*
X163071Y48736D01*
X163089Y48563D01*
X163096Y48537D01*
X163100Y48511D01*
X163155Y48345D01*
X163207Y48178D01*
X163220Y48154D01*
X163228Y48129D01*
X163315Y47977D01*
X163399Y47824D01*
X163416Y47803D01*
X163429Y47780D01*
X163644Y47527D01*
X164051Y47120D01*
X164051Y46994D01*
X164052Y46990D01*
X164051Y46985D01*
X164071Y46791D01*
X164091Y46593D01*
X164092Y46589D01*
X164093Y46585D01*
X164151Y46397D01*
X164209Y46209D01*
X164211Y46205D01*
X164213Y46200D01*
X164307Y46028D01*
X164401Y45855D01*
X164404Y45851D01*
X164406Y45847D01*
X164533Y45696D01*
X164659Y45545D01*
X164662Y45543D01*
X164665Y45539D01*
X164820Y45416D01*
X164972Y45293D01*
X164976Y45291D01*
X164980Y45288D01*
X165157Y45197D01*
X165330Y45107D01*
X165334Y45106D01*
X165338Y45104D01*
X165530Y45050D01*
X165717Y44996D01*
X165721Y44996D01*
X165725Y44994D01*
X165921Y44979D01*
X166118Y44963D01*
X166122Y44964D01*
X166127Y44963D01*
X166321Y44987D01*
X166518Y45010D01*
X166522Y45011D01*
X166527Y45012D01*
X166713Y45074D01*
X166901Y45135D01*
X166905Y45137D01*
X166909Y45139D01*
X167078Y45235D01*
X167251Y45333D01*
X167255Y45336D01*
X167258Y45338D01*
X167407Y45467D01*
X167556Y45596D01*
X167559Y45599D01*
X167562Y45602D01*
X167683Y45760D01*
X167803Y45914D01*
X167805Y45918D01*
X167807Y45922D01*
X167959Y46217D01*
X168120Y46607D01*
X170672Y49158D01*
X174005Y50539D01*
X177613Y50539D01*
X180947Y49158D01*
X183498Y46607D01*
X184879Y43273D01*
X184879Y39665D01*
X183498Y36331D01*
X180947Y33780D01*
X177613Y32399D01*
X174005Y32399D01*
X170672Y33780D01*
X168120Y36331D01*
X167959Y36721D01*
X167957Y36725D01*
X167956Y36729D01*
X167862Y36902D01*
X167769Y37076D01*
X167766Y37080D01*
X167764Y37083D01*
X167639Y37234D01*
X167512Y37386D01*
X167509Y37389D01*
X167506Y37393D01*
X167352Y37516D01*
X167200Y37640D01*
X167196Y37642D01*
X167192Y37645D01*
X167018Y37736D01*
X166843Y37827D01*
X166839Y37829D01*
X166835Y37831D01*
X166647Y37885D01*
X166457Y37940D01*
X166452Y37941D01*
X166448Y37942D01*
X166251Y37958D01*
X166056Y37975D01*
X166051Y37974D01*
X166047Y37975D01*
X165852Y37952D01*
X165656Y37930D01*
X165651Y37928D01*
X165647Y37928D01*
X165459Y37867D01*
X165272Y37807D01*
X165269Y37804D01*
X165264Y37803D01*
X165091Y37706D01*
X164921Y37610D01*
X164917Y37607D01*
X164914Y37605D01*
X164765Y37477D01*
X164615Y37348D01*
X164612Y37345D01*
X164609Y37342D01*
X164490Y37189D01*
X164367Y37031D01*
X164365Y37027D01*
X164362Y37024D01*
X164275Y36849D01*
X164186Y36672D01*
X164185Y36667D01*
X164183Y36663D01*
X164130Y36467D01*
X164080Y36283D01*
X164079Y36279D01*
X164078Y36275D01*
X164051Y35944D01*
X164051Y25399D01*
X159574Y20922D01*
X159559Y20904D01*
X159542Y20890D01*
X159432Y20749D01*
X159319Y20610D01*
X159308Y20590D01*
X159294Y20573D01*
X159214Y20412D01*
X159130Y20254D01*
X159124Y20233D01*
X159113Y20213D01*
X159066Y20039D01*
X159015Y19869D01*
X159013Y19846D01*
X159007Y19825D01*
X158995Y19647D01*
X158979Y19468D01*
X158981Y19445D01*
X158980Y19423D01*
X159003Y19247D01*
X159022Y19067D01*
X159029Y19046D01*
X159032Y19024D01*
X159133Y18708D01*
X159479Y17873D01*
X159479Y14265D01*
X158265Y11333D01*
X158261Y11320D01*
X158255Y11309D01*
X158203Y11128D01*
X158148Y10948D01*
X158147Y10935D01*
X158143Y10922D01*
X158128Y10733D01*
X158110Y10547D01*
X158112Y10534D01*
X158110Y10520D01*
X158132Y10334D01*
X158152Y10147D01*
X158156Y10134D01*
X158157Y10121D01*
X158215Y9943D01*
X158272Y9762D01*
X158278Y9751D01*
X158282Y9738D01*
X158375Y9574D01*
X158465Y9409D01*
X158474Y9399D01*
X158480Y9387D01*
X158603Y9245D01*
X158724Y9101D01*
X158735Y9093D01*
X158743Y9082D01*
X158891Y8968D01*
X159039Y8850D01*
X159051Y8844D01*
X159061Y8836D01*
X159230Y8752D01*
X159397Y8666D01*
X159410Y8662D01*
X159422Y8656D01*
X159605Y8607D01*
X159784Y8556D01*
X159798Y8555D01*
X159811Y8552D01*
X160141Y8525D01*
X166077Y8525D01*
X166091Y8526D01*
G37*
G36*
X139335Y13846D02*
X139335Y13846D01*
X139344Y13845D01*
X139533Y13867D01*
X139726Y13888D01*
X139735Y13891D01*
X139744Y13892D01*
X139926Y13951D01*
X140110Y14009D01*
X140118Y14014D01*
X140127Y14017D01*
X140295Y14112D01*
X140463Y14204D01*
X140469Y14210D01*
X140477Y14214D01*
X140623Y14340D01*
X140770Y14465D01*
X140775Y14472D01*
X140782Y14478D01*
X140899Y14629D01*
X141019Y14781D01*
X141023Y14789D01*
X141029Y14796D01*
X141114Y14968D01*
X141202Y15140D01*
X141204Y15148D01*
X141208Y15156D01*
X141258Y15343D01*
X141310Y15528D01*
X141310Y15536D01*
X141313Y15545D01*
X141340Y15876D01*
X141340Y17873D01*
X142720Y21207D01*
X145272Y23758D01*
X148605Y25139D01*
X152213Y25139D01*
X153048Y24793D01*
X153070Y24786D01*
X153090Y24776D01*
X153263Y24728D01*
X153434Y24676D01*
X153456Y24674D01*
X153477Y24668D01*
X153657Y24655D01*
X153835Y24638D01*
X153857Y24641D01*
X153879Y24639D01*
X154057Y24661D01*
X154235Y24680D01*
X154256Y24687D01*
X154278Y24689D01*
X154448Y24746D01*
X154619Y24800D01*
X154639Y24810D01*
X154660Y24818D01*
X154815Y24907D01*
X154973Y24993D01*
X154990Y25007D01*
X155009Y25019D01*
X155262Y25233D01*
X157359Y27330D01*
X157376Y27351D01*
X157396Y27368D01*
X157503Y27506D01*
X157614Y27641D01*
X157626Y27665D01*
X157643Y27686D01*
X157721Y27843D01*
X157802Y27997D01*
X157810Y28023D01*
X157822Y28047D01*
X157868Y28216D01*
X157917Y28383D01*
X157920Y28410D01*
X157927Y28435D01*
X157954Y28766D01*
X157954Y30679D01*
X157944Y30772D01*
X157945Y30865D01*
X157924Y30971D01*
X157914Y31079D01*
X157886Y31168D01*
X157869Y31260D01*
X157827Y31360D01*
X157796Y31464D01*
X157751Y31546D01*
X157716Y31633D01*
X157656Y31723D01*
X157604Y31818D01*
X157544Y31890D01*
X157492Y31968D01*
X157416Y32044D01*
X157346Y32128D01*
X157273Y32186D01*
X157207Y32252D01*
X157117Y32312D01*
X157032Y32380D01*
X156950Y32423D01*
X156872Y32474D01*
X156771Y32515D01*
X156675Y32565D01*
X156586Y32591D01*
X156499Y32626D01*
X156392Y32647D01*
X156288Y32677D01*
X156195Y32684D01*
X156104Y32702D01*
X155995Y32701D01*
X155887Y32710D01*
X155794Y32699D01*
X155701Y32698D01*
X155595Y32675D01*
X155487Y32663D01*
X155398Y32634D01*
X155307Y32615D01*
X155183Y32564D01*
X155104Y32538D01*
X155061Y32514D01*
X155000Y32489D01*
X154281Y32122D01*
X152834Y31652D01*
X152834Y41076D01*
X152832Y41094D01*
X152833Y41111D01*
X152812Y41294D01*
X152794Y41474D01*
X152800Y41496D01*
X152802Y41514D01*
X152807Y41531D01*
X152834Y41862D01*
X152834Y51286D01*
X154292Y50812D01*
X154425Y50783D01*
X154554Y50746D01*
X154621Y50740D01*
X154686Y50726D01*
X154821Y50724D01*
X154956Y50713D01*
X155022Y50721D01*
X155088Y50720D01*
X155221Y50744D01*
X155355Y50760D01*
X155419Y50781D01*
X155484Y50793D01*
X155610Y50843D01*
X155738Y50885D01*
X155796Y50918D01*
X155858Y50942D01*
X155971Y51016D01*
X156089Y51083D01*
X156139Y51126D01*
X156195Y51163D01*
X156291Y51257D01*
X156394Y51346D01*
X156434Y51398D01*
X156482Y51445D01*
X156558Y51557D01*
X156640Y51664D01*
X156670Y51724D01*
X156707Y51779D01*
X156759Y51903D01*
X156820Y52024D01*
X156837Y52089D01*
X156863Y52150D01*
X156889Y52283D01*
X156924Y52413D01*
X156930Y52490D01*
X156941Y52545D01*
X156941Y52624D01*
X156951Y52744D01*
X156951Y117263D01*
X166737Y127049D01*
X217896Y127049D01*
X217922Y127051D01*
X217949Y127049D01*
X218123Y127071D01*
X218296Y127089D01*
X218322Y127096D01*
X218349Y127100D01*
X218514Y127155D01*
X218681Y127207D01*
X218705Y127220D01*
X218730Y127228D01*
X218882Y127315D01*
X219035Y127399D01*
X219056Y127416D01*
X219079Y127429D01*
X219332Y127644D01*
X220356Y128668D01*
X220373Y128689D01*
X220394Y128706D01*
X220501Y128844D01*
X220611Y128979D01*
X220624Y129003D01*
X220640Y129024D01*
X220718Y129181D01*
X220800Y129335D01*
X220808Y129361D01*
X220820Y129385D01*
X220865Y129554D01*
X220915Y129721D01*
X220917Y129748D01*
X220924Y129773D01*
X220951Y130104D01*
X220951Y130914D01*
X220949Y130936D01*
X220951Y130958D01*
X220929Y131136D01*
X220911Y131315D01*
X220905Y131336D01*
X220902Y131358D01*
X220846Y131528D01*
X220793Y131700D01*
X220783Y131719D01*
X220776Y131740D01*
X220687Y131896D01*
X220601Y132054D01*
X220587Y132071D01*
X220576Y132090D01*
X220458Y132225D01*
X220344Y132363D01*
X220326Y132377D01*
X220312Y132394D01*
X220170Y132503D01*
X220030Y132615D01*
X220010Y132625D01*
X219992Y132639D01*
X219697Y132791D01*
X219218Y132989D01*
X216679Y135528D01*
X215305Y138845D01*
X215305Y153438D01*
X215303Y153465D01*
X215305Y153491D01*
X215283Y153665D01*
X215277Y153723D01*
X215277Y169424D01*
X215275Y169442D01*
X215277Y169460D01*
X215255Y169642D01*
X215237Y169825D01*
X215232Y169842D01*
X215230Y169859D01*
X215173Y170034D01*
X215119Y170210D01*
X215110Y170225D01*
X215105Y170242D01*
X215014Y170402D01*
X214927Y170564D01*
X214916Y170577D01*
X214907Y170593D01*
X214787Y170732D01*
X214669Y170873D01*
X214655Y170884D01*
X214644Y170898D01*
X214499Y171010D01*
X214356Y171125D01*
X214340Y171133D01*
X214326Y171144D01*
X214161Y171226D01*
X213998Y171311D01*
X213981Y171316D01*
X213965Y171324D01*
X213787Y171371D01*
X213611Y171422D01*
X213594Y171424D01*
X213576Y171428D01*
X213246Y171455D01*
X211024Y171455D01*
X210906Y171491D01*
X210892Y171492D01*
X210879Y171496D01*
X210692Y171511D01*
X210505Y171529D01*
X210492Y171528D01*
X210478Y171529D01*
X210291Y171507D01*
X210104Y171487D01*
X210092Y171483D01*
X210078Y171482D01*
X209899Y171424D01*
X209720Y171368D01*
X209708Y171361D01*
X209695Y171357D01*
X209532Y171265D01*
X209367Y171174D01*
X209356Y171166D01*
X209345Y171159D01*
X209203Y171037D01*
X209059Y170915D01*
X209050Y170905D01*
X209040Y170896D01*
X208926Y170748D01*
X208808Y170600D01*
X208801Y170588D01*
X208793Y170578D01*
X208710Y170411D01*
X208624Y170242D01*
X208620Y170229D01*
X208614Y170217D01*
X208565Y170035D01*
X208514Y169855D01*
X208513Y169842D01*
X208510Y169829D01*
X208482Y169498D01*
X208482Y157889D01*
X208486Y157858D01*
X208483Y157827D01*
X208495Y157740D01*
X208495Y138865D01*
X207121Y135548D01*
X204582Y133009D01*
X201265Y131635D01*
X197675Y131635D01*
X194358Y133009D01*
X191819Y135548D01*
X190445Y138865D01*
X190445Y153378D01*
X190442Y153406D01*
X190444Y153434D01*
X190433Y153525D01*
X190433Y170495D01*
X191326Y171388D01*
X205951Y171388D01*
X205964Y171390D01*
X205978Y171388D01*
X206164Y171409D01*
X206352Y171428D01*
X206365Y171432D01*
X206378Y171434D01*
X206556Y171491D01*
X206737Y171546D01*
X206748Y171553D01*
X206761Y171557D01*
X206925Y171648D01*
X207091Y171738D01*
X207101Y171747D01*
X207113Y171753D01*
X207255Y171875D01*
X207400Y171996D01*
X207408Y172006D01*
X207418Y172015D01*
X207535Y172163D01*
X207652Y172309D01*
X207658Y172321D01*
X207667Y172332D01*
X207751Y172501D01*
X207838Y172667D01*
X207841Y172680D01*
X207847Y172692D01*
X207897Y172873D01*
X207949Y173054D01*
X207950Y173067D01*
X207954Y173080D01*
X207967Y173268D01*
X207982Y173455D01*
X207980Y173468D01*
X207981Y173482D01*
X207957Y173669D01*
X207935Y173855D01*
X207931Y173868D01*
X207929Y173881D01*
X207828Y174197D01*
X207455Y175096D01*
X207455Y175392D01*
X207453Y175418D01*
X207455Y175445D01*
X207433Y175619D01*
X207415Y175792D01*
X207408Y175818D01*
X207404Y175845D01*
X207349Y176010D01*
X207297Y176177D01*
X207284Y176201D01*
X207276Y176226D01*
X207189Y176378D01*
X207105Y176531D01*
X207088Y176552D01*
X207075Y176575D01*
X206860Y176828D01*
X204367Y179322D01*
X204346Y179339D01*
X204328Y179359D01*
X204190Y179466D01*
X204055Y179577D01*
X204031Y179589D01*
X204010Y179606D01*
X203853Y179684D01*
X203699Y179766D01*
X203674Y179773D01*
X203650Y179785D01*
X203480Y179831D01*
X203313Y179880D01*
X203287Y179883D01*
X203261Y179890D01*
X202930Y179917D01*
X145070Y179917D01*
X145043Y179914D01*
X145016Y179916D01*
X144842Y179894D01*
X144669Y179877D01*
X144644Y179869D01*
X144617Y179866D01*
X144451Y179810D01*
X144284Y179759D01*
X144261Y179746D01*
X144235Y179737D01*
X144084Y179650D01*
X143930Y179567D01*
X143910Y179550D01*
X143886Y179537D01*
X143633Y179322D01*
X139167Y174856D01*
X139162Y174849D01*
X139155Y174843D01*
X139033Y174692D01*
X138912Y174544D01*
X138908Y174536D01*
X138902Y174529D01*
X138814Y174359D01*
X138724Y174189D01*
X138721Y174180D01*
X138717Y174172D01*
X138664Y173987D01*
X138609Y173803D01*
X138608Y173794D01*
X138606Y173785D01*
X138590Y173594D01*
X138572Y173402D01*
X138573Y173393D01*
X138573Y173384D01*
X138595Y173192D01*
X138616Y173001D01*
X138619Y172993D01*
X138620Y172984D01*
X138679Y172800D01*
X138737Y172618D01*
X138742Y172610D01*
X138744Y172601D01*
X138839Y172433D01*
X138932Y172265D01*
X138938Y172258D01*
X138942Y172251D01*
X139069Y172104D01*
X139193Y171958D01*
X139200Y171953D01*
X139205Y171946D01*
X139357Y171828D01*
X139509Y171709D01*
X139517Y171705D01*
X139524Y171699D01*
X139696Y171614D01*
X139867Y171526D01*
X139876Y171524D01*
X139884Y171520D01*
X140070Y171470D01*
X140255Y171418D01*
X140264Y171418D01*
X140273Y171415D01*
X140604Y171388D01*
X156330Y171388D01*
X157223Y170495D01*
X157223Y153592D01*
X157205Y153373D01*
X157205Y142420D01*
X157206Y142411D01*
X157205Y142402D01*
X157226Y142209D01*
X157245Y142020D01*
X157247Y142011D01*
X157248Y142002D01*
X157307Y141818D01*
X157363Y141635D01*
X157367Y141627D01*
X157370Y141618D01*
X157463Y141450D01*
X157555Y141281D01*
X157560Y141274D01*
X157565Y141266D01*
X157689Y141119D01*
X157812Y140971D01*
X157819Y140966D01*
X157825Y140959D01*
X157977Y140839D01*
X158126Y140719D01*
X158134Y140715D01*
X158141Y140709D01*
X158314Y140622D01*
X158483Y140533D01*
X158492Y140531D01*
X158500Y140527D01*
X158686Y140475D01*
X158870Y140422D01*
X158879Y140421D01*
X158888Y140419D01*
X159081Y140405D01*
X159272Y140389D01*
X159280Y140390D01*
X159289Y140390D01*
X159482Y140414D01*
X159671Y140436D01*
X159680Y140439D01*
X159689Y140440D01*
X159871Y140501D01*
X160054Y140561D01*
X160062Y140565D01*
X160070Y140568D01*
X160237Y140664D01*
X160405Y140759D01*
X160412Y140765D01*
X160419Y140769D01*
X160672Y140984D01*
X164130Y144442D01*
X164147Y144463D01*
X164168Y144480D01*
X164275Y144618D01*
X164385Y144753D01*
X164398Y144777D01*
X164414Y144798D01*
X164492Y144955D01*
X164574Y145109D01*
X164582Y145135D01*
X164594Y145159D01*
X164639Y145328D01*
X164689Y145495D01*
X164691Y145522D01*
X164698Y145547D01*
X164725Y145878D01*
X164725Y152953D01*
X164723Y152980D01*
X164725Y153007D01*
X164703Y153180D01*
X164686Y153344D01*
X164686Y170096D01*
X165579Y170990D01*
X181843Y170990D01*
X182736Y170096D01*
X182736Y157953D01*
X182739Y157922D01*
X182737Y157891D01*
X182759Y157722D01*
X182775Y157562D01*
X182775Y138865D01*
X181401Y135548D01*
X178862Y133009D01*
X175545Y131635D01*
X171955Y131635D01*
X168638Y133009D01*
X166416Y135231D01*
X166402Y135243D01*
X166390Y135256D01*
X166246Y135370D01*
X166104Y135487D01*
X166088Y135495D01*
X166074Y135506D01*
X165910Y135590D01*
X165748Y135675D01*
X165731Y135680D01*
X165715Y135688D01*
X165538Y135738D01*
X165362Y135790D01*
X165345Y135792D01*
X165328Y135796D01*
X165144Y135810D01*
X164962Y135826D01*
X164944Y135824D01*
X164926Y135826D01*
X164744Y135803D01*
X164561Y135783D01*
X164544Y135778D01*
X164527Y135775D01*
X164353Y135717D01*
X164177Y135661D01*
X164162Y135653D01*
X164145Y135647D01*
X163985Y135555D01*
X163825Y135467D01*
X163812Y135455D01*
X163796Y135446D01*
X163543Y135231D01*
X145712Y117400D01*
X145695Y117379D01*
X145674Y117362D01*
X145567Y117224D01*
X145457Y117089D01*
X145444Y117065D01*
X145428Y117044D01*
X145350Y116887D01*
X145268Y116733D01*
X145260Y116707D01*
X145248Y116683D01*
X145203Y116514D01*
X145153Y116347D01*
X145151Y116320D01*
X145144Y116295D01*
X145117Y115964D01*
X145117Y53150D01*
X145130Y53015D01*
X145135Y52880D01*
X145150Y52815D01*
X145157Y52749D01*
X145196Y52620D01*
X145227Y52488D01*
X145255Y52428D01*
X145275Y52364D01*
X145339Y52245D01*
X145396Y52123D01*
X145435Y52069D01*
X145467Y52010D01*
X145553Y51907D01*
X145633Y51797D01*
X145682Y51752D01*
X145724Y51701D01*
X145830Y51616D01*
X145929Y51525D01*
X145986Y51490D01*
X146038Y51449D01*
X146158Y51386D01*
X146274Y51316D01*
X146336Y51294D01*
X146395Y51263D01*
X146525Y51226D01*
X146653Y51180D01*
X146718Y51170D01*
X146782Y51152D01*
X146917Y51141D01*
X147051Y51121D01*
X147117Y51124D01*
X147184Y51119D01*
X147318Y51135D01*
X147453Y51142D01*
X147527Y51159D01*
X147583Y51166D01*
X147658Y51190D01*
X147776Y51218D01*
X147985Y51286D01*
X147985Y43893D01*
X140592Y43893D01*
X140700Y44224D01*
X140729Y44356D01*
X140766Y44486D01*
X140772Y44553D01*
X140786Y44618D01*
X140788Y44753D01*
X140799Y44888D01*
X140791Y44954D01*
X140792Y45020D01*
X140768Y45153D01*
X140752Y45287D01*
X140731Y45351D01*
X140719Y45416D01*
X140669Y45542D01*
X140627Y45670D01*
X140594Y45728D01*
X140570Y45790D01*
X140496Y45903D01*
X140429Y46021D01*
X140386Y46071D01*
X140349Y46127D01*
X140255Y46223D01*
X140166Y46326D01*
X140114Y46366D01*
X140067Y46414D01*
X139955Y46490D01*
X139848Y46572D01*
X139789Y46602D01*
X139733Y46639D01*
X139609Y46691D01*
X139488Y46752D01*
X139423Y46769D01*
X139362Y46795D01*
X139230Y46821D01*
X139099Y46856D01*
X139022Y46862D01*
X138967Y46873D01*
X138888Y46873D01*
X138768Y46883D01*
X132224Y46883D01*
X130751Y48356D01*
X130730Y48373D01*
X130712Y48394D01*
X130574Y48501D01*
X130439Y48611D01*
X130415Y48624D01*
X130394Y48640D01*
X130237Y48718D01*
X130083Y48800D01*
X130058Y48808D01*
X130034Y48820D01*
X129864Y48865D01*
X129697Y48915D01*
X129671Y48917D01*
X129645Y48924D01*
X129314Y48951D01*
X120220Y48951D01*
X120193Y48949D01*
X120167Y48951D01*
X119993Y48929D01*
X119819Y48911D01*
X119794Y48904D01*
X119767Y48900D01*
X119601Y48845D01*
X119434Y48793D01*
X119411Y48780D01*
X119385Y48772D01*
X119234Y48685D01*
X119080Y48601D01*
X119060Y48584D01*
X119037Y48571D01*
X118784Y48356D01*
X118574Y48147D01*
X116904Y47455D01*
X115096Y47455D01*
X113426Y48147D01*
X112147Y49426D01*
X111455Y51096D01*
X111455Y52904D01*
X112147Y54574D01*
X113426Y55853D01*
X115096Y56545D01*
X116904Y56545D01*
X118574Y55853D01*
X118784Y55644D01*
X118804Y55627D01*
X118822Y55606D01*
X118960Y55499D01*
X119095Y55389D01*
X119119Y55376D01*
X119140Y55360D01*
X119297Y55282D01*
X119451Y55200D01*
X119476Y55192D01*
X119500Y55180D01*
X119670Y55135D01*
X119837Y55085D01*
X119863Y55083D01*
X119889Y55076D01*
X120220Y55049D01*
X129424Y55049D01*
X129442Y55051D01*
X129460Y55049D01*
X129642Y55070D01*
X129825Y55089D01*
X129842Y55094D01*
X129859Y55096D01*
X130034Y55153D01*
X130210Y55207D01*
X130225Y55215D01*
X130242Y55221D01*
X130402Y55311D01*
X130564Y55399D01*
X130577Y55410D01*
X130593Y55419D01*
X130732Y55539D01*
X130873Y55656D01*
X130884Y55670D01*
X130898Y55682D01*
X131010Y55827D01*
X131125Y55970D01*
X131133Y55986D01*
X131144Y56000D01*
X131226Y56165D01*
X131311Y56327D01*
X131316Y56344D01*
X131324Y56360D01*
X131371Y56539D01*
X131422Y56714D01*
X131424Y56732D01*
X131428Y56749D01*
X131437Y56861D01*
X132147Y58574D01*
X132356Y58784D01*
X132373Y58804D01*
X132394Y58822D01*
X132501Y58960D01*
X132611Y59095D01*
X132624Y59119D01*
X132640Y59140D01*
X132718Y59297D01*
X132800Y59451D01*
X132808Y59476D01*
X132820Y59500D01*
X132865Y59670D01*
X132915Y59837D01*
X132917Y59863D01*
X132924Y59889D01*
X132951Y60220D01*
X132951Y70092D01*
X132950Y70105D01*
X132951Y70118D01*
X132930Y70304D01*
X132911Y70492D01*
X132907Y70505D01*
X132906Y70518D01*
X132849Y70697D01*
X132793Y70877D01*
X132787Y70889D01*
X132783Y70902D01*
X132691Y71066D01*
X132601Y71231D01*
X132593Y71242D01*
X132586Y71253D01*
X132464Y71397D01*
X132344Y71541D01*
X132333Y71549D01*
X132325Y71559D01*
X132176Y71676D01*
X132030Y71793D01*
X132018Y71799D01*
X132008Y71807D01*
X131838Y71892D01*
X131673Y71978D01*
X131660Y71982D01*
X131648Y71988D01*
X131466Y72038D01*
X131286Y72090D01*
X131272Y72091D01*
X131259Y72094D01*
X131071Y72107D01*
X130884Y72123D01*
X130871Y72121D01*
X130858Y72122D01*
X130670Y72098D01*
X130485Y72076D01*
X130472Y72072D01*
X130459Y72070D01*
X130143Y71968D01*
X128904Y71455D01*
X127096Y71455D01*
X125426Y72147D01*
X125216Y72356D01*
X125196Y72373D01*
X125178Y72394D01*
X125040Y72501D01*
X124905Y72611D01*
X124881Y72624D01*
X124860Y72640D01*
X124703Y72718D01*
X124549Y72800D01*
X124524Y72808D01*
X124500Y72820D01*
X124330Y72865D01*
X124163Y72915D01*
X124137Y72917D01*
X124111Y72924D01*
X123780Y72951D01*
X84264Y72951D01*
X84255Y72950D01*
X84246Y72951D01*
X84053Y72930D01*
X83864Y72911D01*
X83855Y72909D01*
X83846Y72908D01*
X83662Y72849D01*
X83479Y72793D01*
X83471Y72789D01*
X83462Y72786D01*
X83294Y72693D01*
X83125Y72601D01*
X83118Y72596D01*
X83110Y72591D01*
X82963Y72467D01*
X82815Y72344D01*
X82810Y72337D01*
X82803Y72331D01*
X82683Y72179D01*
X82563Y72030D01*
X82559Y72022D01*
X82553Y72015D01*
X82466Y71842D01*
X82377Y71673D01*
X82375Y71664D01*
X82371Y71656D01*
X82319Y71470D01*
X82266Y71286D01*
X82265Y71277D01*
X82263Y71268D01*
X82249Y71075D01*
X82233Y70884D01*
X82234Y70876D01*
X82234Y70867D01*
X82258Y70674D01*
X82280Y70485D01*
X82283Y70476D01*
X82284Y70467D01*
X82345Y70285D01*
X82405Y70102D01*
X82409Y70094D01*
X82412Y70086D01*
X82508Y69919D01*
X82603Y69751D01*
X82609Y69744D01*
X82613Y69737D01*
X82828Y69484D01*
X137872Y14439D01*
X137879Y14434D01*
X137885Y14427D01*
X138034Y14307D01*
X138184Y14184D01*
X138191Y14180D01*
X138198Y14175D01*
X138370Y14086D01*
X138539Y13996D01*
X138548Y13993D01*
X138556Y13989D01*
X138741Y13936D01*
X138925Y13881D01*
X138934Y13880D01*
X138943Y13878D01*
X139134Y13862D01*
X139326Y13845D01*
X139335Y13846D01*
G37*
%LPC*%
G36*
X267489Y305001D02*
X267489Y305001D01*
X266596Y305895D01*
X266596Y318599D01*
X266595Y318608D01*
X266595Y337595D01*
X267969Y340912D01*
X270508Y343451D01*
X273825Y344825D01*
X277415Y344825D01*
X280732Y343451D01*
X283271Y340912D01*
X284645Y337595D01*
X284645Y323000D01*
X284646Y322991D01*
X284646Y305895D01*
X283752Y305001D01*
X267489Y305001D01*
G37*
%LPD*%
%LPC*%
G36*
X216211Y305095D02*
X216211Y305095D01*
X215318Y305988D01*
X215318Y318411D01*
X215315Y318442D01*
X215317Y318473D01*
X215305Y318561D01*
X215305Y337435D01*
X216679Y340752D01*
X219218Y343291D01*
X222535Y344665D01*
X226125Y344665D01*
X229442Y343291D01*
X231981Y340752D01*
X233355Y337435D01*
X233355Y323105D01*
X233358Y323077D01*
X233356Y323049D01*
X233367Y322958D01*
X233367Y305988D01*
X232474Y305095D01*
X216211Y305095D01*
G37*
%LPD*%
%LPC*%
G36*
X110327Y178686D02*
X110327Y178686D01*
X110319Y178689D01*
X110292Y178691D01*
X110267Y178698D01*
X109936Y178725D01*
X95705Y178725D01*
X92388Y180099D01*
X89849Y182638D01*
X88475Y185955D01*
X88475Y189545D01*
X89849Y192862D01*
X92388Y195401D01*
X95705Y196775D01*
X114399Y196775D01*
X114401Y196774D01*
X114432Y196771D01*
X114462Y196763D01*
X114793Y196736D01*
X127079Y196736D01*
X127972Y195843D01*
X127972Y179580D01*
X127079Y178686D01*
X110327Y178686D01*
G37*
%LPD*%
%LPC*%
G36*
X241926Y305295D02*
X241926Y305295D01*
X241033Y306188D01*
X241033Y318422D01*
X241030Y318454D01*
X241032Y318485D01*
X241025Y318536D01*
X241025Y337435D01*
X242399Y340752D01*
X244938Y343291D01*
X248255Y344665D01*
X251845Y344665D01*
X255162Y343291D01*
X257701Y340752D01*
X259075Y337435D01*
X259075Y323301D01*
X259078Y323272D01*
X259076Y323243D01*
X259082Y323190D01*
X259082Y306188D01*
X258189Y305295D01*
X241926Y305295D01*
G37*
%LPD*%
%LPC*%
G36*
X95705Y203175D02*
X95705Y203175D01*
X92388Y204549D01*
X89849Y207088D01*
X88475Y210405D01*
X88475Y213995D01*
X89849Y217312D01*
X92388Y219851D01*
X95705Y221225D01*
X109773Y221225D01*
X109799Y221227D01*
X109826Y221225D01*
X110000Y221247D01*
X110062Y221254D01*
X126906Y221254D01*
X127799Y220360D01*
X127799Y204097D01*
X126906Y203204D01*
X114769Y203204D01*
X114738Y203201D01*
X114706Y203203D01*
X114538Y203181D01*
X114479Y203175D01*
X95705Y203175D01*
G37*
%LPD*%
%LPC*%
G36*
X109818Y278432D02*
X109818Y278432D01*
X109780Y278435D01*
X95705Y278435D01*
X92388Y279809D01*
X89849Y282348D01*
X88475Y285665D01*
X88475Y289255D01*
X89849Y292572D01*
X92388Y295111D01*
X95705Y296485D01*
X114669Y296485D01*
X114707Y296482D01*
X126888Y296482D01*
X127781Y295589D01*
X127781Y279325D01*
X126888Y278432D01*
X109818Y278432D01*
G37*
%LPD*%
%LPC*%
G36*
X109796Y253161D02*
X109796Y253161D01*
X109627Y253175D01*
X95705Y253175D01*
X92388Y254549D01*
X89849Y257088D01*
X88475Y260405D01*
X88475Y263995D01*
X89849Y267312D01*
X92388Y269851D01*
X94472Y270714D01*
X95705Y271225D01*
X114564Y271225D01*
X114733Y271211D01*
X126745Y271211D01*
X127638Y270318D01*
X127638Y254055D01*
X126745Y253161D01*
X109796Y253161D01*
G37*
%LPD*%
%LPC*%
G36*
X95705Y228725D02*
X95705Y228725D01*
X92388Y230099D01*
X89849Y232638D01*
X88475Y235955D01*
X88475Y239545D01*
X89849Y242862D01*
X92388Y245401D01*
X94653Y246339D01*
X95705Y246775D01*
X109394Y246775D01*
X109420Y246777D01*
X109447Y246775D01*
X109621Y246797D01*
X109645Y246800D01*
X126523Y246800D01*
X127417Y245907D01*
X127417Y229643D01*
X126523Y228750D01*
X114760Y228750D01*
X114728Y228747D01*
X114697Y228749D01*
X114529Y228727D01*
X114508Y228725D01*
X95705Y228725D01*
G37*
%LPD*%
%LPC*%
G36*
X199405Y32399D02*
X199405Y32399D01*
X196072Y33780D01*
X193520Y36331D01*
X192140Y39665D01*
X192140Y43273D01*
X193520Y46607D01*
X196072Y49158D01*
X199405Y50539D01*
X203013Y50539D01*
X206347Y49158D01*
X208898Y46607D01*
X210279Y43273D01*
X210279Y39665D01*
X208898Y36331D01*
X206347Y33780D01*
X203013Y32399D01*
X199405Y32399D01*
G37*
%LPD*%
%LPC*%
G36*
X293518Y304032D02*
X293518Y304032D01*
X292872Y304205D01*
X292292Y304540D01*
X291819Y305013D01*
X291485Y305592D01*
X291312Y306238D01*
X291312Y311574D01*
X291646Y311574D01*
X291697Y311579D01*
X291748Y311576D01*
X291897Y311599D01*
X292046Y311614D01*
X292095Y311629D01*
X292146Y311636D01*
X292287Y311688D01*
X292431Y311732D01*
X292476Y311756D01*
X292524Y311774D01*
X292653Y311852D01*
X292785Y311924D01*
X292825Y311956D01*
X292868Y311983D01*
X292979Y312085D01*
X293095Y312181D01*
X293127Y312221D01*
X293164Y312256D01*
X293253Y312378D01*
X293347Y312495D01*
X293370Y312540D01*
X293400Y312582D01*
X293463Y312719D01*
X293532Y312852D01*
X293547Y312901D01*
X293568Y312948D01*
X293602Y313095D01*
X293644Y313239D01*
X293648Y313290D01*
X293660Y313340D01*
X293664Y313491D01*
X293677Y313641D01*
X293671Y313691D01*
X293672Y313742D01*
X293647Y313891D01*
X293630Y314040D01*
X293614Y314089D01*
X293605Y314139D01*
X293552Y314280D01*
X293505Y314423D01*
X293480Y314468D01*
X293461Y314515D01*
X293342Y314713D01*
X293307Y314774D01*
X293298Y314784D01*
X293289Y314799D01*
X292692Y315620D01*
X292642Y315710D01*
X292604Y315753D01*
X292573Y315802D01*
X292473Y315905D01*
X292379Y316015D01*
X292333Y316050D01*
X292293Y316091D01*
X292174Y316173D01*
X292060Y316261D01*
X292009Y316287D01*
X291961Y316320D01*
X291829Y316376D01*
X291700Y316441D01*
X291644Y316456D01*
X291591Y316478D01*
X291451Y316508D01*
X291312Y316545D01*
X291312Y319772D01*
X291307Y319814D01*
X291299Y319922D01*
X291299Y325801D01*
X298853Y325801D01*
X298853Y314541D01*
X298855Y314523D01*
X298853Y314506D01*
X298875Y314323D01*
X298893Y314141D01*
X298898Y314124D01*
X298900Y314106D01*
X298914Y314065D01*
X298886Y313971D01*
X298885Y313953D01*
X298880Y313936D01*
X298853Y313605D01*
X298853Y304032D01*
X293518Y304032D01*
G37*
%LPD*%
%LPC*%
G36*
X303852Y304032D02*
X303852Y304032D01*
X303852Y308728D01*
X303850Y308746D01*
X303851Y308764D01*
X303839Y308866D01*
X303839Y313605D01*
X303837Y313623D01*
X303839Y313640D01*
X303818Y313822D01*
X303799Y314005D01*
X303794Y314023D01*
X303792Y314040D01*
X303779Y314081D01*
X303806Y314176D01*
X303808Y314193D01*
X303812Y314211D01*
X303839Y314541D01*
X303839Y325801D01*
X311381Y325801D01*
X311381Y322221D01*
X311391Y322121D01*
X311391Y322022D01*
X311393Y322008D01*
X311393Y316547D01*
X311356Y316538D01*
X311299Y316532D01*
X311161Y316490D01*
X311021Y316456D01*
X310969Y316431D01*
X310914Y316414D01*
X310787Y316346D01*
X310657Y316284D01*
X310611Y316250D01*
X310560Y316223D01*
X310450Y316130D01*
X310334Y316044D01*
X310295Y316002D01*
X310251Y315965D01*
X310161Y315853D01*
X310064Y315745D01*
X310029Y315690D01*
X309998Y315651D01*
X309969Y315595D01*
X309391Y314799D01*
X309365Y314755D01*
X309333Y314715D01*
X309264Y314581D01*
X309188Y314451D01*
X309171Y314403D01*
X309148Y314358D01*
X309106Y314213D01*
X309057Y314071D01*
X309050Y314020D01*
X309036Y313971D01*
X309024Y313821D01*
X309004Y313671D01*
X309008Y313620D01*
X309003Y313569D01*
X309021Y313420D01*
X309031Y313270D01*
X309044Y313220D01*
X309050Y313170D01*
X309097Y313026D01*
X309136Y312881D01*
X309159Y312835D01*
X309175Y312787D01*
X309249Y312656D01*
X309316Y312521D01*
X309348Y312481D01*
X309373Y312436D01*
X309471Y312322D01*
X309564Y312204D01*
X309603Y312170D01*
X309636Y312131D01*
X309755Y312039D01*
X309869Y311941D01*
X309914Y311916D01*
X309954Y311885D01*
X310089Y311818D01*
X310220Y311744D01*
X310269Y311728D01*
X310315Y311705D01*
X310460Y311666D01*
X310603Y311620D01*
X310654Y311614D01*
X310704Y311601D01*
X310934Y311582D01*
X311003Y311574D01*
X311017Y311575D01*
X311034Y311574D01*
X311393Y311574D01*
X311393Y306238D01*
X311220Y305592D01*
X310885Y305013D01*
X310412Y304540D01*
X309833Y304205D01*
X309187Y304032D01*
X303852Y304032D01*
G37*
%LPD*%
%LPC*%
G36*
X303839Y330799D02*
X303839Y330799D01*
X303839Y345545D01*
X305194Y345105D01*
X306602Y344388D01*
X307881Y343459D01*
X308999Y342341D01*
X309928Y341062D01*
X310645Y339654D01*
X311133Y338151D01*
X311381Y336590D01*
X311381Y330799D01*
X303839Y330799D01*
G37*
%LPD*%
%LPC*%
G36*
X291299Y330799D02*
X291299Y330799D01*
X291299Y336590D01*
X291547Y338151D01*
X292035Y339654D01*
X292752Y341062D01*
X293681Y342341D01*
X294799Y343459D01*
X296078Y344388D01*
X297486Y345105D01*
X298841Y345545D01*
X298841Y330799D01*
X291299Y330799D01*
G37*
%LPD*%
%LPC*%
G36*
X279834Y43893D02*
X279834Y43893D01*
X279834Y51286D01*
X281281Y50816D01*
X282695Y50095D01*
X283980Y49162D01*
X285102Y48039D01*
X286036Y46755D01*
X286756Y45341D01*
X287226Y43893D01*
X279834Y43893D01*
G37*
%LPD*%
%LPC*%
G36*
X267592Y43893D02*
X267592Y43893D01*
X268063Y45341D01*
X268783Y46755D01*
X269716Y48039D01*
X270839Y49162D01*
X272123Y50095D01*
X273538Y50816D01*
X274985Y51286D01*
X274985Y43893D01*
X267592Y43893D01*
G37*
%LPD*%
%LPC*%
G36*
X279834Y39045D02*
X279834Y39045D01*
X287226Y39045D01*
X286756Y37597D01*
X286036Y36183D01*
X285102Y34899D01*
X283980Y33776D01*
X282695Y32843D01*
X281281Y32122D01*
X279834Y31652D01*
X279834Y39045D01*
G37*
%LPD*%
%LPC*%
G36*
X273538Y32122D02*
X273538Y32122D01*
X272123Y32843D01*
X270839Y33776D01*
X269716Y34899D01*
X268783Y36183D01*
X268063Y37597D01*
X267592Y39045D01*
X274985Y39045D01*
X274985Y31652D01*
X273538Y32122D01*
G37*
%LPD*%
%LPC*%
G36*
X146538Y32122D02*
X146538Y32122D01*
X145123Y32843D01*
X143839Y33776D01*
X142716Y34899D01*
X141783Y36183D01*
X141063Y37597D01*
X140592Y39045D01*
X147985Y39045D01*
X147985Y31652D01*
X146538Y32122D01*
G37*
%LPD*%
D10*
X122460Y335500D02*
X122460Y320500D01*
X148180Y320500D02*
X148180Y335500D01*
X112500Y187750D02*
X97500Y187750D01*
X97500Y212200D02*
X112500Y212200D01*
X112500Y237750D02*
X97500Y237750D01*
X97500Y262200D02*
X112500Y262200D01*
X112500Y287460D02*
X97500Y287460D01*
X173750Y320660D02*
X173750Y335660D01*
X199470Y335660D02*
X199470Y320660D01*
X224330Y320640D02*
X224330Y335640D01*
X250050Y335640D02*
X250050Y320640D01*
X275620Y320800D02*
X275620Y335800D01*
X301340Y335800D02*
X301340Y320800D01*
X326000Y320500D02*
X326000Y335500D01*
X122460Y155500D02*
X122460Y140500D01*
X148180Y140500D02*
X148180Y155500D01*
X173750Y155660D02*
X173750Y140660D01*
X199470Y140660D02*
X199470Y155660D01*
X224330Y155640D02*
X224330Y140640D01*
X250050Y140640D02*
X250050Y155640D01*
X275620Y155800D02*
X275620Y140800D01*
X301340Y140800D02*
X301340Y155800D01*
X326000Y155500D02*
X326000Y140500D01*
D11*
X325977Y314212D03*
X301352Y314073D03*
X275621Y314026D03*
X250058Y314320D03*
X224342Y314119D03*
X199451Y314206D03*
X173745Y314103D03*
X148194Y314263D03*
X122450Y314103D03*
X118756Y287457D03*
X118614Y262186D03*
X118392Y237775D03*
X118774Y212229D03*
X118948Y187711D03*
X122455Y162284D03*
X148198Y162363D03*
X173711Y161965D03*
X199458Y162363D03*
X224302Y162439D03*
X250037Y162631D03*
X275582Y162443D03*
X301317Y162194D03*
X326000Y162481D03*
D12*
X150409Y41469D03*
X150409Y16069D03*
X175809Y41469D03*
X175809Y16069D03*
X201209Y41469D03*
X201209Y16069D03*
X226609Y41469D03*
X226609Y16069D03*
X252009Y41469D03*
X252009Y16069D03*
X277409Y41469D03*
X277409Y16069D03*
X302809Y41469D03*
X302809Y16069D03*
X328209Y41469D03*
X328209Y16069D03*
D13*
X161002Y45857D02*
X160000Y46859D01*
X160000Y116000D01*
X161002Y26662D02*
X150409Y16069D01*
X161002Y26662D02*
X161002Y45857D01*
X160000Y116000D02*
X168000Y124000D01*
X220000Y124000D01*
X224000Y128000D01*
X224000Y147810D02*
X224330Y148140D01*
X224000Y147810D02*
X224000Y128000D01*
X224330Y148140D02*
X224330Y162411D01*
X224302Y162439D01*
X301340Y314085D02*
X301340Y328300D01*
X301340Y314085D02*
X301352Y314073D01*
X199470Y162351D02*
X199470Y148160D01*
X199470Y162351D02*
X199458Y162363D01*
D14*
X236068Y58708D03*
D15*
X236068Y46632D01*
X236948Y45752D01*
X236948Y26408D01*
X226609Y16069D01*
D13*
X173750Y148160D02*
X172160Y148160D01*
X173750Y148160D02*
X173750Y161926D01*
X173711Y161965D01*
D14*
X116000Y52000D03*
D13*
X138514Y49932D02*
X142068Y53487D01*
X138514Y49932D02*
X133487Y49932D01*
X142068Y53487D02*
X142068Y118068D01*
X131419Y52000D02*
X133487Y49932D01*
X131419Y52000D02*
X116000Y52000D01*
X142068Y118068D02*
X172160Y148160D01*
X136000Y135820D02*
X136000Y56000D01*
D14*
X136000Y56000D03*
D13*
X136000Y135820D02*
X148180Y148000D01*
X148180Y162345D01*
X148198Y162363D01*
D14*
X240000Y88000D03*
D15*
X240000Y62998D01*
X241882Y61116D01*
X241882Y56300D01*
X241012Y55430D01*
X241012Y27066D02*
X252009Y16069D01*
X241012Y27066D02*
X241012Y55430D01*
D13*
X212000Y176000D02*
X205035Y182966D01*
D14*
X212000Y176000D03*
D13*
X142966Y182966D02*
X122460Y162460D01*
X142966Y182966D02*
X205035Y182966D01*
X122460Y162460D02*
X122460Y148000D01*
D14*
X320000Y100000D03*
D15*
X320000Y68000D01*
X314676Y62676D01*
X302809Y24157D02*
X302809Y16069D01*
X302809Y24157D02*
X314676Y36023D01*
X314676Y62676D01*
D13*
X302809Y16069D02*
X292390Y16069D01*
X281797Y5476D01*
X142524Y5476D01*
D14*
X24000Y248000D03*
D13*
X49487Y97932D02*
X50068Y97932D01*
X21932Y182514D02*
X24000Y184582D01*
X24000Y248000D01*
X21932Y125487D02*
X49487Y97932D01*
X21932Y125487D02*
X21932Y182514D01*
X50068Y97932D02*
X142524Y5476D01*
D15*
X302809Y41469D02*
X302809Y62809D01*
X312000Y72000D01*
X312000Y88000D01*
D14*
X312000Y88000D03*
X16000Y260000D03*
D13*
X17360Y258640D01*
X17360Y123593D01*
X140953Y0D01*
X308000Y0D01*
X316000Y8000D01*
X316000Y28000D01*
D14*
X316000Y28000D03*
D13*
X275620Y314027D02*
X275620Y328300D01*
X275620Y314027D02*
X275621Y314026D01*
D14*
X36000Y316000D03*
D13*
X36000Y280000D01*
X37167Y280000D01*
D14*
X37167Y280000D03*
D13*
X105000Y262200D02*
X118600Y262200D01*
X118614Y262186D01*
D14*
X64000Y116000D03*
D13*
X58068Y121932D01*
X52000Y216163D02*
X52000Y352000D01*
X58068Y210095D02*
X58068Y121932D01*
X58068Y210095D02*
X52000Y216163D01*
X52000Y352000D02*
X66666Y366666D01*
X86210Y366666D01*
X86210Y366666D01*
X188000Y366666D01*
X199451Y355215D01*
X199451Y314206D01*
X199470Y314225D02*
X199470Y328160D01*
X199470Y314225D02*
X199451Y314206D01*
D14*
X40000Y332000D03*
D13*
X44000Y328000D01*
X44000Y292000D01*
D14*
X44000Y292000D03*
D13*
X105000Y287460D02*
X118753Y287460D01*
X118756Y287457D01*
D14*
X85635Y94681D03*
D13*
X84463Y95853D01*
X84463Y110585D01*
X80000Y115047D01*
X80000Y207560D02*
X67089Y220471D01*
X67089Y343751D01*
X116000Y352000D02*
X122460Y345540D01*
X122460Y328000D01*
X80000Y207560D02*
X80000Y115047D01*
X67089Y343751D02*
X75339Y352000D01*
X116000Y352000D01*
X122460Y328000D02*
X122460Y314113D01*
X122450Y314103D01*
D14*
X78395Y101003D03*
D13*
X78395Y110187D01*
X74640Y113942D01*
X74640Y206454D02*
X61144Y219950D01*
X73522Y357522D02*
X89997Y357522D01*
X89998Y357522D01*
X140000Y357522D01*
X148194Y349328D01*
X148194Y314263D01*
X74640Y206454D02*
X74640Y113942D01*
X61144Y219950D02*
X61144Y345144D01*
X73522Y357522D01*
X148180Y328000D02*
X148194Y327986D01*
X148194Y314263D01*
D14*
X72000Y108000D03*
D13*
X56572Y218056D02*
X56572Y348000D01*
X70068Y109932D02*
X72000Y108000D01*
X70068Y109932D02*
X70068Y204560D01*
X56572Y218056D01*
X56572Y348000D02*
X70666Y362094D01*
X88103Y362094D01*
X88104Y362094D01*
X164000Y362094D01*
X173750Y352344D01*
X173750Y328160D01*
X173750Y314108D01*
X173745Y314103D01*
X118392Y237775D02*
X118367Y237750D01*
X105000Y237750D01*
D14*
X273314Y80000D03*
D13*
X265314Y72000D01*
X246686Y72000D01*
D14*
X246686Y72000D03*
X224076Y71706D03*
D13*
X223782Y72000D01*
X200000Y72000D01*
X192000Y80000D01*
D14*
X192000Y80000D03*
D13*
X188000Y76000D01*
X168000Y76000D01*
D14*
X168000Y76000D03*
X128000Y76000D03*
D13*
X80000Y76000D01*
X28000Y128000D01*
X28000Y180000D01*
D14*
X28000Y180000D03*
D13*
X128000Y100000D02*
X128000Y76000D01*
X128000Y100000D02*
X112000Y116000D01*
D14*
X112000Y116000D03*
X28000Y269000D03*
D13*
X28000Y182116D02*
X28000Y180000D01*
X30068Y250514D02*
X28000Y252582D01*
X28000Y269000D01*
X30068Y184184D02*
X28000Y182116D01*
X30068Y184184D02*
X30068Y250514D01*
X28000Y269000D02*
X28000Y341000D01*
D14*
X28000Y341000D03*
D16*
X326000Y328000D02*
X340000Y314000D01*
X340000Y132000D01*
X318762Y110762D01*
X197719Y110762D01*
D14*
X197719Y110762D03*
D13*
X326000Y314235D02*
X326000Y328000D01*
X326000Y314235D02*
X325977Y314212D01*
D15*
X324240Y164240D02*
X326000Y162481D01*
X324240Y164240D02*
X312480Y176000D01*
X268000Y176000D02*
X264000Y172000D01*
X264000Y124314D01*
X268314Y120000D01*
D14*
X268314Y120000D03*
D15*
X268000Y176000D02*
X312480Y176000D01*
D13*
X326000Y162480D02*
X326000Y148000D01*
X326000Y162480D02*
X324240Y164240D01*
X301340Y162170D02*
X301340Y148300D01*
X301340Y162170D02*
X301317Y162194D01*
X275620Y162405D02*
X275620Y148300D01*
X275620Y162405D02*
X275582Y162443D01*
X250050Y162618D02*
X250050Y148140D01*
X250050Y162618D02*
X250037Y162631D01*
M02*
