G04 EAGLE Gerber X2 export*
%TF.Part,Single*%
%TF.FileFunction,Other,Bottom Soldermask*%
%TF.FilePolarity,Positive*%
%TF.GenerationSoftware,Autodesk,EAGLE,9.6.2*%
%TF.CreationDate,2025-02-28T08:43:12Z*%
G75*
%MOMM*%
%FSLAX34Y34*%
%LPD*%
%INBottom Soldermask*%
%AMOC8*
5,1,8,0,0,1.08239X$1,22.5*%
G01*
%ADD10C,1.627000*%
%ADD11R,1.627000X1.627000*%
%ADD12C,1.636000*%


D10*
X122460Y335500D02*
X122460Y320500D01*
X148180Y320500D02*
X148180Y335500D01*
X112500Y187750D02*
X97500Y187750D01*
X97500Y212200D02*
X112500Y212200D01*
X112500Y237750D02*
X97500Y237750D01*
X97500Y262200D02*
X112500Y262200D01*
X112500Y287460D02*
X97500Y287460D01*
X173750Y320660D02*
X173750Y335660D01*
X199470Y335660D02*
X199470Y320660D01*
X224330Y320640D02*
X224330Y335640D01*
X250050Y335640D02*
X250050Y320640D01*
X275620Y320800D02*
X275620Y335800D01*
X301340Y335800D02*
X301340Y320800D01*
X326000Y320500D02*
X326000Y335500D01*
X122460Y155500D02*
X122460Y140500D01*
X148180Y140500D02*
X148180Y155500D01*
X173750Y155660D02*
X173750Y140660D01*
X199470Y140660D02*
X199470Y155660D01*
X224330Y155640D02*
X224330Y140640D01*
X250050Y140640D02*
X250050Y155640D01*
X275620Y155800D02*
X275620Y140800D01*
X301340Y140800D02*
X301340Y155800D01*
X326000Y155500D02*
X326000Y140500D01*
D11*
X325977Y314212D03*
X301352Y314073D03*
X275621Y314026D03*
X250058Y314320D03*
X224342Y314119D03*
X199451Y314206D03*
X173745Y314103D03*
X148194Y314263D03*
X122450Y314103D03*
X118756Y287457D03*
X118614Y262186D03*
X118392Y237775D03*
X118774Y212229D03*
X118948Y187711D03*
X122455Y162284D03*
X148198Y162363D03*
X173711Y161965D03*
X199458Y162363D03*
X224302Y162439D03*
X250037Y162631D03*
X275582Y162443D03*
X301317Y162194D03*
X326000Y162481D03*
D12*
X150409Y41469D03*
X150409Y16069D03*
X175809Y41469D03*
X175809Y16069D03*
X201209Y41469D03*
X201209Y16069D03*
X226609Y41469D03*
X226609Y16069D03*
X252009Y41469D03*
X252009Y16069D03*
X277409Y41469D03*
X277409Y16069D03*
X302809Y41469D03*
X302809Y16069D03*
X328209Y41469D03*
X328209Y16069D03*
M02*
