G04 EAGLE Gerber X2 export*
%TF.Part,Single*%
%TF.FileFunction,Other,Board Outline*%
%TF.FilePolarity,Positive*%
%TF.GenerationSoftware,Autodesk,EAGLE,9.6.2*%
%TF.CreationDate,2025-02-28T08:43:12Z*%
G75*
%MOMM*%
%FSLAX34Y34*%
%LPD*%
%INBoard Outline*%
%AMOC8*
5,1,8,0,0,1.08239X$1,22.5*%
G01*
%ADD10C,0.000000*%
%ADD11C,0.000100*%
%ADD12C,0.254000*%


D10*
X136000Y-8000D02*
X48000Y80000D01*
X0Y164000D02*
X0Y316000D01*
X84000Y372000D02*
X308000Y372000D01*
X348000Y332000D02*
X348000Y20000D01*
D11*
X0Y316000D02*
X0Y356000D01*
X16000Y372000D01*
X84000Y372000D01*
X0Y164000D02*
X0Y128000D01*
X48000Y80000D01*
X348000Y332000D02*
X348000Y356000D01*
X332000Y372000D01*
X308000Y372000D01*
X336000Y-8000D02*
X136000Y-8000D01*
X348000Y4000D02*
X348000Y20000D01*
X348000Y4000D02*
X336000Y-8000D01*
X333600Y289900D02*
X138100Y289900D01*
X138100Y188300D01*
X333600Y188300D01*
X333600Y289900D01*
D12*
X0Y128000D02*
X48000Y80000D01*
X136000Y-8000D01*
X336000Y-8000D01*
X348000Y4000D01*
X348000Y356000D01*
X332000Y372000D01*
X16000Y372000D01*
X0Y356000D01*
X0Y128000D01*
X138100Y188300D02*
X333600Y188300D01*
X333600Y289900D01*
X138100Y289900D01*
X138100Y188300D01*
M02*
