G04 EAGLE Gerber X2 export*
%TF.Part,Single*%
%TF.FileFunction,Other,Top Silkscreen*%
%TF.FilePolarity,Positive*%
%TF.GenerationSoftware,Autodesk,EAGLE,9.6.2*%
%TF.CreationDate,2025-02-28T08:43:12Z*%
G75*
%MOMM*%
%FSLAX34Y34*%
%LPD*%
%INTop Silkscreen*%
%AMOC8*
5,1,8,0,0,1.08239X$1,22.5*%
G01*
%ADD10C,0.152400*%
%ADD11C,0.228600*%
%ADD12R,2.997200X0.017019*%
%ADD13C,0.203200*%
%ADD14C,0.304800*%
%ADD15C,0.101600*%
%ADD16C,0.127000*%
%ADD17C,0.200000*%
%ADD18C,0.100000*%
%ADD19R,0.863600X0.406400*%
%ADD20R,0.900000X0.400000*%
%ADD21C,0.050000*%
%ADD22C,0.254000*%


D10*
X126000Y146000D02*
X341000Y146000D01*
X341000Y327000D01*
X106000Y327000D01*
D11*
X116561Y69723D02*
X107542Y64516D01*
X116561Y69723D02*
X118007Y67218D01*
X118059Y67126D01*
X118106Y67032D01*
X118151Y66936D01*
X118191Y66838D01*
X118228Y66739D01*
X118262Y66639D01*
X118292Y66538D01*
X118318Y66435D01*
X118340Y66332D01*
X118359Y66228D01*
X118374Y66123D01*
X118384Y66018D01*
X118392Y65913D01*
X118395Y65807D01*
X118394Y65702D01*
X118390Y65596D01*
X118381Y65491D01*
X118369Y65386D01*
X118353Y65281D01*
X118333Y65177D01*
X118310Y65074D01*
X118282Y64972D01*
X118251Y64871D01*
X118216Y64772D01*
X118178Y64673D01*
X118136Y64576D01*
X118091Y64481D01*
X118042Y64387D01*
X117990Y64295D01*
X117934Y64205D01*
X117875Y64117D01*
X117813Y64032D01*
X117748Y63949D01*
X117680Y63868D01*
X117609Y63790D01*
X117535Y63714D01*
X117459Y63641D01*
X117380Y63571D01*
X117298Y63504D01*
X117214Y63440D01*
X117128Y63379D01*
X117039Y63321D01*
X116949Y63267D01*
X116948Y63267D02*
X112940Y60952D01*
X112941Y60952D02*
X112848Y60900D01*
X112754Y60853D01*
X112658Y60808D01*
X112560Y60768D01*
X112461Y60731D01*
X112361Y60697D01*
X112260Y60667D01*
X112157Y60641D01*
X112054Y60619D01*
X111950Y60600D01*
X111845Y60585D01*
X111740Y60575D01*
X111635Y60567D01*
X111529Y60564D01*
X111424Y60565D01*
X111318Y60569D01*
X111213Y60578D01*
X111108Y60590D01*
X111003Y60606D01*
X110899Y60626D01*
X110796Y60649D01*
X110694Y60677D01*
X110593Y60708D01*
X110493Y60743D01*
X110395Y60781D01*
X110298Y60823D01*
X110203Y60868D01*
X110109Y60917D01*
X110017Y60969D01*
X109927Y61025D01*
X109839Y61084D01*
X109754Y61146D01*
X109671Y61211D01*
X109590Y61279D01*
X109512Y61350D01*
X109436Y61424D01*
X109363Y61500D01*
X109293Y61580D01*
X109226Y61661D01*
X109162Y61745D01*
X109101Y61832D01*
X109043Y61920D01*
X108989Y62011D01*
X108988Y62011D02*
X107542Y64516D01*
X117957Y56891D02*
X118136Y56992D01*
X118317Y57088D01*
X118500Y57179D01*
X118686Y57267D01*
X118873Y57349D01*
X119062Y57428D01*
X119253Y57502D01*
X119446Y57571D01*
X119641Y57635D01*
X119837Y57695D01*
X120034Y57750D01*
X120232Y57801D01*
X120432Y57847D01*
X120633Y57888D01*
X120835Y57924D01*
X121037Y57955D01*
X121240Y57982D01*
X121444Y58003D01*
X121648Y58020D01*
X121738Y58036D01*
X121829Y58048D01*
X121920Y58055D01*
X122011Y58059D01*
X122103Y58060D01*
X122195Y58056D01*
X122286Y58048D01*
X122377Y58036D01*
X122467Y58021D01*
X122556Y58001D01*
X122645Y57978D01*
X122732Y57951D01*
X122819Y57921D01*
X122904Y57886D01*
X122987Y57848D01*
X123069Y57807D01*
X123149Y57762D01*
X123226Y57714D01*
X123302Y57662D01*
X123375Y57607D01*
X123446Y57550D01*
X123515Y57489D01*
X123581Y57425D01*
X123644Y57359D01*
X123704Y57290D01*
X123761Y57218D01*
X123815Y57144D01*
X123866Y57068D01*
X123913Y56990D01*
X123957Y56909D01*
X123998Y56827D01*
X124035Y56743D01*
X124068Y56658D01*
X124098Y56572D01*
X124124Y56484D01*
X124146Y56395D01*
X124165Y56305D01*
X124179Y56215D01*
X124190Y56124D01*
X124197Y56033D01*
X124200Y55941D01*
X124199Y55849D01*
X124194Y55758D01*
X124185Y55667D01*
X124172Y55576D01*
X124156Y55486D01*
X124135Y55397D01*
X124111Y55309D01*
X124083Y55221D01*
X124051Y55135D01*
X124016Y55051D01*
X123977Y54968D01*
X123935Y54887D01*
X123889Y54808D01*
X123840Y54730D01*
X123787Y54655D01*
X123732Y54583D01*
X123673Y54512D01*
X123672Y54513D02*
X123556Y54345D01*
X123435Y54179D01*
X123310Y54017D01*
X123182Y53857D01*
X123050Y53700D01*
X122914Y53547D01*
X122775Y53397D01*
X122632Y53250D01*
X122485Y53107D01*
X122335Y52967D01*
X122182Y52831D01*
X122026Y52699D01*
X121866Y52570D01*
X121704Y52445D01*
X121538Y52325D01*
X121370Y52208D01*
X121199Y52095D01*
X121026Y51986D01*
X120849Y51882D01*
X117957Y56891D02*
X117781Y56787D01*
X117607Y56678D01*
X117436Y56565D01*
X117268Y56448D01*
X117102Y56328D01*
X116940Y56203D01*
X116780Y56074D01*
X116624Y55942D01*
X116471Y55806D01*
X116321Y55666D01*
X116174Y55523D01*
X116031Y55376D01*
X115892Y55226D01*
X115756Y55073D01*
X115624Y54916D01*
X115496Y54756D01*
X115371Y54594D01*
X115250Y54428D01*
X115134Y54260D01*
X115075Y54189D01*
X115020Y54117D01*
X114967Y54042D01*
X114918Y53964D01*
X114872Y53885D01*
X114830Y53804D01*
X114791Y53721D01*
X114756Y53637D01*
X114724Y53551D01*
X114696Y53463D01*
X114672Y53375D01*
X114651Y53286D01*
X114635Y53196D01*
X114622Y53105D01*
X114613Y53014D01*
X114608Y52923D01*
X114607Y52831D01*
X114610Y52739D01*
X114617Y52648D01*
X114628Y52557D01*
X114642Y52467D01*
X114661Y52377D01*
X114683Y52288D01*
X114709Y52200D01*
X114739Y52114D01*
X114772Y52029D01*
X114809Y51945D01*
X114850Y51863D01*
X114894Y51782D01*
X117159Y50753D02*
X117363Y50770D01*
X117567Y50791D01*
X117770Y50818D01*
X117972Y50849D01*
X118174Y50885D01*
X118375Y50926D01*
X118574Y50972D01*
X118773Y51023D01*
X118970Y51078D01*
X119166Y51138D01*
X119361Y51202D01*
X119553Y51271D01*
X119744Y51345D01*
X119934Y51424D01*
X120121Y51506D01*
X120307Y51594D01*
X120490Y51685D01*
X120671Y51781D01*
X120849Y51882D01*
X117159Y50752D02*
X117069Y50736D01*
X116978Y50724D01*
X116887Y50717D01*
X116795Y50713D01*
X116704Y50712D01*
X116612Y50716D01*
X116521Y50724D01*
X116430Y50736D01*
X116340Y50751D01*
X116251Y50771D01*
X116162Y50794D01*
X116074Y50821D01*
X115988Y50851D01*
X115903Y50886D01*
X115820Y50924D01*
X115738Y50965D01*
X115658Y51010D01*
X115581Y51058D01*
X115505Y51110D01*
X115432Y51165D01*
X115361Y51222D01*
X115292Y51283D01*
X115226Y51347D01*
X115163Y51413D01*
X115103Y51482D01*
X115046Y51554D01*
X114992Y51628D01*
X114941Y51704D01*
X114894Y51782D01*
X115741Y54944D02*
X123066Y53828D01*
D12*
X214205Y243628D03*
D13*
X80810Y274769D02*
X70142Y281881D01*
X70142Y274769D02*
X80810Y281881D01*
X76069Y269223D02*
X76069Y266260D01*
X76067Y266153D01*
X76061Y266046D01*
X76052Y265940D01*
X76038Y265834D01*
X76021Y265728D01*
X76000Y265623D01*
X75975Y265519D01*
X75946Y265416D01*
X75914Y265314D01*
X75878Y265213D01*
X75838Y265114D01*
X75795Y265016D01*
X75748Y264920D01*
X75698Y264825D01*
X75645Y264732D01*
X75588Y264642D01*
X75528Y264553D01*
X75465Y264467D01*
X75399Y264383D01*
X75329Y264301D01*
X75257Y264222D01*
X75182Y264146D01*
X75104Y264072D01*
X75024Y264002D01*
X74941Y263934D01*
X74856Y263869D01*
X74769Y263808D01*
X74679Y263749D01*
X74587Y263694D01*
X74494Y263642D01*
X74398Y263594D01*
X74301Y263549D01*
X74203Y263507D01*
X74103Y263470D01*
X74001Y263435D01*
X73899Y263405D01*
X73795Y263378D01*
X73691Y263355D01*
X73585Y263336D01*
X73479Y263321D01*
X73373Y263309D01*
X73266Y263301D01*
X73159Y263297D01*
X73053Y263297D01*
X72946Y263301D01*
X72839Y263309D01*
X72733Y263321D01*
X72627Y263336D01*
X72521Y263355D01*
X72417Y263378D01*
X72313Y263405D01*
X72211Y263435D01*
X72109Y263470D01*
X72009Y263507D01*
X71911Y263549D01*
X71814Y263594D01*
X71718Y263642D01*
X71624Y263694D01*
X71533Y263749D01*
X71443Y263808D01*
X71356Y263869D01*
X71271Y263934D01*
X71188Y264002D01*
X71108Y264072D01*
X71030Y264146D01*
X70955Y264222D01*
X70883Y264301D01*
X70813Y264383D01*
X70747Y264467D01*
X70684Y264553D01*
X70624Y264642D01*
X70567Y264732D01*
X70514Y264825D01*
X70464Y264920D01*
X70417Y265016D01*
X70374Y265114D01*
X70334Y265213D01*
X70298Y265314D01*
X70266Y265416D01*
X70237Y265519D01*
X70212Y265623D01*
X70191Y265728D01*
X70174Y265834D01*
X70160Y265940D01*
X70151Y266046D01*
X70145Y266153D01*
X70143Y266260D01*
X70142Y266260D02*
X70142Y269223D01*
X80810Y269223D01*
X80810Y266260D01*
X80811Y266260D02*
X80809Y266163D01*
X80803Y266067D01*
X80793Y265971D01*
X80779Y265875D01*
X80762Y265780D01*
X80740Y265685D01*
X80715Y265592D01*
X80686Y265500D01*
X80653Y265409D01*
X80616Y265319D01*
X80576Y265231D01*
X80532Y265145D01*
X80485Y265061D01*
X80435Y264978D01*
X80381Y264898D01*
X80323Y264820D01*
X80263Y264744D01*
X80200Y264671D01*
X80134Y264601D01*
X80064Y264533D01*
X79993Y264468D01*
X79918Y264406D01*
X79841Y264348D01*
X79762Y264292D01*
X79681Y264240D01*
X79597Y264191D01*
X79512Y264145D01*
X79425Y264103D01*
X79336Y264065D01*
X79246Y264030D01*
X79154Y263999D01*
X79061Y263972D01*
X78968Y263948D01*
X78873Y263929D01*
X78777Y263913D01*
X78681Y263901D01*
X78585Y263893D01*
X78488Y263889D01*
X78392Y263889D01*
X78295Y263893D01*
X78199Y263901D01*
X78103Y263913D01*
X78007Y263929D01*
X77912Y263948D01*
X77819Y263972D01*
X77726Y263999D01*
X77634Y264030D01*
X77544Y264065D01*
X77455Y264103D01*
X77368Y264145D01*
X77283Y264191D01*
X77199Y264240D01*
X77118Y264292D01*
X77039Y264348D01*
X76962Y264406D01*
X76887Y264468D01*
X76816Y264533D01*
X76746Y264601D01*
X76680Y264671D01*
X76617Y264744D01*
X76557Y264820D01*
X76499Y264898D01*
X76445Y264978D01*
X76395Y265061D01*
X76348Y265145D01*
X76304Y265231D01*
X76264Y265319D01*
X76227Y265409D01*
X76194Y265500D01*
X76165Y265592D01*
X76140Y265685D01*
X76118Y265780D01*
X76101Y265875D01*
X76087Y265971D01*
X76077Y266067D01*
X76071Y266163D01*
X76069Y266260D01*
X80810Y251655D02*
X70142Y251655D01*
X70142Y252840D02*
X70142Y250469D01*
X80810Y250469D02*
X80810Y252840D01*
X80810Y242214D02*
X80808Y242112D01*
X80802Y242010D01*
X80792Y241908D01*
X80779Y241807D01*
X80761Y241706D01*
X80740Y241606D01*
X80715Y241507D01*
X80686Y241409D01*
X80653Y241312D01*
X80617Y241217D01*
X80577Y241123D01*
X80533Y241031D01*
X80486Y240940D01*
X80435Y240851D01*
X80382Y240764D01*
X80324Y240680D01*
X80264Y240597D01*
X80201Y240517D01*
X80134Y240440D01*
X80065Y240365D01*
X79992Y240292D01*
X79917Y240223D01*
X79840Y240156D01*
X79760Y240093D01*
X79677Y240033D01*
X79593Y239975D01*
X79506Y239922D01*
X79417Y239871D01*
X79326Y239824D01*
X79234Y239780D01*
X79140Y239740D01*
X79044Y239704D01*
X78948Y239671D01*
X78850Y239642D01*
X78751Y239617D01*
X78651Y239596D01*
X78550Y239578D01*
X78449Y239565D01*
X78347Y239555D01*
X78245Y239549D01*
X78143Y239547D01*
X80810Y242214D02*
X80808Y242330D01*
X80802Y242447D01*
X80792Y242563D01*
X80778Y242678D01*
X80761Y242793D01*
X80739Y242908D01*
X80713Y243021D01*
X80684Y243134D01*
X80651Y243246D01*
X80614Y243356D01*
X80573Y243465D01*
X80529Y243573D01*
X80481Y243679D01*
X80429Y243783D01*
X80374Y243886D01*
X80316Y243987D01*
X80254Y244085D01*
X80189Y244182D01*
X80120Y244276D01*
X80048Y244368D01*
X79974Y244457D01*
X79896Y244544D01*
X79815Y244628D01*
X79732Y244709D01*
X79646Y244787D01*
X79557Y244863D01*
X79466Y244935D01*
X79372Y245004D01*
X79276Y245070D01*
X79178Y245133D01*
X79078Y245192D01*
X78976Y245248D01*
X78872Y245300D01*
X78766Y245349D01*
X78658Y245394D01*
X78550Y245436D01*
X78439Y245473D01*
X76068Y240436D02*
X76142Y240361D01*
X76219Y240289D01*
X76299Y240220D01*
X76381Y240153D01*
X76465Y240090D01*
X76552Y240030D01*
X76640Y239973D01*
X76731Y239919D01*
X76824Y239869D01*
X76918Y239822D01*
X77014Y239779D01*
X77112Y239739D01*
X77211Y239703D01*
X77311Y239670D01*
X77413Y239642D01*
X77515Y239617D01*
X77619Y239595D01*
X77723Y239578D01*
X77827Y239564D01*
X77932Y239555D01*
X78038Y239549D01*
X78143Y239547D01*
X76069Y240436D02*
X70142Y245474D01*
X70142Y239547D01*
X70142Y231723D02*
X70142Y229353D01*
X70142Y231723D02*
X70144Y231818D01*
X70150Y231914D01*
X70159Y232009D01*
X70173Y232103D01*
X70190Y232197D01*
X70211Y232290D01*
X70236Y232383D01*
X70264Y232474D01*
X70296Y232564D01*
X70332Y232652D01*
X70371Y232739D01*
X70414Y232825D01*
X70460Y232909D01*
X70509Y232990D01*
X70562Y233070D01*
X70618Y233147D01*
X70676Y233223D01*
X70738Y233295D01*
X70803Y233365D01*
X70871Y233433D01*
X70941Y233498D01*
X71013Y233560D01*
X71089Y233618D01*
X71166Y233674D01*
X71246Y233727D01*
X71328Y233776D01*
X71411Y233822D01*
X71497Y233865D01*
X71584Y233904D01*
X71672Y233940D01*
X71762Y233972D01*
X71853Y234000D01*
X71946Y234025D01*
X72039Y234046D01*
X72133Y234063D01*
X72227Y234077D01*
X72322Y234086D01*
X72418Y234092D01*
X72513Y234094D01*
X78440Y234094D01*
X78535Y234092D01*
X78631Y234086D01*
X78726Y234077D01*
X78820Y234063D01*
X78914Y234046D01*
X79007Y234025D01*
X79100Y234000D01*
X79191Y233972D01*
X79281Y233940D01*
X79369Y233904D01*
X79456Y233865D01*
X79542Y233822D01*
X79625Y233776D01*
X79707Y233727D01*
X79787Y233674D01*
X79864Y233618D01*
X79940Y233560D01*
X80012Y233498D01*
X80082Y233433D01*
X80150Y233365D01*
X80215Y233295D01*
X80277Y233223D01*
X80335Y233147D01*
X80391Y233070D01*
X80444Y232990D01*
X80493Y232909D01*
X80539Y232825D01*
X80582Y232739D01*
X80621Y232652D01*
X80657Y232564D01*
X80689Y232474D01*
X80717Y232383D01*
X80742Y232290D01*
X80763Y232197D01*
X80780Y232103D01*
X80794Y232009D01*
X80803Y231914D01*
X80809Y231819D01*
X80811Y231723D01*
X80810Y231723D02*
X80810Y229353D01*
X85889Y199973D02*
X75221Y199973D01*
X85889Y199973D02*
X85889Y197010D01*
X85888Y197010D02*
X85886Y196903D01*
X85880Y196796D01*
X85871Y196690D01*
X85857Y196584D01*
X85840Y196478D01*
X85819Y196373D01*
X85794Y196269D01*
X85765Y196166D01*
X85733Y196064D01*
X85697Y195963D01*
X85657Y195864D01*
X85614Y195766D01*
X85567Y195670D01*
X85517Y195575D01*
X85464Y195482D01*
X85407Y195392D01*
X85347Y195303D01*
X85284Y195217D01*
X85218Y195133D01*
X85148Y195051D01*
X85076Y194972D01*
X85001Y194896D01*
X84923Y194822D01*
X84843Y194752D01*
X84760Y194684D01*
X84675Y194619D01*
X84588Y194558D01*
X84498Y194499D01*
X84406Y194444D01*
X84313Y194392D01*
X84217Y194344D01*
X84120Y194299D01*
X84022Y194257D01*
X83922Y194220D01*
X83820Y194185D01*
X83718Y194155D01*
X83614Y194128D01*
X83510Y194105D01*
X83404Y194086D01*
X83298Y194071D01*
X83192Y194059D01*
X83085Y194051D01*
X82978Y194047D01*
X82872Y194047D01*
X82765Y194051D01*
X82658Y194059D01*
X82552Y194071D01*
X82446Y194086D01*
X82340Y194105D01*
X82236Y194128D01*
X82132Y194155D01*
X82030Y194185D01*
X81928Y194220D01*
X81828Y194257D01*
X81730Y194299D01*
X81633Y194344D01*
X81537Y194392D01*
X81443Y194444D01*
X81352Y194499D01*
X81262Y194558D01*
X81175Y194619D01*
X81090Y194684D01*
X81007Y194752D01*
X80927Y194822D01*
X80849Y194896D01*
X80774Y194972D01*
X80702Y195051D01*
X80632Y195133D01*
X80566Y195217D01*
X80503Y195303D01*
X80443Y195392D01*
X80386Y195482D01*
X80333Y195575D01*
X80283Y195670D01*
X80236Y195766D01*
X80193Y195864D01*
X80153Y195963D01*
X80117Y196064D01*
X80085Y196166D01*
X80056Y196269D01*
X80031Y196373D01*
X80010Y196478D01*
X79993Y196584D01*
X79979Y196690D01*
X79970Y196796D01*
X79964Y196903D01*
X79962Y197010D01*
X79962Y199973D01*
X79962Y196417D02*
X75221Y194047D01*
X81147Y184124D02*
X81147Y182346D01*
X75221Y182346D01*
X75221Y185902D01*
X75220Y185902D02*
X75222Y185997D01*
X75228Y186093D01*
X75237Y186188D01*
X75251Y186282D01*
X75268Y186376D01*
X75289Y186469D01*
X75314Y186562D01*
X75342Y186653D01*
X75374Y186743D01*
X75410Y186831D01*
X75449Y186918D01*
X75492Y187004D01*
X75538Y187088D01*
X75587Y187169D01*
X75640Y187249D01*
X75696Y187326D01*
X75754Y187402D01*
X75816Y187474D01*
X75881Y187544D01*
X75949Y187612D01*
X76019Y187677D01*
X76091Y187739D01*
X76167Y187797D01*
X76244Y187853D01*
X76324Y187906D01*
X76406Y187955D01*
X76489Y188001D01*
X76575Y188044D01*
X76662Y188083D01*
X76750Y188119D01*
X76840Y188151D01*
X76931Y188179D01*
X77024Y188204D01*
X77117Y188225D01*
X77211Y188242D01*
X77305Y188256D01*
X77400Y188265D01*
X77496Y188271D01*
X77591Y188273D01*
X83518Y188273D01*
X83613Y188271D01*
X83709Y188265D01*
X83804Y188256D01*
X83898Y188242D01*
X83992Y188225D01*
X84085Y188204D01*
X84178Y188179D01*
X84269Y188151D01*
X84359Y188119D01*
X84447Y188083D01*
X84534Y188044D01*
X84620Y188001D01*
X84703Y187955D01*
X84785Y187906D01*
X84865Y187853D01*
X84942Y187797D01*
X85018Y187739D01*
X85090Y187677D01*
X85160Y187612D01*
X85228Y187544D01*
X85293Y187474D01*
X85355Y187402D01*
X85413Y187326D01*
X85469Y187249D01*
X85522Y187169D01*
X85571Y187088D01*
X85617Y187004D01*
X85660Y186918D01*
X85699Y186831D01*
X85735Y186743D01*
X85767Y186653D01*
X85795Y186562D01*
X85820Y186469D01*
X85841Y186376D01*
X85858Y186282D01*
X85872Y186188D01*
X85881Y186093D01*
X85887Y185998D01*
X85889Y185902D01*
X85889Y182346D01*
X81147Y175827D02*
X81147Y172863D01*
X81145Y172756D01*
X81139Y172649D01*
X81130Y172543D01*
X81116Y172437D01*
X81099Y172331D01*
X81078Y172226D01*
X81053Y172122D01*
X81024Y172019D01*
X80992Y171917D01*
X80956Y171816D01*
X80916Y171717D01*
X80873Y171619D01*
X80826Y171523D01*
X80776Y171428D01*
X80723Y171335D01*
X80666Y171245D01*
X80606Y171156D01*
X80543Y171070D01*
X80477Y170986D01*
X80407Y170904D01*
X80335Y170825D01*
X80260Y170749D01*
X80182Y170675D01*
X80102Y170605D01*
X80019Y170537D01*
X79934Y170472D01*
X79847Y170411D01*
X79757Y170352D01*
X79665Y170297D01*
X79572Y170245D01*
X79476Y170197D01*
X79379Y170152D01*
X79281Y170110D01*
X79181Y170073D01*
X79079Y170038D01*
X78977Y170008D01*
X78873Y169981D01*
X78769Y169958D01*
X78663Y169939D01*
X78557Y169924D01*
X78451Y169912D01*
X78344Y169904D01*
X78237Y169900D01*
X78131Y169900D01*
X78024Y169904D01*
X77917Y169912D01*
X77811Y169924D01*
X77705Y169939D01*
X77599Y169958D01*
X77495Y169981D01*
X77391Y170008D01*
X77289Y170038D01*
X77187Y170073D01*
X77087Y170110D01*
X76989Y170152D01*
X76892Y170197D01*
X76796Y170245D01*
X76702Y170297D01*
X76611Y170352D01*
X76521Y170411D01*
X76434Y170472D01*
X76349Y170537D01*
X76266Y170605D01*
X76186Y170675D01*
X76108Y170749D01*
X76033Y170825D01*
X75961Y170904D01*
X75891Y170986D01*
X75825Y171070D01*
X75762Y171156D01*
X75702Y171245D01*
X75645Y171335D01*
X75592Y171428D01*
X75542Y171523D01*
X75495Y171619D01*
X75452Y171717D01*
X75412Y171816D01*
X75376Y171917D01*
X75344Y172019D01*
X75315Y172122D01*
X75290Y172226D01*
X75269Y172331D01*
X75252Y172437D01*
X75238Y172543D01*
X75229Y172649D01*
X75223Y172756D01*
X75221Y172863D01*
X75221Y175827D01*
X85889Y175827D01*
X85889Y172863D01*
X85887Y172766D01*
X85881Y172670D01*
X85871Y172574D01*
X85857Y172478D01*
X85840Y172383D01*
X85818Y172288D01*
X85793Y172195D01*
X85764Y172103D01*
X85731Y172012D01*
X85694Y171922D01*
X85654Y171834D01*
X85610Y171748D01*
X85563Y171664D01*
X85513Y171581D01*
X85459Y171501D01*
X85401Y171423D01*
X85341Y171347D01*
X85278Y171274D01*
X85212Y171204D01*
X85142Y171136D01*
X85071Y171071D01*
X84996Y171009D01*
X84919Y170951D01*
X84840Y170895D01*
X84759Y170843D01*
X84675Y170794D01*
X84590Y170748D01*
X84503Y170706D01*
X84414Y170668D01*
X84324Y170633D01*
X84232Y170602D01*
X84139Y170575D01*
X84046Y170551D01*
X83951Y170532D01*
X83855Y170516D01*
X83759Y170504D01*
X83663Y170496D01*
X83566Y170492D01*
X83470Y170492D01*
X83373Y170496D01*
X83277Y170504D01*
X83181Y170516D01*
X83085Y170532D01*
X82990Y170551D01*
X82897Y170575D01*
X82804Y170602D01*
X82712Y170633D01*
X82622Y170668D01*
X82533Y170706D01*
X82446Y170748D01*
X82361Y170794D01*
X82277Y170843D01*
X82196Y170895D01*
X82117Y170951D01*
X82040Y171009D01*
X81965Y171071D01*
X81894Y171136D01*
X81824Y171204D01*
X81758Y171274D01*
X81695Y171347D01*
X81635Y171423D01*
X81577Y171501D01*
X81523Y171581D01*
X81473Y171664D01*
X81426Y171748D01*
X81382Y171834D01*
X81342Y171922D01*
X81305Y172012D01*
X81272Y172103D01*
X81243Y172195D01*
X81218Y172288D01*
X81196Y172383D01*
X81179Y172478D01*
X81165Y172574D01*
X81155Y172670D01*
X81149Y172766D01*
X81147Y172863D01*
X79073Y356448D02*
X89741Y356448D01*
X79073Y357634D02*
X79073Y355263D01*
X89741Y355263D02*
X89741Y357634D01*
X89741Y347008D02*
X89739Y346906D01*
X89733Y346804D01*
X89723Y346702D01*
X89710Y346601D01*
X89692Y346500D01*
X89671Y346400D01*
X89646Y346301D01*
X89617Y346203D01*
X89584Y346106D01*
X89548Y346011D01*
X89508Y345917D01*
X89464Y345825D01*
X89417Y345734D01*
X89366Y345645D01*
X89313Y345558D01*
X89255Y345474D01*
X89195Y345391D01*
X89132Y345311D01*
X89065Y345234D01*
X88996Y345159D01*
X88923Y345086D01*
X88848Y345017D01*
X88771Y344950D01*
X88691Y344887D01*
X88608Y344827D01*
X88524Y344769D01*
X88437Y344716D01*
X88348Y344665D01*
X88257Y344618D01*
X88165Y344574D01*
X88071Y344534D01*
X87975Y344498D01*
X87879Y344465D01*
X87781Y344436D01*
X87682Y344411D01*
X87582Y344390D01*
X87481Y344372D01*
X87380Y344359D01*
X87278Y344349D01*
X87176Y344343D01*
X87074Y344341D01*
X89741Y347008D02*
X89739Y347124D01*
X89733Y347241D01*
X89723Y347357D01*
X89709Y347472D01*
X89692Y347587D01*
X89670Y347702D01*
X89644Y347815D01*
X89615Y347928D01*
X89582Y348040D01*
X89545Y348150D01*
X89504Y348259D01*
X89460Y348367D01*
X89412Y348473D01*
X89360Y348577D01*
X89305Y348680D01*
X89247Y348781D01*
X89185Y348879D01*
X89120Y348976D01*
X89051Y349070D01*
X88979Y349162D01*
X88905Y349251D01*
X88827Y349338D01*
X88746Y349422D01*
X88663Y349503D01*
X88577Y349581D01*
X88488Y349657D01*
X88397Y349729D01*
X88303Y349798D01*
X88207Y349864D01*
X88109Y349927D01*
X88009Y349986D01*
X87907Y350042D01*
X87803Y350094D01*
X87697Y350143D01*
X87589Y350188D01*
X87481Y350230D01*
X87370Y350267D01*
X84999Y345229D02*
X85073Y345154D01*
X85150Y345082D01*
X85230Y345013D01*
X85312Y344946D01*
X85396Y344883D01*
X85483Y344823D01*
X85571Y344766D01*
X85662Y344712D01*
X85755Y344662D01*
X85849Y344615D01*
X85945Y344572D01*
X86043Y344532D01*
X86142Y344496D01*
X86242Y344463D01*
X86344Y344435D01*
X86446Y344410D01*
X86550Y344388D01*
X86654Y344371D01*
X86758Y344357D01*
X86863Y344348D01*
X86969Y344342D01*
X87074Y344340D01*
X85000Y345230D02*
X79073Y350268D01*
X79073Y344341D01*
X79073Y336517D02*
X79073Y334146D01*
X79073Y336517D02*
X79075Y336612D01*
X79081Y336708D01*
X79090Y336803D01*
X79104Y336897D01*
X79121Y336991D01*
X79142Y337084D01*
X79167Y337177D01*
X79195Y337268D01*
X79227Y337358D01*
X79263Y337446D01*
X79302Y337533D01*
X79345Y337619D01*
X79391Y337703D01*
X79440Y337784D01*
X79493Y337864D01*
X79549Y337941D01*
X79607Y338017D01*
X79669Y338089D01*
X79734Y338159D01*
X79802Y338227D01*
X79872Y338292D01*
X79944Y338354D01*
X80020Y338412D01*
X80097Y338468D01*
X80177Y338521D01*
X80259Y338570D01*
X80342Y338616D01*
X80428Y338659D01*
X80515Y338698D01*
X80603Y338734D01*
X80693Y338766D01*
X80784Y338794D01*
X80877Y338819D01*
X80970Y338840D01*
X81064Y338857D01*
X81158Y338871D01*
X81253Y338880D01*
X81349Y338886D01*
X81444Y338888D01*
X81444Y338887D02*
X87370Y338887D01*
X87370Y338888D02*
X87465Y338886D01*
X87561Y338880D01*
X87656Y338871D01*
X87750Y338857D01*
X87844Y338840D01*
X87937Y338819D01*
X88030Y338794D01*
X88121Y338766D01*
X88211Y338734D01*
X88299Y338698D01*
X88386Y338659D01*
X88472Y338616D01*
X88555Y338570D01*
X88637Y338521D01*
X88717Y338468D01*
X88794Y338412D01*
X88870Y338354D01*
X88942Y338292D01*
X89012Y338227D01*
X89080Y338159D01*
X89145Y338089D01*
X89207Y338017D01*
X89265Y337941D01*
X89321Y337864D01*
X89374Y337784D01*
X89423Y337703D01*
X89469Y337619D01*
X89512Y337533D01*
X89551Y337446D01*
X89587Y337358D01*
X89619Y337268D01*
X89647Y337177D01*
X89672Y337084D01*
X89693Y336991D01*
X89710Y336897D01*
X89724Y336803D01*
X89733Y336708D01*
X89739Y336613D01*
X89741Y336517D01*
X89741Y334146D01*
X79073Y322802D02*
X79073Y318060D01*
X79073Y322802D02*
X89741Y322802D01*
X89741Y318060D01*
X85000Y319246D02*
X85000Y322802D01*
X79073Y313903D02*
X89741Y306791D01*
X89741Y313903D02*
X79073Y306791D01*
X79073Y301246D02*
X89741Y301246D01*
X89741Y298282D01*
X89739Y298175D01*
X89733Y298068D01*
X89724Y297962D01*
X89710Y297856D01*
X89693Y297750D01*
X89672Y297645D01*
X89647Y297541D01*
X89618Y297438D01*
X89586Y297336D01*
X89550Y297235D01*
X89510Y297136D01*
X89467Y297038D01*
X89420Y296942D01*
X89370Y296847D01*
X89317Y296754D01*
X89260Y296664D01*
X89200Y296575D01*
X89137Y296489D01*
X89071Y296405D01*
X89001Y296323D01*
X88929Y296244D01*
X88854Y296168D01*
X88776Y296094D01*
X88696Y296024D01*
X88613Y295956D01*
X88528Y295891D01*
X88441Y295830D01*
X88351Y295771D01*
X88259Y295716D01*
X88166Y295664D01*
X88070Y295616D01*
X87973Y295571D01*
X87875Y295529D01*
X87775Y295492D01*
X87673Y295457D01*
X87571Y295427D01*
X87467Y295400D01*
X87363Y295377D01*
X87257Y295358D01*
X87151Y295343D01*
X87045Y295331D01*
X86938Y295323D01*
X86831Y295319D01*
X86725Y295319D01*
X86618Y295323D01*
X86511Y295331D01*
X86405Y295343D01*
X86299Y295358D01*
X86193Y295377D01*
X86089Y295400D01*
X85985Y295427D01*
X85883Y295457D01*
X85781Y295492D01*
X85681Y295529D01*
X85583Y295571D01*
X85486Y295616D01*
X85390Y295664D01*
X85296Y295716D01*
X85205Y295771D01*
X85115Y295830D01*
X85028Y295891D01*
X84943Y295956D01*
X84860Y296024D01*
X84780Y296094D01*
X84702Y296168D01*
X84627Y296244D01*
X84555Y296323D01*
X84485Y296405D01*
X84419Y296489D01*
X84356Y296575D01*
X84296Y296664D01*
X84239Y296754D01*
X84186Y296847D01*
X84136Y296942D01*
X84089Y297038D01*
X84046Y297136D01*
X84006Y297235D01*
X83970Y297336D01*
X83938Y297438D01*
X83909Y297541D01*
X83884Y297645D01*
X83863Y297750D01*
X83846Y297856D01*
X83832Y297962D01*
X83823Y298068D01*
X83817Y298175D01*
X83815Y298282D01*
X83814Y298282D02*
X83814Y301246D01*
X94287Y142537D02*
X86744Y134994D01*
X90096Y131641D01*
X95096Y126641D02*
X96772Y124965D01*
X95095Y126641D02*
X95029Y126710D01*
X94966Y126782D01*
X94906Y126856D01*
X94848Y126932D01*
X94794Y127011D01*
X94743Y127091D01*
X94695Y127174D01*
X94651Y127259D01*
X94610Y127345D01*
X94572Y127433D01*
X94539Y127522D01*
X94508Y127613D01*
X94482Y127704D01*
X94459Y127797D01*
X94440Y127891D01*
X94425Y127985D01*
X94413Y128080D01*
X94405Y128175D01*
X94401Y128270D01*
X94401Y128366D01*
X94405Y128461D01*
X94413Y128556D01*
X94425Y128651D01*
X94440Y128745D01*
X94459Y128839D01*
X94482Y128932D01*
X94508Y129023D01*
X94539Y129114D01*
X94572Y129203D01*
X94610Y129291D01*
X94651Y129377D01*
X94695Y129462D01*
X94743Y129545D01*
X94794Y129625D01*
X94848Y129704D01*
X94906Y129780D01*
X94966Y129854D01*
X95029Y129926D01*
X95095Y129995D01*
X95096Y129994D02*
X99287Y134185D01*
X99286Y134185D02*
X99355Y134251D01*
X99427Y134314D01*
X99501Y134374D01*
X99577Y134432D01*
X99656Y134486D01*
X99736Y134537D01*
X99819Y134585D01*
X99904Y134629D01*
X99990Y134670D01*
X100078Y134708D01*
X100167Y134741D01*
X100258Y134772D01*
X100349Y134798D01*
X100442Y134821D01*
X100536Y134840D01*
X100630Y134855D01*
X100725Y134867D01*
X100820Y134875D01*
X100915Y134879D01*
X101011Y134879D01*
X101106Y134875D01*
X101201Y134867D01*
X101296Y134855D01*
X101390Y134840D01*
X101484Y134821D01*
X101577Y134798D01*
X101668Y134772D01*
X101759Y134741D01*
X101848Y134708D01*
X101936Y134670D01*
X102022Y134629D01*
X102107Y134585D01*
X102190Y134537D01*
X102270Y134486D01*
X102349Y134432D01*
X102425Y134374D01*
X102499Y134314D01*
X102571Y134251D01*
X102640Y134185D01*
X102639Y134185D02*
X104316Y132508D01*
X108003Y128821D02*
X100459Y121278D01*
X108003Y128821D02*
X110098Y126726D01*
X110098Y126725D02*
X110172Y126649D01*
X110242Y126570D01*
X110310Y126489D01*
X110375Y126406D01*
X110437Y126320D01*
X110496Y126232D01*
X110551Y126142D01*
X110604Y126050D01*
X110653Y125956D01*
X110698Y125861D01*
X110740Y125764D01*
X110779Y125665D01*
X110814Y125566D01*
X110846Y125465D01*
X110874Y125363D01*
X110898Y125260D01*
X110919Y125156D01*
X110936Y125052D01*
X110949Y124947D01*
X110958Y124841D01*
X110964Y124736D01*
X110966Y124630D01*
X110964Y124524D01*
X110958Y124419D01*
X110949Y124313D01*
X110936Y124208D01*
X110919Y124104D01*
X110898Y124000D01*
X110874Y123897D01*
X110846Y123795D01*
X110814Y123694D01*
X110779Y123595D01*
X110740Y123496D01*
X110698Y123399D01*
X110653Y123304D01*
X110604Y123210D01*
X110551Y123118D01*
X110496Y123028D01*
X110437Y122940D01*
X110375Y122854D01*
X110310Y122771D01*
X110242Y122690D01*
X110172Y122611D01*
X110098Y122535D01*
X106746Y119182D01*
X106745Y119183D02*
X106667Y119108D01*
X106587Y119035D01*
X106503Y118966D01*
X106418Y118900D01*
X106330Y118837D01*
X106239Y118777D01*
X106147Y118721D01*
X106053Y118668D01*
X105956Y118619D01*
X105858Y118573D01*
X105759Y118530D01*
X105658Y118492D01*
X105555Y118457D01*
X105452Y118426D01*
X105347Y118398D01*
X105241Y118375D01*
X105135Y118355D01*
X105028Y118339D01*
X104920Y118327D01*
X104812Y118319D01*
X104704Y118315D01*
X104596Y118315D01*
X104488Y118319D01*
X104380Y118327D01*
X104272Y118339D01*
X104165Y118355D01*
X104059Y118375D01*
X103953Y118398D01*
X103848Y118426D01*
X103745Y118457D01*
X103642Y118492D01*
X103541Y118530D01*
X103442Y118573D01*
X103344Y118619D01*
X103247Y118668D01*
X103153Y118721D01*
X103061Y118777D01*
X102970Y118837D01*
X102882Y118900D01*
X102797Y118966D01*
X102713Y119035D01*
X102633Y119108D01*
X102555Y119183D01*
X102555Y119182D02*
X100459Y121278D01*
D10*
X106044Y146128D02*
X125760Y146128D01*
X106044Y146128D02*
X106044Y327048D01*
D14*
X53000Y358000D02*
X34000Y358000D01*
X53000Y358000D02*
X53000Y346000D01*
X53000Y307000D02*
X53000Y294000D01*
X34000Y294000D01*
X10000Y307000D02*
X10000Y345000D01*
X34000Y287000D02*
X53000Y287000D01*
X53000Y275000D01*
X53000Y236000D02*
X53000Y224000D01*
X35000Y224000D01*
X10000Y237000D02*
X10000Y274000D01*
X33000Y216000D02*
X53000Y216000D01*
X53000Y205000D01*
X53000Y165000D02*
X53000Y153000D01*
X34000Y153000D01*
X10000Y166000D02*
X10000Y203000D01*
X54000Y143000D02*
X41000Y130000D01*
X54000Y143000D02*
X56000Y143000D01*
X64000Y135000D01*
X105000Y93000D02*
X114000Y84000D01*
X101000Y71000D01*
X74000Y64000D02*
X35000Y103000D01*
X182000Y103000D02*
X193000Y103000D01*
D15*
X140588Y104492D02*
X135508Y104492D01*
X135508Y102234D01*
X135508Y99737D02*
X135508Y97479D01*
X135508Y99737D02*
X140588Y99737D01*
X140588Y97479D01*
X138330Y98044D02*
X138330Y99737D01*
X140588Y94999D02*
X135508Y94999D01*
X140588Y94999D02*
X140588Y93588D01*
X140586Y93514D01*
X140580Y93441D01*
X140571Y93367D01*
X140557Y93295D01*
X140540Y93223D01*
X140519Y93152D01*
X140494Y93082D01*
X140466Y93014D01*
X140434Y92947D01*
X140399Y92883D01*
X140360Y92820D01*
X140319Y92759D01*
X140274Y92700D01*
X140226Y92644D01*
X140175Y92590D01*
X140121Y92539D01*
X140065Y92491D01*
X140006Y92446D01*
X139945Y92405D01*
X139883Y92366D01*
X139818Y92331D01*
X139751Y92299D01*
X139683Y92271D01*
X139613Y92246D01*
X139542Y92225D01*
X139470Y92208D01*
X139398Y92194D01*
X139324Y92185D01*
X139251Y92179D01*
X139177Y92177D01*
X136919Y92177D01*
X136845Y92179D01*
X136772Y92185D01*
X136698Y92194D01*
X136626Y92208D01*
X136554Y92225D01*
X136483Y92246D01*
X136413Y92271D01*
X136345Y92299D01*
X136278Y92331D01*
X136214Y92366D01*
X136151Y92405D01*
X136090Y92446D01*
X136031Y92491D01*
X135975Y92539D01*
X135921Y92590D01*
X135870Y92644D01*
X135822Y92700D01*
X135777Y92759D01*
X135736Y92820D01*
X135697Y92883D01*
X135662Y92947D01*
X135630Y93014D01*
X135602Y93082D01*
X135577Y93152D01*
X135556Y93223D01*
X135539Y93295D01*
X135525Y93367D01*
X135516Y93441D01*
X135510Y93514D01*
X135508Y93588D01*
X135508Y94999D01*
D14*
X145906Y113866D02*
X145906Y119866D01*
X142926Y81432D02*
X148926Y81432D01*
X146000Y79000D02*
X146000Y84000D01*
D15*
X170508Y109492D02*
X175588Y109492D01*
X175588Y108081D01*
X175586Y108007D01*
X175580Y107934D01*
X175571Y107860D01*
X175557Y107788D01*
X175540Y107716D01*
X175519Y107645D01*
X175494Y107575D01*
X175466Y107507D01*
X175434Y107440D01*
X175399Y107376D01*
X175360Y107313D01*
X175319Y107252D01*
X175274Y107193D01*
X175226Y107137D01*
X175175Y107083D01*
X175121Y107032D01*
X175065Y106984D01*
X175006Y106939D01*
X174945Y106898D01*
X174883Y106859D01*
X174818Y106824D01*
X174751Y106792D01*
X174683Y106764D01*
X174613Y106739D01*
X174542Y106718D01*
X174470Y106701D01*
X174398Y106687D01*
X174324Y106678D01*
X174251Y106672D01*
X174177Y106670D01*
X174103Y106672D01*
X174030Y106678D01*
X173956Y106687D01*
X173884Y106701D01*
X173812Y106718D01*
X173741Y106739D01*
X173671Y106764D01*
X173603Y106792D01*
X173536Y106824D01*
X173472Y106859D01*
X173409Y106898D01*
X173348Y106939D01*
X173289Y106984D01*
X173233Y107032D01*
X173179Y107083D01*
X173128Y107137D01*
X173080Y107193D01*
X173035Y107252D01*
X172994Y107313D01*
X172955Y107376D01*
X172920Y107440D01*
X172888Y107507D01*
X172860Y107575D01*
X172835Y107645D01*
X172814Y107716D01*
X172797Y107788D01*
X172783Y107860D01*
X172774Y107934D01*
X172768Y108007D01*
X172766Y108081D01*
X172766Y109492D01*
X172766Y107799D02*
X170508Y106670D01*
X174459Y104060D02*
X175588Y102649D01*
X170508Y102649D01*
X170508Y104060D02*
X170508Y101238D01*
X174459Y95648D02*
X175588Y94237D01*
X170508Y94237D01*
X170508Y95648D02*
X170508Y92826D01*
X170508Y89962D02*
X175588Y89962D01*
X173895Y87704D02*
X172201Y89962D01*
X172907Y88974D02*
X170508Y87704D01*
D14*
X341000Y76000D02*
X341000Y112000D01*
X317000Y126000D02*
X298000Y126000D01*
X298000Y114000D01*
X298000Y75000D02*
X298000Y63000D01*
X317000Y63000D01*
D13*
X285684Y118360D02*
X275016Y125472D01*
X275016Y118360D02*
X285684Y125472D01*
X280943Y112815D02*
X280943Y109851D01*
X280942Y109851D02*
X280940Y109744D01*
X280934Y109637D01*
X280925Y109531D01*
X280911Y109425D01*
X280894Y109319D01*
X280873Y109214D01*
X280848Y109110D01*
X280819Y109007D01*
X280787Y108905D01*
X280751Y108804D01*
X280711Y108705D01*
X280668Y108607D01*
X280621Y108511D01*
X280571Y108416D01*
X280518Y108323D01*
X280461Y108233D01*
X280401Y108144D01*
X280338Y108058D01*
X280272Y107974D01*
X280202Y107892D01*
X280130Y107813D01*
X280055Y107737D01*
X279977Y107663D01*
X279897Y107593D01*
X279814Y107525D01*
X279729Y107460D01*
X279642Y107399D01*
X279552Y107340D01*
X279461Y107285D01*
X279367Y107233D01*
X279271Y107185D01*
X279174Y107140D01*
X279076Y107098D01*
X278976Y107061D01*
X278874Y107026D01*
X278772Y106996D01*
X278668Y106969D01*
X278564Y106946D01*
X278458Y106927D01*
X278352Y106912D01*
X278246Y106900D01*
X278139Y106892D01*
X278032Y106888D01*
X277926Y106888D01*
X277819Y106892D01*
X277712Y106900D01*
X277606Y106912D01*
X277500Y106927D01*
X277394Y106946D01*
X277290Y106969D01*
X277186Y106996D01*
X277084Y107026D01*
X276982Y107061D01*
X276882Y107098D01*
X276784Y107140D01*
X276687Y107185D01*
X276591Y107233D01*
X276498Y107285D01*
X276406Y107340D01*
X276316Y107399D01*
X276229Y107460D01*
X276144Y107525D01*
X276061Y107593D01*
X275981Y107663D01*
X275903Y107737D01*
X275828Y107813D01*
X275756Y107892D01*
X275686Y107974D01*
X275620Y108058D01*
X275557Y108144D01*
X275497Y108233D01*
X275440Y108323D01*
X275387Y108416D01*
X275337Y108511D01*
X275290Y108607D01*
X275247Y108705D01*
X275207Y108804D01*
X275171Y108905D01*
X275139Y109007D01*
X275110Y109110D01*
X275085Y109214D01*
X275064Y109319D01*
X275047Y109425D01*
X275033Y109531D01*
X275024Y109637D01*
X275018Y109744D01*
X275016Y109851D01*
X275016Y112815D01*
X285684Y112815D01*
X285684Y109851D01*
X285682Y109754D01*
X285676Y109658D01*
X285666Y109562D01*
X285652Y109466D01*
X285635Y109371D01*
X285613Y109276D01*
X285588Y109183D01*
X285559Y109091D01*
X285526Y109000D01*
X285489Y108910D01*
X285449Y108822D01*
X285405Y108736D01*
X285358Y108652D01*
X285308Y108569D01*
X285254Y108489D01*
X285196Y108411D01*
X285136Y108335D01*
X285073Y108262D01*
X285007Y108192D01*
X284937Y108124D01*
X284866Y108059D01*
X284791Y107997D01*
X284714Y107939D01*
X284635Y107883D01*
X284554Y107831D01*
X284470Y107782D01*
X284385Y107736D01*
X284298Y107694D01*
X284209Y107656D01*
X284119Y107621D01*
X284027Y107590D01*
X283934Y107563D01*
X283841Y107539D01*
X283746Y107520D01*
X283650Y107504D01*
X283554Y107492D01*
X283458Y107484D01*
X283361Y107480D01*
X283265Y107480D01*
X283168Y107484D01*
X283072Y107492D01*
X282976Y107504D01*
X282880Y107520D01*
X282785Y107539D01*
X282692Y107563D01*
X282599Y107590D01*
X282507Y107621D01*
X282417Y107656D01*
X282328Y107694D01*
X282241Y107736D01*
X282156Y107782D01*
X282072Y107831D01*
X281991Y107883D01*
X281912Y107939D01*
X281835Y107997D01*
X281760Y108059D01*
X281689Y108124D01*
X281619Y108192D01*
X281553Y108262D01*
X281490Y108335D01*
X281430Y108411D01*
X281372Y108489D01*
X281318Y108569D01*
X281268Y108652D01*
X281221Y108736D01*
X281177Y108822D01*
X281137Y108910D01*
X281100Y109000D01*
X281067Y109091D01*
X281038Y109183D01*
X281013Y109276D01*
X280991Y109371D01*
X280974Y109466D01*
X280960Y109562D01*
X280950Y109658D01*
X280944Y109754D01*
X280942Y109851D01*
X285684Y95246D02*
X275016Y95246D01*
X275016Y94061D02*
X275016Y96432D01*
X285684Y96432D02*
X285684Y94061D01*
X285684Y85806D02*
X285682Y85704D01*
X285676Y85602D01*
X285666Y85500D01*
X285653Y85399D01*
X285635Y85298D01*
X285614Y85198D01*
X285589Y85099D01*
X285560Y85001D01*
X285527Y84904D01*
X285491Y84809D01*
X285451Y84715D01*
X285407Y84623D01*
X285360Y84532D01*
X285309Y84443D01*
X285256Y84356D01*
X285198Y84272D01*
X285138Y84189D01*
X285075Y84109D01*
X285008Y84032D01*
X284939Y83957D01*
X284866Y83884D01*
X284791Y83815D01*
X284714Y83748D01*
X284634Y83685D01*
X284551Y83625D01*
X284467Y83567D01*
X284380Y83514D01*
X284291Y83463D01*
X284200Y83416D01*
X284108Y83372D01*
X284014Y83332D01*
X283918Y83296D01*
X283822Y83263D01*
X283724Y83234D01*
X283625Y83209D01*
X283525Y83188D01*
X283424Y83170D01*
X283323Y83157D01*
X283221Y83147D01*
X283119Y83141D01*
X283017Y83139D01*
X285684Y85806D02*
X285682Y85922D01*
X285676Y86039D01*
X285666Y86155D01*
X285652Y86270D01*
X285635Y86385D01*
X285613Y86500D01*
X285587Y86613D01*
X285558Y86726D01*
X285525Y86838D01*
X285488Y86948D01*
X285447Y87057D01*
X285403Y87165D01*
X285355Y87271D01*
X285303Y87375D01*
X285248Y87478D01*
X285190Y87579D01*
X285128Y87677D01*
X285063Y87774D01*
X284994Y87868D01*
X284922Y87960D01*
X284848Y88049D01*
X284770Y88136D01*
X284689Y88220D01*
X284606Y88301D01*
X284520Y88379D01*
X284431Y88455D01*
X284340Y88527D01*
X284246Y88596D01*
X284150Y88662D01*
X284052Y88725D01*
X283952Y88784D01*
X283850Y88840D01*
X283746Y88892D01*
X283640Y88941D01*
X283532Y88986D01*
X283424Y89028D01*
X283313Y89065D01*
X280942Y84027D02*
X281016Y83952D01*
X281093Y83880D01*
X281173Y83811D01*
X281255Y83744D01*
X281339Y83681D01*
X281426Y83621D01*
X281514Y83564D01*
X281605Y83510D01*
X281698Y83460D01*
X281792Y83413D01*
X281888Y83370D01*
X281986Y83330D01*
X282085Y83294D01*
X282185Y83261D01*
X282287Y83233D01*
X282389Y83208D01*
X282493Y83186D01*
X282597Y83169D01*
X282701Y83155D01*
X282806Y83146D01*
X282912Y83140D01*
X283017Y83138D01*
X280943Y84028D02*
X275016Y89066D01*
X275016Y83139D01*
X275016Y75315D02*
X275016Y72944D01*
X275016Y75315D02*
X275018Y75410D01*
X275024Y75506D01*
X275033Y75601D01*
X275047Y75695D01*
X275064Y75789D01*
X275085Y75882D01*
X275110Y75975D01*
X275138Y76066D01*
X275170Y76156D01*
X275206Y76244D01*
X275245Y76331D01*
X275288Y76417D01*
X275334Y76501D01*
X275383Y76582D01*
X275436Y76662D01*
X275492Y76739D01*
X275550Y76815D01*
X275612Y76887D01*
X275677Y76957D01*
X275745Y77025D01*
X275815Y77090D01*
X275887Y77152D01*
X275963Y77210D01*
X276040Y77266D01*
X276120Y77319D01*
X276202Y77368D01*
X276285Y77414D01*
X276371Y77457D01*
X276458Y77496D01*
X276546Y77532D01*
X276636Y77564D01*
X276727Y77592D01*
X276820Y77617D01*
X276913Y77638D01*
X277007Y77655D01*
X277101Y77669D01*
X277196Y77678D01*
X277292Y77684D01*
X277387Y77686D01*
X277387Y77685D02*
X283313Y77685D01*
X283313Y77686D02*
X283408Y77684D01*
X283504Y77678D01*
X283599Y77669D01*
X283693Y77655D01*
X283787Y77638D01*
X283880Y77617D01*
X283973Y77592D01*
X284064Y77564D01*
X284154Y77532D01*
X284242Y77496D01*
X284329Y77457D01*
X284415Y77414D01*
X284498Y77368D01*
X284580Y77319D01*
X284660Y77266D01*
X284737Y77210D01*
X284813Y77152D01*
X284885Y77090D01*
X284955Y77025D01*
X285023Y76957D01*
X285088Y76887D01*
X285150Y76815D01*
X285208Y76739D01*
X285264Y76662D01*
X285317Y76582D01*
X285366Y76501D01*
X285412Y76417D01*
X285455Y76331D01*
X285494Y76244D01*
X285530Y76156D01*
X285562Y76066D01*
X285590Y75975D01*
X285615Y75882D01*
X285636Y75789D01*
X285653Y75695D01*
X285667Y75601D01*
X285676Y75506D01*
X285682Y75411D01*
X285684Y75315D01*
X285684Y72944D01*
D15*
X256508Y81508D02*
X256508Y86588D01*
X257919Y86588D01*
X257993Y86586D01*
X258066Y86580D01*
X258140Y86571D01*
X258212Y86557D01*
X258284Y86540D01*
X258355Y86519D01*
X258425Y86494D01*
X258493Y86466D01*
X258560Y86434D01*
X258624Y86399D01*
X258687Y86360D01*
X258748Y86319D01*
X258807Y86274D01*
X258863Y86226D01*
X258917Y86175D01*
X258968Y86121D01*
X259016Y86065D01*
X259061Y86006D01*
X259102Y85945D01*
X259141Y85883D01*
X259176Y85818D01*
X259208Y85751D01*
X259236Y85683D01*
X259261Y85613D01*
X259282Y85542D01*
X259299Y85470D01*
X259313Y85398D01*
X259322Y85324D01*
X259328Y85251D01*
X259330Y85177D01*
X259328Y85103D01*
X259322Y85030D01*
X259313Y84956D01*
X259299Y84884D01*
X259282Y84812D01*
X259261Y84741D01*
X259236Y84671D01*
X259208Y84603D01*
X259176Y84536D01*
X259141Y84472D01*
X259102Y84409D01*
X259061Y84348D01*
X259016Y84289D01*
X258968Y84233D01*
X258917Y84179D01*
X258863Y84128D01*
X258807Y84080D01*
X258748Y84035D01*
X258687Y83994D01*
X258625Y83955D01*
X258560Y83920D01*
X258493Y83888D01*
X258425Y83860D01*
X258355Y83835D01*
X258284Y83814D01*
X258212Y83797D01*
X258140Y83783D01*
X258066Y83774D01*
X257993Y83768D01*
X257919Y83766D01*
X256508Y83766D01*
X258201Y83766D02*
X259330Y81508D01*
X262123Y81508D02*
X262123Y86588D01*
X264945Y81508D01*
X264945Y86588D01*
D16*
X214367Y78675D02*
X214367Y71817D01*
X213605Y71817D02*
X215129Y71817D01*
X215129Y78675D02*
X213605Y78675D01*
X219807Y71817D02*
X221331Y71817D01*
X219807Y71817D02*
X219730Y71819D01*
X219653Y71825D01*
X219576Y71835D01*
X219500Y71848D01*
X219425Y71866D01*
X219351Y71887D01*
X219278Y71912D01*
X219206Y71941D01*
X219136Y71973D01*
X219067Y72008D01*
X219001Y72048D01*
X218936Y72090D01*
X218874Y72136D01*
X218814Y72185D01*
X218757Y72236D01*
X218702Y72291D01*
X218651Y72348D01*
X218602Y72408D01*
X218556Y72470D01*
X218514Y72535D01*
X218474Y72601D01*
X218439Y72670D01*
X218407Y72740D01*
X218378Y72812D01*
X218353Y72885D01*
X218332Y72959D01*
X218314Y73034D01*
X218301Y73110D01*
X218291Y73187D01*
X218285Y73264D01*
X218283Y73341D01*
X218283Y77151D01*
X218285Y77228D01*
X218291Y77305D01*
X218301Y77382D01*
X218314Y77458D01*
X218332Y77533D01*
X218353Y77607D01*
X218378Y77680D01*
X218407Y77752D01*
X218439Y77822D01*
X218474Y77891D01*
X218514Y77957D01*
X218556Y78022D01*
X218602Y78084D01*
X218651Y78144D01*
X218702Y78201D01*
X218757Y78256D01*
X218814Y78307D01*
X218874Y78356D01*
X218936Y78402D01*
X219001Y78444D01*
X219067Y78484D01*
X219136Y78519D01*
X219206Y78551D01*
X219278Y78580D01*
X219351Y78605D01*
X219425Y78626D01*
X219500Y78644D01*
X219576Y78657D01*
X219653Y78667D01*
X219730Y78673D01*
X219807Y78675D01*
X221331Y78675D01*
X224410Y77151D02*
X226315Y78675D01*
X226315Y71817D01*
X224410Y71817D02*
X228220Y71817D01*
D17*
X137709Y3619D02*
X340909Y3619D01*
X340909Y53919D01*
X137709Y53919D01*
X137709Y3619D01*
D18*
X127709Y-6631D02*
X350909Y-6631D01*
X350909Y63919D01*
X127709Y63919D01*
X127709Y-6631D01*
D10*
X165178Y95398D02*
X165178Y104038D01*
X158058Y104038D02*
X158058Y95398D01*
D19*
X161618Y106068D03*
X161618Y93368D03*
D15*
X141687Y94863D02*
X141687Y103863D01*
X149687Y103863D02*
X149687Y94863D01*
D20*
X145687Y105863D03*
X145687Y92863D03*
D21*
X233500Y81750D02*
X233500Y118250D01*
X233500Y81750D02*
X206500Y81750D01*
X206500Y118250D01*
X233500Y118250D01*
D18*
X230000Y106250D02*
X230000Y93750D01*
X210000Y93750D01*
X210000Y106250D01*
X230000Y106250D01*
X223500Y106250D02*
X230000Y99750D01*
D22*
X194250Y108500D02*
X181750Y108500D01*
X194250Y108500D02*
X194250Y91500D01*
X181750Y91500D01*
X181750Y108500D01*
D16*
X249500Y105500D02*
X270500Y105500D01*
X270500Y94500D01*
X249500Y94500D01*
X249500Y105500D01*
D17*
X251500Y86000D02*
X251502Y86063D01*
X251508Y86125D01*
X251518Y86187D01*
X251531Y86249D01*
X251549Y86309D01*
X251570Y86368D01*
X251595Y86426D01*
X251624Y86482D01*
X251656Y86536D01*
X251691Y86588D01*
X251729Y86637D01*
X251771Y86685D01*
X251815Y86729D01*
X251863Y86771D01*
X251912Y86809D01*
X251964Y86844D01*
X252018Y86876D01*
X252074Y86905D01*
X252132Y86930D01*
X252191Y86951D01*
X252251Y86969D01*
X252313Y86982D01*
X252375Y86992D01*
X252437Y86998D01*
X252500Y87000D01*
X252563Y86998D01*
X252625Y86992D01*
X252687Y86982D01*
X252749Y86969D01*
X252809Y86951D01*
X252868Y86930D01*
X252926Y86905D01*
X252982Y86876D01*
X253036Y86844D01*
X253088Y86809D01*
X253137Y86771D01*
X253185Y86729D01*
X253229Y86685D01*
X253271Y86637D01*
X253309Y86588D01*
X253344Y86536D01*
X253376Y86482D01*
X253405Y86426D01*
X253430Y86368D01*
X253451Y86309D01*
X253469Y86249D01*
X253482Y86187D01*
X253492Y86125D01*
X253498Y86063D01*
X253500Y86000D01*
X253498Y85937D01*
X253492Y85875D01*
X253482Y85813D01*
X253469Y85751D01*
X253451Y85691D01*
X253430Y85632D01*
X253405Y85574D01*
X253376Y85518D01*
X253344Y85464D01*
X253309Y85412D01*
X253271Y85363D01*
X253229Y85315D01*
X253185Y85271D01*
X253137Y85229D01*
X253088Y85191D01*
X253036Y85156D01*
X252982Y85124D01*
X252926Y85095D01*
X252868Y85070D01*
X252809Y85049D01*
X252749Y85031D01*
X252687Y85018D01*
X252625Y85008D01*
X252563Y85002D01*
X252500Y85000D01*
X252437Y85002D01*
X252375Y85008D01*
X252313Y85018D01*
X252251Y85031D01*
X252191Y85049D01*
X252132Y85070D01*
X252074Y85095D01*
X252018Y85124D01*
X251964Y85156D01*
X251912Y85191D01*
X251863Y85229D01*
X251815Y85271D01*
X251771Y85315D01*
X251729Y85363D01*
X251691Y85412D01*
X251656Y85464D01*
X251624Y85518D01*
X251595Y85574D01*
X251570Y85632D01*
X251549Y85691D01*
X251531Y85751D01*
X251518Y85813D01*
X251508Y85875D01*
X251502Y85937D01*
X251500Y86000D01*
M02*
