G04 EAGLE Gerber X2 export*
%TF.Part,Single*%
%TF.FileFunction,Other,Top Paste*%
%TF.FilePolarity,Positive*%
%TF.GenerationSoftware,Autodesk,EAGLE,9.6.2*%
%TF.CreationDate,2025-02-28T08:43:12Z*%
G75*
%MOMM*%
%FSLAX34Y34*%
%LPD*%
%INTop Paste*%
%AMOC8*
5,1,8,0,0,1.08239X$1,22.5*%
G01*
%ADD10R,1.100000X1.000000*%
%ADD11R,0.800000X0.800000*%
%ADD12R,0.508000X1.701800*%
%ADD13R,1.193800X2.489200*%
%ADD14R,1.701800X0.508000*%
%ADD15R,2.489200X1.193800*%
%ADD16R,0.450000X0.950000*%
%ADD17R,0.900000X0.800000*%
%ADD18C,0.072500*%


D10*
X161618Y91218D03*
X161618Y108218D03*
D11*
X145687Y106863D03*
X145687Y91863D03*
D12*
G36*
X63523Y124134D02*
X59931Y127726D01*
X71963Y139758D01*
X75555Y136166D01*
X63523Y124134D01*
G37*
G36*
X70528Y117130D02*
X66936Y120722D01*
X78968Y132754D01*
X82560Y129162D01*
X70528Y117130D01*
G37*
G36*
X77532Y110125D02*
X73940Y113717D01*
X85972Y125749D01*
X89564Y122157D01*
X77532Y110125D01*
G37*
G36*
X84717Y102941D02*
X81125Y106533D01*
X93157Y118565D01*
X96749Y114973D01*
X84717Y102941D01*
G37*
G36*
X91721Y95936D02*
X88129Y99528D01*
X100161Y111560D01*
X103753Y107968D01*
X91721Y95936D01*
G37*
G36*
X98726Y88932D02*
X95134Y92524D01*
X107166Y104556D01*
X110758Y100964D01*
X98726Y88932D01*
G37*
D13*
G36*
X82202Y51753D02*
X73760Y60195D01*
X91360Y77795D01*
X99802Y69353D01*
X82202Y51753D01*
G37*
G36*
X31195Y102761D02*
X22753Y111203D01*
X40353Y128803D01*
X48795Y120361D01*
X31195Y102761D01*
G37*
D14*
X54213Y270418D03*
X54213Y260512D03*
X54213Y250352D03*
X54213Y240446D03*
D15*
X20177Y229524D03*
X20177Y281340D03*
D14*
X54009Y199610D03*
X54009Y189704D03*
X54009Y179544D03*
X54009Y169638D03*
D15*
X19973Y158716D03*
X19973Y210532D03*
D14*
X54318Y340897D03*
X54318Y330991D03*
X54318Y320831D03*
X54318Y310925D03*
D15*
X20282Y300003D03*
X20282Y351819D03*
D16*
X226500Y111000D03*
X220000Y111000D03*
X213500Y111000D03*
X213500Y89000D03*
X220000Y89000D03*
X226500Y89000D03*
D17*
X188000Y110500D03*
X188000Y89500D03*
D18*
X253588Y101812D02*
X253588Y109788D01*
X253588Y101812D02*
X251412Y101812D01*
X251412Y109788D01*
X253588Y109788D01*
X253588Y102501D02*
X251412Y102501D01*
X251412Y103190D02*
X253588Y103190D01*
X253588Y103879D02*
X251412Y103879D01*
X251412Y104568D02*
X253588Y104568D01*
X253588Y105257D02*
X251412Y105257D01*
X251412Y105946D02*
X253588Y105946D01*
X253588Y106635D02*
X251412Y106635D01*
X251412Y107324D02*
X253588Y107324D01*
X253588Y108013D02*
X251412Y108013D01*
X251412Y108702D02*
X253588Y108702D01*
X253588Y109391D02*
X251412Y109391D01*
X258588Y109788D02*
X258588Y101812D01*
X256412Y101812D01*
X256412Y109788D01*
X258588Y109788D01*
X258588Y102501D02*
X256412Y102501D01*
X256412Y103190D02*
X258588Y103190D01*
X258588Y103879D02*
X256412Y103879D01*
X256412Y104568D02*
X258588Y104568D01*
X258588Y105257D02*
X256412Y105257D01*
X256412Y105946D02*
X258588Y105946D01*
X258588Y106635D02*
X256412Y106635D01*
X256412Y107324D02*
X258588Y107324D01*
X258588Y108013D02*
X256412Y108013D01*
X256412Y108702D02*
X258588Y108702D01*
X258588Y109391D02*
X256412Y109391D01*
X263588Y109788D02*
X263588Y101812D01*
X261412Y101812D01*
X261412Y109788D01*
X263588Y109788D01*
X263588Y102501D02*
X261412Y102501D01*
X261412Y103190D02*
X263588Y103190D01*
X263588Y103879D02*
X261412Y103879D01*
X261412Y104568D02*
X263588Y104568D01*
X263588Y105257D02*
X261412Y105257D01*
X261412Y105946D02*
X263588Y105946D01*
X263588Y106635D02*
X261412Y106635D01*
X261412Y107324D02*
X263588Y107324D01*
X263588Y108013D02*
X261412Y108013D01*
X261412Y108702D02*
X263588Y108702D01*
X263588Y109391D02*
X261412Y109391D01*
X268588Y109788D02*
X268588Y101812D01*
X266412Y101812D01*
X266412Y109788D01*
X268588Y109788D01*
X268588Y102501D02*
X266412Y102501D01*
X266412Y103190D02*
X268588Y103190D01*
X268588Y103879D02*
X266412Y103879D01*
X266412Y104568D02*
X268588Y104568D01*
X268588Y105257D02*
X266412Y105257D01*
X266412Y105946D02*
X268588Y105946D01*
X268588Y106635D02*
X266412Y106635D01*
X266412Y107324D02*
X268588Y107324D01*
X268588Y108013D02*
X266412Y108013D01*
X266412Y108702D02*
X268588Y108702D01*
X268588Y109391D02*
X266412Y109391D01*
X253588Y98188D02*
X253588Y90212D01*
X251412Y90212D01*
X251412Y98188D01*
X253588Y98188D01*
X253588Y90901D02*
X251412Y90901D01*
X251412Y91590D02*
X253588Y91590D01*
X253588Y92279D02*
X251412Y92279D01*
X251412Y92968D02*
X253588Y92968D01*
X253588Y93657D02*
X251412Y93657D01*
X251412Y94346D02*
X253588Y94346D01*
X253588Y95035D02*
X251412Y95035D01*
X251412Y95724D02*
X253588Y95724D01*
X253588Y96413D02*
X251412Y96413D01*
X251412Y97102D02*
X253588Y97102D01*
X253588Y97791D02*
X251412Y97791D01*
X258588Y98188D02*
X258588Y90212D01*
X256412Y90212D01*
X256412Y98188D01*
X258588Y98188D01*
X258588Y90901D02*
X256412Y90901D01*
X256412Y91590D02*
X258588Y91590D01*
X258588Y92279D02*
X256412Y92279D01*
X256412Y92968D02*
X258588Y92968D01*
X258588Y93657D02*
X256412Y93657D01*
X256412Y94346D02*
X258588Y94346D01*
X258588Y95035D02*
X256412Y95035D01*
X256412Y95724D02*
X258588Y95724D01*
X258588Y96413D02*
X256412Y96413D01*
X256412Y97102D02*
X258588Y97102D01*
X258588Y97791D02*
X256412Y97791D01*
X263588Y98188D02*
X263588Y90212D01*
X261412Y90212D01*
X261412Y98188D01*
X263588Y98188D01*
X263588Y90901D02*
X261412Y90901D01*
X261412Y91590D02*
X263588Y91590D01*
X263588Y92279D02*
X261412Y92279D01*
X261412Y92968D02*
X263588Y92968D01*
X263588Y93657D02*
X261412Y93657D01*
X261412Y94346D02*
X263588Y94346D01*
X263588Y95035D02*
X261412Y95035D01*
X261412Y95724D02*
X263588Y95724D01*
X263588Y96413D02*
X261412Y96413D01*
X261412Y97102D02*
X263588Y97102D01*
X263588Y97791D02*
X261412Y97791D01*
X268588Y98188D02*
X268588Y90212D01*
X266412Y90212D01*
X266412Y98188D01*
X268588Y98188D01*
X268588Y90901D02*
X266412Y90901D01*
X266412Y91590D02*
X268588Y91590D01*
X268588Y92279D02*
X266412Y92279D01*
X266412Y92968D02*
X268588Y92968D01*
X268588Y93657D02*
X266412Y93657D01*
X266412Y94346D02*
X268588Y94346D01*
X268588Y95035D02*
X266412Y95035D01*
X266412Y95724D02*
X268588Y95724D01*
X268588Y96413D02*
X266412Y96413D01*
X266412Y97102D02*
X268588Y97102D01*
X268588Y97791D02*
X266412Y97791D01*
D14*
X296946Y79230D03*
X296946Y89136D03*
X296946Y99296D03*
X296946Y109202D03*
D15*
X330982Y120124D03*
X330982Y68308D03*
M02*
