M48
;GenerationSoftware,Autodesk,EAGLE,9.6.2*%
;CreationDate,2025-02-28T08:43:12Z*%
FMAT,2
ICI,OFF
METRIC,TZ,000.000
T3C0.350
T2C0.970
T1C1.000
%
G90
M71
T1
X32600Y16248
X30132Y16219
X27558Y16244
X25004Y16263
X22430Y16244
X19946Y16236
X17371Y16196
X14820Y16236
X12245Y16228
X11895Y18771
X11877Y21223
X17375Y14816
X11839Y23778
X11861Y26219
X11876Y28746
X12245Y31410
X14819Y31426
X17375Y31410
X19945Y31421
X22434Y31412
X25006Y31432
X27562Y31403
X30135Y31407
X32598Y31421
X32600Y14800
X30134Y14830
X27562Y14830
X25005Y14814
X22433Y14814
X19947Y14816
X12246Y32800
X14818Y32800
X10500Y18775
X10500Y21220
X10500Y23775
X10500Y26220
X10500Y28746
X17375Y32816
X19947Y32816
X22433Y32814
X25005Y32814
X27562Y32830
X30134Y32830
X32600Y32800
X12246Y14800
X14818Y14800
T2
X20121Y4147
X15041Y4147
X15041Y1607
X17581Y4147
X17581Y1607
X20121Y1607
X22661Y4147
X22661Y1607
X25201Y4147
X25201Y1607
X27741Y4147
X27741Y1607
X30281Y4147
X30281Y1607
X32821Y4147
X32821Y1607
T3
X4400Y29200
X4000Y33200
X6400Y11600
X3600Y31600
X31600Y2800
X1600Y26000
X31200Y8800
X2400Y24800
X32000Y10000
X21200Y17600
X24000Y8800
X13600Y5600
X11600Y5200
X23607Y5871
X26831Y12000
X19772Y11076
X2800Y34100
X2800Y26900
X3717Y28000
X11200Y11600
X2800Y18000
X12800Y7600
X16800Y7600
X19200Y8000
X22408Y7171
X24669Y7200
X27331Y8000
X7200Y10800
X7839Y10100
X8563Y9468
M30